<?xml version="1.0" encoding="UTF-8" standalone="no"?>
<!-- Created with Inkscape (http://www.inkscape.org/) -->

<svg
   width="210mm"
   height="297mm"
   viewBox="0 0 210 297"
   version="1.1"
   id="svg5"
   xml:space="preserve"
   inkscape:version="1.2 (dc2aedaf03, 2022-05-15)"
   sodipodi:docname="base plate.svg"
   xmlns:inkscape="http://www.inkscape.org/namespaces/inkscape"
   xmlns:sodipodi="http://sodipodi.sourceforge.net/DTD/sodipodi-0.dtd"
   xmlns="http://www.w3.org/2000/svg"
   xmlns:svg="http://www.w3.org/2000/svg"><sodipodi:namedview
     id="namedview7"
     pagecolor="#ffffff"
     bordercolor="#666666"
     borderopacity="1.0"
     inkscape:showpageshadow="2"
     inkscape:pageopacity="0.0"
     inkscape:pagecheckerboard="0"
     inkscape:deskcolor="#d1d1d1"
     inkscape:document-units="mm"
     showgrid="false"
     inkscape:zoom="1.829812"
     inkscape:cx="220.78771"
     inkscape:cy="325.17002"
     inkscape:window-width="2560"
     inkscape:window-height="1377"
     inkscape:window-x="2552"
     inkscape:window-y="587"
     inkscape:window-maximized="1"
     inkscape:current-layer="g22705" /><defs
     id="defs2" /><g
     inkscape:label="Layer 1"
     inkscape:groupmode="layer"
     id="layer1"><g
       id="g11091"
       transform="matrix(0.35277778,0,0,0.35277778,-124.62978,16.163534)"><g
         id="g22705"
         transform="translate(-336.63882,-193.92685)"><path
           fill="none"
           stroke-width="0.24"
           stroke-linecap="round"
           stroke-linejoin="round"
           stroke="#000000"
           stroke-opacity="1"
           stroke-miterlimit="10"
           d="m 997.57743,543.22629 c 0,1.5586 -0.6016,3 -1.6797,3.95704 -0.9609,1.08202 -2.4023,1.68359 -3.9609,1.68359"
           id="path11337-0"
           style="fill:none;stroke:#fe0000;stroke-opacity:1" /><path
           fill="none"
           stroke-width="0.24"
           stroke-linecap="round"
           stroke-linejoin="round"
           stroke="#000000"
           stroke-opacity="1"
           stroke-miterlimit="10"
           d="m 732.49533,548.86692 c -1.5585,0 -3,-0.60157 -3.957,-1.68359 -1.082,-0.95704 -1.6836,-2.39844 -1.6836,-3.95704"
           id="path11347-4"
           style="fill:none;stroke:#fe0000;stroke-opacity:1" /><path
           fill="none"
           stroke-width="0.24"
           stroke-linecap="round"
           stroke-linejoin="round"
           stroke="#000000"
           stroke-opacity="1"
           stroke-miterlimit="10"
           d="M 991.93683,548.86692 H 732.49533"
           id="path11355-8"
           style="fill:none;stroke:#fe0000;stroke-opacity:1" /><path
           fill="none"
           stroke-width="0.24"
           stroke-linecap="round"
           stroke-linejoin="round"
           stroke="#000000"
           stroke-opacity="1"
           stroke-miterlimit="10"
           d="m 732.49533,179.02708 h 259.4415"
           id="path11375-9"
           style="fill:none;stroke:#fe0000;stroke-opacity:1" /><path
           fill="none"
           stroke-width="0.24"
           stroke-linecap="round"
           stroke-linejoin="round"
           stroke="#000000"
           stroke-opacity="1"
           stroke-miterlimit="10"
           d="m 991.93683,179.02708 c 3.1211,0 5.6406,2.51952 5.6406,5.63671"
           id="path11377-4"
           style="fill:none;stroke:#fe0000;stroke-opacity:1" /><path
           fill="none"
           stroke-width="0.24"
           stroke-linecap="round"
           stroke-linejoin="round"
           stroke="#000000"
           stroke-opacity="1"
           stroke-miterlimit="10"
           d="m 997.57743,184.66379 v 358.5625"
           id="path11393-7"
           style="fill:none;stroke:#fe0000;stroke-opacity:1" /><path
           fill="none"
           stroke-width="0.24"
           stroke-linecap="round"
           stroke-linejoin="round"
           stroke="#000000"
           stroke-opacity="1"
           stroke-miterlimit="10"
           d="m 726.85473,184.66379 c 0,-3.11719 2.5235,-5.63671 5.6406,-5.63671"
           id="path11413-0"
           style="fill:none;stroke:#fe0000;stroke-opacity:1" /><path
           fill="none"
           stroke-width="0.24"
           stroke-linecap="round"
           stroke-linejoin="round"
           stroke="#000000"
           stroke-opacity="1"
           stroke-miterlimit="10"
           d="M 726.85473,543.22629 V 184.66379"
           id="path11421-5"
           style="fill:none;stroke:#fe0000;stroke-opacity:1" /><path
           fill-rule="nonzero"
           fill="#000000"
           fill-opacity="1"
           d="m 784.81563,490.54661 c 0,1.91796 -1.6796,3.59765 -3.5976,3.59765 -2.043,0 -3.7227,-1.67969 -3.7227,-3.59765 0,-2.04297 1.6797,-3.72266 3.7227,-3.72266 1.918,0 3.5976,1.67969 3.5976,3.72266 z m 0,0"
           id="path18409-4"
           style="fill:none;stroke:#fe0000;stroke-opacity:1" /><path
           fill-rule="nonzero"
           fill="#000000"
           fill-opacity="1"
           d="m 740.41723,249.46457 c 0,1.92188 -1.6797,3.60157 -3.6015,3.60157 -2.0391,0 -3.7188,-1.67969 -3.7188,-3.60157 0,-2.03906 1.6797,-3.71875 3.7188,-3.71875 1.9218,0 3.6015,1.67969 3.6015,3.71875 z m 0,0"
           id="path18417-6"
           style="fill:none;stroke:#fe0000;stroke-opacity:1" /><path
           fill-rule="nonzero"
           fill="#000000"
           fill-opacity="1"
           d="m 945.61653,490.54661 c 0,1.91796 -1.6797,3.59765 -3.6016,3.59765 -2.0391,0 -3.7187,-1.67969 -3.7187,-3.59765 0,-2.04297 1.6796,-3.72266 3.7187,-3.72266 1.9219,0 3.6016,1.67969 3.6016,3.72266 z m 0,0"
           id="path18435-9"
           style="fill:none;stroke:#fe0000;stroke-opacity:1" /><path
           fill-rule="nonzero"
           fill="#000000"
           fill-opacity="1"
           d="m 784.81563,328.54661 c 0,1.91796 -1.6796,3.59765 -3.5976,3.59765 -2.043,0 -3.7227,-1.67969 -3.7227,-3.59765 0,-2.04297 1.6797,-3.72266 3.7227,-3.72266 1.918,0 3.5976,1.67969 3.5976,3.72266 z m 0,0"
           id="path18461-1"
           style="fill:none;stroke:#fe0000;stroke-opacity:1" /><path
           fill-rule="nonzero"
           fill="#000000"
           fill-opacity="1"
           d="m 946.81573,328.54661 c 0,1.91796 -1.6797,3.59765 -3.5977,3.59765 -2.0429,0 -3.7226,-1.67969 -3.7226,-3.59765 0,-2.04297 1.6797,-3.72266 3.7226,-3.72266 1.918,0 3.5977,1.67969 3.5977,3.72266 z m 0,0"
           id="path18511-1"
           style="fill:none;stroke:#fe0000;stroke-opacity:1" /><path
           fill-rule="nonzero"
           fill="#000000"
           fill-opacity="1"
           d="m 991.21803,218.26536 c 0,1.91796 -1.6797,3.60156 -3.6015,3.60156 -2.0391,0 -3.7188,-1.6836 -3.7188,-3.60156 0,-2.03907 1.6797,-3.71875 3.7188,-3.71875 1.9218,0 3.6015,1.67968 3.6015,3.71875 z m 0,0"
           id="path18669-7"
           style="fill:none;stroke:#fe0000;stroke-opacity:1" /></g></g></g></svg>
