<?xml version="1.0" encoding="UTF-8" standalone="no"?>
<!-- Created with Inkscape (http://www.inkscape.org/) -->

<svg
   width="210mm"
   height="297mm"
   viewBox="0 0 210 297"
   version="1.1"
   id="svg6489"
   xml:space="preserve"
   inkscape:version="1.2.1 (9c6d41e410, 2022-07-14)"
   sodipodi:docname="logo union.svg"
   inkscape:export-filename="logo.png"
   inkscape:export-xdpi="200"
   inkscape:export-ydpi="200"
   xmlns:inkscape="http://www.inkscape.org/namespaces/inkscape"
   xmlns:sodipodi="http://sodipodi.sourceforge.net/DTD/sodipodi-0.dtd"
   xmlns="http://www.w3.org/2000/svg"
   xmlns:svg="http://www.w3.org/2000/svg"><sodipodi:namedview
     id="namedview6491"
     pagecolor="#ffffff"
     bordercolor="#000000"
     borderopacity="0.25"
     inkscape:showpageshadow="2"
     inkscape:pageopacity="0.0"
     inkscape:pagecheckerboard="0"
     inkscape:deskcolor="#d1d1d1"
     inkscape:document-units="mm"
     showgrid="false"
     inkscape:zoom="0.914906"
     inkscape:cx="388.56451"
     inkscape:cy="596.78262"
     inkscape:window-width="2560"
     inkscape:window-height="1369"
     inkscape:window-x="1432"
     inkscape:window-y="535"
     inkscape:window-maximized="1"
     inkscape:current-layer="layer1" /><defs
     id="defs6486"><inkscape:path-effect
       effect="offset"
       id="path-effect13636"
       is_visible="true"
       lpeversion="1.2"
       linejoin_type="miter"
       unit="mm"
       offset="0.7"
       miter_limit="4"
       attempt_force_join="false"
       update_on_knot_move="true" /><inkscape:path-effect
       effect="simplify"
       id="path-effect12293"
       is_visible="true"
       lpeversion="1"
       steps="1"
       threshold="0.0047"
       smooth_angles="10"
       helper_size="5"
       simplify_individual_paths="false"
       simplify_just_coalesce="false" /></defs><g
     inkscape:label="Layer 1"
     inkscape:groupmode="layer"
     id="layer1"><path
       id="path7338"
       style="fill:#000000;stroke:none;stroke-width:0.0139554"
       d="M 183.19399 40.997498 C 183.14167 40.994031 181.54262 41.110374 179.65157 41.256913 C 177.75464 41.405214 174.29003 41.666615 171.94764 41.846541 C 169.60353 42.020571 165.62694 42.327647 163.11356 42.514201 C 153.19803 43.270236 150.95982 43.437703 147.6375 43.682088 C 145.73738 43.818621 144.15987 43.941088 144.12867 43.944088 C 144.09164 43.948826 140.34391 45.910472 135.79585 48.298861 C 131.24958 50.69319 123.14318 54.947833 117.78868 57.76495 C 112.43235 60.576127 108.02448 62.89644 107.99858 62.91709 C 107.96686 62.93945 108.03176 62.9646 108.14224 62.9698 C 108.24862 62.982615 112.73079 63.312123 118.1039 63.706189 C 123.47118 64.102016 128.30806 64.458975 128.85053 64.494255 C 129.8152 64.569022 129.83428 64.569641 129.87218 64.737651 C 129.88875 64.835187 130.27509 66.948766 130.72432 69.440723 C 131.16769 71.934453 131.58654 74.134221 131.64674 74.333964 C 131.70691 74.533716 131.89323 75.003102 132.06119 75.369043 C 132.74096 76.881647 133.09763 77.2356 134.4228 77.720837 C 135.31056 78.044529 136.44281 78.247268 137.78642 78.332686 C 135.7509 80.366842 133.88737 82.636847 130.776 83.016121 C 123.62134 83.888268 116.97469 87.145163 111.22474 91.259029 C 107.59297 93.857414 104.21838 96.873369 100.59231 99.438892 C 97.021714 99.989307 94.295215 102.83115 90.700924 102.96322 C 85.435579 102.42415 80.234354 104.31772 76.118351 107.55416 C 71.530822 108.99571 68.066586 112.5763 63.87207 114.97748 C 62.918262 116.42738 59.271041 116.84647 62.832857 116.54121 C 61.28313 117.28684 53.703827 119.8943 59.255815 118.83409 C 57.182929 119.82524 50.049161 123.35805 50.225875 123.42554 C 55.704205 122.91201 46.896221 124.0723 46.205448 126.17111 C 41.955811 127.84376 39.551667 131.73675 34.639229 132.1356 C 31.120109 133.59622 25.561259 134.02764 23.88278 137.41435 C 20.575893 138.62669 21.668151 141.15942 24.765413 139.72119 C 32.090444 138.34601 39.411918 136.93092 46.779057 135.8067 C 43.242 138.6033 38.971579 140.05243 34.994763 142.00942 C 33.178271 144.04248 27.910582 145.56661 28.228768 147.91087 C 34.909687 144.92764 41.701406 142.09967 48.714856 139.97699 C 46.207014 142.70433 39.849831 143.92009 39.900924 147.84421 C 36.916845 150.25523 33.139914 152.12371 30.143896 154.73371 C 27.778693 156.79417 21.941575 159.60929 22.049817 161.95859 C 26.348661 163.01392 29.925653 159.70001 33.604667 157.964 C 36.913608 156.40262 29.70884 160.84804 28.725378 161.74052 C 26.553501 163.71146 21.19241 166.52976 22.10046 168.85791 C 24.01392 168.89331 28.709629 164.12433 24.944731 167.88949 C 21.591721 171.24275 28.370274 166.71726 29.845207 166.27202 C 33.832577 163.57578 30.403495 167.54724 29.446265 169.19432 C 31.029552 169.0105 32.445724 167.1995 32.50861 168.18508 C 34.233812 167.48238 38.825641 162.49465 36.628255 165.99194 C 39.874714 164.69994 42.871172 161.62532 46.319653 160.05638 C 50.241323 158.27216 53.951672 156.307 57.135531 153.27281 C 61.085928 151.27667 64.734926 148.58835 68.057861 146.01331 C 71.248737 143.54061 74.72113 141.88473 78.74248 141.30972 C 80.679296 140.20754 84.994377 139.10808 83.580945 141.89832 C 85.188172 140.52024 86.793557 146.6938 89.339766 143.27601 C 90.198471 145.53248 95.004723 139.92908 97.882914 140.45241 C 102.73217 138.42186 102.02333 146.8967 105.82196 148.40128 C 109.70402 151.51952 112.38671 155.90597 115.22087 159.95044 C 117.38964 163.04537 122.60987 164.55392 121.85303 169.40723 C 120.79372 171.23838 119.43362 174.70062 122.40338 171.82775 C 124.81586 167.85276 124.02522 176.90308 122.22251 178.13435 C 117.6391 181.26486 126.17742 178.68786 125.22905 175.73398 C 126.88881 173.40899 125.42454 168.74415 127.22996 167.49624 C 127.35281 167.63294 127.48439 167.78505 127.61288 167.93032 L 126.48582 173.26333 L 125.33188 178.72087 L 124.69265 178.82681 C 123.01539 179.0936 121.42457 180.06008 120.35596 181.45662 C 119.80778 182.17002 119.58375 182.59807 119.28988 183.50715 C 118.75681 185.12825 118.86975 187.03241 119.58185 188.46343 L 119.72758 188.76626 L 118.01243 192.16243 C 117.06854 194.03686 116.27127 195.61853 116.23787 195.67643 C 116.18632 195.78798 115.91622 195.73978 111.88516 194.9142 L 107.57845 194.03208 L 107.41257 194.94572 L 107.24565 195.8666 L 111.29967 196.71823 L 115.34903 197.5621 L 115.28185 197.71351 C 115.20947 197.85665 104.37675 222.70507 102.1948 227.71478 C 101.25927 229.86377 100.46908 231.86329 98.642558 236.68013 C 97.34259 240.08271 96.25465 242.94023 96.22255 243.02703 C 96.175232 243.11786 96.101827 243.16005 96.012227 243.14175 C 95.874509 243.11353 95.873488 243.08453 95.999308 242.71542 C 96.148988 242.26505 96.158637 242.28857 95.534737 242.07463 C 95.347457 242.00793 95.180519 241.98029 95.173519 242.01469 C 95.162229 242.06982 94.226474 244.53483 93.863521 245.46564 C 93.715228 245.8374 93.672033 246.01518 93.714693 246.05268 C 93.810821 246.14419 94.484118 246.36115 94.568388 246.33535 C 94.600189 246.32032 94.683686 246.15781 94.750806 245.97052 C 94.840299 245.70877 94.897205 245.64107 94.993685 245.66097 C 95.062586 245.67507 95.128597 245.70315 95.145097 245.72815 C 95.161547 245.75306 95.077499 246.02326 94.96578 246.32347 C 94.847175 246.62227 94.749988 246.88911 94.744088 246.91671 C 94.738437 246.94427 94.89913 247.0347 95.104272 247.1198 L 95.473242 247.28155 L 95.374023 247.55543 C 95.320883 247.70969 95.100849 248.22493 94.894466 248.70678 L 94.509477 249.56823 L 94.781295 251.08132 C 94.934726 251.90968 95.086048 252.60864 95.117708 252.62954 C 95.156224 252.65179 95.615955 251.66892 96.193095 250.35836 L 97.198201 248.04377 L 97.463818 248.14868 C 97.616668 248.20866 97.797478 248.2741 97.866378 248.2882 C 98.009678 248.32473 98.091919 248.13329 113.10886 213.68773 C 116.61243 205.66039 119.53749 198.95046 119.61699 198.77288 L 119.7591 198.46489 L 121.13007 198.74549 L 122.50157 199.02661 L 122.18066 200.66217 L 121.86543 202.30651 L 122.34809 202.40522 L 122.83023 202.50392 L 123.1868 200.86836 L 123.5351 199.23797 L 124.76138 199.48912 L 125.98818 199.74026 L 126.02745 205.57815 C 126.05123 208.79234 126.14347 221.06701 126.22847 232.85194 L 126.38453 254.27957 L 126.61914 254.32763 C 126.75008 254.35533 126.94184 254.3656 127.04392 254.3576 C 127.23984 254.34747 127.23964 254.34721 127.62528 256.56573 C 128.12952 259.39826 128.14033 259.45 128.22473 259.3883 C 128.26626 259.36089 128.43312 258.47588 128.59112 257.42408 C 128.75595 256.37371 128.93624 255.24769 128.99574 254.92242 L 129.09496 254.33228 L 129.4815 254.33951 C 129.68981 254.33911 129.8814 254.31404 129.9037 254.27544 C 129.9274 254.23002 129.95768 253.94137 129.96468 253.6269 C 129.98655 253.06417 129.98933 253.0505 130.13418 253.0445 C 130.32326 253.03296 130.31777 253.02451 130.30057 253.45895 C 130.28937 253.65753 130.29404 253.84506 130.31194 253.86306 C 130.34481 253.91286 131.16525 253.93768 131.24005 253.88838 C 131.31485 253.83905 131.47608 249.68597 131.40748 249.60027 C 131.38697 249.56027 131.16376 249.52887 130.91552 249.51397 C 130.43029 249.5007 130.41175 249.51838 130.42305 250.05916 C 130.43162 250.29773 130.41067 250.32959 130.28507 250.34699 C 130.20507 250.35219 130.13514 250.34499 130.12384 250.32839 C 130.11146 250.31867 130.23147 247.38519 130.38584 243.82698 L 130.65714 237.34882 L 130.52692 219.229 C 130.45 209.26221 130.39831 201.00216 130.40031 200.88076 L 130.40651 200.64512 L 134.60574 201.49054 L 138.80651 202.32925 L 139.01477 201.41716 L 139.22148 200.51179 L 134.75663 199.59712 L 130.29127 198.68296 L 130.06183 194.93125 C 129.90419 192.40754 129.85143 191.15447 129.91093 191.10927 C 129.95526 191.06809 130.1925 190.85824 130.43907 190.63591 C 131.60391 189.61085 132.30775 188.27619 132.56659 186.59171 C 132.76705 185.29735 132.65326 184.23976 132.1909 183.09683 C 131.60443 181.64848 130.59352 180.45068 129.33061 179.71099 L 129.31769 179.70324 C 133.58343 179.03249 134.76828 174.11346 135.37417 170.48934 C 136.05301 166.42882 131.94394 163.59757 129.68769 160.81964 C 124.57978 161.68178 121.45014 157.35549 118.816 153.73532 C 116.68741 151.7705 115.40779 149.5463 119.06095 148.64932 C 123.69361 146.57092 127.74432 143.39699 132.52886 141.6296 C 134.72824 141.46392 138.43745 141.02331 140.53767 137.95282 C 142.35993 135.28872 145.86848 135.2954 146.87269 132.8291 C 148.05783 132.8062 148.03376 133.28472 149.03225 131.25969 C 149.52105 131.01853 150.7751 130.98609 150.65954 128.35341 C 153.58335 132.94529 150.9825 125.08676 154.04848 124.31489 C 156.83364 121.58096 157.26749 117.32289 160.87338 115.4281 C 164.17914 112.38657 165.63586 107.97751 167.48693 103.93577 C 169.10412 100.40476 168.12156 96.199214 166.96759 92.704419 C 168.16833 89.048628 171.66486 86.176429 175.68437 87.447892 C 177.97857 87.373642 182.6408 88.279004 183.60688 87.207597 C 182.21814 85.641017 178.65038 84.338738 177.79845 83.696183 C 180.52876 83.425051 183.61693 85.178939 185.62485 85.875378 C 184.11563 80.393724 178.01839 77.419819 172.85198 77.24128 C 168.63642 77.0956 166.29779 73.442453 163.01899 71.33363 C 164.19488 70.605867 165.25006 69.907451 165.51289 69.653113 C 166.78104 68.438209 167.49737 66.24225 167.28488 64.217269 C 167.21958 63.596141 167.27483 63.759223 165.43176 58.617611 C 164.77462 56.797009 164.22435 55.245126 164.20135 55.168726 C 164.16773 55.057098 164.2358 54.985644 164.69796 54.647827 C 164.99747 54.429477 166.30894 53.464301 167.62026 52.499121 C 168.94335 51.530395 170.03297 50.766581 170.07127 50.787081 C 170.10875 50.807972 170.23555 51.057781 170.36118 51.346737 C 170.53966 51.747961 170.72678 52.390204 171.17405 54.15225 C 171.49431 55.40787 171.79062 56.497674 171.83912 56.572774 C 171.90564 56.687311 171.88645 56.731611 171.7244 56.895752 C 171.47489 57.131086 171.19187 57.658664 171.13167 57.990776 C 171.01775 58.633836 171.22021 59.200371 171.72492 59.663542 L 172.00862 59.924508 L 172.19827 61.469116 C 172.30549 62.314706 172.42022 63.055608 172.44942 63.110876 C 172.51242 63.213657 172.54097 63.884146 172.63907 67.231555 C 172.78639 72.146903 172.92789 73.956572 173.24111 75.060535 C 173.3962 75.596946 173.43096 75.669528 173.65038 75.86617 C 174.19453 76.375142 175.14252 76.67274 176.16392 76.65992 C 176.88032 76.655677 177.93625 76.33125 178.38136 75.979342 C 178.81825 75.642731 179.06042 75.320124 179.17873 74.925659 C 179.28364 74.592903 179.28008 74.581039 179.07847 74.039408 C 178.6412 72.863887 178.27797 71.954774 177.79432 70.838053 C 176.10832 66.96277 175.75499 66.088582 175.16192 64.267912 C 174.80236 63.158696 174.69879 62.792516 174.76039 62.805986 C 174.80279 62.818886 174.83622 62.82159 174.83222 62.81012 C 174.82869 62.798368 174.73362 62.057771 174.62397 61.161641 L 174.41726 59.538485 L 174.59038 59.262016 C 174.69189 59.109698 174.79964 58.80855 174.83584 58.566968 C 174.9842 57.676455 174.50522 56.872288 173.61628 56.537634 C 173.37064 56.444999 173.2847 56.374428 173.2101 56.211039 C 173.16304 56.09705 172.92193 55.253459 172.67887 54.339836 C 172.11302 52.184166 171.59766 50.621812 171.34096 50.23776 C 171.22911 50.079207 171.14796 49.937267 171.15596 49.922017 C 171.16827 49.899087 174.06479 47.77113 183.02914 41.194902 C 183.18609 41.077191 183.25209 40.999198 183.19399 40.997498 z M 90.04825 164.25974 L 86.706335 164.39617 L 86.706335 166.23016 L 87.284595 166.33197 C 87.646604 166.39587 87.806327 166.44047 87.878357 166.47459 L 87.884558 166.47666 L 87.890243 166.48028 C 87.928842 166.49768 87.954838 166.51955 87.954838 166.51955 L 87.963106 166.53144 L 87.972925 166.54332 C 87.972925 166.54332 88.003786 166.58782 88.033386 166.72109 L 88.03752 166.73453 L 88.041654 166.75003 C 88.075454 166.87547 88.099233 167.04528 88.105733 167.29108 L 88.105733 167.30142 L 88.105733 167.31123 C 88.119733 167.57607 88.129504 168.05033 88.129504 168.75301 L 88.129504 177.97932 C 88.129504 178.47728 88.111412 178.78671 88.080412 178.98546 C 88.051512 179.17054 88.014848 179.24155 88.007548 179.25262 L 87.999797 179.26658 L 87.992045 179.27846 C 87.988045 179.28446 87.969732 179.31036 87.923832 179.33686 C 87.876432 179.36426 87.813237 179.39169 87.718677 179.42419 L 86.417464 177.86149 L 85.876412 178.35397 C 85.671362 178.54093 85.474261 178.67458 85.288851 178.76583 C 85.128101 178.83843 84.949567 178.879 84.759167 178.879 C 84.505338 178.879 84.358896 178.83816 84.277026 178.79736 C 84.201326 178.75946 84.103696 178.67804 83.995907 178.52347 C 83.911507 178.39587 83.826128 178.17983 83.776799 177.82842 C 83.723499 177.44166 83.69515 176.91369 83.69515 176.21508 L 83.69515 172.00811 L 87.255656 172.00811 L 87.255656 169.49611 L 83.69515 169.49611 L 83.69515 166.7738 L 80.807987 166.7738 L 80.73409 167.38875 C 80.65419 168.05024 80.580402 168.53795 80.513432 168.85946 C 80.450732 169.15416 80.370114 169.37346 80.276754 169.53952 C 80.210954 169.65942 80.114748 169.76459 79.982198 169.8501 C 79.855738 169.9317 79.661053 170.00608 79.356913 170.05474 L 78.769352 170.14879 L 78.769352 172.00811 L 80.399744 172.00811 L 80.399744 177.42793 C 80.399744 178.70508 80.655566 179.78857 81.255505 180.5218 C 81.886535 181.28306 82.806848 181.61165 83.909607 181.61165 C 84.522436 181.61165 85.105278 181.47427 85.659888 181.20134 C 86.067717 181.00381 86.475329 180.7249 86.883069 180.37762 L 86.883069 181.4344 L 92.646541 181.4344 L 92.646541 179.65312 L 92.120992 179.51824 C 91.839562 179.44624 91.690908 179.38639 91.607328 179.34047 C 91.573028 179.31407 91.547848 179.28764 91.537048 179.26864 C 91.505248 179.20354 91.471965 179.10491 91.451265 178.96014 C 91.432965 178.77547 91.423877 178.46658 91.423877 177.97983 L 91.423877 173.75684 C 91.423877 173.56236 91.472174 173.38068 91.566504 173.20803 C 91.680864 173.01267 91.856138 172.80179 92.115308 172.57965 C 92.394877 172.34002 92.608016 172.20328 92.757646 172.13781 C 92.892116 172.07901 93.059919 172.04221 93.269759 172.04221 C 93.668549 172.04221 93.894911 172.14352 94.021651 172.25719 C 94.162981 172.38085 94.301455 172.61094 94.377185 173.02458 L 94.378735 173.0282 L 94.380802 173.0344 C 94.471102 173.48608 94.521362 174.17698 94.521362 175.13608 L 94.521362 178.02428 C 94.521362 178.50674 94.496651 178.82594 94.459351 179.00716 L 94.457284 179.01491 L 94.455733 179.02318 C 94.424433 179.19553 94.385453 179.26916 94.385453 179.26916 L 94.377185 179.28053 L 94.369434 179.29242 C 94.353134 179.31612 94.331972 179.33303 94.308972 179.34513 C 94.223672 179.39033 94.090528 179.44212 93.814429 179.52703 L 93.320402 179.67896 L 93.320402 181.43492 L 99.06217 181.43492 L 99.06217 179.66139 L 98.54644 179.52083 C 98.15629 179.41503 97.987596 179.32243 97.962496 179.3043 C 97.939296 179.2792 97.90728 179.2277 97.87878 179.12653 C 97.84218 178.95257 97.816768 178.60107 97.816768 177.97983 L 97.816768 173.8235 C 97.816768 173.19653 97.779269 172.65324 97.695329 172.20861 C 97.612229 171.75969 97.478707 171.34973 97.283468 170.9937 C 97.094518 170.62805 96.844484 170.31981 96.525374 170.06559 C 96.212985 169.80366 95.855452 169.61393 95.457222 169.49353 C 95.062453 169.37417 94.631776 169.32145 94.174097 169.32145 C 93.724567 169.32145 93.294438 169.39005 92.877018 169.53849 C 92.487329 169.6802 92.1024 169.88845 91.726701 170.14982 C 91.650301 170.20242 91.511797 170.35006 91.423877 170.41957 L 91.423877 164.26129 L 90.04825 164.25974 z M 50.214506 164.98786 L 50.214506 166.75571 L 50.724036 166.89989 C 51.048775 166.99169 51.192671 167.04728 51.279041 167.09729 L 51.292476 167.10505 L 51.304362 167.11125 C 51.335462 167.12765 51.353323 167.14712 51.364823 167.16602 L 51.376192 167.18566 L 51.390145 167.2053 C 51.398145 167.2166 51.430058 167.2707 51.458358 167.45128 C 51.488458 167.63826 51.505383 167.94461 51.505383 168.44347 L 51.505383 177.97828 C 51.505383 178.50499 51.478037 178.85936 51.439237 179.05884 L 51.43717 179.06659 L 51.435103 179.07692 C 51.411103 179.22071 51.370071 179.27456 51.350871 179.29397 C 51.327971 179.31277 51.151768 179.41198 50.737988 179.51876 L 50.214506 179.65312 L 50.214506 181.4344 L 55.637948 181.4344 L 55.637948 179.65518 L 55.114465 179.51876 C 54.802686 179.43746 54.630066 179.36881 54.552226 179.32497 C 54.504426 179.29457 54.478976 179.26472 54.464376 179.24332 C 54.444276 179.20392 54.414244 179.12263 54.386344 178.95238 C 54.361744 178.75502 54.34707 178.45578 54.34707 177.97932 L 54.34707 173.94442 C 54.34707 173.15874 54.32643 172.41039 54.31193 171.65154 L 57.247668 179.68257 L 59.48009 179.68257 L 62.72382 171.56731 C 62.71112 172.29919 62.694881 173.03351 62.694881 173.75684 L 62.694881 177.97932 C 62.694881 178.56322 62.670201 178.90306 62.624601 179.10276 C 62.593201 179.24019 62.54545 179.28946 62.53055 179.30172 C 62.48705 179.33732 62.321465 179.42272 61.938855 179.51669 L 61.405554 179.64743 L 61.405554 181.4344 L 67.40002 181.4344 L 67.40002 179.65518 L 66.876538 179.51876 C 66.565238 179.43756 66.395269 179.36972 66.315849 179.32497 C 66.268049 179.29457 66.242599 179.26472 66.227999 179.24332 C 66.205999 179.20072 66.1754 179.1196 66.1479 178.95238 C 66.1236 178.75685 66.110693 178.4567 66.110693 177.97932 L 66.110693 168.4445 C 66.110693 167.95327 66.127419 167.64693 66.157719 167.44043 C 66.192719 167.25228 66.230732 167.17553 66.225932 167.18256 C 66.249632 167.14896 66.29044 167.11216 66.34117 167.08127 C 66.41207 167.04307 66.573324 166.98157 66.870854 166.90712 L 67.40002 166.77432 L 67.40002 164.98941 L 62.499544 164.98941 L 58.751453 174.43845 L 55.341325 164.98941 L 50.214506 164.98786 z M 131.29586 167.84092 C 131.54743 169.48456 131.28711 173.09948 132.88129 169.56846 C 132.85311 173.25659 131.68804 177.69396 129.08773 179.56475 L 128.91513 179.46088 L 129.81947 174.96038 C 131.97884 174.56076 131.19648 171.71497 130.8716 169.74364 L 131.12585 168.48429 L 130.776 168.41556 C 130.82146 168.06635 130.96921 167.84984 131.29586 167.84092 z M 74.098836 169.30853 C 73.567684 169.30856 73.043231 169.36436 72.526839 169.47648 L 72.514954 169.47854 C 72.517954 169.47798 72.519705 169.47909 72.522705 169.47854 C 72.015826 169.58174 71.509873 169.72717 71.016854 169.91211 C 70.511174 170.09384 69.883977 170.37961 69.165287 170.75392 L 68.790116 170.95081 L 68.790116 173.50776 L 71.460238 173.50776 L 71.606482 173.00546 C 71.757562 172.48925 71.960546 172.16978 72.171305 171.98588 C 72.372685 171.81387 72.664669 171.69908 73.106649 171.69908 C 73.547968 171.69908 73.820319 171.78299 73.991349 171.89442 C 74.146769 171.99563 74.295897 172.17606 74.403727 172.49955 C 74.521947 172.85421 74.589246 173.35698 74.589246 174.08757 L 74.589246 174.18523 C 72.758567 174.32498 71.216829 174.6367 70.16936 175.21463 C 68.911812 175.90452 68.218058 176.94759 68.218058 178.3085 C 68.218058 178.93282 68.355451 179.50715 68.655241 180.02932 C 68.953651 180.5395 69.380358 180.93572 69.926998 181.2184 C 70.465317 181.48757 71.065147 181.61114 71.716036 181.61114 C 72.454995 181.61114 73.151052 181.45346 73.805831 181.13468 C 74.109021 180.98898 74.422863 180.65978 74.731873 180.4293 L 74.696216 181.43337 L 79.141939 181.43337 L 79.141939 179.65983 L 78.626208 179.51927 C 78.320259 179.43587 78.179592 179.38362 78.081022 179.33014 C 78.034422 179.30134 78.013425 179.27983 78.007125 179.27123 C 77.990625 179.24313 77.962895 179.18572 77.938395 179.05832 C 77.909195 178.90666 77.890335 178.73757 77.884135 178.55034 C 77.877135 178.33074 77.872249 177.95801 77.872249 177.41604 L 77.872249 173.5801 C 77.872249 172.57747 77.754768 171.72628 77.477958 171.12651 C 77.193768 170.51078 76.765819 170.04631 76.18088 169.74416 C 75.608625 169.43895 74.897889 169.30859 74.099353 169.30853 L 74.098836 169.30853 z M 96.515556 170.05267 C 96.519556 170.05567 96.521374 170.06064 96.525374 170.06404 C 96.527374 170.06604 96.531643 170.06617 96.533643 170.06817 L 96.515556 170.05267 z M 74.589246 176.52721 L 74.589246 177.26153 C 74.589246 177.47525 74.52075 177.72858 74.34895 178.01136 C 74.1874 178.27714 73.95239 178.50988 73.628581 178.70072 C 73.338961 178.8745 73.010299 178.96634 72.632259 178.96634 C 72.341709 178.96634 72.121421 178.9285 71.954781 178.8728 C 71.851841 178.8331 71.741017 178.75254 71.651957 178.62476 C 71.589057 178.53456 71.522766 178.35895 71.522766 178.03306 C 71.522766 177.5418 71.728226 177.19819 72.257605 176.92563 C 72.731475 176.68164 73.642947 176.59777 74.589246 176.52721 z M 122.77183 191.78674 C 122.82838 191.79114 123.09695 191.88198 123.36818 191.995 C 123.97952 192.23512 124.81879 192.41357 125.42284 192.44407 C 125.67247 192.45207 125.89054 192.47559 125.90704 192.50039 C 125.92754 192.54048 125.93915 193.36114 125.95975 196.66086 L 125.97061 197.79775 L 124.94431 197.58742 L 123.9175 197.3771 L 124.23944 195.73431 L 124.55312 194.0972 L 124.07098 193.99849 L 123.58832 193.89979 L 123.2333 195.52863 L 122.88397 197.16574 L 121.71247 196.92596 C 121.06474 196.7933 120.54533 196.66529 120.55233 196.63089 C 120.56486 196.60474 121.04156 195.50316 121.62152 194.17885 C 122.39251 192.41259 122.69453 191.77874 122.77183 191.78674 z M 57.320015 193.44091 C 55.862317 193.44091 54.572942 193.79358 53.477873 194.52921 C 52.390414 195.25971 51.577806 196.28626 51.028927 197.58587 C 50.494327 198.87051 50.23776 200.34427 50.23776 201.98974 C 50.23776 204.57905 50.728775 206.637 51.810274 208.06792 C 52.931143 209.55091 54.538885 210.24195 56.603263 210.24195 C 57.496462 210.24195 58.320333 210.19275 59.067712 210.09364 C 59.826852 210.00164 60.569354 209.85806 61.292383 209.66576 L 61.812248 209.52881 L 61.812248 205.13838 L 59.511096 205.13838 L 59.355033 205.62259 C 59.129474 206.32043 58.912858 206.78389 58.693058 207.09537 C 58.504188 207.37057 58.280302 207.55779 58.024882 207.67725 C 57.759642 207.79396 57.37307 207.87258 56.83374 207.87258 C 56.210001 207.87258 55.713329 207.67458 55.311869 207.29484 C 54.88483 206.88513 54.526029 206.24374 54.269039 205.31047 C 54.010549 204.36496 53.874748 203.20104 53.874748 201.80267 C 53.874748 200.42072 54.036504 199.28189 54.345003 198.36309 C 54.656423 197.42882 55.058576 196.79898 55.523226 196.40403 C 55.992475 196.0043 56.517568 195.81027 57.099357 195.81027 C 57.533557 195.81027 57.863142 195.88017 58.112732 195.99217 C 58.339912 196.09416 58.563998 196.27493 58.780908 196.57973 C 58.988848 196.86635 59.185362 197.28985 59.347282 197.87681 L 59.487842 198.39047 L 61.812248 198.39047 L 61.812248 194.0972 L 61.290316 193.9587 C 60.539527 193.7615 59.857758 193.62784 59.261499 193.55821 C 58.6621 193.48041 58.014805 193.44091 57.320015 193.44091 z M 70.130603 197.93934 C 69.551064 197.93934 69.008793 198.02783 68.509513 198.21839 C 68.039084 198.40133 67.605197 198.65861 67.210368 198.9863 C 67.198968 198.9953 67.186728 199.01359 67.175228 199.02299 L 67.237756 198.02719 L 65.804252 198.02719 L 62.540369 198.16775 L 62.540369 199.99606 L 63.116561 200.09941 C 63.418181 200.15301 63.585329 200.20668 63.687069 200.25754 L 63.702572 200.2653 L 63.718075 200.2715 C 63.749475 200.2853 63.768603 200.30579 63.780603 200.32989 L 63.784737 200.33609 L 63.786287 200.34178 C 63.815187 200.39708 63.850969 200.50585 63.862769 200.73607 C 63.876669 201.00751 63.884473 201.37045 63.884473 201.83574 L 63.884473 206.64217 C 63.884473 207.14739 63.865179 207.45369 63.829179 207.65192 C 63.797879 207.82427 63.758899 207.89837 63.758899 207.89842 C 63.732999 207.93302 63.700449 207.95889 63.671049 207.97439 L 63.663298 207.97852 L 63.655029 207.98472 C 63.580329 208.02672 63.461825 208.07432 63.194076 208.15887 L 62.705733 208.31287 L 62.705733 210.06521 L 68.545687 210.06521 L 68.545687 208.23897 L 67.967428 208.13717 C 67.634328 208.07837 67.472735 208.01779 67.373665 207.95785 C 67.350065 207.94225 67.305665 207.90534 67.268245 207.7899 C 67.213445 207.61546 67.178328 207.26488 67.178328 206.61013 L 67.178328 202.75248 C 67.178328 202.46112 67.216796 202.23971 67.272896 202.07294 C 67.333996 201.91131 67.451556 201.70789 67.659436 201.45592 C 67.864586 201.20725 68.057473 201.04208 68.223743 200.94226 C 68.394423 200.84266 68.541599 200.80531 68.663509 200.80531 C 68.869639 200.80531 68.972543 200.86703 69.003023 200.89523 L 69.008708 200.89885 L 69.014909 200.90505 C 69.110809 200.99035 69.246705 201.17684 69.401965 201.5262 L 69.587484 201.94013 L 71.985787 201.94013 L 71.985787 198.08868 L 71.374455 198.01065 C 70.994885 197.96225 70.580563 197.94037 70.130603 197.94037 L 70.130603 197.93934 z M 77.372538 197.93934 C 76.323429 197.93934 75.369442 198.167 74.521033 198.64214 C 73.649154 199.12167 72.974592 199.85314 72.489632 200.80635 C 72.010923 201.76378 71.79045 202.90383 71.79045 204.19529 C 71.79045 206.06525 72.215845 207.58774 73.171244 208.66582 C 74.144883 209.74567 75.51392 210.24195 77.196838 210.24195 C 78.308637 210.24195 79.306559 210.01681 80.175468 209.53501 C 81.061187 209.03515 81.717551 208.30411 82.18103 207.34342 C 82.64183 206.38829 82.856958 205.24945 82.856958 203.95293 C 82.856958 202.12682 82.425968 200.63133 81.470479 199.55423 C 80.49479 198.4455 79.098957 197.93934 77.372538 197.93934 z M 91.111235 198.12589 L 88.808533 205.05983 L 87.722811 201.53033 C 87.638211 201.2555 87.57674 201.03152 87.53936 200.85079 C 87.50306 200.66944 87.48665 200.50477 87.48665 200.35831 C 87.48665 200.25167 87.489784 200.22611 87.490784 200.2255 C 87.507084 200.2099 87.639158 200.13111 88.022017 200.05187 L 88.579089 199.93663 L 88.578573 198.12641 L 82.825952 198.12692 L 82.825952 199.90976 L 83.350985 200.04464 C 83.587204 200.10524 83.67789 200.16654 83.67913 200.16763 L 83.694633 200.18158 L 83.712203 200.19502 C 83.735303 200.21302 83.796901 200.27612 83.878601 200.43944 L 83.886353 200.45288 L 83.892554 200.46477 C 83.985154 200.63263 84.102445 200.93264 84.269275 201.45489 L 87.072205 210.12102 L 89.611068 210.12102 L 91.939091 203.43719 L 93.867139 210.12102 L 96.359493 210.12102 L 99.720528 201.56031 C 99.900208 201.10034 100.03926 200.78599 100.13446 200.60739 C 100.24866 200.39914 100.32372 200.29664 100.36338 200.25393 C 100.42888 200.18383 100.46389 200.16211 100.47242 200.15781 L 100.48999 200.14747 L 100.50756 200.13765 C 100.53416 200.12245 100.61071 200.09127 100.79281 200.04567 L 101.32198 199.91286 L 101.32198 198.12589 L 96.076306 198.12589 L 96.076306 199.93818 L 96.634928 200.05135 C 96.965778 200.11875 97.084741 200.20198 97.107251 200.2255 L 97.113452 200.23171 L 97.119137 200.23532 C 97.119137 200.23532 97.168229 200.29373 97.168229 200.45805 C 97.168229 200.60879 97.145148 200.78561 97.091748 200.99342 C 97.031248 201.22209 96.954674 201.46795 96.857654 201.73136 L 95.656177 205.06759 L 93.701257 198.12589 L 91.111235 198.12589 z M 77.329647 200.20897 C 77.690416 200.20897 78.00975 200.32398 78.30013 200.56243 C 78.57617 200.78425 78.838425 201.16986 79.048405 201.80629 C 79.260395 202.42939 79.374483 203.23858 79.374483 204.27332 C 79.374483 204.81604 79.329185 205.33288 79.241675 205.82413 C 79.157575 206.29009 79.021885 206.68337 78.837565 207.02147 C 78.673955 207.33176 78.463071 207.57014 78.220032 207.74184 C 78.010802 207.88332 77.732142 207.97232 77.360653 207.97232 C 76.727143 207.97232 76.251018 207.70345 75.892008 207.10519 C 75.497679 206.43179 75.270858 205.41432 75.270858 203.96481 C 75.270858 202.60676 75.493629 201.66161 75.874438 201.03682 C 76.224298 200.47167 76.693887 200.20897 77.329647 200.20897 z M 82.773242 221.52136 L 79.419442 221.65986 L 79.419442 223.49178 L 79.997701 223.59359 C 80.359691 223.65749 80.519423 223.70209 80.591463 223.73621 L 80.597664 223.73828 L 80.603349 223.7419 C 80.642049 223.7593 80.667944 223.78117 80.667944 223.78117 L 80.676213 223.79358 L 80.686548 223.80494 C 80.686548 223.80494 80.717409 223.84944 80.747009 223.98271 L 80.750627 223.99615 L 80.754761 224.01165 C 80.788561 224.13709 80.812856 224.3069 80.819356 224.5527 L 80.819356 224.56304 L 80.819356 224.57337 C 80.833256 224.83837 80.842611 225.31198 80.842611 226.01463 L 80.842611 226.82491 C 80.711701 226.79131 80.578429 226.73021 80.448319 226.70606 C 80.451319 226.70666 80.455655 226.70545 80.458655 226.70606 L 80.445219 226.70399 C 79.998049 226.61399 79.513964 226.57118 78.995695 226.57118 C 77.978916 226.57118 77.046223 226.80209 76.201034 227.28018 C 75.344774 227.76947 74.683952 228.50567 74.204773 229.45576 C 73.717093 230.41429 73.490088 231.55127 73.490088 232.8385 C 73.490088 234.64831 73.833159 236.13618 74.601648 237.21549 C 75.404157 238.3336 76.533127 238.87379 77.959066 238.87379 C 78.480475 238.87379 78.976636 238.78679 79.441146 238.60817 C 79.887485 238.43973 80.304763 238.21658 80.695333 237.93638 C 80.741733 237.90278 80.803316 237.82899 80.851396 237.79169 L 80.776982 238.80765 L 82.208936 238.80765 L 85.494006 238.66709 L 85.494006 236.85221 L 84.935384 236.73904 C 84.564554 236.66354 84.407586 236.6121 84.310616 236.56127 C 84.274916 236.53477 84.249186 236.50963 84.241886 236.49513 C 84.216286 236.44403 84.185089 236.34943 84.167989 236.16078 C 84.148189 235.93609 84.138534 235.55673 84.138534 234.98721 L 84.138534 221.5224 L 82.773242 221.52136 z M 50.259465 222.24948 L 50.259465 224.01733 L 50.768994 224.16203 C 51.093744 224.25383 51.237619 224.30891 51.323999 224.35892 L 51.337435 224.36667 L 51.34932 224.37287 C 51.37792 224.38787 51.393415 224.40424 51.407715 224.42764 L 51.4196 224.44728 L 51.433036 224.46692 C 51.441036 224.47822 51.473466 224.53232 51.501766 224.7129 C 51.531866 224.89988 51.548275 225.20623 51.548275 225.70509 L 51.548275 235.24042 C 51.548275 235.77368 51.526896 236.10091 51.484196 236.32046 L 51.482129 236.32821 L 51.480062 236.33855 C 51.456662 236.47894 51.415379 236.53367 51.394279 236.55507 C 51.369879 236.57527 51.196356 236.67318 50.782947 236.77986 L 50.259465 236.91474 L 50.259465 238.69551 L 56.497843 238.69551 L 56.497843 236.89717 L 55.95059 236.77366 C 55.61746 236.69886 55.422628 236.63492 55.321688 236.58814 C 55.261688 236.55544 55.218932 236.51544 55.185262 236.47135 C 55.146662 236.40505 55.104469 236.30413 55.065889 236.11737 C 55.03059 235.90866 55.009562 235.61943 55.009562 235.20735 L 55.009562 232.26386 C 55.383862 232.27566 55.699696 232.29125 56.206905 232.29125 C 56.989784 232.29125 57.742769 232.20085 58.464648 232.01633 C 59.214168 231.82478 59.877157 231.50292 60.446956 231.04533 C 61.028486 230.57835 61.469448 229.98888 61.777108 229.27955 C 62.085487 228.56858 62.23031 227.78756 62.23031 226.94015 C 62.23031 225.412 61.766369 224.22058 60.69707 223.39308 C 59.699361 222.6054 58.225882 222.25052 56.427563 222.25052 L 50.259465 222.24948 z M 55.952657 224.61678 L 55.953174 224.61678 C 56.384403 224.61682 56.771407 224.66689 57.116927 224.75941 L 57.123128 224.76147 L 57.128813 224.76354 C 57.437962 224.84084 57.690692 224.97446 57.900342 225.15783 C 58.103402 225.33118 58.279766 225.5733 58.414006 225.91179 C 58.539695 226.22328 58.615027 226.65177 58.615027 227.22644 C 58.615027 227.98159 58.486033 228.515 58.277063 228.88474 C 58.071953 229.24238 57.774244 229.50313 57.382544 229.66195 C 56.946494 229.83517 56.367688 229.93325 55.589889 229.93325 L 55.009562 229.93325 L 55.009562 224.64262 C 55.302232 224.63242 55.524687 224.61678 55.952657 224.61678 z M 68.06768 226.57015 C 67.53635 226.57015 67.012242 226.62596 66.495683 226.7381 L 66.483797 226.74017 C 66.486797 226.73961 66.488549 226.74072 66.491549 226.74017 C 65.984089 226.84348 65.480364 226.98893 64.987764 227.17373 C 64.482075 227.35546 63.854877 227.64123 63.136198 228.01554 L 62.761027 228.21243 L 62.761027 230.76938 L 65.429081 230.76938 L 65.575326 230.2676 C 65.726025 229.75272 65.929939 229.43279 66.141699 229.24802 C 66.335239 229.0827 66.641233 228.9607 67.075492 228.9607 C 67.516822 228.9607 67.789163 229.04461 67.960193 229.15604 C 68.116783 229.25801 68.266911 229.44007 68.374121 229.76169 C 68.492331 230.11634 68.559639 230.61859 68.559639 231.34919 L 68.559639 231.44685 C 66.728401 231.58697 65.185006 231.90048 64.137687 232.47832 C 62.880148 233.16822 62.186902 234.21127 62.186902 235.57218 C 62.186902 236.19647 62.324815 236.76967 62.624084 237.29094 C 62.923424 237.80272 63.352089 238.19828 63.897909 238.48053 C 64.436228 238.74969 65.036037 238.87276 65.686947 238.87276 C 66.425906 238.87276 67.120505 238.71478 67.774674 238.3963 C 68.077864 238.2506 68.39119 237.92191 68.700199 237.69143 L 68.663509 238.69499 L 73.110783 238.69499 L 73.110783 236.92146 L 72.595052 236.7809 C 72.295162 236.6991 72.127246 236.63374 72.049866 236.59176 C 72.001866 236.56186 71.980868 236.53955 71.975968 236.53285 C 71.959468 236.50485 71.931739 236.44734 71.907239 236.31994 C 71.878739 236.17172 71.860829 236.00451 71.854529 235.81248 C 71.847529 235.59291 71.84316 235.21964 71.84316 234.67767 L 71.84316 230.84172 C 71.84316 229.83909 71.725172 228.98841 71.448352 228.38864 C 71.164162 227.77291 70.73674 227.30794 70.15179 227.00578 C 69.578711 226.70014 68.866429 226.57015 68.06768 226.57015 z M 79.14814 228.85115 C 79.44813 228.85115 79.66742 228.88351 79.83182 228.93331 C 79.994489 228.98111 80.144178 229.05844 80.280888 229.16586 C 80.403748 229.26236 80.502156 229.38359 80.571826 229.52294 L 80.57596 229.53069 L 80.579578 229.53896 C 80.658878 229.68827 80.727867 229.89394 80.771297 230.18543 C 80.816697 230.49006 80.841577 230.90226 80.841577 231.45926 L 80.841577 233.92991 C 80.841577 234.25981 80.815649 234.49431 80.779049 234.65648 C 80.740449 234.82727 80.687643 234.96006 80.626603 235.06472 L 80.622986 235.07454 L 80.616785 235.08488 C 80.562885 235.18428 80.460567 235.32275 80.274687 235.50862 C 80.095957 235.68735 79.933444 235.81437 79.784794 235.9055 C 79.631834 235.9921 79.482506 236.05346 79.337276 236.09463 C 79.194876 236.12823 78.994077 236.15096 78.706307 236.15096 C 78.142958 236.15096 77.760968 235.92498 77.477958 235.41044 C 77.153648 234.82076 76.95861 233.88286 76.95861 232.52999 C 76.95861 231.19002 77.186278 230.27321 77.583378 229.66867 C 77.936588 229.12567 78.441651 228.85218 79.14814 228.85218 L 79.14814 228.85115 z M 68.560156 233.78883 L 68.560156 234.52315 C 68.560156 234.73685 68.491751 234.9902 68.319861 235.27298 C 68.157721 235.53973 67.921284 235.77445 67.598975 235.96441 C 67.311755 236.13673 66.981072 236.22847 66.601103 236.22847 C 66.310573 236.22847 66.092635 236.19042 65.925175 236.13442 C 65.822235 236.09472 65.711401 236.01415 65.622351 235.88638 C 65.559451 235.79618 65.493677 235.62055 65.493677 235.29468 C 65.493677 234.80341 65.698639 234.45981 66.227999 234.18726 C 66.701888 233.94327 67.613867 233.8594 68.560156 233.78883 z M 95.838595 243.25182 C 95.871143 243.25937 95.912633 243.2855 95.953833 243.32985 C 96.008793 243.377 95.909444 243.68701 95.614836 244.4595 C 95.279776 245.32426 95.182228 245.51975 95.081535 245.52041 C 94.924285 245.51692 94.924379 245.5171 95.382292 244.33289 C 95.59449 243.78761 95.769066 243.32084 95.776066 243.28644 C 95.782421 243.25539 95.806046 243.24427 95.838595 243.25182 z M 130.25717 250.51908 C 130.32078 250.50845 130.39182 250.5911 130.39307 250.73508 C 130.39817 251.13099 130.33181 252.64669 130.30781 252.7639 C 130.27111 252.94309 130.07571 252.8747 130.07371 252.68018 C 130.07121 252.3422 130.13755 250.79038 130.16725 250.64568 C 130.18366 250.56561 130.219 250.52545 130.25717 250.51908 z " /></g></svg>
