<?xml version="1.0" encoding="UTF-8" standalone="no"?>
<!-- Created with Inkscape (http://www.inkscape.org/) -->

<svg
   width="210mm"
   height="297mm"
   viewBox="0 0 210 297"
   version="1.1"
   id="svg6489"
   xml:space="preserve"
   inkscape:version="1.2.1 (9c6d41e410, 2022-07-14)"
   sodipodi:docname="logo.svg"
   xmlns:inkscape="http://www.inkscape.org/namespaces/inkscape"
   xmlns:sodipodi="http://sodipodi.sourceforge.net/DTD/sodipodi-0.dtd"
   xmlns="http://www.w3.org/2000/svg"
   xmlns:svg="http://www.w3.org/2000/svg"><sodipodi:namedview
     id="namedview6491"
     pagecolor="#ffffff"
     bordercolor="#000000"
     borderopacity="0.25"
     inkscape:showpageshadow="2"
     inkscape:pageopacity="0.0"
     inkscape:pagecheckerboard="0"
     inkscape:deskcolor="#d1d1d1"
     inkscape:document-units="mm"
     showgrid="false"
     inkscape:zoom="1.2938725"
     inkscape:cx="402.28076"
     inkscape:cy="392.61984"
     inkscape:window-width="2560"
     inkscape:window-height="1369"
     inkscape:window-x="1432"
     inkscape:window-y="535"
     inkscape:window-maximized="1"
     inkscape:current-layer="layer1" /><defs
     id="defs6486"><inkscape:path-effect
       effect="simplify"
       id="path-effect12293"
       is_visible="true"
       lpeversion="1"
       steps="1"
       threshold="0.0047"
       smooth_angles="10"
       helper_size="5"
       simplify_individual_paths="false"
       simplify_just_coalesce="false" /></defs><g
     inkscape:label="Layer 1"
     inkscape:groupmode="layer"
     id="layer1"><path
       d="m 155.35277,69.398047 c -5.40552,0.852285 -10.06998,3.844401 -14.77821,6.635501 -3.47501,2.060031 -5.36832,6.442307 -9.79849,6.982341 -7.15466,0.872147 -13.80138,4.129218 -19.55135,8.243092 -3.63177,2.598389 -7.00616,5.614586 -10.63223,8.180113 -3.570602,0.550417 -6.29703,3.391926 -9.891329,3.523996 -5.265355,-0.53907 -10.466856,1.3546 -14.582867,4.59104 -4.587539,1.44155 -8.051443,5.02224 -12.245967,7.42342 -0.95381,1.4499 -4.601332,1.86888 -1.039508,1.56362 -1.549731,0.74563 -9.128873,3.35291 -3.576875,2.2927 -2.07289,0.99115 -9.206751,4.52432 -9.030037,4.59181 5.478342,-0.51353 -3.329545,0.64654 -4.020318,2.74535 -4.249647,1.67265 -6.653666,5.56563 -11.566114,5.96448 -3.519128,1.46062 -9.07841,1.89188 -10.756893,5.27859 -3.306893,1.21234 -2.214409,3.74533 0.882861,2.3071 7.325045,-1.37518 14.646206,-2.79009 22.013359,-3.91431 -3.537063,2.79662 -7.807094,4.24568 -11.783918,6.20267 -1.816496,2.03306 -7.084516,3.55703 -6.76633,5.90129 6.680933,-2.98323 13.473015,-5.81109 20.486479,-7.93379 -2.507846,2.72736 -8.865231,3.943 -8.814138,7.86712 -2.984085,2.41104 -6.760909,4.27943 -9.756933,6.88943 -2.365209,2.06046 -8.202174,4.87552 -8.093932,7.22482 4.298852,1.05533 7.87559,-2.25831 11.554612,-3.99432 3.308947,-1.56138 -3.895756,2.88389 -4.87922,3.77637 -2.171883,1.97096 -7.533007,4.78945 -6.624955,7.1176 1.913464,0.0354 6.609049,-4.73374 2.844143,-0.96856 -3.353016,3.35326 3.425711,-1.1725 4.900646,-1.61774 3.987378,-2.69624 0.55809,1.27559 -0.399142,2.92269 1.583291,-0.18382 2.999768,-1.99512 3.062654,-1.00954 1.725206,-0.7027 6.317057,-5.6903 4.119667,-2.19301 3.246465,-1.292 6.242963,-4.36679 9.691452,-5.93573 3.921678,-1.78422 7.631986,-3.74917 10.815851,-6.78336 3.950405,-1.99616 7.599041,-4.68424 10.921984,-7.25928 3.190882,-2.4727 6.663559,-4.1286 10.684917,-4.70361 1.936818,-1.10218 6.251793,-2.20181 4.838357,0.58843 1.607231,-1.37808 3.212756,4.79527 5.758971,1.37748 0.858705,2.25647 5.664538,-3.34702 8.542735,-2.82369 4.849258,-2.03055 4.140358,6.44467 7.939008,7.94925 3.88206,3.11826 6.56489,7.50435 9.39907,11.54884 2.16877,3.09493 7.38934,4.60364 6.6325,9.45697 -1.05931,1.83115 -2.41954,5.29333 0.55022,2.42046 2.41248,-3.97501 1.62166,5.07539 -0.18105,6.30666 -4.58343,3.13053 3.9549,0.55342 3.00653,-2.40048 1.65976,-2.32499 0.19544,-6.9895 2.00086,-8.23743 1.83372,2.04064 4.51975,5.09191 1.3993,7.46777 5.30048,0.70805 0.66335,-7.06869 2.66687,-7.12343 0.25157,1.64364 -0.009,5.25868 1.5852,1.72766 -0.0292,3.8205 -1.27348,8.45345 -4.07459,10.19551 4.68524,-0.34421 5.938,-5.50944 6.56748,-9.27471 0.67884,-4.06052 -3.42993,-6.89145 -5.68618,-9.66938 -5.10793,0.86214 -8.2378,-3.46422 -10.87194,-7.08439 -2.12861,-1.96482 -3.40801,-4.18927 0.24515,-5.08625 4.63266,-2.07842 8.68295,-5.25228 13.46751,-7.01967 2.19938,-0.16568 5.90891,-0.60635 8.00915,-3.67684 1.82226,-2.6641 5.33052,-2.65737 6.33473,-5.12367 1.18514,-0.0229 1.16103,0.45589 2.15952,-1.56914 0.4888,-0.24116 1.74318,-0.27378 1.62762,-2.90648 2.92383,4.5919 0.32297,-3.26669 3.38895,-4.03856 2.78516,-2.73395 3.21901,-6.99202 6.82492,-8.88683 3.30576,-3.04153 4.76252,-7.45072 6.61361,-11.49246 1.61719,-3.53103 0.6342,-7.736438 -0.51977,-11.231241 1.20074,-3.655799 4.69761,-6.527681 8.71712,-5.256214 2.29422,-0.07425 6.95617,0.831005 7.92225,-0.240404 -1.38874,-1.566582 -4.95647,-2.868766 -5.8084,-3.511321 2.73031,-0.271134 5.8186,1.48265 7.82652,2.179091 -1.50922,-5.481666 -7.60643,-8.455675 -12.77284,-8.634214 -5.18069,-0.179033 -7.52606,-5.656473 -12.26629,-7.053188 -1.6909,-0.498226 -3.46075,-0.890505 -5.23296,-0.790022 z"
       id="path7338"
       style="fill:#000000;stroke:none;stroke-width:0.0139554"
       inkscape:path-effect="#path-effect12293"
       inkscape:original-d="m 155.35277,69.398047 c -1.261,0.09368 -1.27487,0.09209 -4.44287,1.132234 -1.38568,0.444566 -2.55063,0.802156 -2.59222,0.79737 -0.29115,-0.03351 -4.40894,2.302078 -5.62067,3.188089 -0.81296,0.594765 -2.03695,1.465311 -2.72305,1.934202 -0.69997,0.467295 -1.27197,0.921223 -1.28314,1.018272 -0.01,0.08315 -0.12578,0.238373 -0.2617,0.321064 -0.13754,0.09655 -0.68978,0.622991 -1.2175,1.18034 -0.52771,0.55736 -1.1791,1.212863 -1.4467,1.463018 -0.26759,0.250146 -0.72549,0.689111 -1.01173,0.979257 -0.88647,0.867254 -2.20601,1.347526 -4.93698,1.763694 -2.87439,0.44181 -3.92045,0.742844 -7.36244,2.088595 -2.89872,1.141375 -5.26741,2.315665 -6.55483,3.249152 -0.46059,0.340321 -1.35943,0.826864 -1.99387,1.090988 -1.2998,0.552785 -2.83298,1.6687 -9.04446,6.57282 l -4.03331,3.188161 -1.603205,0.50382 c -3.09231,0.992657 -3.71129,1.244517 -4.67885,1.961957 -1.412693,1.0455 -2.316434,1.2084 -6.324571,1.12639 -1.443929,-0.0257 -2.222402,0.0252 -2.719299,0.19275 -0.393467,0.12329 -1.161753,0.32987 -1.724791,0.46173 -2.020707,0.46981 -4.430994,1.63931 -6.381574,3.08647 -1.199454,0.90147 -1.363127,0.98097 -2.525983,1.19832 -1.477446,0.26543 -1.917785,0.5519 -3.728024,2.36639 -0.88966,0.89499 -1.3673,1.26144 -1.850339,1.43061 -0.364153,0.11261 -0.979936,0.33674 -1.388866,0.47229 -0.804002,0.27271 -4.536702,3.04594 -4.746635,3.52749 -0.07937,0.20158 -0.391278,0.3483 -0.969762,0.49244 -0.462798,0.1153 -0.931969,0.28607 -1.041773,0.38581 -0.252143,0.23788 -0.238277,0.23948 0.673438,0.007 0.839204,-0.21246 1.036495,-0.21786 1.015753,-0.0376 -0.008,0.0694 -0.35986,0.1974 -0.77468,0.26204 -0.487324,0.0844 -1.004472,0.30582 -1.449597,0.63387 -0.414214,0.30352 -1.095031,0.60444 -1.763084,0.79446 -0.999683,0.26424 -2.157651,0.80525 -2.047237,0.94439 0.02452,0.0309 0.497998,-0.0551 1.059429,-0.17308 1.067411,-0.24239 1.491302,-0.26384 1.467368,-0.0559 -0.01276,0.11091 -1.440029,0.55069 -1.661848,0.52516 -0.02775,-0.003 -0.412121,0.16328 -0.844491,0.38042 -0.789032,0.38682 -1.468748,0.80024 -3.1267,1.9018 -0.944122,0.63586 -1.357839,0.813 -2.977604,1.21659 -0.664862,0.16228 -1.249731,0.36187 -1.287029,0.44186 -0.05915,0.14772 0.139734,0.12847 1.772869,-0.14714 0.672344,-0.10524 1.701457,-0.0149 1.152301,0.11852 -0.115705,0.0289 -0.763507,0.16498 -1.439039,0.29794 -1.568601,0.32519 -3.978885,1.49469 -4.3141,2.08824 -0.163068,0.31838 -0.464276,0.49442 -1.268272,0.76713 -0.571005,0.20118 -1.616467,0.74109 -2.328696,1.19292 -1.154177,0.75216 -1.327419,0.91484 -1.659937,1.60704 -0.296815,0.62607 -0.440737,0.77809 -0.80169,0.86296 -0.231392,0.0576 -1.094038,0.35171 -1.901225,0.65215 -0.807188,0.30043 -1.72688,0.60195 -2.043054,0.6639 -0.316175,0.062 -0.941039,0.24288 -1.380887,0.40297 -3.230344,1.2156 -3.85521,1.39654 -5.907945,1.77838 -0.402546,0.0801 -0.973552,0.28129 -1.260899,0.45893 -0.512855,0.30621 -2.22626,1.40138 -2.69912,1.72625 -0.135946,0.0827 -0.446231,0.21554 -0.693084,0.28546 -0.681918,0.18843 -1.000679,0.51698 -0.860338,0.88431 0.164877,0.39826 0.149419,0.41053 -0.236075,0.4645 -0.527322,0.0657 -1.794885,1.43697 -1.858708,1.99153 l -0.05106,0.44364 0.869128,0.0158 c 0.490025,0.0142 1.499883,-0.0943 2.247928,-0.24701 2.026602,-0.3989 7.59724,-1.44348 9.401524,-1.74153 0.874415,-0.15223 2.453687,-0.44808 3.517904,-0.66274 1.064219,-0.21467 2.353449,-0.43153 2.866907,-0.49885 0.513459,-0.0673 2.117266,-0.33228 3.553115,-0.60251 1.448112,-0.25476 2.649375,-0.4396 2.673909,-0.40868 0.02456,0.0309 -0.329433,0.29923 -0.783644,0.5841 -2.394715,1.52246 -3.102162,1.93271 -4.006889,2.34833 -0.563527,0.25825 -1.014544,0.51539 -1.022521,0.5847 -0.008,0.0693 -0.142326,0.13814 -0.287347,0.17764 -0.14343,0.0257 -0.703757,0.25615 -1.225691,0.51917 -0.508068,0.26463 -1.215017,0.5485 -1.56211,0.63498 -1.099923,0.28079 -2.729154,1.1328 -3.768124,1.9825 -0.556539,0.44166 -1.491585,1.1207 -2.084929,1.51598 -3.547295,2.26077 -4.167266,2.76536 -4.242258,3.41697 -0.06701,0.58228 0.435772,0.48562 2.35983,-0.48698 0.997488,-0.48925 2.300474,-1.06975 2.902398,-1.29547 0.601925,-0.22573 1.707132,-0.67448 2.435921,-1.02607 2.062698,-0.95665 13.086642,-4.95573 13.221595,-4.78568 0.02456,0.0309 -0.463782,0.36805 -1.084853,0.76014 -0.605612,0.37982 -1.732058,1.13518 -2.48159,1.667 -0.749533,0.53183 -2.166518,1.49255 -3.139961,2.13908 -2.265159,1.49524 -2.829074,2.2451 -2.257249,3.01328 0.147218,0.18551 0.204873,0.41691 0.139845,0.49371 -0.06502,0.0768 -1.114177,0.77081 -2.339263,1.52885 -2.162829,1.33845 -5.720195,3.80878 -6.654141,4.60033 -0.250542,0.22402 -1.118963,0.8124 -1.922356,1.32398 -0.789529,0.51318 -2.853112,2.08781 -4.587755,3.48958 -2.684051,2.2056 -3.107836,2.59229 -2.929699,2.75327 0.747347,0.44954 1.707065,0.12059 2.347272,0.35451 0.971676,0.58944 3.93382,-0.61488 9.186048,-3.77513 3.589986,-2.14348 2.031282,-0.80574 -2.526762,2.18156 -0.591747,0.38141 -1.941006,1.36398 -2.990649,2.18435 -1.048049,0.80652 -2.343449,1.80933 -2.853608,2.21418 -0.986212,0.75745 -3.328346,3.40977 -3.275477,3.68275 0.01816,0.0863 0.355176,0.20945 0.755632,0.26958 0.916132,0.2857 1.420137,-0.40915 2.130422,-0.93481 0.780451,-0.55636 1.758685,-1.24448 2.169707,-1.52028 0.638125,-0.41821 0.556042,-0.31528 -0.5698,0.67895 -1.282031,1.13077 -2.207396,2.09187 -2.234522,2.32757 -0.0064,0.0554 0.167967,0.005 0.405739,-0.10783 0.223914,-0.11471 0.58058,-0.28437 0.785843,-0.35909 0.205264,-0.0747 0.897248,-0.47268 1.52151,-0.89249 0.622666,-0.40595 1.370108,-0.79755 1.656958,-0.84882 0.561432,-0.118 1.580761,-0.67497 2.685859,-1.48896 0.704751,-0.50889 1.323235,-0.63438 1.492899,-0.27771 0.03203,0.0879 -0.158778,0.40315 -0.429567,0.68104 -1.166829,1.22831 -1.821903,2.03791 -2.078223,2.55626 -0.442827,0.91831 -0.15169,0.95182 1.08617,0.0828 0.610397,-0.4214 1.25012,-0.8535 1.415385,-0.94685 0.287347,-0.17765 0.287347,-0.17765 0.007,0.18342 -0.164167,0.20586 -0.288339,0.43038 -0.257916,0.53221 0.03631,0.17275 3.745572,-2.5189 5.043061,-3.66193 0.813461,-0.72114 0.834808,-0.66249 0.06244,0.1898 -1.363287,1.71038 0.323396,0.48109 0.199698,0.95009 0.166365,0.0191 3.29296,-2.24789 3.604241,-2.63349 0.130056,-0.15361 0.751128,-0.54569 1.364221,-0.86846 0.626955,-0.32118 1.664936,-0.91815 2.303062,-1.33636 0.636528,-0.40436 1.479919,-0.89729 1.855233,-1.10695 0.387584,-0.1942 1.051845,-0.59537 1.493782,-0.89569 0.564023,-0.38461 1.138218,-0.61352 1.901724,-0.7785 1.295614,-0.27233 2.431134,-0.98449 4.478653,-2.78572 2.049117,-1.81511 3.527941,-2.8249 6.802359,-4.66755 2.432626,-1.3636 3.474288,-2.11465 4.185313,-3.04425 0.791517,-1.01865 2.001638,-1.8908 2.514602,-1.83177 0.443642,0.0511 0.866931,-0.20926 3.34902,-2.00263 0.888666,-0.64224 1.774142,-1.25675 1.982591,-1.35919 0.208459,-0.10244 1.018341,-0.30423 1.807972,-0.45215 2.797593,-0.50684 5.315698,-1.2706 6.914016,-2.09806 0.613094,-0.32277 0.921283,-0.31541 1.191187,0.0247 0.14562,0.19938 0.282668,0.22921 0.515662,0.1577 0.364144,-0.11262 0.662769,-0.0221 0.635644,0.21362 -0.0096,0.0831 -0.211048,0.36904 -0.452513,0.63626 -0.32354,0.37013 -0.385878,0.54558 -0.287734,0.66925 0.110416,0.13913 0.2709,0.0873 0.686701,-0.23002 0.292141,-0.21922 0.550163,-0.38619 0.586962,-0.33982 0.02453,0.0309 0.166473,0.3844 0.315896,0.79492 0.439178,1.18839 1.365077,2.05351 2.293956,2.16042 1.045997,0.0691 1.506412,-0.42525 2.104287,-0.95186 0.281775,-0.2426 0.39314,-0.16159 0.171751,0.21643 -0.214228,0.39677 0.04401,0.59697 0.09148,0.67266 0.124284,0.14074 1.229879,-0.43631 2.340863,-1.17939 2.103082,-1.4296 2.952351,-1.85162 3.965401,-1.98788 0.39776,-0.0385 1.26948,-0.28937 1.97324,-0.54551 0.824985,-0.36463 1.546673,-0.75056 2.660888,-0.26718 0.15613,0.0567 0.32448,0.20336 0.29148,0.36815 -0.0501,0.1909 0.0828,0.50118 0.3511,0.85516 0.24537,0.30918 0.37789,0.66215 0.41932,0.75062 0.0572,0.12222 0.0983,0.48892 0.23859,0.85627 0.70102,1.02491 2.7096,4.40663 3.42894,5.11411 0.21976,0.13771 0.93695,0.40283 0.9194,0.55533 -0.006,0.0554 0.0704,0.12048 0.18134,0.13325 0.0971,0.0112 0.44424,0.28993 0.75893,0.6071 l 0.5771,0.60022 c 0.55232,0.68043 0.23181,0.46539 0.84112,0.86943 0.1952,0.13484 1.29983,1.39981 2.44399,2.80981 2.0445,2.49694 3.18286,4.20128 3.62045,5.40352 0.1174,0.32256 0.38411,0.6904 0.60543,0.8423 0.22292,0.13803 0.41333,0.31447 0.43467,0.37311 0.0197,0.0725 0.29075,0.52513 0.61243,1.02572 0.53771,0.82045 0.64065,0.90253 1.13974,0.95997 0.40205,0.0463 0.6527,0.18749 0.95192,0.51693 0.22562,0.23668 0.71256,0.6439 1.06455,0.88108 1.10981,0.73177 1.73609,1.75907 2.25867,3.68752 0.62292,2.27715 -0.13526,2.84094 -1.28108,4.98476 -0.15828,0.27678 -0.24565,0.54768 -0.20885,0.59405 0.0859,0.10823 1.00827,-0.0947 1.46837,-0.30862 0.17912,-0.0918 0.65298,-0.66936 1.04684,-1.28426 1.16612,-1.83244 1.29259,-1.46671 0.99795,2.92434 -0.0822,1.32505 -0.16375,1.66685 -0.52288,2.46836 -0.3794,0.85538 -0.52811,1.04897 -1.62254,1.89229 -1.14239,0.894 -1.19196,0.95853 -0.84536,0.99842 0.47137,0.0542 1.66724,-0.32788 2.61086,-0.83737 0.50806,-0.26461 0.80818,-0.55317 1.09064,-1.05446 0.40023,-0.67037 1.30163,-3.37612 1.39257,-4.16636 0.0239,-0.20795 0.17844,-0.69588 0.36174,-1.06812 0.26271,-0.5738 0.28026,-0.7263 0.1426,-0.995 -0.0902,-0.193 -0.11063,-0.86963 -0.0299,-1.81556 0.0914,-1.28185 0.17277,-1.62368 0.54582,-2.42359 0.22859,-0.52154 1.92791,2.65527 2.09636,2.53419 0.27508,-0.19311 0.30281,-0.18992 0.51566,0.15769 0.1179,0.19618 0.21555,0.44623 0.20278,0.55714 -0.0128,0.1109 0.10783,0.40573 0.2748,0.66376 0.25285,0.36624 0.28277,0.59445 0.20459,1.27377 -0.11169,0.97047 -0.25292,1.22111 -1.10637,1.9236 -0.82414,0.69181 -0.54687,0.72372 1.00726,0.1581 0.90902,-0.33086 1.19637,-0.5085 1.2976,-0.7778 0.20087,-0.52474 -0.52786,-5.37874 -0.66817,-5.74607 -0.10992,-0.26551 -0.0849,-0.36095 0.10067,-0.50817 0.18711,-0.16109 0.25163,-0.11151 0.54129,0.3011 0.26192,0.40943 0.29504,0.6099 0.20729,1.37241 -0.0574,0.4991 -0.0663,1.18641 -0.023,1.54258 0.0796,0.52891 0.12707,0.60462 0.3094,0.48513 0.30281,-0.18992 0.86721,-1.06614 0.9071,-1.41273 0.0175,-0.15251 0.10125,-0.2693 0.18441,-0.25973 0.18024,0.0207 -0.10831,1.67323 -0.48228,2.72589 -0.12623,0.36476 -0.1741,0.78067 -0.12171,1.18003 0.0326,0.32685 0.0238,1.01415 -0.0353,1.52712 -0.0925,0.8041 -0.1938,1.0734 -0.72249,1.88349 -0.51005,0.77011 -0.87359,1.1216 -1.92753,1.85719 -1.44949,0.99913 -1.43184,1.21187 0.0536,0.87711 1.44223,-0.32567 2.75737,-1.25598 3.60693,-2.53485 0.44343,-0.67944 1.1702,-2.47816 1.22016,-3.03431 0.01,-0.20955 0.11127,-0.47885 0.20565,-0.56633 0.10983,-0.0997 0.16946,-0.37381 0.14753,-0.67134 -0.0203,-0.31139 0.10531,-0.91501 0.31575,-1.52293 0.1902,-0.55405 0.32812,-1.14222 0.30568,-1.31338 -0.0225,-0.17115 0.034,-0.41752 0.11925,-0.54817 0.18442,-0.25973 -0.0856,-0.96509 -0.90289,-2.4077 -0.18672,-0.33052 -0.55697,-1.01932 -0.80613,-1.53966 -0.37772,-0.74585 -0.67376,-1.10301 -1.32975,-1.62802 -0.94027,-0.74035 -2.01768,-1.87577 -1.99055,-2.11146 0.01,-0.0831 -0.15899,-0.32734 -0.38461,-0.56402 -0.36217,-0.39286 -0.45761,-0.4179 -1.25743,-0.42566 -2.03418,-0.0234 -3.39125,-0.19363 -3.8323,-0.51132 -0.23519,-0.15349 -0.63196,-0.36773 -0.86286,-0.43644 -0.24316,-0.0842 -0.51516,-0.28405 -0.58398,-0.4184 -0.0811,-0.14981 -0.43418,-0.49949 -0.78137,-0.77825 -0.51308,-0.42429 -6.46797,-7.88051 -6.55605,-8.21373 -0.0395,-0.14503 2.71937,-1.78011 3.8896,-2.30566 1.73376,-0.78379 3.08202,-1.51361 4.82794,-2.64718 1.83549,-1.17946 4.18443,-2.42626 5.50397,-2.90653 0.43986,-0.16009 1.35686,-0.56026 2.0286,-0.90438 1.22459,-0.63167 1.55941,-0.73361 1.22838,-0.42052 -0.25214,0.23788 -0.0692,0.35727 0.65331,0.42637 0.73797,0.0568 1.17622,-0.0894 2.54633,-0.88694 0.96228,-0.54948 3.02157,-2.20889 3.99172,-3.19294 0.44722,-0.46829 2.1648,-1.84393 2.97139,-2.38324 0.36465,-0.23898 0.6131,-0.32277 0.62966,-0.22253 0.0181,0.0863 0.18342,-0.007 0.35077,-0.24058 0.34539,-0.43786 0.78684,-0.61181 0.8413,-0.3527 0.0876,0.4596 0.30451,0.16148 1.13102,-1.52743 0.0762,-0.17385 0.10389,-0.17066 0.20795,0.0239 0.0902,0.193 0.14883,0.17165 0.41802,-0.0924 l 0.31717,-0.31469 -0.0527,0.45751 c -0.0319,0.27728 0.006,0.43615 0.0956,0.39027 0.0879,-0.032 0.16256,-0.19199 0.18012,-0.3445 0.016,-0.13864 0.0997,-0.25543 0.16895,-0.24746 0.0831,0.01 0.15779,-0.1504 0.18013,-0.3445 0.0223,-0.19409 0.0921,-0.31249 0.16895,-0.24746 0.0784,0.0512 0.14502,-0.0395 0.16577,-0.21973 0.0399,-0.34659 0.37938,-0.85537 0.34109,-0.52263 -0.0112,0.0971 0.0379,0.15887 0.11201,0.12526 0.0602,-0.0352 0.11028,-0.22611 0.0911,-0.42499 -0.0305,-0.46707 0.27447,-0.43197 0.33273,0.0383 0.0567,0.48414 0.28168,0.48195 0.33753,-0.003 0.0255,-0.22182 0.16834,-0.48633 0.32134,-0.59515 0.24576,-0.18243 0.27398,-0.30561 0.23057,-1.02703 0.0522,-1.80599 0.13412,-1.05794 0.80766,-0.42679 0.0693,0.008 0.29333,0.25851 0.4987,0.54904 l 0.37394,0.5347 0.005,-0.77207 c 0.006,-0.42071 0.0481,-1.27278 0.0767,-1.88758 0.0818,-1.19867 0.17027,-1.35706 1.44099,-2.75604 0.48133,-0.52055 0.82991,-0.98613 2.36866,-3.12688 0.86931,-1.20637 1.59618,-2.63985 1.66957,-3.27758 0.0463,-0.40205 0.26909,-0.62926 1.88594,-1.86198 2.41915,-1.8568 3.80021,-3.48188 5.08929,-6.01659 0.20037,-0.39836 0.54626,-0.9626 0.7616,-1.24686 0.39974,-0.54399 1.26663,-2.70587 1.55795,-3.89446 0.20984,-0.8468 0.73255,-2.09305 0.87118,-2.0771 0.20796,0.0239 0.38936,-1.43018 0.35595,-2.72639 -0.0157,-0.718217 -0.0132,-1.350067 0.007,-1.403937 0.0219,-0.0677 -0.0108,-0.394566 -0.0679,-0.752329 -0.0588,-0.343904 -0.10155,-0.82644 -0.10057,-1.079185 -0.32435,-0.933066 0.1306,-0.99003 -0.0302,-1.450317 -0.119,-0.30869 -0.36067,-0.771979 -0.52764,-1.030001 -0.23898,-0.364645 -0.65274,-2.140094 -0.60757,-2.654653 1.94147,-2.695827 3.24876,-4.279192 4.05262,-4.211394 -0.0957,-0.755522 0.1725,-0.766805 5.67906,-0.399967 1.53301,0.106169 3.77356,0.16739 4.96954,0.15051 1.19598,-0.01691 2.19467,-0.0284 2.2224,-0.02521 0.0139,0.0016 0.0341,-0.05224 0.0437,-0.135445 0.008,-0.06934 -0.44056,-0.444032 -0.98775,-0.816053 -0.55944,-0.387474 -1.31089,-0.937527 -1.67036,-1.231745 -0.47627,-0.377911 -1.14233,-0.693373 -2.32884,-1.12492 -1.59286,-0.562607 -1.64512,-0.596716 -1.10713,-0.633124 1.89924,-0.146655 6.01702,1.057711 7.09652,2.0529 0.49602,0.450415 0.68852,0.486612 0.73,0.126191 0.1069,-0.928879 -1.34516,-3.203121 -2.85663,-4.472769 -2.6651,-2.23123 -5.02216,-3.232965 -9.91621,-4.161445 -1.16725,-0.232671 -2.34518,-0.494662 -2.60221,-0.580432 -0.90175,-0.342588 -1.80301,-0.811546 -2.05157,-1.093007 -0.13814,-0.142325 -0.87044,-0.858741 -1.64434,-1.579943 -1.44326,-1.374185 -4.02236,-3.131946 -5.14274,-3.527789 -2.18691,-0.771444 -4.52781,-1.181327 -6.05861,-1.062508 z"
       sodipodi:nodetypes="ccsccccssccccccccccccccccccsccscccscscccccccccccccsccccccccsccccssccccscccccscscscsccscccccccccccccccscsccccccccccccccccccccccccsccccccscscccccccccccscccsccccscccsccccsccccccccsccccccscscsccccscccsccccccccccccccccccccccccccscccccccccccccccscscsscccccccccccccsccccscccccccccssscccccscccccccc" /><path
       d="m 130.01781,173.97166 -1.10268,5.48921 0.41542,0.25021 c 1.26291,0.73969 2.27403,1.93757 2.8605,3.38594 0.46236,1.14293 0.57609,2.20011 0.37563,3.49447 -0.25884,1.68448 -0.96299,3.01929 -2.12783,4.04435 -0.24657,0.22233 -0.48342,0.4323 -0.52775,0.47348 -0.0595,0.0452 -0.007,1.29801 0.15064,3.82174 l 0.22961,3.75175 4.46516,0.91449 4.46516,0.91449 -0.20703,0.90532 -0.2083,0.91223 -4.20066,-0.83876 -4.19923,-0.8457 -0.006,0.23585 c -0.002,0.1214 0.0495,8.38171 0.12642,18.34852 l 0.1302,18.11953 -0.27131,6.47799 c -0.15437,3.55823 -0.27414,6.49174 -0.26176,6.50146 0.0113,0.0166 0.0813,0.0239 0.1613,0.0187 0.1256,-0.0174 0.14645,-0.0491 0.13788,-0.28767 -0.0113,-0.54078 0.007,-0.55863 0.49223,-0.54536 0.24824,0.0149 0.47155,0.0464 0.49206,0.0864 0.0686,0.0857 -0.0926,4.2386 -0.1674,4.28793 -0.0748,0.0493 -0.89537,0.0248 -0.92824,-0.025 -0.0179,-0.018 -0.0225,-0.20566 -0.0113,-0.40424 0.0172,-0.43444 0.0227,-0.42613 -0.16638,-0.41459 -0.14485,0.006 -0.14769,0.02 -0.16956,0.58273 -0.007,0.31447 -0.0372,0.60263 -0.0609,0.64805 -0.0223,0.0386 -0.21411,0.0639 -0.42242,0.0643 l -0.38619,-0.007 -0.0993,0.58994 c -0.0595,0.32527 -0.23984,1.45143 -0.40467,2.5018 -0.158,1.0518 -0.32485,1.93661 -0.36638,1.96402 -0.0844,0.0617 -0.0952,0.0102 -0.59944,-2.82233 -0.38566,-2.21854 -0.38566,-2.21854 -0.58158,-2.20841 -0.1021,0.008 -0.29379,-0.002 -0.42473,-0.0297 l -0.23428,-0.0481 -0.15628,-21.42754 c -0.085,-11.78495 -0.17723,-24.05961 -0.20101,-27.2738 l -0.0393,-5.83798 -1.22655,-0.2512 -1.22652,-0.2512 -0.34829,1.63024 -0.35657,1.63576 -0.48234,-0.0987 -0.48234,-0.0987 0.31526,-1.64421 0.32065,-1.63591 -1.37125,-0.28083 -1.37124,-0.28084 -0.14214,0.30832 c -0.0795,0.17758 -3.00448,6.88746 -6.50807,14.91482 -15.016967,34.44562 -15.099227,34.63698 -15.242527,34.60045 -0.0689,-0.0141 -0.24931,-0.0798 -0.40216,-0.13978 l -0.26575,-0.10459 -1.00526,2.31421 c -0.57714,1.31056 -1.03689,2.29336 -1.075406,2.27111 -0.03166,-0.0209 -0.182911,-0.71953 -0.336342,-1.54791 l -0.271661,-1.51311 0.384698,-0.86175 c 0.206383,-0.48185 0.426711,-0.99674 0.479851,-1.151 l 0.0992,-0.27405 -0.368949,-0.16171 c -0.205144,-0.0851 -0.366113,-0.17552 -0.360462,-0.20308 0.0059,-0.0276 0.103448,-0.29471 0.222053,-0.59351 0.111719,-0.30021 0.195758,-0.57018 0.179308,-0.59509 -0.0165,-0.025 -0.08253,-0.0528 -0.151431,-0.0669 -0.09648,-0.0199 -0.15334,0.0475 -0.242833,0.30925 -0.06712,0.18729 -0.150596,0.34967 -0.182397,0.3647 -0.08427,0.0258 -0.757808,-0.19109 -0.853936,-0.2826 -0.04266,-0.0375 6.61e-4,-0.21518 0.148954,-0.58694 0.362953,-0.93081 1.298563,-3.39569 1.309853,-3.45082 0.007,-0.0344 0.17385,-0.007 0.36113,0.0597 0.6239,0.21394 0.61435,0.19045 0.46467,0.64082 -0.12582,0.36911 -0.12462,0.39809 0.0131,0.42631 0.0896,0.0183 0.16289,-0.024 0.21021,-0.11483 0.0321,-0.0868 1.11991,-2.94407 2.41988,-6.34667 1.826527,-4.81684 2.616537,-6.81614 3.552067,-8.96513 2.18197,-5.00973 13.01493,-29.85858 13.08731,-30.00172 l 0.0669,-0.15141 -4.04889,-0.84359 -4.05439,-0.85189 0.16708,-0.92068 0.16568,-0.91381 4.30667,0.88204 c 4.03106,0.82558 4.30119,0.87379 4.35274,0.76224 0.0334,-0.0579 0.83111,-1.63909 1.77502,-3.51352 l 1.71514,-3.39653 -0.14618,-0.30278 c -0.7121,-1.43102 -0.82471,-3.33517 -0.29164,-4.95629 0.29387,-0.90908 0.51793,-1.33705 1.06611,-2.05045 1.06861,-1.39656 2.65943,-2.3631 4.33669,-2.62989 l 0.63915,-0.10605 1.15364,-5.45726 1.15354,-5.45725 1.7407,0.33495 1.74616,0.3433 z m -8.39614,20.20727 c -0.57996,1.32433 -1.05681,2.42569 -1.06934,2.45184 -0.007,0.0344 0.5124,0.16236 1.16013,0.29502 l 1.1714,0.23992 0.34963,-1.63716 0.35508,-1.62887 0.48237,0.0987 0.48234,0.0987 -0.31379,1.63733 -0.32211,1.64281 1.0267,0.21028 1.02672,0.21027 -0.0113,-1.1367 c -0.0206,-3.29974 -0.032,-4.12056 -0.0525,-4.16065 -0.0165,-0.0248 -0.2343,-0.0481 -0.48393,-0.0561 -0.60405,-0.0305 -1.44332,-0.20942 -2.05466,-0.44954 -0.27123,-0.11302 -0.5398,-0.20389 -0.59635,-0.20829 -0.0773,-0.008 -0.37947,0.62589 -1.15046,2.39215 z m -25.845657,49.10736 c -0.007,0.0344 -0.18165,0.50126 -0.39385,1.04654 -0.457913,1.18421 -0.457913,1.18421 -0.300663,1.1877 0.100693,-6.6e-4 0.198173,-0.19634 0.533233,-1.0611 0.29461,-0.77249 0.39399,-1.08241 0.33903,-1.12956 -0.0824,-0.0887 -0.16504,-0.1056 -0.17775,-0.0435 z m 34.391317,7.35944 c -0.0297,0.1447 -0.0961,1.69626 -0.0936,2.03424 0.002,0.19452 0.19742,0.26299 0.23412,0.0838 0.024,-0.11721 0.0903,-1.63285 0.0852,-2.02876 -0.002,-0.23038 -0.18206,-0.30294 -0.22582,-0.0894 z"
       id="path8078"
       style="fill:#000000;stroke:none;stroke-width:0.00703373" /><path
       d="m 147.63767,43.682117 c 3.32259,-0.244405 5.55979,-0.411869 15.47582,-1.167943 2.51338,-0.186554 6.49002,-0.493347 8.83415,-0.667377 2.34239,-0.179928 5.80718,-0.441514 7.70411,-0.589815 1.89107,-0.146539 3.49007,-0.262802 3.54239,-0.259335 0.0581,0.0017 -0.008,0.07934 -0.16495,0.197051 -8.96437,6.576242 -11.8607,8.704358 -11.87301,8.727288 -0.008,0.01525 0.073,0.157448 0.18485,0.316003 0.2567,0.384052 0.77192,1.946232 1.33777,4.101906 0.24306,0.913625 0.48438,1.75729 0.53144,1.871279 0.0746,0.163389 0.16021,0.233702 0.40585,0.326337 0.88894,0.334654 1.36816,1.138714 1.2198,2.029229 -0.0362,0.241582 -0.144,0.543187 -0.24551,0.695505 l -0.17309,0.276393 0.20679,1.623012 c 0.10965,0.89613 0.20446,1.636527 0.20799,1.648279 0.004,0.01147 -0.0293,0.0089 -0.0717,-0.004 -0.0616,-0.01347 0.0421,0.352584 0.40166,1.461802 0.59307,1.820674 0.94605,2.694792 2.63205,6.570083 0.48365,1.116723 0.84723,2.026091 1.28452,3.201616 0.20161,0.541631 0.20515,0.553394 0.10024,0.886152 -0.11831,0.394465 -0.3607,0.717366 -0.79759,1.053977 -0.44511,0.35191 -1.50087,0.676239 -2.21727,0.680482 -1.02142,0.01282 -1.96967,-0.284752 -2.51382,-0.793724 -0.21942,-0.196642 -0.25414,-0.269499 -0.40925,-0.805912 -0.31322,-1.103965 -0.45438,-2.913333 -0.6017,-7.828691 -0.0981,-3.347417 -0.127,-4.017954 -0.19,-4.120735 -0.0292,-0.05527 -0.14366,-0.796177 -0.25088,-1.641769 l -0.18966,-1.544864 -0.28355,-0.260646 c -0.50471,-0.463171 -0.70747,-1.030085 -0.59355,-1.673147 0.0602,-0.332112 0.34351,-0.859572 0.59302,-1.094906 0.16205,-0.164141 0.1808,-0.208231 0.11428,-0.322768 -0.0485,-0.0751 -0.34455,-1.165012 -0.66481,-2.420634 -0.44727,-1.76205 -0.63426,-2.404202 -0.81274,-2.805428 -0.12563,-0.288956 -0.25244,-0.539086 -0.28992,-0.559977 -0.0383,-0.0205 -1.12819,0.743435 -2.45128,1.712163 -1.31132,0.965182 -2.62264,1.930367 -2.92215,2.148717 -0.46216,0.337817 -0.53027,0.409582 -0.49665,0.52121 0.023,0.0764 0.57355,1.627909 1.23069,3.448513 1.84307,5.141622 1.78765,4.978884 1.85295,5.600014 0.21249,2.024985 -0.504,4.220786 -1.77215,5.435692 -0.46147,0.446545 -3.35047,2.258478 -5.08438,3.203534 -5.87192,3.184361 -11.75534,4.904775 -18.52157,5.417213 -3.25675,0.25021 -5.79992,0.06126 -7.48431,-0.552896 -1.32517,-0.485239 -1.68169,-0.839256 -2.36146,-2.351864 -0.16796,-0.365941 -0.35407,-0.835351 -0.41424,-1.035103 -0.0602,-0.199743 -0.47911,-2.399654 -0.92248,-4.89339 -0.44923,-2.491961 -0.83577,-4.605505 -0.85234,-4.703043 -0.0379,-0.16801 -0.057,-0.168657 -1.02167,-0.243426 -0.54247,-0.03528 -5.379,-0.392295 -10.74628,-0.788122 -5.37313,-0.394066 -9.85527,-0.723229 -9.96165,-0.736044 -0.11048,-0.0052 -0.17577,-0.03039 -0.14405,-0.05275 0.0259,-0.02065 4.43408,-2.34132 9.79041,-5.152503 5.35452,-2.817121 13.46096,-7.071615 18.00723,-9.46595 4.54808,-2.388393 8.29554,-4.34993 8.33257,-4.354668 0.0312,-0.003 1.60897,-0.125671 3.50946,-0.262228 z"
       id="path8818"
       style="fill:#000000;stroke:none;stroke-width:0.00613575" /><text
       xml:space="preserve"
       style="font-size:22.5778px;font-family:'MV Boli';-inkscape-font-specification:'MV Boli';text-align:start;text-anchor:start;white-space:pre;inline-size:203.187;display:inline;fill:#000000;fill-opacity:1;stroke-width:0.264583"
       x="166.97197"
       y="184.50438"
       id="text9921"
       transform="translate(-111.62804)"><tspan
         x="166.97197"
         y="184.50438"
         id="tspan12329"><tspan
           style="font-family:'Cambria Math';-inkscape-font-specification:'Cambria Math'"
           id="tspan12327">Math
</tspan></tspan><tspan
         x="166.97197"
         y="213.13534"
         id="tspan12333"><tspan
           style="font-family:'Cambria Math';-inkscape-font-specification:'Cambria Math'"
           id="tspan12331">Crow
</tspan></tspan><tspan
         x="166.97197"
         y="241.76629"
         id="tspan12337"><tspan
           style="font-family:'Cambria Math';-inkscape-font-specification:'Cambria Math'"
           id="tspan12335">Pad</tspan></tspan></text></g></svg>
