<?xml version="1.0"?>
<!-- Generated by SVGo -->
<svg width="105.252mm" height="124.302mm"
     viewBox="0.000 0.000 105.252 124.302"
     xmlns="http://www.w3.org/2000/svg" 
     xmlns:xlink="http://www.w3.org/1999/xlink">
<polygon points="100.251,119.302 5.001,119.302 5.001,5.001 100.251,5.001" style="fill:none;stroke-width:0.050000mm;stroke:black"/>
<polygon points="36.101,102.775 36.101,103.775 35.301,103.775 35.301,106.875 36.101,106.875 36.101,107.476 34.576,107.476 34.576,104.245 32.851,104.245 32.851,103.325 29.551,103.325 29.551,104.245 27.826,104.245 27.826,107.476 27.001,107.476 27.001,110.275 27.826,110.275 27.826,116.545 29.551,116.545 29.551,117.525 32.851,117.525 32.851,116.545 34.576,116.545 34.576,112.075 36.101,112.075 36.101,112.676 35.301,112.676 35.301,115.775 36.101,115.775 36.101,116.775 50.101,116.775 50.101,115.775 50.901,115.775 50.901,112.676 50.101,112.676 50.101,112.075 51.626,112.075 51.626,116.545 53.351,116.545 53.351,117.525 56.651,117.525 56.651,116.545 58.376,116.545 58.376,110.275 59.201,110.275 59.201,107.476 58.376,107.476 58.376,104.245 56.651,104.245 56.651,103.325 53.351,103.325 53.351,104.245 51.626,104.245 51.626,107.476 50.101,107.476 50.101,106.875 50.901,106.875 50.901,103.775 50.101,103.775 50.101,102.775" style="fill:none;stroke-width:0.050000mm;stroke:black"/>
<polygon points="7.526,102.775 7.526,103.775 6.726,103.775 6.726,106.875 7.526,106.875 7.526,112.676 6.726,112.676 6.726,115.775 7.526,115.775 7.526,116.775 21.526,116.775 21.526,115.775 22.326,115.775 22.326,112.676 21.526,112.676 21.526,106.875 22.326,106.875 22.326,103.775 21.526,103.775 21.526,102.775" style="fill:none;stroke-width:0.050000mm;stroke:black"/>
<polygon points="64.676,102.775 64.676,103.775 63.876,103.775 63.876,106.875 64.676,106.875 64.676,112.676 63.876,112.676 63.876,115.775 64.676,115.775 64.676,116.775 78.676,116.775 78.676,115.775 79.476,115.775 79.476,112.676 78.676,112.676 78.676,106.875 79.476,106.875 79.476,103.775 78.676,103.775 78.676,102.775" style="fill:none;stroke-width:0.050000mm;stroke:black"/>
<polygon points="90.226,84.151 90.226,84.976 83.956,84.976 83.956,86.701 82.976,86.701 82.976,90.001 83.956,90.001 83.956,91.726 88.426,91.726 88.426,93.251 87.825,93.251 87.825,92.451 84.726,92.451 84.726,93.251 83.726,93.251 83.726,107.251 84.726,107.251 84.726,108.051 87.825,108.051 87.825,107.251 88.426,107.251 88.426,108.776 83.956,108.776 83.956,110.501 82.976,110.501 82.976,113.801 83.956,113.801 83.956,115.526 90.226,115.526 90.226,116.351 93.025,116.351 93.025,115.526 96.256,115.526 96.256,113.801 97.176,113.801 97.176,110.501 96.256,110.501 96.256,108.776 93.025,108.776 93.025,107.251 93.626,107.251 93.626,108.051 96.726,108.051 96.726,107.251 97.726,107.251 97.726,93.251 96.726,93.251 96.726,92.451 93.626,92.451 93.626,93.251 93.025,93.251 93.025,91.726 96.256,91.726 96.256,90.001 97.176,90.001 97.176,86.701 96.256,86.701 96.256,84.976 93.025,84.976 93.025,84.151" style="fill:none;stroke-width:0.050000mm;stroke:black"/>
<polygon points="7.526,83.726 7.526,84.726 6.726,84.726 6.726,87.825 7.526,87.825 7.526,93.626 6.726,93.626 6.726,96.726 7.526,96.726 7.526,97.726 21.526,97.726 21.526,96.726 22.326,96.726 22.326,93.626 21.526,93.626 21.526,87.825 22.326,87.825 22.326,84.726 21.526,84.726 21.526,83.726" style="fill:none;stroke-width:0.050000mm;stroke:black"/>
<polygon points="26.576,83.726 26.576,84.726 25.776,84.726 25.776,87.825 26.576,87.825 26.576,93.626 25.776,93.626 25.776,96.726 26.576,96.726 26.576,97.726 40.576,97.726 40.576,96.726 41.376,96.726 41.376,93.626 40.576,93.626 40.576,87.825 41.376,87.825 41.376,84.726 40.576,84.726 40.576,83.726" style="fill:none;stroke-width:0.050000mm;stroke:black"/>
<polygon points="45.626,83.726 45.626,84.726 44.826,84.726 44.826,87.825 45.626,87.825 45.626,93.626 44.826,93.626 44.826,96.726 45.626,96.726 45.626,97.726 59.626,97.726 59.626,96.726 60.426,96.726 60.426,93.626 59.626,93.626 59.626,87.825 60.426,87.825 60.426,84.726 59.626,84.726 59.626,83.726" style="fill:none;stroke-width:0.050000mm;stroke:black"/>
<polygon points="64.676,83.726 64.676,84.726 63.876,84.726 63.876,87.825 64.676,87.825 64.676,93.626 63.876,93.626 63.876,96.726 64.676,96.726 64.676,97.726 78.676,97.726 78.676,96.726 79.476,96.726 79.476,93.626 78.676,93.626 78.676,87.825 79.476,87.825 79.476,84.726 78.676,84.726 78.676,83.726" style="fill:none;stroke-width:0.050000mm;stroke:black"/>
<polygon points="7.526,64.676 7.526,65.676 6.726,65.676 6.726,68.775 7.526,68.775 7.526,74.576 6.726,74.576 6.726,77.676 7.526,77.676 7.526,78.676 21.526,78.676 21.526,77.676 22.326,77.676 22.326,74.576 21.526,74.576 21.526,68.775 22.326,68.775 22.326,65.676 21.526,65.676 21.526,64.676" style="fill:none;stroke-width:0.050000mm;stroke:black"/>
<polygon points="26.576,64.676 26.576,65.676 25.776,65.676 25.776,68.775 26.576,68.775 26.576,74.576 25.776,74.576 25.776,77.676 26.576,77.676 26.576,78.676 40.576,78.676 40.576,77.676 41.376,77.676 41.376,74.576 40.576,74.576 40.576,68.775 41.376,68.775 41.376,65.676 40.576,65.676 40.576,64.676" style="fill:none;stroke-width:0.050000mm;stroke:black"/>
<polygon points="45.626,64.676 45.626,65.676 44.826,65.676 44.826,68.775 45.626,68.775 45.626,74.576 44.826,74.576 44.826,77.676 45.626,77.676 45.626,78.676 59.626,78.676 59.626,77.676 60.426,77.676 60.426,74.576 59.626,74.576 59.626,68.775 60.426,68.775 60.426,65.676 59.626,65.676 59.626,64.676" style="fill:none;stroke-width:0.050000mm;stroke:black"/>
<polygon points="64.676,64.676 64.676,65.676 63.876,65.676 63.876,68.775 64.676,68.775 64.676,74.576 63.876,74.576 63.876,77.676 64.676,77.676 64.676,78.676 78.676,78.676 78.676,77.676 79.476,77.676 79.476,74.576 78.676,74.576 78.676,68.775 79.476,68.775 79.476,65.676 78.676,65.676 78.676,64.676" style="fill:none;stroke-width:0.050000mm;stroke:black"/>
<polygon points="90.226,46.051 90.226,46.876 83.956,46.876 83.956,48.600 82.976,48.600 82.976,51.901 83.956,51.901 83.956,53.626 88.426,53.626 88.426,55.151 87.825,55.151 87.825,54.351 84.726,54.351 84.726,55.151 83.726,55.151 83.726,69.151 84.726,69.151 84.726,69.951 87.825,69.951 87.825,69.151 88.426,69.151 88.426,70.676 83.956,70.676 83.956,72.401 82.976,72.401 82.976,75.701 83.956,75.701 83.956,77.426 90.226,77.426 90.226,78.251 93.025,78.251 93.025,77.426 96.256,77.426 96.256,75.701 97.176,75.701 97.176,72.401 96.256,72.401 96.256,70.676 93.025,70.676 93.025,69.151 93.626,69.151 93.626,69.951 96.726,69.951 96.726,69.151 97.726,69.151 97.726,55.151 96.726,55.151 96.726,54.351 93.626,54.351 93.626,55.151 93.025,55.151 93.025,53.626 96.256,53.626 96.256,51.901 97.176,51.901 97.176,48.600 96.256,48.600 96.256,46.876 93.025,46.876 93.025,46.051" style="fill:none;stroke-width:0.050000mm;stroke:black"/>
<polygon points="7.526,45.626 7.526,46.626 6.726,46.626 6.726,49.726 7.526,49.726 7.526,55.526 6.726,55.526 6.726,58.626 7.526,58.626 7.526,59.626 21.526,59.626 21.526,58.626 22.326,58.626 22.326,55.526 21.526,55.526 21.526,49.726 22.326,49.726 22.326,46.626 21.526,46.626 21.526,45.626" style="fill:none;stroke-width:0.050000mm;stroke:black"/>
<polygon points="26.576,45.626 26.576,46.626 25.776,46.626 25.776,49.726 26.576,49.726 26.576,55.526 25.776,55.526 25.776,58.626 26.576,58.626 26.576,59.626 40.576,59.626 40.576,58.626 41.376,58.626 41.376,55.526 40.576,55.526 40.576,49.726 41.376,49.726 41.376,46.626 40.576,46.626 40.576,45.626" style="fill:none;stroke-width:0.050000mm;stroke:black"/>
<polygon points="45.626,45.626 45.626,46.626 44.826,46.626 44.826,49.726 45.626,49.726 45.626,55.526 44.826,55.526 44.826,58.626 45.626,58.626 45.626,59.626 59.626,59.626 59.626,58.626 60.426,58.626 60.426,55.526 59.626,55.526 59.626,49.726 60.426,49.726 60.426,46.626 59.626,46.626 59.626,45.626" style="fill:none;stroke-width:0.050000mm;stroke:black"/>
<polygon points="64.676,45.626 64.676,46.626 63.876,46.626 63.876,49.726 64.676,49.726 64.676,55.526 63.876,55.526 63.876,58.626 64.676,58.626 64.676,59.626 78.676,59.626 78.676,58.626 79.476,58.626 79.476,55.526 78.676,55.526 78.676,49.726 79.476,49.726 79.476,46.626 78.676,46.626 78.676,45.626" style="fill:none;stroke-width:0.050000mm;stroke:black"/>
<polygon points="7.526,26.576 7.526,27.576 6.726,27.576 6.726,30.676 7.526,30.676 7.526,36.476 6.726,36.476 6.726,39.576 7.526,39.576 7.526,40.576 21.526,40.576 21.526,39.576 22.326,39.576 22.326,36.476 21.526,36.476 21.526,30.676 22.326,30.676 22.326,27.576 21.526,27.576 21.526,26.576" style="fill:none;stroke-width:0.050000mm;stroke:black"/>
<polygon points="26.576,26.576 26.576,27.576 25.776,27.576 25.776,30.676 26.576,30.676 26.576,36.476 25.776,36.476 25.776,39.576 26.576,39.576 26.576,40.576 40.576,40.576 40.576,39.576 41.376,39.576 41.376,36.476 40.576,36.476 40.576,30.676 41.376,30.676 41.376,27.576 40.576,27.576 40.576,26.576" style="fill:none;stroke-width:0.050000mm;stroke:black"/>
<polygon points="45.626,26.576 45.626,27.576 44.826,27.576 44.826,30.676 45.626,30.676 45.626,36.476 44.826,36.476 44.826,39.576 45.626,39.576 45.626,40.576 59.626,40.576 59.626,39.576 60.426,39.576 60.426,36.476 59.626,36.476 59.626,30.676 60.426,30.676 60.426,27.576 59.626,27.576 59.626,26.576" style="fill:none;stroke-width:0.050000mm;stroke:black"/>
<polygon points="64.676,26.576 64.676,27.576 63.876,27.576 63.876,30.676 64.676,30.676 64.676,36.476 63.876,36.476 63.876,39.576 64.676,39.576 64.676,40.576 78.676,40.576 78.676,39.576 79.476,39.576 79.476,36.476 78.676,36.476 78.676,30.676 79.476,30.676 79.476,27.576 78.676,27.576 78.676,26.576" style="fill:none;stroke-width:0.050000mm;stroke:black"/>
<polygon points="83.726,26.576 83.726,27.576 82.926,27.576 82.926,30.676 83.726,30.676 83.726,36.476 82.926,36.476 82.926,39.576 83.726,39.576 83.726,40.576 97.726,40.576 97.726,39.576 98.525,39.576 98.525,36.476 97.726,36.476 97.726,30.676 98.525,30.676 98.525,27.576 97.726,27.576 97.726,26.576" style="fill:none;stroke-width:0.050000mm;stroke:black"/>
<polygon points="7.526,7.526 7.526,8.526 6.726,8.526 6.726,11.626 7.526,11.626 7.526,17.426 6.726,17.426 6.726,20.526 7.526,20.526 7.526,21.526 21.526,21.526 21.526,20.526 22.326,20.526 22.326,17.426 21.526,17.426 21.526,11.626 22.326,11.626 22.326,8.526 21.526,8.526 21.526,7.526" style="fill:none;stroke-width:0.050000mm;stroke:black"/>
<polygon points="26.576,7.526 26.576,8.526 25.776,8.526 25.776,11.626 26.576,11.626 26.576,17.426 25.776,17.426 25.776,20.526 26.576,20.526 26.576,21.526 40.576,21.526 40.576,20.526 41.376,20.526 41.376,17.426 40.576,17.426 40.576,11.626 41.376,11.626 41.376,8.526 40.576,8.526 40.576,7.526" style="fill:none;stroke-width:0.050000mm;stroke:black"/>
<polygon points="45.626,7.526 45.626,8.526 44.826,8.526 44.826,11.626 45.626,11.626 45.626,17.426 44.826,17.426 44.826,20.526 45.626,20.526 45.626,21.526 59.626,21.526 59.626,20.526 60.426,20.526 60.426,17.426 59.626,17.426 59.626,11.626 60.426,11.626 60.426,8.526 59.626,8.526 59.626,7.526" style="fill:none;stroke-width:0.050000mm;stroke:black"/>
</svg>
