<?xml version="1.0" encoding="UTF-8" standalone="no"?>
<!-- Generated by SVGo -->

<svg
   width="105.252mm"
   height="124.302mm"
   viewBox="0.000 0.000 105.252 124.302"
   version="1.1"
   id="svg54"
   xmlns="http://www.w3.org/2000/svg"
   xmlns:svg="http://www.w3.org/2000/svg">
  <defs
     id="defs58" />
  <g
     id="g278"
     transform="translate(3.0413604)">
    <polygon
       points="50.001953,102.875 50.001953,103.875 50.800781,103.875 50.800781,106.77539 50.001953,106.77539 50.001953,107.57617 51.726562,107.57617 51.726562,104.34375 53.451172,104.34375 53.451172,103.42383 56.550781,103.42383 56.550781,104.34375 58.277344,104.34375 58.277344,107.57617 59.101562,107.57617 59.101562,110.17578 58.277344,110.17578 58.277344,116.44531 56.550781,116.44531 56.550781,117.42578 53.451172,117.42578 53.451172,116.44531 51.726562,116.44531 51.726562,111.97461 50.001953,111.97461 50.001953,112.77539 50.800781,112.77539 50.800781,115.67578 50.001953,115.67578 50.001953,116.67578 36.201172,116.67578 36.201172,115.67578 35.400391,115.67578 35.400391,112.77539 36.201172,112.77539 36.201172,111.97461 34.476562,111.97461 34.476562,116.44531 32.751953,116.44531 32.751953,117.42578 29.650391,117.42578 29.650391,116.44531 27.925781,116.44531 27.925781,110.17578 27.101562,110.17578 27.101562,107.57617 27.925781,107.57617 27.925781,104.34375 29.650391,104.34375 29.650391,103.42383 32.751953,103.42383 32.751953,104.34375 34.476562,104.34375 34.476562,107.57617 36.201172,107.57617 36.201172,106.77539 35.400391,106.77539 35.400391,103.875 36.201172,103.875 36.201172,102.875 "
       style="fill:none;stroke:#000000;stroke-width:0.05mm"
       id="polygon4"
       d="m 36.201172,102.875 h 13.800781 v 1 h 0.798828 v 2.90039 h -0.798828 v 0.80078 h 1.724609 v -3.23242 h 1.72461 v -0.91992 h 3.099609 v 0.91992 h 1.726563 v 3.23242 h 0.824218 v 2.59961 h -0.824218 v 6.26953 h -1.726563 v 0.98047 h -3.099609 v -0.98047 h -1.72461 v -4.4707 h -1.724609 v 0.80078 h 0.798828 v 2.90039 h -0.798828 v 1 H 36.201172 v -1 h -0.800781 v -2.90039 h 0.800781 v -0.80078 h -1.72461 v 4.4707 h -1.724609 v 0.98047 h -3.101562 v -0.98047 h -1.72461 v -6.26953 h -0.824219 v -2.59961 h 0.824219 v -3.23242 h 1.72461 v -0.91992 h 3.101562 v 0.91992 h 1.724609 v 3.23242 h 1.72461 v -0.80078 H 35.400391 V 103.875 h 0.800781 z" />
    <polygon
       points="21.425781,102.875 21.425781,103.875 22.226562,103.875 22.226562,106.77539 21.425781,106.77539 21.425781,112.77539 22.226562,112.77539 22.226562,115.67578 21.425781,115.67578 21.425781,116.67578 7.625,116.67578 7.625,115.67578 6.8261719,115.67578 6.8261719,112.77539 7.625,112.77539 7.625,106.77539 6.8261719,106.77539 6.8261719,103.875 7.625,103.875 7.625,102.875 "
       style="fill:none;stroke:#000000;stroke-width:0.05mm"
       id="polygon6"
       d="m 7.625,102.875 h 13.800781 v 1 h 0.800781 v 2.90039 h -0.800781 v 6 h 0.800781 v 2.90039 h -0.800781 v 1 H 7.625 v -1 H 6.8261719 v -2.90039 H 7.625 v -6 H 6.8261719 V 103.875 H 7.625 Z" />
    <polygon
       points="78.576172,102.875 78.576172,103.875 79.376953,103.875 79.376953,106.77539 78.576172,106.77539 78.576172,112.77539 79.376953,112.77539 79.376953,115.67578 78.576172,115.67578 78.576172,116.67578 64.775391,116.67578 64.775391,115.67578 63.976562,115.67578 63.976562,112.77539 64.775391,112.77539 64.775391,106.77539 63.976562,106.77539 63.976562,103.875 64.775391,103.875 64.775391,102.875 "
       style="fill:none;stroke:#000000;stroke-width:0.05mm"
       id="polygon8"
       d="m 64.775391,102.875 h 13.800781 v 1 h 0.800781 v 2.90039 h -0.800781 v 6 h 0.800781 v 2.90039 h -0.800781 v 1 H 64.775391 v -1 h -0.798829 v -2.90039 h 0.798829 v -6 H 63.976562 V 103.875 h 0.798829 z" />
    <polygon
       points="92.925781,84.25 92.925781,85.076172 96.15625,85.076172 96.15625,86.800781 97.076172,86.800781 97.076172,89.902344 96.15625,89.902344 96.15625,91.626953 92.925781,91.626953 92.925781,93.351562 93.726562,93.351562 93.726562,92.550781 96.626953,92.550781 96.626953,93.351562 97.626953,93.351562 97.626953,107.15234 96.626953,107.15234 96.626953,107.95117 93.726562,107.95117 93.726562,107.15234 92.925781,107.15234 92.925781,108.875 96.15625,108.875 96.15625,110.60156 97.076172,110.60156 97.076172,113.70117 96.15625,113.70117 96.15625,115.42578 92.925781,115.42578 92.925781,116.25195 90.326172,116.25195 90.326172,115.42578 84.054688,115.42578 84.054688,113.70117 83.076172,113.70117 83.076172,110.60156 84.054688,110.60156 84.054688,108.875 88.525391,108.875 88.525391,107.15234 87.724609,107.15234 87.724609,107.95117 84.826172,107.95117 84.826172,107.15234 83.826172,107.15234 83.826172,93.351562 84.826172,93.351562 84.826172,92.550781 87.724609,92.550781 87.724609,93.351562 88.525391,93.351562 88.525391,91.626953 84.054688,91.626953 84.054688,89.902344 83.076172,89.902344 83.076172,86.800781 84.054688,86.800781 84.054688,85.076172 90.326172,85.076172 90.326172,84.25 "
       style="fill:none;stroke:#000000;stroke-width:0.05mm"
       id="polygon10"
       d="m 90.326172,84.25 h 2.599609 v 0.826172 h 3.230469 v 1.724609 h 0.919922 v 3.101563 H 96.15625 v 1.724609 h -3.230469 v 1.724609 h 0.800781 v -0.800781 h 2.900391 v 0.800781 h 1 v 13.800778 h -1 v 0.79883 h -2.900391 v -0.79883 h -0.800781 v 1.72266 h 3.230469 v 1.72656 h 0.919922 v 3.09961 H 96.15625 v 1.72461 h -3.230469 v 0.82617 h -2.599609 v -0.82617 h -6.271484 v -1.72461 h -0.978516 v -3.09961 h 0.978516 V 108.875 h 4.470703 v -1.72266 h -0.800782 v 0.79883 h -2.898437 v -0.79883 h -1 V 93.351562 h 1 v -0.800781 h 2.898437 v 0.800781 h 0.800782 v -1.724609 h -4.470703 v -1.724609 h -0.978516 v -3.101563 h 0.978516 v -1.724609 h 6.271484 z" />
    <polygon
       points="21.425781,83.826172 21.425781,84.826172 22.226562,84.826172 22.226562,87.724609 21.425781,87.724609 21.425781,93.726562 22.226562,93.726562 22.226562,96.626953 21.425781,96.626953 21.425781,97.626953 7.625,97.626953 7.625,96.626953 6.8261719,96.626953 6.8261719,93.726562 7.625,93.726562 7.625,87.724609 6.8261719,87.724609 6.8261719,84.826172 7.625,84.826172 7.625,83.826172 "
       style="fill:none;stroke:#000000;stroke-width:0.05mm"
       id="polygon12"
       d="m 7.625,83.826172 h 13.800781 v 1 h 0.800781 v 2.898437 h -0.800781 v 6.001953 h 0.800781 v 2.900391 h -0.800781 v 1 H 7.625 v -1 H 6.8261719 V 93.726562 H 7.625 V 87.724609 H 6.8261719 V 84.826172 H 7.625 Z" />
    <polygon
       points="40.476562,83.826172 40.476562,84.826172 41.277344,84.826172 41.277344,87.724609 40.476562,87.724609 40.476562,93.726562 41.277344,93.726562 41.277344,96.626953 40.476562,96.626953 40.476562,97.626953 26.675781,97.626953 26.675781,96.626953 25.875,96.626953 25.875,93.726562 26.675781,93.726562 26.675781,87.724609 25.875,87.724609 25.875,84.826172 26.675781,84.826172 26.675781,83.826172 "
       style="fill:none;stroke:#000000;stroke-width:0.05mm"
       id="polygon14"
       d="m 26.675781,83.826172 h 13.800781 v 1 h 0.800782 v 2.898437 h -0.800782 v 6.001953 h 0.800782 v 2.900391 h -0.800782 v 1 H 26.675781 v -1 H 25.875 v -2.900391 h 0.800781 V 87.724609 H 25.875 v -2.898437 h 0.800781 z" />
    <polygon
       points="59.527344,83.826172 59.527344,84.826172 60.326172,84.826172 60.326172,87.724609 59.527344,87.724609 59.527344,93.726562 60.326172,93.726562 60.326172,96.626953 59.527344,96.626953 59.527344,97.626953 45.726562,97.626953 45.726562,96.626953 44.925781,96.626953 44.925781,93.726562 45.726562,93.726562 45.726562,87.724609 44.925781,87.724609 44.925781,84.826172 45.726562,84.826172 45.726562,83.826172 "
       style="fill:none;stroke:#000000;stroke-width:0.05mm"
       id="polygon16"
       d="m 45.726562,83.826172 h 13.800782 v 1 h 0.798828 v 2.898437 h -0.798828 v 6.001953 h 0.798828 v 2.900391 h -0.798828 v 1 H 45.726562 v -1 h -0.800781 v -2.900391 h 0.800781 v -6.001953 h -0.800781 v -2.898437 h 0.800781 z" />
    <polygon
       points="78.576172,83.826172 78.576172,84.826172 79.376953,84.826172 79.376953,87.724609 78.576172,87.724609 78.576172,93.726562 79.376953,93.726562 79.376953,96.626953 78.576172,96.626953 78.576172,97.626953 64.775391,97.626953 64.775391,96.626953 63.976562,96.626953 63.976562,93.726562 64.775391,93.726562 64.775391,87.724609 63.976562,87.724609 63.976562,84.826172 64.775391,84.826172 64.775391,83.826172 "
       style="fill:none;stroke:#000000;stroke-width:0.05mm"
       id="polygon18"
       d="m 64.775391,83.826172 h 13.800781 v 1 h 0.800781 v 2.898437 h -0.800781 v 6.001953 h 0.800781 v 2.900391 h -0.800781 v 1 H 64.775391 v -1 h -0.798829 v -2.900391 h 0.798829 v -6.001953 h -0.798829 v -2.898437 h 0.798829 z" />
    <polygon
       points="21.425781,64.775391 21.425781,65.775391 22.226562,65.775391 22.226562,68.675781 21.425781,68.675781 21.425781,74.675781 22.226562,74.675781 22.226562,77.576172 21.425781,77.576172 21.425781,78.576172 7.625,78.576172 7.625,77.576172 6.8261719,77.576172 6.8261719,74.675781 7.625,74.675781 7.625,68.675781 6.8261719,68.675781 6.8261719,65.775391 7.625,65.775391 7.625,64.775391 "
       style="fill:none;stroke:#000000;stroke-width:0.05mm"
       id="polygon20"
       d="m 7.625,64.775391 h 13.800781 v 1 h 0.800781 v 2.90039 h -0.800781 v 6 h 0.800781 v 2.900391 h -0.800781 v 1 H 7.625 v -1 H 6.8261719 V 74.675781 H 7.625 v -6 H 6.8261719 v -2.90039 H 7.625 Z" />
    <polygon
       points="40.476562,64.775391 40.476562,65.775391 41.277344,65.775391 41.277344,68.675781 40.476562,68.675781 40.476562,74.675781 41.277344,74.675781 41.277344,77.576172 40.476562,77.576172 40.476562,78.576172 26.675781,78.576172 26.675781,77.576172 25.875,77.576172 25.875,74.675781 26.675781,74.675781 26.675781,68.675781 25.875,68.675781 25.875,65.775391 26.675781,65.775391 26.675781,64.775391 "
       style="fill:none;stroke:#000000;stroke-width:0.05mm"
       id="polygon22"
       d="m 26.675781,64.775391 h 13.800781 v 1 h 0.800782 v 2.90039 h -0.800782 v 6 h 0.800782 v 2.900391 h -0.800782 v 1 H 26.675781 v -1 H 25.875 v -2.900391 h 0.800781 v -6 H 25.875 v -2.90039 h 0.800781 z" />
    <polygon
       points="59.527344,64.775391 59.527344,65.775391 60.326172,65.775391 60.326172,68.675781 59.527344,68.675781 59.527344,74.675781 60.326172,74.675781 60.326172,77.576172 59.527344,77.576172 59.527344,78.576172 45.726562,78.576172 45.726562,77.576172 44.925781,77.576172 44.925781,74.675781 45.726562,74.675781 45.726562,68.675781 44.925781,68.675781 44.925781,65.775391 45.726562,65.775391 45.726562,64.775391 "
       style="fill:none;stroke:#000000;stroke-width:0.05mm"
       id="polygon24"
       d="m 45.726562,64.775391 h 13.800782 v 1 h 0.798828 v 2.90039 h -0.798828 v 6 h 0.798828 v 2.900391 h -0.798828 v 1 H 45.726562 v -1 h -0.800781 v -2.900391 h 0.800781 v -6 h -0.800781 v -2.90039 h 0.800781 z" />
    <polygon
       points="78.576172,64.775391 78.576172,65.775391 79.376953,65.775391 79.376953,68.675781 78.576172,68.675781 78.576172,74.675781 79.376953,74.675781 79.376953,77.576172 78.576172,77.576172 78.576172,78.576172 64.775391,78.576172 64.775391,77.576172 63.976562,77.576172 63.976562,74.675781 64.775391,74.675781 64.775391,68.675781 63.976562,68.675781 63.976562,65.775391 64.775391,65.775391 64.775391,64.775391 "
       style="fill:none;stroke:#000000;stroke-width:0.05mm"
       id="polygon26"
       d="m 64.775391,64.775391 h 13.800781 v 1 h 0.800781 v 2.90039 h -0.800781 v 6 h 0.800781 v 2.900391 h -0.800781 v 1 H 64.775391 v -1 h -0.798829 v -2.900391 h 0.798829 v -6 h -0.798829 v -2.90039 h 0.798829 z" />
    <polygon
       points="92.925781,46.150391 92.925781,46.976562 96.15625,46.976562 96.15625,48.699219 97.076172,48.699219 97.076172,51.800781 96.15625,51.800781 96.15625,53.527344 92.925781,53.527344 92.925781,55.25 93.726562,55.25 93.726562,54.451172 96.626953,54.451172 96.626953,55.25 97.626953,55.25 97.626953,69.050781 96.626953,69.050781 96.626953,69.851562 93.726562,69.851562 93.726562,69.050781 92.925781,69.050781 92.925781,70.775391 96.15625,70.775391 96.15625,72.5 97.076172,72.5 97.076172,75.601562 96.15625,75.601562 96.15625,77.326172 92.925781,77.326172 92.925781,78.152344 90.326172,78.152344 90.326172,77.326172 84.054688,77.326172 84.054688,75.601562 83.076172,75.601562 83.076172,72.5 84.054688,72.5 84.054688,70.775391 88.525391,70.775391 88.525391,69.050781 87.724609,69.050781 87.724609,69.851562 84.826172,69.851562 84.826172,69.050781 83.826172,69.050781 83.826172,55.25 84.826172,55.25 84.826172,54.451172 87.724609,54.451172 87.724609,55.25 88.525391,55.25 88.525391,53.527344 84.054688,53.527344 84.054688,51.800781 83.076172,51.800781 83.076172,48.699219 84.054688,48.699219 84.054688,46.976562 90.326172,46.976562 90.326172,46.150391 "
       style="fill:none;stroke:#000000;stroke-width:0.05mm"
       id="polygon28"
       d="m 90.326172,46.150391 h 2.599609 v 0.826171 h 3.230469 v 1.722657 h 0.919922 v 3.101562 H 96.15625 v 1.726563 H 92.925781 V 55.25 h 0.800781 v -0.798828 h 2.900391 V 55.25 h 1 v 13.800781 h -1 v 0.800781 h -2.900391 v -0.800781 h -0.800781 v 1.72461 H 96.15625 V 72.5 h 0.919922 v 3.101562 H 96.15625 v 1.72461 h -3.230469 v 0.826172 h -2.599609 v -0.826172 h -6.271484 v -1.72461 H 83.076172 V 72.5 h 0.978516 v -1.724609 h 4.470703 v -1.72461 h -0.800782 v 0.800781 h -2.898437 v -0.800781 h -1 V 55.25 h 1 v -0.798828 h 2.898437 V 55.25 h 0.800782 v -1.722656 h -4.470703 v -1.726563 h -0.978516 v -3.101562 h 0.978516 v -1.722657 h 6.271484 z" />
    <polygon
       points="21.425781,45.726562 21.425781,46.726562 22.226562,46.726562 22.226562,49.626953 21.425781,49.626953 21.425781,55.625 22.226562,55.625 22.226562,58.527344 21.425781,58.527344 21.425781,59.527344 7.625,59.527344 7.625,58.527344 6.8261719,58.527344 6.8261719,55.625 7.625,55.625 7.625,49.626953 6.8261719,49.626953 6.8261719,46.726562 7.625,46.726562 7.625,45.726562 "
       style="fill:none;stroke:#000000;stroke-width:0.05mm"
       id="polygon30"
       d="m 7.625,45.726562 h 13.800781 v 1 h 0.800781 v 2.900391 H 21.425781 V 55.625 h 0.800781 v 2.902344 h -0.800781 v 1 H 7.625 v -1 H 6.8261719 V 55.625 H 7.625 V 49.626953 H 6.8261719 V 46.726562 H 7.625 Z" />
    <polygon
       points="40.476562,45.726562 40.476562,46.726562 41.277344,46.726562 41.277344,49.626953 40.476562,49.626953 40.476562,55.625 41.277344,55.625 41.277344,58.527344 40.476562,58.527344 40.476562,59.527344 26.675781,59.527344 26.675781,58.527344 25.875,58.527344 25.875,55.625 26.675781,55.625 26.675781,49.626953 25.875,49.626953 25.875,46.726562 26.675781,46.726562 26.675781,45.726562 "
       style="fill:none;stroke:#000000;stroke-width:0.05mm"
       id="polygon32"
       d="m 26.675781,45.726562 h 13.800781 v 1 h 0.800782 v 2.900391 H 40.476562 V 55.625 h 0.800782 v 2.902344 h -0.800782 v 1 H 26.675781 v -1 H 25.875 V 55.625 h 0.800781 V 49.626953 H 25.875 v -2.900391 h 0.800781 z" />
    <polygon
       points="59.527344,45.726562 59.527344,46.726562 60.326172,46.726562 60.326172,49.626953 59.527344,49.626953 59.527344,55.625 60.326172,55.625 60.326172,58.527344 59.527344,58.527344 59.527344,59.527344 45.726562,59.527344 45.726562,58.527344 44.925781,58.527344 44.925781,55.625 45.726562,55.625 45.726562,49.626953 44.925781,49.626953 44.925781,46.726562 45.726562,46.726562 45.726562,45.726562 "
       style="fill:none;stroke:#000000;stroke-width:0.05mm"
       id="polygon34"
       d="m 45.726562,45.726562 h 13.800782 v 1 h 0.798828 v 2.900391 H 59.527344 V 55.625 h 0.798828 v 2.902344 h -0.798828 v 1 H 45.726562 v -1 H 44.925781 V 55.625 h 0.800781 v -5.998047 h -0.800781 v -2.900391 h 0.800781 z" />
    <polygon
       points="78.576172,45.726562 78.576172,46.726562 79.376953,46.726562 79.376953,49.626953 78.576172,49.626953 78.576172,55.625 79.376953,55.625 79.376953,58.527344 78.576172,58.527344 78.576172,59.527344 64.775391,59.527344 64.775391,58.527344 63.976562,58.527344 63.976562,55.625 64.775391,55.625 64.775391,49.626953 63.976562,49.626953 63.976562,46.726562 64.775391,46.726562 64.775391,45.726562 "
       style="fill:none;stroke:#000000;stroke-width:0.05mm"
       id="polygon36"
       d="m 64.775391,45.726562 h 13.800781 v 1 h 0.800781 v 2.900391 H 78.576172 V 55.625 h 0.800781 v 2.902344 h -0.800781 v 1 H 64.775391 v -1 H 63.976562 V 55.625 h 0.798829 v -5.998047 h -0.798829 v -2.900391 h 0.798829 z" />
    <polygon
       points="21.425781,26.675781 21.425781,27.675781 22.226562,27.675781 22.226562,30.576172 21.425781,30.576172 21.425781,36.576172 22.226562,36.576172 22.226562,39.476562 21.425781,39.476562 21.425781,40.476562 7.625,40.476562 7.625,39.476562 6.8261719,39.476562 6.8261719,36.576172 7.625,36.576172 7.625,30.576172 6.8261719,30.576172 6.8261719,27.675781 7.625,27.675781 7.625,26.675781 "
       style="fill:none;stroke:#000000;stroke-width:0.05mm"
       id="polygon38"
       d="m 7.625,26.675781 h 13.800781 v 1 h 0.800781 v 2.900391 h -0.800781 v 6 h 0.800781 v 2.90039 h -0.800781 v 1 H 7.625 v -1 H 6.8261719 v -2.90039 H 7.625 v -6 H 6.8261719 V 27.675781 H 7.625 Z" />
    <polygon
       points="40.476562,26.675781 40.476562,27.675781 41.277344,27.675781 41.277344,30.576172 40.476562,30.576172 40.476562,36.576172 41.277344,36.576172 41.277344,39.476562 40.476562,39.476562 40.476562,40.476562 26.675781,40.476562 26.675781,39.476562 25.875,39.476562 25.875,36.576172 26.675781,36.576172 26.675781,30.576172 25.875,30.576172 25.875,27.675781 26.675781,27.675781 26.675781,26.675781 "
       style="fill:none;stroke:#000000;stroke-width:0.05mm"
       id="polygon40"
       d="m 26.675781,26.675781 h 13.800781 v 1 h 0.800782 v 2.900391 h -0.800782 v 6 h 0.800782 v 2.90039 h -0.800782 v 1 H 26.675781 v -1 H 25.875 v -2.90039 h 0.800781 v -6 H 25.875 v -2.900391 h 0.800781 z" />
    <polygon
       points="59.527344,26.675781 59.527344,27.675781 60.326172,27.675781 60.326172,30.576172 59.527344,30.576172 59.527344,36.576172 60.326172,36.576172 60.326172,39.476562 59.527344,39.476562 59.527344,40.476562 45.726562,40.476562 45.726562,39.476562 44.925781,39.476562 44.925781,36.576172 45.726562,36.576172 45.726562,30.576172 44.925781,30.576172 44.925781,27.675781 45.726562,27.675781 45.726562,26.675781 "
       style="fill:none;stroke:#000000;stroke-width:0.05mm"
       id="polygon42"
       d="m 45.726562,26.675781 h 13.800782 v 1 h 0.798828 v 2.900391 h -0.798828 v 6 h 0.798828 v 2.90039 h -0.798828 v 1 H 45.726562 v -1 h -0.800781 v -2.90039 h 0.800781 v -6 h -0.800781 v -2.900391 h 0.800781 z" />
    <polygon
       points="78.576172,26.675781 78.576172,27.675781 79.376953,27.675781 79.376953,30.576172 78.576172,30.576172 78.576172,36.576172 79.376953,36.576172 79.376953,39.476562 78.576172,39.476562 78.576172,40.476562 64.775391,40.476562 64.775391,39.476562 63.976562,39.476562 63.976562,36.576172 64.775391,36.576172 64.775391,30.576172 63.976562,30.576172 63.976562,27.675781 64.775391,27.675781 64.775391,26.675781 "
       style="fill:none;stroke:#000000;stroke-width:0.05mm"
       id="polygon44"
       d="m 64.775391,26.675781 h 13.800781 v 1 h 0.800781 v 2.900391 h -0.800781 v 6 h 0.800781 v 2.90039 h -0.800781 v 1 H 64.775391 v -1 h -0.798829 v -2.90039 h 0.798829 v -6 h -0.798829 v -2.900391 h 0.798829 z" />
    <polygon
       points="97.626953,26.675781 97.626953,27.675781 98.425781,27.675781 98.425781,30.576172 97.626953,30.576172 97.626953,36.576172 98.425781,36.576172 98.425781,39.476562 97.626953,39.476562 97.626953,40.476562 83.826172,40.476562 83.826172,39.476562 83.025391,39.476562 83.025391,36.576172 83.826172,36.576172 83.826172,30.576172 83.025391,30.576172 83.025391,27.675781 83.826172,27.675781 83.826172,26.675781 "
       style="fill:none;stroke:#000000;stroke-width:0.05mm"
       id="polygon46"
       d="m 83.826172,26.675781 h 13.800781 v 1 h 0.798828 v 2.900391 h -0.798828 v 6 h 0.798828 v 2.90039 h -0.798828 v 1 H 83.826172 v -1 h -0.800781 v -2.90039 h 0.800781 v -6 h -0.800781 v -2.900391 h 0.800781 z" />
  </g>
  <path
     id="rect291"
     style="fill:none;stroke:#ff1919;stroke-width:0.264583"
     d="m 103.93672,-4.8855564 0,2.9445533 a 1.8096135,1.8096135 135 0 1 -1.80961,1.80961353 H 97.700934 A 1.7642141,1.7642141 135 0 0 95.93672,1.6328245 v 4.4173216 a 1.8184644,1.8184644 45 0 0 1.818464,1.8184644 h 4.213296 a 1.9682364,1.9682364 45 0 1 1.96824,1.9682364 l 0,11.8231831 a 2.6270305,2.6270305 135.20431 0 1 -2.64577,2.626963 L 70.582486,24.067981 A 2.6647707,2.6647707 45.204313 0 1 67.93672,21.403278 V 14.694944 A 2.6458333,2.6458333 45 0 0 65.290887,12.049111 H 10.043792 A 2.6458333,2.6458333 45 0 1 7.3979586,9.4032777 v -7.288834 a 2.6458328,2.6458328 135 0 1 2.6458334,-2.64583283 l 1.708335,3e-7 A 2.6458328,2.6458328 135 0 0 14.39796,-3.1772217 v -1.7083347 a 2.6458333,2.6458333 135 0 1 2.645833,-2.6458333 h 84.247097 a 2.6458333,2.6458333 45 0 1 2.64583,2.6458333 z" />
  <rect
     style="fill:none;stroke:#ff1919;stroke-width:0.264583;stroke-opacity:1"
     id="rect1179"
     width="110.65"
     height="145.5"
     x="0.34233609"
     y="-16.824228"
     rx="5" />
  <circle
     style="fill:none;stroke:#ff1919;stroke-width:0.264583"
     id="path663"
     cx="27.073351"
     cy="43.120358"
     r="1.45" />
  <circle
     style="fill:none;stroke:#ff1919;stroke-width:0.264583"
     id="path663-0"
     cx="27.092142"
     cy="100.25195"
     r="1.45" />
  <circle
     style="fill:none;stroke:#ff1919;stroke-width:0.264583"
     id="path663-0-6"
     cx="84.242538"
     cy="81.201172"
     r="1.45" />
  <circle
     style="fill:none;stroke:#ff1919;stroke-width:0.264583"
     id="path663-0-6-8"
     cx="99.936722"
     cy="3.8686104"
     r="1.225" />
  <circle
     style="fill:none;stroke:#ff1919;stroke-width:0.264583"
     id="path663-0-6-8-6"
     cx="10.89796"
     cy="-4.0313892"
     r="1.225" />
</svg>
