  0
SECTION
  2
HEADER
  9
$ANGBASE
  50
0.0
  9
$ANGDIR
  70
1
  9
$MEASUREMENT
  70
1
  0
ENDSEC
  0
SECTION
  2
TABLES
  0
TABLE
  2
LTYPE
  70
4
  0
LTYPE
  5
40F
  2
CONTINUOUS
  70
0
  3
Solid line
  72
65
  73
0
  40
0.0
  0
LTYPE
  5
410
  2
DASHDOT
 70
0
  3
Dash Dot ____ _ ____ _
 72
65
 73
4
 40
2.0
 49
1.25
 49
-0.25
 49
0.25
 49
-0.25
  0
LTYPE
  5
411
  2
DASHED
 70
0
  3
Dashed __ __ __ __ __
 72
65
 73
2
 40
0.75
 49
0.5
 49
-0.25
  0
LTYPE
  5
43B
  2
DOTTED
 70
0
  3
Dotted .  .  .  .
 72
65
 73
2
 40
0.2
 49
0.0
 49
-0.2
  0
ENDTAB
  0
TABLE
  2
STYLE
  70
4
  0
STYLE
  2
KICAD
  70
0
  40
0
  41
1
  42
1
  50
0
  71
0
  3
isocp.shx
  0
STYLE
  2
KICADB
  70
0
  40
0
  41
1
  42
1
  50
0
  71
0
  3
isocp.shx
  0
STYLE
  2
KICADI
  70
0
  40
0
  41
1
  42
1
  50
15
  71
0
  3
isocp.shx
  0
STYLE
  2
KICADBI
  70
0
  40
0
  41
1
  42
1
  50
15
  71
0
  3
isocp.shx
  0
ENDTAB
  0
TABLE
  2
LAYER
  70
1
  0
LAYER
  2
BLACK
  70
0
  62
7
  6
CONTINUOUS
  0
ENDTAB
  0
ENDSEC
  0
SECTION
  2
ENTITIES
0
LINE
8
BLACK
6
CONTINUOUS
10
116.5
20
-155.001
11
22.2422
21
-155.018
0
ARC
8
BLACK
10
22.2432
20
-25.701
40
2.00099
50
-269.972
51
-179.971
0
LINE
8
BLACK
6
CONTINUOUS
10
22.2422
20
-23.7
11
115.7
21
-23.7
0
ARC
8
BLACK
10
22.2422
20
-153.018
40
1.99999
50
-180
51
-89.9997
0
LINE
8
BLACK
6
CONTINUOUS
10
118.5
20
-26.5
11
118.5
21
-153.001
0
ARC
8
BLACK
10
115.767
20
-26.4325
40
2.73333
50
-1.41507
51
91.4151
0
ARC
8
BLACK
10
116.5
20
-153.001
40
2
50
-90
51
0.00040107
0
LINE
8
BLACK
6
CONTINUOUS
10
20.2422
20
-153.018
11
20.2422
21
-25.702
0
LINE
8
BLACK
6
CONTINUOUS
10
20.9024
20
-137.34
11
21.2024
21
-137.64
0
LINE
8
BLACK
6
CONTINUOUS
10
21.2024
20
-137.34
11
20.9024
21
-137.64
0
LINE
8
BLACK
6
CONTINUOUS
10
22.5565
20
-116.239
11
22.8565
21
-116.539
0
LINE
8
BLACK
6
CONTINUOUS
10
22.8565
20
-116.239
11
22.5565
21
-116.539
0
LINE
8
BLACK
6
CONTINUOUS
10
23.917
20
-51.1053
11
24.217
21
-51.4053
0
LINE
8
BLACK
6
CONTINUOUS
10
24.217
20
-51.1053
11
23.917
21
-51.4053
0
LINE
8
BLACK
6
CONTINUOUS
10
25.6633
20
-53.4945
11
25.9633
21
-53.7945
0
LINE
8
BLACK
6
CONTINUOUS
10
25.9633
20
-53.4945
11
25.6633
21
-53.7945
0
LINE
8
BLACK
6
CONTINUOUS
10
27.1459
20
-57.0148
11
27.4459
21
-57.3148
0
LINE
8
BLACK
6
CONTINUOUS
10
27.4459
20
-57.0148
11
27.1459
21
-57.3148
0
LINE
8
BLACK
6
CONTINUOUS
10
27.8533
20
-89.2471
11
28.1533
21
-89.5471
0
LINE
8
BLACK
6
CONTINUOUS
10
28.1533
20
-89.2471
11
27.8533
21
-89.5471
0
LINE
8
BLACK
6
CONTINUOUS
10
29.9903
20
-94.9571
11
30.2903
21
-95.2571
0
LINE
8
BLACK
6
CONTINUOUS
10
30.2903
20
-94.9571
11
29.9903
21
-95.2571
0
LINE
8
BLACK
6
CONTINUOUS
10
32.2049
20
-76.6874
11
32.5049
21
-76.9874
0
LINE
8
BLACK
6
CONTINUOUS
10
32.5049
20
-76.6874
11
32.2049
21
-76.9874
0
LINE
8
BLACK
6
CONTINUOUS
10
33.6342
20
-45.6922
11
33.9342
21
-45.9922
0
LINE
8
BLACK
6
CONTINUOUS
10
33.9342
20
-45.6922
11
33.6342
21
-45.9922
0
LINE
8
BLACK
6
CONTINUOUS
10
33.9241
20
-33.4815
11
34.2241
21
-33.7815
0
LINE
8
BLACK
6
CONTINUOUS
10
34.2241
20
-33.4815
11
33.9241
21
-33.7815
0
LINE
8
BLACK
6
CONTINUOUS
10
34.0848
20
-105.508
11
34.3848
21
-105.808
0
LINE
8
BLACK
6
CONTINUOUS
10
34.3848
20
-105.508
11
34.0848
21
-105.808
0
LINE
8
BLACK
6
CONTINUOUS
10
34.0848
20
-114.461
11
34.3848
21
-114.761
0
LINE
8
BLACK
6
CONTINUOUS
10
34.3848
20
-114.461
11
34.0848
21
-114.761
0
LINE
8
BLACK
6
CONTINUOUS
10
35.6004
20
-39.3156
11
35.9004
21
-39.6156
0
LINE
8
BLACK
6
CONTINUOUS
10
35.9004
20
-39.3156
11
35.6004
21
-39.6156
0
LINE
8
BLACK
6
CONTINUOUS
10
35.878
20
-88.8431
11
36.178
21
-89.1431
0
LINE
8
BLACK
6
CONTINUOUS
10
36.178
20
-88.8431
11
35.878
21
-89.1431
0
LINE
8
BLACK
6
CONTINUOUS
10
35.9021
20
-147.415
11
36.2021
21
-147.715
0
LINE
8
BLACK
6
CONTINUOUS
10
36.2021
20
-147.415
11
35.9021
21
-147.715
0
LINE
8
BLACK
6
CONTINUOUS
10
35.9021
20
-152.927
11
36.2021
21
-153.227
0
LINE
8
BLACK
6
CONTINUOUS
10
36.2021
20
-152.927
11
35.9021
21
-153.227
0
LINE
8
BLACK
6
CONTINUOUS
10
36.2694
20
-134.522
11
36.5694
21
-134.822
0
LINE
8
BLACK
6
CONTINUOUS
10
36.5694
20
-134.522
11
36.2694
21
-134.822
0
LINE
8
BLACK
6
CONTINUOUS
10
37.1873
20
-43.2369
11
37.4873
21
-43.5369
0
LINE
8
BLACK
6
CONTINUOUS
10
37.4873
20
-43.2369
11
37.1873
21
-43.5369
0
LINE
8
BLACK
6
CONTINUOUS
10
38.2422
20
-25.1863
11
38.5422
21
-25.4863
0
LINE
8
BLACK
6
CONTINUOUS
10
38.5422
20
-25.1863
11
38.2422
21
-25.4863
0
LINE
8
BLACK
6
CONTINUOUS
10
38.5325
20
-93.8449
11
38.8325
21
-94.1449
0
LINE
8
BLACK
6
CONTINUOUS
10
38.8325
20
-93.8449
11
38.5325
21
-94.1449
0
LINE
8
BLACK
6
CONTINUOUS
10
38.5325
20
-112.676
11
38.8325
21
-112.976
0
LINE
8
BLACK
6
CONTINUOUS
10
38.8325
20
-112.676
11
38.5325
21
-112.976
0
LINE
8
BLACK
6
CONTINUOUS
10
38.6227
20
-84.2769
11
38.9227
21
-84.5769
0
LINE
8
BLACK
6
CONTINUOUS
10
38.9227
20
-84.2769
11
38.6227
21
-84.5769
0
LINE
8
BLACK
6
CONTINUOUS
10
39.4474
20
-46.0384
11
39.7474
21
-46.3384
0
LINE
8
BLACK
6
CONTINUOUS
10
39.7474
20
-46.0384
11
39.4474
21
-46.3384
0
LINE
8
BLACK
6
CONTINUOUS
10
39.6729
20
-66.3594
11
39.9729
21
-66.6594
0
LINE
8
BLACK
6
CONTINUOUS
10
39.9729
20
-66.3594
11
39.6729
21
-66.6594
0
LINE
8
BLACK
6
CONTINUOUS
10
39.6729
20
-78.5194
11
39.9729
21
-78.8194
0
LINE
8
BLACK
6
CONTINUOUS
10
39.9729
20
-78.5194
11
39.6729
21
-78.8194
0
LINE
8
BLACK
6
CONTINUOUS
10
39.7427
20
-63.132
11
40.0427
21
-63.432
0
LINE
8
BLACK
6
CONTINUOUS
10
40.0427
20
-63.132
11
39.7427
21
-63.432
0
LINE
8
BLACK
6
CONTINUOUS
10
39.9512
20
-43.9106
11
40.2512
21
-44.2106
0
LINE
8
BLACK
6
CONTINUOUS
10
40.2512
20
-43.9106
11
39.9512
21
-44.2106
0
LINE
8
BLACK
6
CONTINUOUS
10
41.5922
20
-58.6325
11
41.8922
21
-58.9325
0
LINE
8
BLACK
6
CONTINUOUS
10
41.8922
20
-58.6325
11
41.5922
21
-58.9325
0
LINE
8
BLACK
6
CONTINUOUS
10
41.6711
20
-81.6515
11
41.9711
21
-81.9515
0
LINE
8
BLACK
6
CONTINUOUS
10
41.9711
20
-81.6515
11
41.6711
21
-81.9515
0
LINE
8
BLACK
6
CONTINUOUS
10
42.0143
20
-86.1835
11
42.3143
21
-86.4835
0
LINE
8
BLACK
6
CONTINUOUS
10
42.3143
20
-86.1835
11
42.0143
21
-86.4835
0
LINE
8
BLACK
6
CONTINUOUS
10
42.6922
20
-62.532
11
42.9922
21
-62.832
0
LINE
8
BLACK
6
CONTINUOUS
10
42.9922
20
-62.532
11
42.6922
21
-62.832
0
LINE
8
BLACK
6
CONTINUOUS
10
42.8614
20
-115.959
11
43.1614
21
-116.258
0
LINE
8
BLACK
6
CONTINUOUS
10
43.1614
20
-115.959
11
42.8614
21
-116.258
0
LINE
8
BLACK
6
CONTINUOUS
10
43.0644
20
-94.2735
11
43.3644
21
-94.5735
0
LINE
8
BLACK
6
CONTINUOUS
10
43.3644
20
-94.2735
11
43.0644
21
-94.5735
0
LINE
8
BLACK
6
CONTINUOUS
10
43.1416
20
-137.087
11
43.4416
21
-137.387
0
LINE
8
BLACK
6
CONTINUOUS
10
43.4416
20
-137.087
11
43.1416
21
-137.387
0
LINE
8
BLACK
6
CONTINUOUS
10
43.5569
20
-43.9937
11
43.8569
21
-44.2937
0
LINE
8
BLACK
6
CONTINUOUS
10
43.8569
20
-43.9937
11
43.5569
21
-44.2937
0
LINE
8
BLACK
6
CONTINUOUS
10
44.2007
20
-89.4256
11
44.5007
21
-89.7256
0
LINE
8
BLACK
6
CONTINUOUS
10
44.5007
20
-89.4256
11
44.2007
21
-89.7256
0
LINE
8
BLACK
6
CONTINUOUS
10
44.8422
20
-81.332
11
45.1422
21
-81.632
0
LINE
8
BLACK
6
CONTINUOUS
10
45.1422
20
-81.332
11
44.8422
21
-81.632
0
LINE
8
BLACK
6
CONTINUOUS
10
46.3046
20
-77.4774
11
46.6046
21
-77.7774
0
LINE
8
BLACK
6
CONTINUOUS
10
46.6046
20
-77.4774
11
46.3046
21
-77.7774
0
LINE
8
BLACK
6
CONTINUOUS
10
46.3087
20
-140.694
11
46.6087
21
-140.994
0
LINE
8
BLACK
6
CONTINUOUS
10
46.6087
20
-140.694
11
46.3087
21
-140.994
0
LINE
8
BLACK
6
CONTINUOUS
10
46.3289
20
-59.2187
11
46.6289
21
-59.5187
0
LINE
8
BLACK
6
CONTINUOUS
10
46.6289
20
-59.2187
11
46.3289
21
-59.5187
0
LINE
8
BLACK
6
CONTINUOUS
10
47.2526
20
-69.1677
11
47.5526
21
-69.4677
0
LINE
8
BLACK
6
CONTINUOUS
10
47.5526
20
-69.1677
11
47.2526
21
-69.4677
0
LINE
8
BLACK
6
CONTINUOUS
10
47.7922
20
-59.232
11
48.0922
21
-59.532
0
LINE
8
BLACK
6
CONTINUOUS
10
48.0922
20
-59.232
11
47.7922
21
-59.532
0
LINE
8
BLACK
6
CONTINUOUS
10
48.4158
20
-101.013
11
48.7158
21
-101.313
0
LINE
8
BLACK
6
CONTINUOUS
10
48.7158
20
-101.013
11
48.4158
21
-101.313
0
LINE
8
BLACK
6
CONTINUOUS
10
48.6574
20
-98.1432
11
48.9574
21
-98.4432
0
LINE
8
BLACK
6
CONTINUOUS
10
48.9574
20
-98.1432
11
48.6574
21
-98.4432
0
LINE
8
BLACK
6
CONTINUOUS
10
48.8922
20
-49.032
11
49.1922
21
-49.332
0
LINE
8
BLACK
6
CONTINUOUS
10
49.1922
20
-49.032
11
48.8922
21
-49.332
0
LINE
8
BLACK
6
CONTINUOUS
10
49.7263
20
-42.3957
11
50.0263
21
-42.6957
0
LINE
8
BLACK
6
CONTINUOUS
10
50.0263
20
-42.3957
11
49.7263
21
-42.6957
0
LINE
8
BLACK
6
CONTINUOUS
10
50.2519
20
-27.3033
11
50.5519
21
-27.6033
0
LINE
8
BLACK
6
CONTINUOUS
10
50.5519
20
-27.3033
11
50.2519
21
-27.6033
0
LINE
8
BLACK
6
CONTINUOUS
10
50.7917
20
-46.632
11
51.0917
21
-46.932
0
LINE
8
BLACK
6
CONTINUOUS
10
51.0917
20
-46.632
11
50.7917
21
-46.932
0
LINE
8
BLACK
6
CONTINUOUS
10
51.4922
20
-64.982
11
51.7922
21
-65.282
0
LINE
8
BLACK
6
CONTINUOUS
10
51.7922
20
-64.982
11
51.4922
21
-65.282
0
LINE
8
BLACK
6
CONTINUOUS
10
51.8999
20
-36.1742
11
52.1999
21
-36.4742
0
LINE
8
BLACK
6
CONTINUOUS
10
52.1999
20
-36.1742
11
51.8999
21
-36.4742
0
LINE
8
BLACK
6
CONTINUOUS
10
52.0397
20
-46.6944
11
52.3397
21
-46.9944
0
LINE
8
BLACK
6
CONTINUOUS
10
52.3397
20
-46.6944
11
52.0397
21
-46.9944
0
LINE
8
BLACK
6
CONTINUOUS
10
52.7008
20
-59.7715
11
53.0008
21
-60.0715
0
LINE
8
BLACK
6
CONTINUOUS
10
53.0008
20
-59.7715
11
52.7008
21
-60.0715
0
LINE
8
BLACK
6
CONTINUOUS
10
53.0892
20
-47.4725
11
53.3892
21
-47.7725
0
LINE
8
BLACK
6
CONTINUOUS
10
53.3892
20
-47.4725
11
53.0892
21
-47.7725
0
LINE
8
BLACK
6
CONTINUOUS
10
53.2866
20
-65.1907
11
53.5866
21
-65.4907
0
LINE
8
BLACK
6
CONTINUOUS
10
53.5866
20
-65.1907
11
53.2866
21
-65.4907
0
LINE
8
BLACK
6
CONTINUOUS
10
53.9289
20
-35.7117
11
54.2289
21
-36.0117
0
LINE
8
BLACK
6
CONTINUOUS
10
54.2289
20
-35.7117
11
53.9289
21
-36.0117
0
LINE
8
BLACK
6
CONTINUOUS
10
54.1777
20
-117.303
11
54.4777
21
-117.603
0
LINE
8
BLACK
6
CONTINUOUS
10
54.4777
20
-117.303
11
54.1777
21
-117.603
0
LINE
8
BLACK
6
CONTINUOUS
10
54.4701
20
-107.536
11
54.7701
21
-107.836
0
LINE
8
BLACK
6
CONTINUOUS
10
54.7701
20
-107.536
11
54.4701
21
-107.836
0
LINE
8
BLACK
6
CONTINUOUS
10
54.5634
20
-28.178
11
54.8634
21
-28.478
0
LINE
8
BLACK
6
CONTINUOUS
10
54.8634
20
-28.178
11
54.5634
21
-28.478
0
LINE
8
BLACK
6
CONTINUOUS
10
54.653
20
-89.4276
11
54.953
21
-89.7276
0
LINE
8
BLACK
6
CONTINUOUS
10
54.953
20
-89.4276
11
54.653
21
-89.7276
0
LINE
8
BLACK
6
CONTINUOUS
10
54.7072
20
-78.8519
11
55.0072
21
-79.1519
0
LINE
8
BLACK
6
CONTINUOUS
10
55.0072
20
-78.8519
11
54.7072
21
-79.1519
0
LINE
8
BLACK
6
CONTINUOUS
10
55.6512
20
-59.2264
11
55.9512
21
-59.5264
0
LINE
8
BLACK
6
CONTINUOUS
10
55.9512
20
-59.2264
11
55.6512
21
-59.5264
0
LINE
8
BLACK
6
CONTINUOUS
10
55.8767
20
-65.7392
11
56.1767
21
-66.0392
0
LINE
8
BLACK
6
CONTINUOUS
10
56.1767
20
-65.7392
11
55.8767
21
-66.0392
0
LINE
8
BLACK
6
CONTINUOUS
10
55.9748
20
-52.623
11
56.2748
21
-52.923
0
LINE
8
BLACK
6
CONTINUOUS
10
56.2748
20
-52.623
11
55.9748
21
-52.923
0
LINE
8
BLACK
6
CONTINUOUS
10
56.3113
20
-114.271
11
56.6113
21
-114.571
0
LINE
8
BLACK
6
CONTINUOUS
10
56.6113
20
-114.271
11
56.3113
21
-114.571
0
LINE
8
BLACK
6
CONTINUOUS
10
56.3418
20
-41.4846
11
56.6418
21
-41.7846
0
LINE
8
BLACK
6
CONTINUOUS
10
56.6418
20
-41.4846
11
56.3418
21
-41.7846
0
LINE
8
BLACK
6
CONTINUOUS
10
56.5467
20
-106.953
11
56.8467
21
-107.253
0
LINE
8
BLACK
6
CONTINUOUS
10
56.8467
20
-106.953
11
56.5467
21
-107.253
0
LINE
8
BLACK
6
CONTINUOUS
10
56.8306
20
-79.4745
11
57.1306
21
-79.7745
0
LINE
8
BLACK
6
CONTINUOUS
10
57.1306
20
-79.4745
11
56.8306
21
-79.7745
0
LINE
8
BLACK
6
CONTINUOUS
10
56.8837
20
-92.7441
11
57.1837
21
-93.0441
0
LINE
8
BLACK
6
CONTINUOUS
10
57.1837
20
-92.7441
11
56.8837
21
-93.0441
0
LINE
8
BLACK
6
CONTINUOUS
10
57.0505
20
-53.2586
11
57.3505
21
-53.5586
0
LINE
8
BLACK
6
CONTINUOUS
10
57.3505
20
-53.2586
11
57.0505
21
-53.5586
0
LINE
8
BLACK
6
CONTINUOUS
10
58.4505
20
-53.732
11
58.7505
21
-54.032
0
LINE
8
BLACK
6
CONTINUOUS
10
58.7505
20
-53.732
11
58.4505
21
-54.032
0
LINE
8
BLACK
6
CONTINUOUS
10
58.4734
20
-115.079
11
58.7734
21
-115.379
0
LINE
8
BLACK
6
CONTINUOUS
10
58.7734
20
-115.079
11
58.4734
21
-115.379
0
LINE
8
BLACK
6
CONTINUOUS
10
58.6272
20
-61.0345
11
58.9272
21
-61.3345
0
LINE
8
BLACK
6
CONTINUOUS
10
58.9272
20
-61.0345
11
58.6272
21
-61.3345
0
LINE
8
BLACK
6
CONTINUOUS
10
58.7244
20
-43.7831
11
59.0244
21
-44.0831
0
LINE
8
BLACK
6
CONTINUOUS
10
59.0244
20
-43.7831
11
58.7244
21
-44.0831
0
LINE
8
BLACK
6
CONTINUOUS
10
59.443
20
-44.9322
11
59.743
21
-45.2322
0
LINE
8
BLACK
6
CONTINUOUS
10
59.743
20
-44.9322
11
59.443
21
-45.2322
0
LINE
8
BLACK
6
CONTINUOUS
10
59.9754
20
-43.5276
11
60.2754
21
-43.8276
0
LINE
8
BLACK
6
CONTINUOUS
10
60.2754
20
-43.5276
11
59.9754
21
-43.8276
0
LINE
8
BLACK
6
CONTINUOUS
10
60.1987
20
-98.9046
11
60.4987
21
-99.2046
0
LINE
8
BLACK
6
CONTINUOUS
10
60.4987
20
-98.9046
11
60.1987
21
-99.2046
0
LINE
8
BLACK
6
CONTINUOUS
10
61.0488
20
-94.464
11
61.3488
21
-94.764
0
LINE
8
BLACK
6
CONTINUOUS
10
61.3488
20
-94.464
11
61.0488
21
-94.764
0
LINE
8
BLACK
6
CONTINUOUS
10
61.4854
20
-38.025
11
61.7854
21
-38.325
0
LINE
8
BLACK
6
CONTINUOUS
10
61.7854
20
-38.025
11
61.4854
21
-38.325
0
LINE
8
BLACK
6
CONTINUOUS
10
61.5023
20
-79.9818
11
61.8023
21
-80.2818
0
LINE
8
BLACK
6
CONTINUOUS
10
61.8023
20
-79.9818
11
61.5023
21
-80.2818
0
LINE
8
BLACK
6
CONTINUOUS
10
61.8238
20
-105.578
11
62.1238
21
-105.878
0
LINE
8
BLACK
6
CONTINUOUS
10
62.1238
20
-105.578
11
61.8238
21
-105.878
0
LINE
8
BLACK
6
CONTINUOUS
10
62.4825
20
-60.7138
11
62.7825
21
-61.0138
0
LINE
8
BLACK
6
CONTINUOUS
10
62.7825
20
-60.7138
11
62.4825
21
-61.0138
0
LINE
8
BLACK
6
CONTINUOUS
10
62.7766
20
-69.1584
11
63.0766
21
-69.4584
0
LINE
8
BLACK
6
CONTINUOUS
10
63.0766
20
-69.1584
11
62.7766
21
-69.4584
0
LINE
8
BLACK
6
CONTINUOUS
10
64.6509
20
-77.4716
11
64.9509
21
-77.7716
0
LINE
8
BLACK
6
CONTINUOUS
10
64.9509
20
-77.4716
11
64.6509
21
-77.7716
0
LINE
8
BLACK
6
CONTINUOUS
10
64.7845
20
-92.7224
11
65.0845
21
-93.0224
0
LINE
8
BLACK
6
CONTINUOUS
10
65.0845
20
-92.7224
11
64.7845
21
-93.0224
0
LINE
8
BLACK
6
CONTINUOUS
10
64.8503
20
-62.7404
11
65.1503
21
-63.0404
0
LINE
8
BLACK
6
CONTINUOUS
10
65.1503
20
-62.7404
11
64.8503
21
-63.0404
0
LINE
8
BLACK
6
CONTINUOUS
10
65.7176
20
-70.2929
11
66.0176
21
-70.5929
0
LINE
8
BLACK
6
CONTINUOUS
10
66.0176
20
-70.2929
11
65.7176
21
-70.5929
0
LINE
8
BLACK
6
CONTINUOUS
10
65.8419
20
-35.6168
11
66.1419
21
-35.9168
0
LINE
8
BLACK
6
CONTINUOUS
10
66.1419
20
-35.6168
11
65.8419
21
-35.9168
0
LINE
8
BLACK
6
CONTINUOUS
10
65.8669
20
-93.7791
11
66.1669
21
-94.0791
0
LINE
8
BLACK
6
CONTINUOUS
10
66.1669
20
-93.7791
11
65.8669
21
-94.0791
0
LINE
8
BLACK
6
CONTINUOUS
10
66.7876
20
-69.3672
11
67.0876
21
-69.6672
0
LINE
8
BLACK
6
CONTINUOUS
10
67.0876
20
-69.3672
11
66.7876
21
-69.6672
0
LINE
8
BLACK
6
CONTINUOUS
10
66.7876
20
-80.21
11
67.0876
21
-80.51
0
LINE
8
BLACK
6
CONTINUOUS
10
67.0876
20
-80.21
11
66.7876
21
-80.51
0
LINE
8
BLACK
6
CONTINUOUS
10
67.2366
20
-95.1865
11
67.5366
21
-95.4865
0
LINE
8
BLACK
6
CONTINUOUS
10
67.5366
20
-95.1865
11
67.2366
21
-95.4865
0
LINE
8
BLACK
6
CONTINUOUS
10
67.7775
20
-33.3447
11
68.0775
21
-33.6447
0
LINE
8
BLACK
6
CONTINUOUS
10
68.0775
20
-33.3447
11
67.7775
21
-33.6447
0
LINE
8
BLACK
6
CONTINUOUS
10
67.8828
20
-100.83
11
68.1828
21
-101.13
0
LINE
8
BLACK
6
CONTINUOUS
10
68.1828
20
-100.83
11
67.8828
21
-101.13
0
LINE
8
BLACK
6
CONTINUOUS
10
68.6578
20
-41.464
11
68.9578
21
-41.764
0
LINE
8
BLACK
6
CONTINUOUS
10
68.9578
20
-41.464
11
68.6578
21
-41.764
0
LINE
8
BLACK
6
CONTINUOUS
10
68.6578
20
-46.0404
11
68.9578
21
-46.3404
0
LINE
8
BLACK
6
CONTINUOUS
10
68.9578
20
-46.0404
11
68.6578
21
-46.3404
0
LINE
8
BLACK
6
CONTINUOUS
10
70.1913
20
-40.6735
11
70.4913
21
-40.9735
0
LINE
8
BLACK
6
CONTINUOUS
10
70.4913
20
-40.6735
11
70.1913
21
-40.9735
0
LINE
8
BLACK
6
CONTINUOUS
10
71.881
20
-36.1095
11
72.181
21
-36.4095
0
LINE
8
BLACK
6
CONTINUOUS
10
72.181
20
-36.1095
11
71.881
21
-36.4095
0
LINE
8
BLACK
6
CONTINUOUS
10
72.4192
20
-87.171
11
72.7192
21
-87.471
0
LINE
8
BLACK
6
CONTINUOUS
10
72.7192
20
-87.171
11
72.4192
21
-87.471
0
LINE
8
BLACK
6
CONTINUOUS
10
72.7518
20
-115.364
11
73.0518
21
-115.664
0
LINE
8
BLACK
6
CONTINUOUS
10
73.0518
20
-115.364
11
72.7518
21
-115.664
0
LINE
8
BLACK
6
CONTINUOUS
10
72.9034
20
-132.371
11
73.2034
21
-132.671
0
LINE
8
BLACK
6
CONTINUOUS
10
73.2034
20
-132.371
11
72.9034
21
-132.671
0
LINE
8
BLACK
6
CONTINUOUS
10
72.9243
20
-117
11
73.2243
21
-117.3
0
LINE
8
BLACK
6
CONTINUOUS
10
73.2243
20
-117
11
72.9243
21
-117.3
0
LINE
8
BLACK
6
CONTINUOUS
10
73.1142
20
-34.3723
11
73.4142
21
-34.6723
0
LINE
8
BLACK
6
CONTINUOUS
10
73.4142
20
-34.3723
11
73.1142
21
-34.6723
0
LINE
8
BLACK
6
CONTINUOUS
10
73.5436
20
-103.383
11
73.8436
21
-103.683
0
LINE
8
BLACK
6
CONTINUOUS
10
73.8436
20
-103.383
11
73.5436
21
-103.683
0
LINE
8
BLACK
6
CONTINUOUS
10
73.5514
20
-42.5358
11
73.8514
21
-42.8358
0
LINE
8
BLACK
6
CONTINUOUS
10
73.8514
20
-42.5358
11
73.5514
21
-42.8358
0
LINE
8
BLACK
6
CONTINUOUS
10
73.6661
20
-30.4188
11
73.9661
21
-30.7188
0
LINE
8
BLACK
6
CONTINUOUS
10
73.9661
20
-30.4188
11
73.6661
21
-30.7188
0
LINE
8
BLACK
6
CONTINUOUS
10
74.1123
20
-58.3625
11
74.4123
21
-58.6625
0
LINE
8
BLACK
6
CONTINUOUS
10
74.4123
20
-58.3625
11
74.1123
21
-58.6625
0
LINE
8
BLACK
6
CONTINUOUS
10
74.3292
20
-69.457
11
74.6292
21
-69.757
0
LINE
8
BLACK
6
CONTINUOUS
10
74.6292
20
-69.457
11
74.3292
21
-69.757
0
LINE
8
BLACK
6
CONTINUOUS
10
75.2969
20
-29.3672
11
75.5969
21
-29.6672
0
LINE
8
BLACK
6
CONTINUOUS
10
75.5969
20
-29.3672
11
75.2969
21
-29.6672
0
LINE
8
BLACK
6
CONTINUOUS
10
75.3793
20
-77.5172
11
75.6793
21
-77.8172
0
LINE
8
BLACK
6
CONTINUOUS
10
75.6793
20
-77.5172
11
75.3793
21
-77.8172
0
LINE
8
BLACK
6
CONTINUOUS
10
75.6
20
-44.9465
11
75.9
21
-45.2465
0
LINE
8
BLACK
6
CONTINUOUS
10
75.9
20
-44.9465
11
75.6
21
-45.2465
0
LINE
8
BLACK
6
CONTINUOUS
10
75.6955
20
-83.8171
11
75.9955
21
-84.1171
0
LINE
8
BLACK
6
CONTINUOUS
10
75.9955
20
-83.8171
11
75.6955
21
-84.1171
0
LINE
8
BLACK
6
CONTINUOUS
10
76.2327
20
-136.411
11
76.5327
21
-136.711
0
LINE
8
BLACK
6
CONTINUOUS
10
76.5327
20
-136.411
11
76.2327
21
-136.711
0
LINE
8
BLACK
6
CONTINUOUS
10
76.3645
20
-73.4757
11
76.6645
21
-73.7757
0
LINE
8
BLACK
6
CONTINUOUS
10
76.6645
20
-73.4757
11
76.3645
21
-73.7757
0
LINE
8
BLACK
6
CONTINUOUS
10
76.6376
20
-75.0836
11
76.9376
21
-75.3836
0
LINE
8
BLACK
6
CONTINUOUS
10
76.9376
20
-75.0836
11
76.6376
21
-75.3836
0
LINE
8
BLACK
6
CONTINUOUS
10
76.9894
20
-64.8594
11
77.2894
21
-65.1594
0
LINE
8
BLACK
6
CONTINUOUS
10
77.2894
20
-64.8594
11
76.9894
21
-65.1594
0
LINE
8
BLACK
6
CONTINUOUS
10
77.7797
20
-77.631
11
78.0797
21
-77.931
0
LINE
8
BLACK
6
CONTINUOUS
10
78.0797
20
-77.631
11
77.7797
21
-77.931
0
LINE
8
BLACK
6
CONTINUOUS
10
77.9847
20
-87.2085
11
78.2847
21
-87.5085
0
LINE
8
BLACK
6
CONTINUOUS
10
78.2847
20
-87.2085
11
77.9847
21
-87.5085
0
LINE
8
BLACK
6
CONTINUOUS
10
78.345
20
-78.8653
11
78.645
21
-79.1653
0
LINE
8
BLACK
6
CONTINUOUS
10
78.645
20
-78.8653
11
78.345
21
-79.1653
0
LINE
8
BLACK
6
CONTINUOUS
10
79.6845
20
-126.798
11
79.9845
21
-127.098
0
LINE
8
BLACK
6
CONTINUOUS
10
79.9845
20
-126.798
11
79.6845
21
-127.098
0
LINE
8
BLACK
6
CONTINUOUS
10
79.8
20
-62.2153
11
80.1
21
-62.5153
0
LINE
8
BLACK
6
CONTINUOUS
10
80.1
20
-62.2153
11
79.8
21
-62.5153
0
LINE
8
BLACK
6
CONTINUOUS
10
80.0076
20
-29.3672
11
80.3076
21
-29.6672
0
LINE
8
BLACK
6
CONTINUOUS
10
80.3076
20
-29.3672
11
80.0076
21
-29.6672
0
LINE
8
BLACK
6
CONTINUOUS
10
80.0076
20
-31.501
11
80.3076
21
-31.801
0
LINE
8
BLACK
6
CONTINUOUS
10
80.3076
20
-31.501
11
80.0076
21
-31.801
0
LINE
8
BLACK
6
CONTINUOUS
10
80.1183
20
-44.8828
11
80.4183
21
-45.1828
0
LINE
8
BLACK
6
CONTINUOUS
10
80.4183
20
-44.8828
11
80.1183
21
-45.1828
0
LINE
8
BLACK
6
CONTINUOUS
10
81.0706
20
-87.2855
11
81.3706
21
-87.5855
0
LINE
8
BLACK
6
CONTINUOUS
10
81.3706
20
-87.2855
11
81.0706
21
-87.5855
0
LINE
8
BLACK
6
CONTINUOUS
10
81.1161
20
-67.2693
11
81.4161
21
-67.5693
0
LINE
8
BLACK
6
CONTINUOUS
10
81.4161
20
-67.2693
11
81.1161
21
-67.5693
0
LINE
8
BLACK
6
CONTINUOUS
10
83.2517
20
-61.7202
11
83.5517
21
-62.0202
0
LINE
8
BLACK
6
CONTINUOUS
10
83.5517
20
-61.7202
11
83.2517
21
-62.0202
0
LINE
8
BLACK
6
CONTINUOUS
10
84.8855
20
-75.5504
11
85.1855
21
-75.8504
0
LINE
8
BLACK
6
CONTINUOUS
10
85.1855
20
-75.5504
11
84.8855
21
-75.8504
0
LINE
8
BLACK
6
CONTINUOUS
10
86.4673
20
-58.1721
11
86.7673
21
-58.4721
0
LINE
8
BLACK
6
CONTINUOUS
10
86.7673
20
-58.1721
11
86.4673
21
-58.4721
0
LINE
8
BLACK
6
CONTINUOUS
10
87.2435
20
-62.505
11
87.5435
21
-62.805
0
LINE
8
BLACK
6
CONTINUOUS
10
87.5435
20
-62.505
11
87.2435
21
-62.805
0
LINE
8
BLACK
6
CONTINUOUS
10
87.56
20
-59.4551
11
87.86
21
-59.7551
0
LINE
8
BLACK
6
CONTINUOUS
10
87.86
20
-59.4551
11
87.56
21
-59.7551
0
LINE
8
BLACK
6
CONTINUOUS
10
87.8119
20
-114.307
11
88.1119
21
-114.608
0
LINE
8
BLACK
6
CONTINUOUS
10
88.1119
20
-114.307
11
87.8119
21
-114.608
0
LINE
8
BLACK
6
CONTINUOUS
10
87.8694
20
-95.1172
11
88.1694
21
-95.4172
0
LINE
8
BLACK
6
CONTINUOUS
10
88.1694
20
-95.1172
11
87.8694
21
-95.4172
0
LINE
8
BLACK
6
CONTINUOUS
10
88.8423
20
-41.353
11
89.1423
21
-41.653
0
LINE
8
BLACK
6
CONTINUOUS
10
89.1423
20
-41.353
11
88.8423
21
-41.653
0
LINE
8
BLACK
6
CONTINUOUS
10
89.1658
20
-133.028
11
89.4658
21
-133.328
0
LINE
8
BLACK
6
CONTINUOUS
10
89.4658
20
-133.028
11
89.1658
21
-133.328
0
LINE
8
BLACK
6
CONTINUOUS
10
89.885
20
-78.0645
11
90.185
21
-78.3645
0
LINE
8
BLACK
6
CONTINUOUS
10
90.185
20
-78.0645
11
89.885
21
-78.3645
0
LINE
8
BLACK
6
CONTINUOUS
10
89.9606
20
-115.026
11
90.2606
21
-115.326
0
LINE
8
BLACK
6
CONTINUOUS
10
90.2606
20
-115.026
11
89.9606
21
-115.326
0
LINE
8
BLACK
6
CONTINUOUS
10
91.5095
20
-127.674
11
91.8095
21
-127.974
0
LINE
8
BLACK
6
CONTINUOUS
10
91.8095
20
-127.674
11
91.5095
21
-127.974
0
LINE
8
BLACK
6
CONTINUOUS
10
92.1634
20
-51.1466
11
92.4634
21
-51.4466
0
LINE
8
BLACK
6
CONTINUOUS
10
92.4634
20
-51.1466
11
92.1634
21
-51.4466
0
LINE
8
BLACK
6
CONTINUOUS
10
92.2965
20
-58.434
11
92.5965
21
-58.734
0
LINE
8
BLACK
6
CONTINUOUS
10
92.5965
20
-58.434
11
92.2965
21
-58.734
0
LINE
8
BLACK
6
CONTINUOUS
10
92.7494
20
-55.4836
11
93.0494
21
-55.7836
0
LINE
8
BLACK
6
CONTINUOUS
10
93.0494
20
-55.4836
11
92.7494
21
-55.7836
0
LINE
8
BLACK
6
CONTINUOUS
10
92.8939
20
-70.1043
11
93.1939
21
-70.4043
0
LINE
8
BLACK
6
CONTINUOUS
10
93.1939
20
-70.1043
11
92.8939
21
-70.4043
0
LINE
8
BLACK
6
CONTINUOUS
10
93.3931
20
-36.003
11
93.6931
21
-36.303
0
LINE
8
BLACK
6
CONTINUOUS
10
93.6931
20
-36.003
11
93.3931
21
-36.303
0
LINE
8
BLACK
6
CONTINUOUS
10
94.0008
20
-92.2287
11
94.3008
21
-92.5287
0
LINE
8
BLACK
6
CONTINUOUS
10
94.3008
20
-92.2287
11
94.0008
21
-92.5287
0
LINE
8
BLACK
6
CONTINUOUS
10
94.7575
20
-77.1143
11
95.0575
21
-77.4143
0
LINE
8
BLACK
6
CONTINUOUS
10
95.0575
20
-77.1143
11
94.7575
21
-77.4143
0
LINE
8
BLACK
6
CONTINUOUS
10
94.7942
20
-72.8748
11
95.0942
21
-73.1748
0
LINE
8
BLACK
6
CONTINUOUS
10
95.0942
20
-72.8748
11
94.7942
21
-73.1748
0
LINE
8
BLACK
6
CONTINUOUS
10
95.6825
20
-98.2646
11
95.9825
21
-98.5646
0
LINE
8
BLACK
6
CONTINUOUS
10
95.9825
20
-98.2646
11
95.6825
21
-98.5646
0
LINE
8
BLACK
6
CONTINUOUS
10
95.6998
20
-60.0476
11
95.9998
21
-60.3476
0
LINE
8
BLACK
6
CONTINUOUS
10
95.9998
20
-60.0476
11
95.6998
21
-60.3476
0
LINE
8
BLACK
6
CONTINUOUS
10
95.8444
20
-75.1013
11
96.1444
21
-75.4013
0
LINE
8
BLACK
6
CONTINUOUS
10
96.1444
20
-75.1013
11
95.8444
21
-75.4013
0
LINE
8
BLACK
6
CONTINUOUS
10
96.4797
20
-87.5992
11
96.7797
21
-87.8992
0
LINE
8
BLACK
6
CONTINUOUS
10
96.7797
20
-87.5992
11
96.4797
21
-87.8992
0
LINE
8
BLACK
6
CONTINUOUS
10
96.5499
20
-55.736
11
96.8499
21
-56.036
0
LINE
8
BLACK
6
CONTINUOUS
10
96.8499
20
-55.736
11
96.5499
21
-56.036
0
LINE
8
BLACK
6
CONTINUOUS
10
96.735
20
-81.517
11
97.035
21
-81.817
0
LINE
8
BLACK
6
CONTINUOUS
10
97.035
20
-81.517
11
96.735
21
-81.817
0
LINE
8
BLACK
6
CONTINUOUS
10
96.8553
20
-45.1859
11
97.1553
21
-45.4859
0
LINE
8
BLACK
6
CONTINUOUS
10
97.1553
20
-45.1859
11
96.8553
21
-45.4859
0
LINE
8
BLACK
6
CONTINUOUS
10
98.1062
20
-70.6176
11
98.4062
21
-70.9176
0
LINE
8
BLACK
6
CONTINUOUS
10
98.4062
20
-70.6176
11
98.1062
21
-70.9176
0
LINE
8
BLACK
6
CONTINUOUS
10
98.1369
20
-33.2641
11
98.4369
21
-33.5641
0
LINE
8
BLACK
6
CONTINUOUS
10
98.4369
20
-33.2641
11
98.1369
21
-33.5641
0
LINE
8
BLACK
6
CONTINUOUS
10
99.4548
20
-117.404
11
99.7548
21
-117.704
0
LINE
8
BLACK
6
CONTINUOUS
10
99.7548
20
-117.404
11
99.4548
21
-117.704
0
LINE
8
BLACK
6
CONTINUOUS
10
102.207
20
-87.5322
11
102.507
21
-87.8322
0
LINE
8
BLACK
6
CONTINUOUS
10
102.507
20
-87.5322
11
102.207
21
-87.8322
0
LINE
8
BLACK
6
CONTINUOUS
10
102.462
20
-40.7823
11
102.762
21
-41.0823
0
LINE
8
BLACK
6
CONTINUOUS
10
102.762
20
-40.7823
11
102.462
21
-41.0823
0
LINE
8
BLACK
6
CONTINUOUS
10
102.479
20
-48.1383
11
102.779
21
-48.4383
0
LINE
8
BLACK
6
CONTINUOUS
10
102.779
20
-48.1383
11
102.479
21
-48.4383
0
LINE
8
BLACK
6
CONTINUOUS
10
102.734
20
-126.026
11
103.034
21
-126.326
0
LINE
8
BLACK
6
CONTINUOUS
10
103.034
20
-126.026
11
102.734
21
-126.326
0
LINE
8
BLACK
6
CONTINUOUS
10
104.066
20
-39.6595
11
104.366
21
-39.9595
0
LINE
8
BLACK
6
CONTINUOUS
10
104.366
20
-39.6595
11
104.066
21
-39.9595
0
LINE
8
BLACK
6
CONTINUOUS
10
104.09
20
-77.1414
11
104.39
21
-77.4414
0
LINE
8
BLACK
6
CONTINUOUS
10
104.39
20
-77.1414
11
104.09
21
-77.4414
0
LINE
8
BLACK
6
CONTINUOUS
10
105.165
20
-37.0072
11
105.465
21
-37.3072
0
LINE
8
BLACK
6
CONTINUOUS
10
105.465
20
-37.0072
11
105.165
21
-37.3072
0
LINE
8
BLACK
6
CONTINUOUS
10
105.861
20
-45.9949
11
106.161
21
-46.2949
0
LINE
8
BLACK
6
CONTINUOUS
10
106.161
20
-45.9949
11
105.861
21
-46.2949
0
LINE
8
BLACK
6
CONTINUOUS
10
110.376
20
-121.705
11
110.676
21
-122.005
0
LINE
8
BLACK
6
CONTINUOUS
10
110.676
20
-121.705
11
110.376
21
-122.005
0
LINE
8
BLACK
6
CONTINUOUS
10
110.489
20
-83.6757
11
110.789
21
-83.9757
0
LINE
8
BLACK
6
CONTINUOUS
10
110.789
20
-83.6757
11
110.489
21
-83.9757
0
LINE
8
BLACK
6
CONTINUOUS
10
111.186
20
-55.2637
11
111.486
21
-55.5637
0
LINE
8
BLACK
6
CONTINUOUS
10
111.486
20
-55.2637
11
111.186
21
-55.5637
0
LINE
8
BLACK
6
CONTINUOUS
10
112.198
20
-73.5097
11
112.498
21
-73.8097
0
LINE
8
BLACK
6
CONTINUOUS
10
112.498
20
-73.5097
11
112.198
21
-73.8097
0
LINE
8
BLACK
6
CONTINUOUS
10
116.205
20
-52.1451
11
116.505
21
-52.4451
0
LINE
8
BLACK
6
CONTINUOUS
10
116.505
20
-52.1451
11
116.205
21
-52.4451
0
LINE
8
BLACK
6
CONTINUOUS
10
117.522
20
-81.2017
11
117.822
21
-81.5017
0
LINE
8
BLACK
6
CONTINUOUS
10
117.822
20
-81.2017
11
117.522
21
-81.5017
0
CIRCLE
8
BLACK
10
22.97
20
-46.97
40
0.5
0
CIRCLE
8
BLACK
10
24.68
20
-49.44
40
0.5
0
CIRCLE
8
BLACK
10
26.42
20
-51.97
40
0.5
0
CIRCLE
8
BLACK
10
28.19
20
-54.43
40
0.5
0
CIRCLE
8
BLACK
10
28.85
20
-29.45
40
0.5
0
CIRCLE
8
BLACK
10
28.85
20
-43.95
40
0.5
0
CIRCLE
8
BLACK
10
29.98
20
-56.9
40
0.5
0
CIRCLE
8
BLACK
10
30.77
20
-46.97
40
0.5
0
CIRCLE
8
BLACK
10
31.35
20
-29.45
40
0.5
0
CIRCLE
8
BLACK
10
32.48
20
-49.44
40
0.5
0
CIRCLE
8
BLACK
10
33.85
20
-29.45
40
0.5
0
CIRCLE
8
BLACK
10
33.85
20
-43.95
40
0.5
0
CIRCLE
8
BLACK
10
34.22
20
-51.97
40
0.5
0
CIRCLE
8
BLACK
10
35.75
20
-47.4
40
0.5
0
CIRCLE
8
BLACK
10
35.99
20
-54.43
40
0.5
0
CIRCLE
8
BLACK
10
37.5
20
-49.75
40
0.5
0
CIRCLE
8
BLACK
10
37.78
20
-56.9
40
0.5
0
CIRCLE
8
BLACK
10
39.3
20
-52.1
40
0.5
0
CIRCLE
8
BLACK
10
40.8
20
-32.6
40
0.5
0
CIRCLE
8
BLACK
10
40.8
20
-40.4
40
0.5
0
CIRCLE
8
BLACK
10
41.0922
20
-56.9
40
0.5
0
CIRCLE
8
BLACK
10
41.1
20
-54.5
40
0.5
0
CIRCLE
8
BLACK
10
43.55
20
-47.4
40
0.5
0
CIRCLE
8
BLACK
10
45.3
20
-49.75
40
0.5
0
CIRCLE
8
BLACK
10
47.1
20
-52.1
40
0.5
0
CIRCLE
8
BLACK
10
47.9
20
-29.45
40
0.5
0
CIRCLE
8
BLACK
10
47.9
20
-43.95
40
0.5
0
CIRCLE
8
BLACK
10
48.8922
20
-56.9
40
0.5
0
CIRCLE
8
BLACK
10
48.9
20
-54.5
40
0.5
0
CIRCLE
8
BLACK
10
50.4
20
-29.45
40
0.5
0
CIRCLE
8
BLACK
10
52.9
20
-29.45
40
0.5
0
CIRCLE
8
BLACK
10
52.9
20
-43.95
40
0.5
0
CIRCLE
8
BLACK
10
59.65
20
-49.6
40
0.5
0
CIRCLE
8
BLACK
10
59.8
20
-32.6
40
0.5
0
CIRCLE
8
BLACK
10
59.8
20
-40.4
40
0.5
0
CIRCLE
8
BLACK
10
61.4
20
-52.05
40
0.5
0
CIRCLE
8
BLACK
10
63.2
20
-54.45
40
0.5
0
CIRCLE
8
BLACK
10
65.05
20
-56.9
40
0.5
0
CIRCLE
8
BLACK
10
66.95
20
-29.45
40
0.5
0
CIRCLE
8
BLACK
10
66.95
20
-43.95
40
0.5
0
CIRCLE
8
BLACK
10
67.45
20
-49.6
40
0.5
0
CIRCLE
8
BLACK
10
69.2
20
-52.05
40
0.5
0
CIRCLE
8
BLACK
10
69.45
20
-29.45
40
0.5
0
CIRCLE
8
BLACK
10
70.45
20
-47.15
40
0.5
0
CIRCLE
8
BLACK
10
71
20
-54.45
40
0.5
0
CIRCLE
8
BLACK
10
71.95
20
-29.45
40
0.5
0
CIRCLE
8
BLACK
10
71.95
20
-43.95
40
0.5
0
CIRCLE
8
BLACK
10
72.25
20
-49.6
40
0.5
0
CIRCLE
8
BLACK
10
72.85
20
-56.9
40
0.5
0
CIRCLE
8
BLACK
10
73.95
20
-52.05
40
0.5
0
CIRCLE
8
BLACK
10
75.75
20
-54.5
40
0.5
0
CIRCLE
8
BLACK
10
77.45
20
-56.95
40
0.5
0
CIRCLE
8
BLACK
10
78.25
20
-47.15
40
0.5
0
CIRCLE
8
BLACK
10
78.45
20
-32.6
40
0.5
0
CIRCLE
8
BLACK
10
78.45
20
-40.4
40
0.5
0
CIRCLE
8
BLACK
10
80.05
20
-49.6
40
0.5
0
CIRCLE
8
BLACK
10
81.75
20
-52.05
40
0.5
0
CIRCLE
8
BLACK
10
83.55
20
-54.5
40
0.5
0
CIRCLE
8
BLACK
10
85.25
20
-56.95
40
0.5
0
CIRCLE
8
BLACK
10
100.01
20
-56.78
40
0.5
0
CIRCLE
8
BLACK
10
102.46
20
-53.83
40
0.5
0
CIRCLE
8
BLACK
10
105.06
20
-51.18
40
0.5
0
CIRCLE
8
BLACK
10
107.81
20
-56.78
40
0.5
0
CIRCLE
8
BLACK
10
110.26
20
-53.83
40
0.5
0
CIRCLE
8
BLACK
10
112.86
20
-51.18
40
0.5
0
LINE
8
BLACK
6
CONTINUOUS
10
80.2858
20
-42.7248
11
80.2858
21
-43.817
0
LINE
8
BLACK
6
CONTINUOUS
10
79.7397
20
-43.2709
11
80.8319
21
-43.2709
0
LINE
8
BLACK
6
CONTINUOUS
10
82.3664
20
-41.2679
11
82.3664
21
-42.3601
0
LINE
8
BLACK
6
CONTINUOUS
10
81.8203
20
-41.814
11
82.9125
21
-41.814
0
LINE
8
BLACK
6
CONTINUOUS
10
84.4471
20
-39.8111
11
84.4471
21
-40.9033
0
LINE
8
BLACK
6
CONTINUOUS
10
83.901
20
-40.3572
11
84.9932
21
-40.3572
0
LINE
8
BLACK
6
CONTINUOUS
10
86.5277
20
-38.3542
11
86.5277
21
-39.4464
0
LINE
8
BLACK
6
CONTINUOUS
10
85.9816
20
-38.9003
11
87.0738
21
-38.9003
0
LINE
8
BLACK
6
CONTINUOUS
10
88.6084
20
-36.8973
11
88.6084
21
-37.9895
0
LINE
8
BLACK
6
CONTINUOUS
10
88.0623
20
-37.4434
11
89.1545
21
-37.4434
0
LINE
8
BLACK
6
CONTINUOUS
10
89.0271
20
-55.2087
11
89.0271
21
-56.3009
0
LINE
8
BLACK
6
CONTINUOUS
10
88.481
20
-55.7548
11
89.5732
21
-55.7548
0
LINE
8
BLACK
6
CONTINUOUS
10
90.689
20
-35.4404
11
90.689
21
-36.5326
0
LINE
8
BLACK
6
CONTINUOUS
10
90.1429
20
-35.9865
11
91.2351
21
-35.9865
0
LINE
8
BLACK
6
CONTINUOUS
10
91.1077
20
-53.7518
11
91.1077
21
-54.844
0
LINE
8
BLACK
6
CONTINUOUS
10
90.5616
20
-54.2979
11
91.6538
21
-54.2979
0
LINE
8
BLACK
6
CONTINUOUS
10
92.7697
20
-33.9835
11
92.7697
21
-35.0757
0
LINE
8
BLACK
6
CONTINUOUS
10
92.2236
20
-34.5296
11
93.3158
21
-34.5296
0
LINE
8
BLACK
6
CONTINUOUS
10
93.1884
20
-52.2949
11
93.1884
21
-53.3871
0
LINE
8
BLACK
6
CONTINUOUS
10
92.6423
20
-52.841
11
93.7345
21
-52.841
0
LINE
8
BLACK
6
CONTINUOUS
10
94.8503
20
-32.5266
11
94.8503
21
-33.6188
0
LINE
8
BLACK
6
CONTINUOUS
10
94.3042
20
-33.0727
11
95.3964
21
-33.0727
0
LINE
8
BLACK
6
CONTINUOUS
10
95.269
20
-50.838
11
95.269
21
-51.9302
0
LINE
8
BLACK
6
CONTINUOUS
10
94.7229
20
-51.3841
11
95.8151
21
-51.3841
0
LINE
8
BLACK
6
CONTINUOUS
10
96.931
20
-31.0698
11
96.931
21
-32.162
0
LINE
8
BLACK
6
CONTINUOUS
10
96.3849
20
-31.6159
11
97.4771
21
-31.6159
0
LINE
8
BLACK
6
CONTINUOUS
10
97.3497
20
-49.3812
11
97.3497
21
-50.4734
0
LINE
8
BLACK
6
CONTINUOUS
10
96.8036
20
-49.9273
11
97.8958
21
-49.9273
0
LINE
8
BLACK
6
CONTINUOUS
10
99.0116
20
-29.6129
11
99.0116
21
-30.7051
0
LINE
8
BLACK
6
CONTINUOUS
10
98.4655
20
-30.159
11
99.5577
21
-30.159
0
LINE
8
BLACK
6
CONTINUOUS
10
99.4303
20
-47.9243
11
99.4303
21
-49.0165
0
LINE
8
BLACK
6
CONTINUOUS
10
98.8842
20
-48.4704
11
99.9764
21
-48.4704
0
LINE
8
BLACK
6
CONTINUOUS
10
101.092
20
-28.156
11
101.092
21
-29.2482
0
LINE
8
BLACK
6
CONTINUOUS
10
100.546
20
-28.7021
11
101.638
21
-28.7021
0
LINE
8
BLACK
6
CONTINUOUS
10
101.511
20
-46.4674
11
101.511
21
-47.5596
0
LINE
8
BLACK
6
CONTINUOUS
10
100.965
20
-47.0135
11
102.057
21
-47.0135
0
LINE
8
BLACK
6
CONTINUOUS
10
103.173
20
-26.6991
11
103.173
21
-27.7913
0
LINE
8
BLACK
6
CONTINUOUS
10
102.627
20
-27.2452
11
103.719
21
-27.2452
0
LINE
8
BLACK
6
CONTINUOUS
10
103.592
20
-45.0105
11
103.592
21
-46.1027
0
LINE
8
BLACK
6
CONTINUOUS
10
103.046
20
-45.5566
11
104.138
21
-45.5566
0
LINE
8
BLACK
6
CONTINUOUS
10
105.254
20
-25.2422
11
105.254
21
-26.3344
0
LINE
8
BLACK
6
CONTINUOUS
10
104.707
20
-25.7883
11
105.8
21
-25.7883
0
LINE
8
BLACK
6
CONTINUOUS
10
105.672
20
-43.5536
11
105.672
21
-44.6458
0
LINE
8
BLACK
6
CONTINUOUS
10
105.126
20
-44.0997
11
106.218
21
-44.0997
0
LINE
8
BLACK
6
CONTINUOUS
10
107.753
20
-42.0967
11
107.753
21
-43.1889
0
LINE
8
BLACK
6
CONTINUOUS
10
107.207
20
-42.6428
11
108.299
21
-42.6428
0
LINE
8
BLACK
6
CONTINUOUS
10
109.834
20
-40.6399
11
109.834
21
-41.7321
0
LINE
8
BLACK
6
CONTINUOUS
10
109.287
20
-41.186
11
110.38
21
-41.186
0
LINE
8
BLACK
6
CONTINUOUS
10
111.914
20
-39.183
11
111.914
21
-40.2752
0
LINE
8
BLACK
6
CONTINUOUS
10
111.368
20
-39.7291
11
112.46
21
-39.7291
0
LINE
8
BLACK
6
CONTINUOUS
10
113.995
20
-37.7261
11
113.995
21
-38.8183
0
LINE
8
BLACK
6
CONTINUOUS
10
113.449
20
-38.2722
11
114.541
21
-38.2722
0
LINE
8
BLACK
6
CONTINUOUS
10
26.2803
20
-37.4803
11
26.2803
21
-36.4197
0
LINE
8
BLACK
6
CONTINUOUS
10
26.2803
20
-36.4197
11
25.2197
21
-36.4197
0
LINE
8
BLACK
6
CONTINUOUS
10
25.2197
20
-36.4197
11
25.2197
21
-37.4803
0
LINE
8
BLACK
6
CONTINUOUS
10
25.2197
20
-37.4803
11
26.2803
21
-37.4803
0
LINE
8
BLACK
6
CONTINUOUS
10
25
20
-36.3
11
25
21
-37.6
0
LINE
8
BLACK
6
CONTINUOUS
10
26.5
20
-36.3
11
26.5
21
-37.6
0
ARC
8
BLACK
10
25.75
20
-37.6
40
0.75
50
180
51
360
0
ARC
8
BLACK
10
25.75
20
-36.3
40
0.75
50
0
51
180
0
LINE
8
BLACK
6
CONTINUOUS
10
37.4803
20
-37.4803
11
37.4803
21
-36.4197
0
LINE
8
BLACK
6
CONTINUOUS
10
37.4803
20
-36.4197
11
36.4197
21
-36.4197
0
LINE
8
BLACK
6
CONTINUOUS
10
36.4197
20
-36.4197
11
36.4197
21
-37.4803
0
LINE
8
BLACK
6
CONTINUOUS
10
36.4197
20
-37.4803
11
37.4803
21
-37.4803
0
LINE
8
BLACK
6
CONTINUOUS
10
36.2
20
-36.3
11
36.2
21
-37.6
0
LINE
8
BLACK
6
CONTINUOUS
10
37.7
20
-36.3
11
37.7
21
-37.6
0
ARC
8
BLACK
10
36.95
20
-37.6
40
0.75
50
180
51
360
0
ARC
8
BLACK
10
36.95
20
-36.3
40
0.75
50
0
51
180
0
LINE
8
BLACK
6
CONTINUOUS
10
45.3303
20
-37.4803
11
45.3303
21
-36.4197
0
LINE
8
BLACK
6
CONTINUOUS
10
45.3303
20
-36.4197
11
44.2697
21
-36.4197
0
LINE
8
BLACK
6
CONTINUOUS
10
44.2697
20
-36.4197
11
44.2697
21
-37.4803
0
LINE
8
BLACK
6
CONTINUOUS
10
44.2697
20
-37.4803
11
45.3303
21
-37.4803
0
LINE
8
BLACK
6
CONTINUOUS
10
44.05
20
-36.3
11
44.05
21
-37.6
0
LINE
8
BLACK
6
CONTINUOUS
10
45.55
20
-36.3
11
45.55
21
-37.6
0
ARC
8
BLACK
10
44.8
20
-37.6
40
0.75
50
180
51
360
0
ARC
8
BLACK
10
44.8
20
-36.3
40
0.75
50
0
51
180
0
LINE
8
BLACK
6
CONTINUOUS
10
56.5303
20
-37.4803
11
56.5303
21
-36.4197
0
LINE
8
BLACK
6
CONTINUOUS
10
56.5303
20
-36.4197
11
55.4697
21
-36.4197
0
LINE
8
BLACK
6
CONTINUOUS
10
55.4697
20
-36.4197
11
55.4697
21
-37.4803
0
LINE
8
BLACK
6
CONTINUOUS
10
55.4697
20
-37.4803
11
56.5303
21
-37.4803
0
LINE
8
BLACK
6
CONTINUOUS
10
55.25
20
-36.3
11
55.25
21
-37.6
0
LINE
8
BLACK
6
CONTINUOUS
10
56.75
20
-36.3
11
56.75
21
-37.6
0
ARC
8
BLACK
10
56
20
-37.6
40
0.75
50
180
51
360
0
ARC
8
BLACK
10
56
20
-36.3
40
0.75
50
0
51
180
0
LINE
8
BLACK
6
CONTINUOUS
10
64.3803
20
-37.4803
11
64.3803
21
-36.4197
0
LINE
8
BLACK
6
CONTINUOUS
10
64.3803
20
-36.4197
11
63.3197
21
-36.4197
0
LINE
8
BLACK
6
CONTINUOUS
10
63.3197
20
-36.4197
11
63.3197
21
-37.4803
0
LINE
8
BLACK
6
CONTINUOUS
10
63.3197
20
-37.4803
11
64.3803
21
-37.4803
0
LINE
8
BLACK
6
CONTINUOUS
10
63.1
20
-36.3
11
63.1
21
-37.6
0
LINE
8
BLACK
6
CONTINUOUS
10
64.6
20
-36.3
11
64.6
21
-37.6
0
ARC
8
BLACK
10
63.85
20
-37.6
40
0.75
50
180
51
360
0
ARC
8
BLACK
10
63.85
20
-36.3
40
0.75
50
0
51
180
0
LINE
8
BLACK
6
CONTINUOUS
10
75.5803
20
-37.4803
11
75.5803
21
-36.4197
0
LINE
8
BLACK
6
CONTINUOUS
10
75.5803
20
-36.4197
11
74.5197
21
-36.4197
0
LINE
8
BLACK
6
CONTINUOUS
10
74.5197
20
-36.4197
11
74.5197
21
-37.4803
0
LINE
8
BLACK
6
CONTINUOUS
10
74.5197
20
-37.4803
11
75.5803
21
-37.4803
0
LINE
8
BLACK
6
CONTINUOUS
10
74.3
20
-36.3
11
74.3
21
-37.6
0
LINE
8
BLACK
6
CONTINUOUS
10
75.8
20
-36.3
11
75.8
21
-37.6
0
ARC
8
BLACK
10
75.05
20
-37.6
40
0.75
50
180
51
360
0
ARC
8
BLACK
10
75.05
20
-36.3
40
0.75
50
0
51
180
0
LINE
8
BLACK
6
CONTINUOUS
10
23.5422
20
-28.262
11
24.7922
21
-27.012
0
LINE
8
BLACK
6
CONTINUOUS
10
24.7922
20
-27.012
11
23.5422
21
-25.762
0
LINE
8
BLACK
6
CONTINUOUS
10
23.5422
20
-25.762
11
22.2922
21
-27.012
0
LINE
8
BLACK
6
CONTINUOUS
10
22.2922
20
-27.012
11
23.5422
21
-28.262
0
LINE
8
BLACK
6
CONTINUOUS
10
40.8827
20
-97.5781
11
42.1327
21
-96.3281
0
LINE
8
BLACK
6
CONTINUOUS
10
42.1327
20
-96.3281
11
40.8827
21
-95.0781
0
LINE
8
BLACK
6
CONTINUOUS
10
40.8827
20
-95.0781
11
39.6327
21
-96.3281
0
LINE
8
BLACK
6
CONTINUOUS
10
39.6327
20
-96.3281
11
40.8827
21
-97.5781
0
LINE
8
BLACK
6
CONTINUOUS
10
40.8827
20
-135.678
11
42.1327
21
-134.428
0
LINE
8
BLACK
6
CONTINUOUS
10
42.1327
20
-134.428
11
40.8827
21
-133.178
0
LINE
8
BLACK
6
CONTINUOUS
10
40.8827
20
-133.178
11
39.6327
21
-134.428
0
LINE
8
BLACK
6
CONTINUOUS
10
39.6327
20
-134.428
11
40.8827
21
-135.678
0
LINE
8
BLACK
6
CONTINUOUS
10
59.8922
20
-28.352
11
61.1422
21
-27.102
0
LINE
8
BLACK
6
CONTINUOUS
10
61.1422
20
-27.102
11
59.8922
21
-25.852
0
LINE
8
BLACK
6
CONTINUOUS
10
59.8922
20
-25.852
11
58.6422
21
-27.102
0
LINE
8
BLACK
6
CONTINUOUS
10
58.6422
20
-27.102
11
59.8922
21
-28.352
0
LINE
8
BLACK
6
CONTINUOUS
10
60.22
20
-59.24
11
61.47
21
-57.99
0
LINE
8
BLACK
6
CONTINUOUS
10
61.47
20
-57.99
11
60.22
21
-56.74
0
LINE
8
BLACK
6
CONTINUOUS
10
60.22
20
-56.74
11
58.97
21
-57.99
0
LINE
8
BLACK
6
CONTINUOUS
10
58.97
20
-57.99
11
60.22
21
-59.24
0
LINE
8
BLACK
6
CONTINUOUS
10
78.9827
20
-97.5781
11
80.2327
21
-96.3281
0
LINE
8
BLACK
6
CONTINUOUS
10
80.2327
20
-96.3281
11
78.9827
21
-95.0781
0
LINE
8
BLACK
6
CONTINUOUS
10
78.9827
20
-95.0781
11
77.7327
21
-96.3281
0
LINE
8
BLACK
6
CONTINUOUS
10
77.7327
20
-96.3281
11
78.9827
21
-97.5781
0
LINE
8
BLACK
6
CONTINUOUS
10
78.9827
20
-135.678
11
80.2327
21
-134.428
0
LINE
8
BLACK
6
CONTINUOUS
10
80.2327
20
-134.428
11
78.9827
21
-133.178
0
LINE
8
BLACK
6
CONTINUOUS
10
78.9827
20
-133.178
11
77.7327
21
-134.428
0
LINE
8
BLACK
6
CONTINUOUS
10
77.7327
20
-134.428
11
78.9827
21
-135.678
0
LINE
8
BLACK
6
CONTINUOUS
10
85.5227
20
-29.445
11
86.7727
21
-28.195
0
LINE
8
BLACK
6
CONTINUOUS
10
86.7727
20
-28.195
11
85.5227
21
-26.945
0
LINE
8
BLACK
6
CONTINUOUS
10
85.5227
20
-26.945
11
84.2727
21
-28.195
0
LINE
8
BLACK
6
CONTINUOUS
10
84.2727
20
-28.195
11
85.5227
21
-29.445
0
LINE
8
BLACK
6
CONTINUOUS
10
98.0327
20
-78.5281
11
99.2827
21
-77.2781
0
LINE
8
BLACK
6
CONTINUOUS
10
99.2827
20
-77.2781
11
98.0327
21
-76.0281
0
LINE
8
BLACK
6
CONTINUOUS
10
98.0327
20
-76.0281
11
96.7827
21
-77.2781
0
LINE
8
BLACK
6
CONTINUOUS
10
96.7827
20
-77.2781
11
98.0327
21
-78.5281
0
LINE
8
BLACK
6
CONTINUOUS
10
98.0327
20
-116.628
11
99.2827
21
-115.378
0
LINE
8
BLACK
6
CONTINUOUS
10
99.2827
20
-115.378
11
98.0327
21
-114.128
0
LINE
8
BLACK
6
CONTINUOUS
10
98.0327
20
-114.128
11
96.7827
21
-115.378
0
LINE
8
BLACK
6
CONTINUOUS
10
96.7827
20
-115.378
11
98.0327
21
-116.628
0
LINE
8
BLACK
6
CONTINUOUS
10
113.463
20
-45.955
11
114.713
21
-44.705
0
LINE
8
BLACK
6
CONTINUOUS
10
114.713
20
-44.705
11
113.463
21
-43.455
0
LINE
8
BLACK
6
CONTINUOUS
10
113.463
20
-43.455
11
112.213
21
-44.705
0
LINE
8
BLACK
6
CONTINUOUS
10
112.213
20
-44.705
11
113.463
21
-45.955
0
LINE
8
BLACK
6
CONTINUOUS
10
114.91
20
-58.22
11
116.16
21
-56.97
0
LINE
8
BLACK
6
CONTINUOUS
10
116.16
20
-56.97
11
114.91
21
-55.72
0
LINE
8
BLACK
6
CONTINUOUS
10
114.91
20
-55.72
11
113.66
21
-56.97
0
LINE
8
BLACK
6
CONTINUOUS
10
113.66
20
-56.97
11
114.91
21
-58.22
0
LINE
8
BLACK
6
CONTINUOUS
10
22.7684
20
-158.173
11
22.7684
21
-156.173
0
LINE
8
BLACK
6
CONTINUOUS
10
22.7684
20
-156.173
11
23.2446
21
-156.173
0
LINE
8
BLACK
6
CONTINUOUS
10
23.2446
20
-156.173
11
23.5303
21
-156.268
0
LINE
8
BLACK
6
CONTINUOUS
10
23.5303
20
-156.268
11
23.7208
21
-156.458
0
LINE
8
BLACK
6
CONTINUOUS
10
23.7208
20
-156.458
11
23.816
21
-156.649
0
LINE
8
BLACK
6
CONTINUOUS
10
23.816
20
-156.649
11
23.9113
21
-157.03
0
LINE
8
BLACK
6
CONTINUOUS
10
23.9113
20
-157.03
11
23.9113
21
-157.315
0
LINE
8
BLACK
6
CONTINUOUS
10
23.9113
20
-157.315
11
23.816
21
-157.696
0
LINE
8
BLACK
6
CONTINUOUS
10
23.816
20
-157.696
11
23.7208
21
-157.887
0
LINE
8
BLACK
6
CONTINUOUS
10
23.7208
20
-157.887
11
23.5303
21
-158.077
0
LINE
8
BLACK
6
CONTINUOUS
10
23.5303
20
-158.077
11
23.2446
21
-158.173
0
LINE
8
BLACK
6
CONTINUOUS
10
23.2446
20
-158.173
11
22.7684
21
-158.173
0
LINE
8
BLACK
6
CONTINUOUS
10
24.7684
20
-158.173
11
24.7684
21
-156.839
0
LINE
8
BLACK
6
CONTINUOUS
10
24.7684
20
-157.22
11
24.8636
21
-157.03
0
LINE
8
BLACK
6
CONTINUOUS
10
24.8636
20
-157.03
11
24.9589
21
-156.934
0
LINE
8
BLACK
6
CONTINUOUS
10
24.9589
20
-156.934
11
25.1494
21
-156.839
0
LINE
8
BLACK
6
CONTINUOUS
10
25.1494
20
-156.839
11
25.3398
21
-156.839
0
LINE
8
BLACK
6
CONTINUOUS
10
26.0065
20
-158.173
11
26.0065
21
-156.839
0
LINE
8
BLACK
6
CONTINUOUS
10
26.0065
20
-156.173
11
25.9113
21
-156.268
0
LINE
8
BLACK
6
CONTINUOUS
10
25.9113
20
-156.268
11
26.0065
21
-156.363
0
LINE
8
BLACK
6
CONTINUOUS
10
26.0065
20
-156.363
11
26.1017
21
-156.268
0
LINE
8
BLACK
6
CONTINUOUS
10
26.1017
20
-156.268
11
26.0065
21
-156.173
0
LINE
8
BLACK
6
CONTINUOUS
10
26.0065
20
-156.173
11
26.0065
21
-156.363
0
LINE
8
BLACK
6
CONTINUOUS
10
27.2446
20
-158.173
11
27.0541
21
-158.077
0
LINE
8
BLACK
6
CONTINUOUS
10
27.0541
20
-158.077
11
26.9589
21
-157.887
0
LINE
8
BLACK
6
CONTINUOUS
10
26.9589
20
-157.887
11
26.9589
21
-156.173
0
LINE
8
BLACK
6
CONTINUOUS
10
28.2922
20
-158.173
11
28.1017
21
-158.077
0
LINE
8
BLACK
6
CONTINUOUS
10
28.1017
20
-158.077
11
28.0065
21
-157.887
0
LINE
8
BLACK
6
CONTINUOUS
10
28.0065
20
-157.887
11
28.0065
21
-156.173
0
LINE
8
BLACK
6
CONTINUOUS
10
30.5779
20
-158.173
11
30.5779
21
-156.173
0
LINE
8
BLACK
6
CONTINUOUS
10
30.5779
20
-156.173
11
31.2446
21
-157.601
0
LINE
8
BLACK
6
CONTINUOUS
10
31.2446
20
-157.601
11
31.9113
21
-156.173
0
LINE
8
BLACK
6
CONTINUOUS
10
31.9113
20
-156.173
11
31.9113
21
-158.173
0
LINE
8
BLACK
6
CONTINUOUS
10
33.7208
20
-158.173
11
33.7208
21
-157.125
0
LINE
8
BLACK
6
CONTINUOUS
10
33.7208
20
-157.125
11
33.6255
21
-156.934
0
LINE
8
BLACK
6
CONTINUOUS
10
33.6255
20
-156.934
11
33.4351
21
-156.839
0
LINE
8
BLACK
6
CONTINUOUS
10
33.4351
20
-156.839
11
33.0541
21
-156.839
0
LINE
8
BLACK
6
CONTINUOUS
10
33.0541
20
-156.839
11
32.8636
21
-156.934
0
LINE
8
BLACK
6
CONTINUOUS
10
33.7208
20
-158.077
11
33.5303
21
-158.173
0
LINE
8
BLACK
6
CONTINUOUS
10
33.5303
20
-158.173
11
33.0541
21
-158.173
0
LINE
8
BLACK
6
CONTINUOUS
10
33.0541
20
-158.173
11
32.8636
21
-158.077
0
LINE
8
BLACK
6
CONTINUOUS
10
32.8636
20
-158.077
11
32.7684
21
-157.887
0
LINE
8
BLACK
6
CONTINUOUS
10
32.7684
20
-157.887
11
32.7684
21
-157.696
0
LINE
8
BLACK
6
CONTINUOUS
10
32.7684
20
-157.696
11
32.8636
21
-157.506
0
LINE
8
BLACK
6
CONTINUOUS
10
32.8636
20
-157.506
11
33.0541
21
-157.411
0
LINE
8
BLACK
6
CONTINUOUS
10
33.0541
20
-157.411
11
33.5303
21
-157.411
0
LINE
8
BLACK
6
CONTINUOUS
10
33.5303
20
-157.411
11
33.7208
21
-157.315
0
LINE
8
BLACK
6
CONTINUOUS
10
34.6732
20
-156.839
11
34.6732
21
-158.839
0
LINE
8
BLACK
6
CONTINUOUS
10
34.6732
20
-156.934
11
34.8636
21
-156.839
0
LINE
8
BLACK
6
CONTINUOUS
10
34.8636
20
-156.839
11
35.2446
21
-156.839
0
LINE
8
BLACK
6
CONTINUOUS
10
35.2446
20
-156.839
11
35.4351
21
-156.934
0
LINE
8
BLACK
6
CONTINUOUS
10
35.4351
20
-156.934
11
35.5303
21
-157.03
0
LINE
8
BLACK
6
CONTINUOUS
10
35.5303
20
-157.03
11
35.6255
21
-157.22
0
LINE
8
BLACK
6
CONTINUOUS
10
35.6255
20
-157.22
11
35.6255
21
-157.792
0
LINE
8
BLACK
6
CONTINUOUS
10
35.6255
20
-157.792
11
35.5303
21
-157.982
0
LINE
8
BLACK
6
CONTINUOUS
10
35.5303
20
-157.982
11
35.4351
21
-158.077
0
LINE
8
BLACK
6
CONTINUOUS
10
35.4351
20
-158.077
11
35.2446
21
-158.173
0
LINE
8
BLACK
6
CONTINUOUS
10
35.2446
20
-158.173
11
34.8636
21
-158.173
0
LINE
8
BLACK
6
CONTINUOUS
10
34.8636
20
-158.173
11
34.6732
21
-158.077
0
LINE
8
BLACK
6
CONTINUOUS
10
36.4827
20
-157.982
11
36.5779
21
-158.077
0
LINE
8
BLACK
6
CONTINUOUS
10
36.5779
20
-158.077
11
36.4827
21
-158.173
0
LINE
8
BLACK
6
CONTINUOUS
10
36.4827
20
-158.173
11
36.3874
21
-158.077
0
LINE
8
BLACK
6
CONTINUOUS
10
36.3874
20
-158.077
11
36.4827
21
-157.982
0
LINE
8
BLACK
6
CONTINUOUS
10
36.4827
20
-157.982
11
36.4827
21
-158.173
0
LINE
8
BLACK
6
CONTINUOUS
10
36.4827
20
-156.934
11
36.5779
21
-157.03
0
LINE
8
BLACK
6
CONTINUOUS
10
36.5779
20
-157.03
11
36.4827
21
-157.125
0
LINE
8
BLACK
6
CONTINUOUS
10
36.4827
20
-157.125
11
36.3874
21
-157.03
0
LINE
8
BLACK
6
CONTINUOUS
10
36.3874
20
-157.03
11
36.4827
21
-156.934
0
LINE
8
BLACK
6
CONTINUOUS
10
36.4827
20
-156.934
11
36.4827
21
-157.125
0
LINE
8
BLACK
6
CONTINUOUS
10
19.8922
20
-161.318
11
20.1922
21
-161.618
0
LINE
8
BLACK
6
CONTINUOUS
10
20.1922
20
-161.318
11
19.8922
21
-161.618
0
LINE
8
BLACK
6
CONTINUOUS
10
23.1494
20
-160.373
11
23.3398
21
-160.373
0
LINE
8
BLACK
6
CONTINUOUS
10
23.3398
20
-160.373
11
23.5303
21
-160.468
0
LINE
8
BLACK
6
CONTINUOUS
10
23.5303
20
-160.468
11
23.6255
21
-160.563
0
LINE
8
BLACK
6
CONTINUOUS
10
23.6255
20
-160.563
11
23.7208
21
-160.754
0
LINE
8
BLACK
6
CONTINUOUS
10
23.7208
20
-160.754
11
23.816
21
-161.134
0
LINE
8
BLACK
6
CONTINUOUS
10
23.816
20
-161.134
11
23.816
21
-161.611
0
LINE
8
BLACK
6
CONTINUOUS
10
23.816
20
-161.611
11
23.7208
21
-161.992
0
LINE
8
BLACK
6
CONTINUOUS
10
23.7208
20
-161.992
11
23.6255
21
-162.182
0
LINE
8
BLACK
6
CONTINUOUS
10
23.6255
20
-162.182
11
23.5303
21
-162.277
0
LINE
8
BLACK
6
CONTINUOUS
10
23.5303
20
-162.277
11
23.3398
21
-162.373
0
LINE
8
BLACK
6
CONTINUOUS
10
23.3398
20
-162.373
11
23.1494
21
-162.373
0
LINE
8
BLACK
6
CONTINUOUS
10
23.1494
20
-162.373
11
22.9589
21
-162.277
0
LINE
8
BLACK
6
CONTINUOUS
10
22.9589
20
-162.277
11
22.8636
21
-162.182
0
LINE
8
BLACK
6
CONTINUOUS
10
22.8636
20
-162.182
11
22.7684
21
-161.992
0
LINE
8
BLACK
6
CONTINUOUS
10
22.7684
20
-161.992
11
22.6732
21
-161.611
0
LINE
8
BLACK
6
CONTINUOUS
10
22.6732
20
-161.611
11
22.6732
21
-161.134
0
LINE
8
BLACK
6
CONTINUOUS
10
22.6732
20
-161.134
11
22.7684
21
-160.754
0
LINE
8
BLACK
6
CONTINUOUS
10
22.7684
20
-160.754
11
22.8636
21
-160.563
0
LINE
8
BLACK
6
CONTINUOUS
10
22.8636
20
-160.563
11
22.9589
21
-160.468
0
LINE
8
BLACK
6
CONTINUOUS
10
22.9589
20
-160.468
11
23.1494
21
-160.373
0
LINE
8
BLACK
6
CONTINUOUS
10
24.6732
20
-162.182
11
24.7684
21
-162.277
0
LINE
8
BLACK
6
CONTINUOUS
10
24.7684
20
-162.277
11
24.6732
21
-162.373
0
LINE
8
BLACK
6
CONTINUOUS
10
24.6732
20
-162.373
11
24.5779
21
-162.277
0
LINE
8
BLACK
6
CONTINUOUS
10
24.5779
20
-162.277
11
24.6732
21
-162.182
0
LINE
8
BLACK
6
CONTINUOUS
10
24.6732
20
-162.182
11
24.6732
21
-162.373
0
LINE
8
BLACK
6
CONTINUOUS
10
25.4351
20
-160.373
11
26.6732
21
-160.373
0
LINE
8
BLACK
6
CONTINUOUS
10
26.6732
20
-160.373
11
26.0065
21
-161.134
0
LINE
8
BLACK
6
CONTINUOUS
10
26.0065
20
-161.134
11
26.2922
21
-161.134
0
LINE
8
BLACK
6
CONTINUOUS
10
26.2922
20
-161.134
11
26.4827
21
-161.23
0
LINE
8
BLACK
6
CONTINUOUS
10
26.4827
20
-161.23
11
26.5779
21
-161.325
0
LINE
8
BLACK
6
CONTINUOUS
10
26.5779
20
-161.325
11
26.6732
21
-161.515
0
LINE
8
BLACK
6
CONTINUOUS
10
26.6732
20
-161.515
11
26.6732
21
-161.992
0
LINE
8
BLACK
6
CONTINUOUS
10
26.6732
20
-161.992
11
26.5779
21
-162.182
0
LINE
8
BLACK
6
CONTINUOUS
10
26.5779
20
-162.182
11
26.4827
21
-162.277
0
LINE
8
BLACK
6
CONTINUOUS
10
26.4827
20
-162.277
11
26.2922
21
-162.373
0
LINE
8
BLACK
6
CONTINUOUS
10
26.2922
20
-162.373
11
25.7208
21
-162.373
0
LINE
8
BLACK
6
CONTINUOUS
10
25.7208
20
-162.373
11
25.5303
21
-162.277
0
LINE
8
BLACK
6
CONTINUOUS
10
25.5303
20
-162.277
11
25.4351
21
-162.182
0
LINE
8
BLACK
6
CONTINUOUS
10
27.9113
20
-160.373
11
28.1017
21
-160.373
0
LINE
8
BLACK
6
CONTINUOUS
10
28.1017
20
-160.373
11
28.2922
21
-160.468
0
LINE
8
BLACK
6
CONTINUOUS
10
28.2922
20
-160.468
11
28.3874
21
-160.563
0
LINE
8
BLACK
6
CONTINUOUS
10
28.3874
20
-160.563
11
28.4827
21
-160.754
0
LINE
8
BLACK
6
CONTINUOUS
10
28.4827
20
-160.754
11
28.5779
21
-161.134
0
LINE
8
BLACK
6
CONTINUOUS
10
28.5779
20
-161.134
11
28.5779
21
-161.611
0
LINE
8
BLACK
6
CONTINUOUS
10
28.5779
20
-161.611
11
28.4827
21
-161.992
0
LINE
8
BLACK
6
CONTINUOUS
10
28.4827
20
-161.992
11
28.3874
21
-162.182
0
LINE
8
BLACK
6
CONTINUOUS
10
28.3874
20
-162.182
11
28.2922
21
-162.277
0
LINE
8
BLACK
6
CONTINUOUS
10
28.2922
20
-162.277
11
28.1017
21
-162.373
0
LINE
8
BLACK
6
CONTINUOUS
10
28.1017
20
-162.373
11
27.9113
21
-162.373
0
LINE
8
BLACK
6
CONTINUOUS
10
27.9113
20
-162.373
11
27.7208
21
-162.277
0
LINE
8
BLACK
6
CONTINUOUS
10
27.7208
20
-162.277
11
27.6255
21
-162.182
0
LINE
8
BLACK
6
CONTINUOUS
10
27.6255
20
-162.182
11
27.5303
21
-161.992
0
LINE
8
BLACK
6
CONTINUOUS
10
27.5303
20
-161.992
11
27.4351
21
-161.611
0
LINE
8
BLACK
6
CONTINUOUS
10
27.4351
20
-161.611
11
27.4351
21
-161.134
0
LINE
8
BLACK
6
CONTINUOUS
10
27.4351
20
-161.134
11
27.5303
21
-160.754
0
LINE
8
BLACK
6
CONTINUOUS
10
27.5303
20
-160.754
11
27.6255
21
-160.563
0
LINE
8
BLACK
6
CONTINUOUS
10
27.6255
20
-160.563
11
27.7208
21
-160.468
0
LINE
8
BLACK
6
CONTINUOUS
10
27.7208
20
-160.468
11
27.9113
21
-160.373
0
LINE
8
BLACK
6
CONTINUOUS
10
29.816
20
-160.373
11
30.0065
21
-160.373
0
LINE
8
BLACK
6
CONTINUOUS
10
30.0065
20
-160.373
11
30.197
21
-160.468
0
LINE
8
BLACK
6
CONTINUOUS
10
30.197
20
-160.468
11
30.2922
21
-160.563
0
LINE
8
BLACK
6
CONTINUOUS
10
30.2922
20
-160.563
11
30.3874
21
-160.754
0
LINE
8
BLACK
6
CONTINUOUS
10
30.3874
20
-160.754
11
30.4827
21
-161.134
0
LINE
8
BLACK
6
CONTINUOUS
10
30.4827
20
-161.134
11
30.4827
21
-161.611
0
LINE
8
BLACK
6
CONTINUOUS
10
30.4827
20
-161.611
11
30.3874
21
-161.992
0
LINE
8
BLACK
6
CONTINUOUS
10
30.3874
20
-161.992
11
30.2922
21
-162.182
0
LINE
8
BLACK
6
CONTINUOUS
10
30.2922
20
-162.182
11
30.197
21
-162.277
0
LINE
8
BLACK
6
CONTINUOUS
10
30.197
20
-162.277
11
30.0065
21
-162.373
0
LINE
8
BLACK
6
CONTINUOUS
10
30.0065
20
-162.373
11
29.816
21
-162.373
0
LINE
8
BLACK
6
CONTINUOUS
10
29.816
20
-162.373
11
29.6255
21
-162.277
0
LINE
8
BLACK
6
CONTINUOUS
10
29.6255
20
-162.277
11
29.5303
21
-162.182
0
LINE
8
BLACK
6
CONTINUOUS
10
29.5303
20
-162.182
11
29.4351
21
-161.992
0
LINE
8
BLACK
6
CONTINUOUS
10
29.4351
20
-161.992
11
29.3398
21
-161.611
0
LINE
8
BLACK
6
CONTINUOUS
10
29.3398
20
-161.611
11
29.3398
21
-161.134
0
LINE
8
BLACK
6
CONTINUOUS
10
29.3398
20
-161.134
11
29.4351
21
-160.754
0
LINE
8
BLACK
6
CONTINUOUS
10
29.4351
20
-160.754
11
29.5303
21
-160.563
0
LINE
8
BLACK
6
CONTINUOUS
10
29.5303
20
-160.563
11
29.6255
21
-160.468
0
LINE
8
BLACK
6
CONTINUOUS
10
29.6255
20
-160.468
11
29.816
21
-160.373
0
LINE
8
BLACK
6
CONTINUOUS
10
31.3398
20
-162.373
11
31.3398
21
-161.039
0
LINE
8
BLACK
6
CONTINUOUS
10
31.3398
20
-161.23
11
31.4351
21
-161.134
0
LINE
8
BLACK
6
CONTINUOUS
10
31.4351
20
-161.134
11
31.6255
21
-161.039
0
LINE
8
BLACK
6
CONTINUOUS
10
31.6255
20
-161.039
11
31.9113
21
-161.039
0
LINE
8
BLACK
6
CONTINUOUS
10
31.9113
20
-161.039
11
32.1017
21
-161.134
0
LINE
8
BLACK
6
CONTINUOUS
10
32.1017
20
-161.134
11
32.197
21
-161.325
0
LINE
8
BLACK
6
CONTINUOUS
10
32.197
20
-161.325
11
32.197
21
-162.373
0
LINE
8
BLACK
6
CONTINUOUS
10
32.197
20
-161.325
11
32.2922
21
-161.134
0
LINE
8
BLACK
6
CONTINUOUS
10
32.2922
20
-161.134
11
32.4827
21
-161.039
0
LINE
8
BLACK
6
CONTINUOUS
10
32.4827
20
-161.039
11
32.7684
21
-161.039
0
LINE
8
BLACK
6
CONTINUOUS
10
32.7684
20
-161.039
11
32.9589
21
-161.134
0
LINE
8
BLACK
6
CONTINUOUS
10
32.9589
20
-161.134
11
33.0541
21
-161.325
0
LINE
8
BLACK
6
CONTINUOUS
10
33.0541
20
-161.325
11
33.0541
21
-162.373
0
LINE
8
BLACK
6
CONTINUOUS
10
34.0065
20
-162.373
11
34.0065
21
-161.039
0
LINE
8
BLACK
6
CONTINUOUS
10
34.0065
20
-161.23
11
34.1017
21
-161.134
0
LINE
8
BLACK
6
CONTINUOUS
10
34.1017
20
-161.134
11
34.2922
21
-161.039
0
LINE
8
BLACK
6
CONTINUOUS
10
34.2922
20
-161.039
11
34.5779
21
-161.039
0
LINE
8
BLACK
6
CONTINUOUS
10
34.5779
20
-161.039
11
34.7684
21
-161.134
0
LINE
8
BLACK
6
CONTINUOUS
10
34.7684
20
-161.134
11
34.8636
21
-161.325
0
LINE
8
BLACK
6
CONTINUOUS
10
34.8636
20
-161.325
11
34.8636
21
-162.373
0
LINE
8
BLACK
6
CONTINUOUS
10
34.8636
20
-161.325
11
34.9589
21
-161.134
0
LINE
8
BLACK
6
CONTINUOUS
10
34.9589
20
-161.134
11
35.1494
21
-161.039
0
LINE
8
BLACK
6
CONTINUOUS
10
35.1494
20
-161.039
11
35.4351
21
-161.039
0
LINE
8
BLACK
6
CONTINUOUS
10
35.4351
20
-161.039
11
35.6255
21
-161.134
0
LINE
8
BLACK
6
CONTINUOUS
10
35.6255
20
-161.134
11
35.7208
21
-161.325
0
LINE
8
BLACK
6
CONTINUOUS
10
35.7208
20
-161.325
11
35.7208
21
-162.373
0
LINE
8
BLACK
6
CONTINUOUS
10
39.6255
20
-160.277
11
37.9113
21
-162.849
0
LINE
8
BLACK
6
CONTINUOUS
10
42.197
20
-160.373
11
42.3874
21
-160.373
0
LINE
8
BLACK
6
CONTINUOUS
10
42.3874
20
-160.373
11
42.5779
21
-160.468
0
LINE
8
BLACK
6
CONTINUOUS
10
42.5779
20
-160.468
11
42.6732
21
-160.563
0
LINE
8
BLACK
6
CONTINUOUS
10
42.6732
20
-160.563
11
42.7684
21
-160.754
0
LINE
8
BLACK
6
CONTINUOUS
10
42.7684
20
-160.754
11
42.8636
21
-161.134
0
LINE
8
BLACK
6
CONTINUOUS
10
42.8636
20
-161.134
11
42.8636
21
-161.611
0
LINE
8
BLACK
6
CONTINUOUS
10
42.8636
20
-161.611
11
42.7684
21
-161.992
0
LINE
8
BLACK
6
CONTINUOUS
10
42.7684
20
-161.992
11
42.6732
21
-162.182
0
LINE
8
BLACK
6
CONTINUOUS
10
42.6732
20
-162.182
11
42.5779
21
-162.277
0
LINE
8
BLACK
6
CONTINUOUS
10
42.5779
20
-162.277
11
42.3874
21
-162.373
0
LINE
8
BLACK
6
CONTINUOUS
10
42.3874
20
-162.373
11
42.197
21
-162.373
0
LINE
8
BLACK
6
CONTINUOUS
10
42.197
20
-162.373
11
42.0065
21
-162.277
0
LINE
8
BLACK
6
CONTINUOUS
10
42.0065
20
-162.277
11
41.9113
21
-162.182
0
LINE
8
BLACK
6
CONTINUOUS
10
41.9113
20
-162.182
11
41.816
21
-161.992
0
LINE
8
BLACK
6
CONTINUOUS
10
41.816
20
-161.992
11
41.7208
21
-161.611
0
LINE
8
BLACK
6
CONTINUOUS
10
41.7208
20
-161.611
11
41.7208
21
-161.134
0
LINE
8
BLACK
6
CONTINUOUS
10
41.7208
20
-161.134
11
41.816
21
-160.754
0
LINE
8
BLACK
6
CONTINUOUS
10
41.816
20
-160.754
11
41.9113
21
-160.563
0
LINE
8
BLACK
6
CONTINUOUS
10
41.9113
20
-160.563
11
42.0065
21
-160.468
0
LINE
8
BLACK
6
CONTINUOUS
10
42.0065
20
-160.468
11
42.197
21
-160.373
0
LINE
8
BLACK
6
CONTINUOUS
10
43.7208
20
-162.182
11
43.816
21
-162.277
0
LINE
8
BLACK
6
CONTINUOUS
10
43.816
20
-162.277
11
43.7208
21
-162.373
0
LINE
8
BLACK
6
CONTINUOUS
10
43.7208
20
-162.373
11
43.6255
21
-162.277
0
LINE
8
BLACK
6
CONTINUOUS
10
43.6255
20
-162.277
11
43.7208
21
-162.182
0
LINE
8
BLACK
6
CONTINUOUS
10
43.7208
20
-162.182
11
43.7208
21
-162.373
0
LINE
8
BLACK
6
CONTINUOUS
10
45.0541
20
-160.373
11
45.2446
21
-160.373
0
LINE
8
BLACK
6
CONTINUOUS
10
45.2446
20
-160.373
11
45.4351
21
-160.468
0
LINE
8
BLACK
6
CONTINUOUS
10
45.4351
20
-160.468
11
45.5303
21
-160.563
0
LINE
8
BLACK
6
CONTINUOUS
10
45.5303
20
-160.563
11
45.6255
21
-160.754
0
LINE
8
BLACK
6
CONTINUOUS
10
45.6255
20
-160.754
11
45.7208
21
-161.134
0
LINE
8
BLACK
6
CONTINUOUS
10
45.7208
20
-161.134
11
45.7208
21
-161.611
0
LINE
8
BLACK
6
CONTINUOUS
10
45.7208
20
-161.611
11
45.6255
21
-161.992
0
LINE
8
BLACK
6
CONTINUOUS
10
45.6255
20
-161.992
11
45.5303
21
-162.182
0
LINE
8
BLACK
6
CONTINUOUS
10
45.5303
20
-162.182
11
45.4351
21
-162.277
0
LINE
8
BLACK
6
CONTINUOUS
10
45.4351
20
-162.277
11
45.2446
21
-162.373
0
LINE
8
BLACK
6
CONTINUOUS
10
45.2446
20
-162.373
11
45.0541
21
-162.373
0
LINE
8
BLACK
6
CONTINUOUS
10
45.0541
20
-162.373
11
44.8636
21
-162.277
0
LINE
8
BLACK
6
CONTINUOUS
10
44.8636
20
-162.277
11
44.7684
21
-162.182
0
LINE
8
BLACK
6
CONTINUOUS
10
44.7684
20
-162.182
11
44.6732
21
-161.992
0
LINE
8
BLACK
6
CONTINUOUS
10
44.6732
20
-161.992
11
44.5779
21
-161.611
0
LINE
8
BLACK
6
CONTINUOUS
10
44.5779
20
-161.611
11
44.5779
21
-161.134
0
LINE
8
BLACK
6
CONTINUOUS
10
44.5779
20
-161.134
11
44.6732
21
-160.754
0
LINE
8
BLACK
6
CONTINUOUS
10
44.6732
20
-160.754
11
44.7684
21
-160.563
0
LINE
8
BLACK
6
CONTINUOUS
10
44.7684
20
-160.563
11
44.8636
21
-160.468
0
LINE
8
BLACK
6
CONTINUOUS
10
44.8636
20
-160.468
11
45.0541
21
-160.373
0
LINE
8
BLACK
6
CONTINUOUS
10
47.6255
20
-162.373
11
46.4827
21
-162.373
0
LINE
8
BLACK
6
CONTINUOUS
10
47.0541
20
-162.373
11
47.0541
21
-160.373
0
LINE
8
BLACK
6
CONTINUOUS
10
47.0541
20
-160.373
11
46.8636
21
-160.658
0
LINE
8
BLACK
6
CONTINUOUS
10
46.8636
20
-160.658
11
46.6732
21
-160.849
0
LINE
8
BLACK
6
CONTINUOUS
10
46.6732
20
-160.849
11
46.4827
21
-160.944
0
LINE
8
BLACK
6
CONTINUOUS
10
49.5303
20
-162.373
11
48.3874
21
-162.373
0
LINE
8
BLACK
6
CONTINUOUS
10
48.9589
20
-162.373
11
48.9589
21
-160.373
0
LINE
8
BLACK
6
CONTINUOUS
10
48.9589
20
-160.373
11
48.7684
21
-160.658
0
LINE
8
BLACK
6
CONTINUOUS
10
48.7684
20
-160.658
11
48.5779
21
-160.849
0
LINE
8
BLACK
6
CONTINUOUS
10
48.5779
20
-160.849
11
48.3874
21
-160.944
0
LINE
8
BLACK
6
CONTINUOUS
10
50.6732
20
-161.23
11
50.4827
21
-161.134
0
LINE
8
BLACK
6
CONTINUOUS
10
50.4827
20
-161.134
11
50.3874
21
-161.039
0
LINE
8
BLACK
6
CONTINUOUS
10
50.3874
20
-161.039
11
50.2922
21
-160.849
0
LINE
8
BLACK
6
CONTINUOUS
10
50.2922
20
-160.849
11
50.2922
21
-160.754
0
LINE
8
BLACK
6
CONTINUOUS
10
50.2922
20
-160.754
11
50.3874
21
-160.563
0
LINE
8
BLACK
6
CONTINUOUS
10
50.3874
20
-160.563
11
50.4827
21
-160.468
0
LINE
8
BLACK
6
CONTINUOUS
10
50.4827
20
-160.468
11
50.6732
21
-160.373
0
LINE
8
BLACK
6
CONTINUOUS
10
50.6732
20
-160.373
11
51.0541
21
-160.373
0
LINE
8
BLACK
6
CONTINUOUS
10
51.0541
20
-160.373
11
51.2446
21
-160.468
0
LINE
8
BLACK
6
CONTINUOUS
10
51.2446
20
-160.468
11
51.3398
21
-160.563
0
LINE
8
BLACK
6
CONTINUOUS
10
51.3398
20
-160.563
11
51.4351
21
-160.754
0
LINE
8
BLACK
6
CONTINUOUS
10
51.4351
20
-160.754
11
51.4351
21
-160.849
0
LINE
8
BLACK
6
CONTINUOUS
10
51.4351
20
-160.849
11
51.3398
21
-161.039
0
LINE
8
BLACK
6
CONTINUOUS
10
51.3398
20
-161.039
11
51.2446
21
-161.134
0
LINE
8
BLACK
6
CONTINUOUS
10
51.2446
20
-161.134
11
51.0541
21
-161.23
0
LINE
8
BLACK
6
CONTINUOUS
10
51.0541
20
-161.23
11
50.6732
21
-161.23
0
LINE
8
BLACK
6
CONTINUOUS
10
50.6732
20
-161.23
11
50.4827
21
-161.325
0
LINE
8
BLACK
6
CONTINUOUS
10
50.4827
20
-161.325
11
50.3874
21
-161.42
0
LINE
8
BLACK
6
CONTINUOUS
10
50.3874
20
-161.42
11
50.2922
21
-161.611
0
LINE
8
BLACK
6
CONTINUOUS
10
50.2922
20
-161.611
11
50.2922
21
-161.992
0
LINE
8
BLACK
6
CONTINUOUS
10
50.2922
20
-161.992
11
50.3874
21
-162.182
0
LINE
8
BLACK
6
CONTINUOUS
10
50.3874
20
-162.182
11
50.4827
21
-162.277
0
LINE
8
BLACK
6
CONTINUOUS
10
50.4827
20
-162.277
11
50.6732
21
-162.373
0
LINE
8
BLACK
6
CONTINUOUS
10
50.6732
20
-162.373
11
51.0541
21
-162.373
0
LINE
8
BLACK
6
CONTINUOUS
10
51.0541
20
-162.373
11
51.2446
21
-162.277
0
LINE
8
BLACK
6
CONTINUOUS
10
51.2446
20
-162.277
11
51.3398
21
-162.182
0
LINE
8
BLACK
6
CONTINUOUS
10
51.3398
20
-162.182
11
51.4351
21
-161.992
0
LINE
8
BLACK
6
CONTINUOUS
10
51.4351
20
-161.992
11
51.4351
21
-161.611
0
LINE
8
BLACK
6
CONTINUOUS
10
51.4351
20
-161.611
11
51.3398
21
-161.42
0
LINE
8
BLACK
6
CONTINUOUS
10
51.3398
20
-161.42
11
51.2446
21
-161.325
0
LINE
8
BLACK
6
CONTINUOUS
10
51.2446
20
-161.325
11
51.0541
21
-161.23
0
LINE
8
BLACK
6
CONTINUOUS
10
52.197
20
-160.373
11
52.197
21
-160.754
0
LINE
8
BLACK
6
CONTINUOUS
10
52.9589
20
-160.373
11
52.9589
21
-160.754
0
LINE
8
BLACK
6
CONTINUOUS
10
55.9113
20
-163.134
11
55.816
21
-163.039
0
LINE
8
BLACK
6
CONTINUOUS
10
55.816
20
-163.039
11
55.6255
21
-162.754
0
LINE
8
BLACK
6
CONTINUOUS
10
55.6255
20
-162.754
11
55.5303
21
-162.563
0
LINE
8
BLACK
6
CONTINUOUS
10
55.5303
20
-162.563
11
55.4351
21
-162.277
0
LINE
8
BLACK
6
CONTINUOUS
10
55.4351
20
-162.277
11
55.3398
21
-161.801
0
LINE
8
BLACK
6
CONTINUOUS
10
55.3398
20
-161.801
11
55.3398
21
-161.42
0
LINE
8
BLACK
6
CONTINUOUS
10
55.3398
20
-161.42
11
55.4351
21
-160.944
0
LINE
8
BLACK
6
CONTINUOUS
10
55.4351
20
-160.944
11
55.5303
21
-160.658
0
LINE
8
BLACK
6
CONTINUOUS
10
55.5303
20
-160.658
11
55.6255
21
-160.468
0
LINE
8
BLACK
6
CONTINUOUS
10
55.6255
20
-160.468
11
55.816
21
-160.182
0
LINE
8
BLACK
6
CONTINUOUS
10
55.816
20
-160.182
11
55.9113
21
-160.087
0
LINE
8
BLACK
6
CONTINUOUS
10
57.7208
20
-162.373
11
56.5779
21
-162.373
0
LINE
8
BLACK
6
CONTINUOUS
10
57.1494
20
-162.373
11
57.1494
21
-160.373
0
LINE
8
BLACK
6
CONTINUOUS
10
57.1494
20
-160.373
11
56.9589
21
-160.658
0
LINE
8
BLACK
6
CONTINUOUS
10
56.9589
20
-160.658
11
56.7684
21
-160.849
0
LINE
8
BLACK
6
CONTINUOUS
10
56.7684
20
-160.849
11
56.5779
21
-160.944
0
LINE
8
BLACK
6
CONTINUOUS
10
59.4351
20
-160.373
11
59.0541
21
-160.373
0
LINE
8
BLACK
6
CONTINUOUS
10
59.0541
20
-160.373
11
58.8636
21
-160.468
0
LINE
8
BLACK
6
CONTINUOUS
10
58.8636
20
-160.468
11
58.7684
21
-160.563
0
LINE
8
BLACK
6
CONTINUOUS
10
58.7684
20
-160.563
11
58.5779
21
-160.849
0
LINE
8
BLACK
6
CONTINUOUS
10
58.5779
20
-160.849
11
58.4827
21
-161.23
0
LINE
8
BLACK
6
CONTINUOUS
10
58.4827
20
-161.23
11
58.4827
21
-161.992
0
LINE
8
BLACK
6
CONTINUOUS
10
58.4827
20
-161.992
11
58.5779
21
-162.182
0
LINE
8
BLACK
6
CONTINUOUS
10
58.5779
20
-162.182
11
58.6732
21
-162.277
0
LINE
8
BLACK
6
CONTINUOUS
10
58.6732
20
-162.277
11
58.8636
21
-162.373
0
LINE
8
BLACK
6
CONTINUOUS
10
58.8636
20
-162.373
11
59.2446
21
-162.373
0
LINE
8
BLACK
6
CONTINUOUS
10
59.2446
20
-162.373
11
59.4351
21
-162.277
0
LINE
8
BLACK
6
CONTINUOUS
10
59.4351
20
-162.277
11
59.5303
21
-162.182
0
LINE
8
BLACK
6
CONTINUOUS
10
59.5303
20
-162.182
11
59.6255
21
-161.992
0
LINE
8
BLACK
6
CONTINUOUS
10
59.6255
20
-161.992
11
59.6255
21
-161.515
0
LINE
8
BLACK
6
CONTINUOUS
10
59.6255
20
-161.515
11
59.5303
21
-161.325
0
LINE
8
BLACK
6
CONTINUOUS
10
59.5303
20
-161.325
11
59.4351
21
-161.23
0
LINE
8
BLACK
6
CONTINUOUS
10
59.4351
20
-161.23
11
59.2446
21
-161.134
0
LINE
8
BLACK
6
CONTINUOUS
10
59.2446
20
-161.134
11
58.8636
21
-161.134
0
LINE
8
BLACK
6
CONTINUOUS
10
58.8636
20
-161.134
11
58.6732
21
-161.23
0
LINE
8
BLACK
6
CONTINUOUS
10
58.6732
20
-161.23
11
58.5779
21
-161.325
0
LINE
8
BLACK
6
CONTINUOUS
10
58.5779
20
-161.325
11
58.4827
21
-161.515
0
LINE
8
BLACK
6
CONTINUOUS
10
60.5779
20
-162.373
11
60.9589
21
-162.373
0
LINE
8
BLACK
6
CONTINUOUS
10
60.9589
20
-162.373
11
61.1494
21
-162.277
0
LINE
8
BLACK
6
CONTINUOUS
10
61.1494
20
-162.277
11
61.2446
21
-162.182
0
LINE
8
BLACK
6
CONTINUOUS
10
61.2446
20
-162.182
11
61.4351
21
-161.896
0
LINE
8
BLACK
6
CONTINUOUS
10
61.4351
20
-161.896
11
61.5303
21
-161.515
0
LINE
8
BLACK
6
CONTINUOUS
10
61.5303
20
-161.515
11
61.5303
21
-160.754
0
LINE
8
BLACK
6
CONTINUOUS
10
61.5303
20
-160.754
11
61.4351
21
-160.563
0
LINE
8
BLACK
6
CONTINUOUS
10
61.4351
20
-160.563
11
61.3398
21
-160.468
0
LINE
8
BLACK
6
CONTINUOUS
10
61.3398
20
-160.468
11
61.1494
21
-160.373
0
LINE
8
BLACK
6
CONTINUOUS
10
61.1494
20
-160.373
11
60.7684
21
-160.373
0
LINE
8
BLACK
6
CONTINUOUS
10
60.7684
20
-160.373
11
60.5779
21
-160.468
0
LINE
8
BLACK
6
CONTINUOUS
10
60.5779
20
-160.468
11
60.4827
21
-160.563
0
LINE
8
BLACK
6
CONTINUOUS
10
60.4827
20
-160.563
11
60.3874
21
-160.754
0
LINE
8
BLACK
6
CONTINUOUS
10
60.3874
20
-160.754
11
60.3874
21
-161.23
0
LINE
8
BLACK
6
CONTINUOUS
10
60.3874
20
-161.23
11
60.4827
21
-161.42
0
LINE
8
BLACK
6
CONTINUOUS
10
60.4827
20
-161.42
11
60.5779
21
-161.515
0
LINE
8
BLACK
6
CONTINUOUS
10
60.5779
20
-161.515
11
60.7684
21
-161.611
0
LINE
8
BLACK
6
CONTINUOUS
10
60.7684
20
-161.611
11
61.1494
21
-161.611
0
LINE
8
BLACK
6
CONTINUOUS
10
61.1494
20
-161.611
11
61.3398
21
-161.515
0
LINE
8
BLACK
6
CONTINUOUS
10
61.3398
20
-161.515
11
61.4351
21
-161.42
0
LINE
8
BLACK
6
CONTINUOUS
10
61.4351
20
-161.42
11
61.5303
21
-161.23
0
LINE
8
BLACK
6
CONTINUOUS
10
63.9113
20
-162.373
11
63.9113
21
-160.373
0
LINE
8
BLACK
6
CONTINUOUS
10
64.7684
20
-162.373
11
64.7684
21
-161.325
0
LINE
8
BLACK
6
CONTINUOUS
10
64.7684
20
-161.325
11
64.6732
21
-161.134
0
LINE
8
BLACK
6
CONTINUOUS
10
64.6732
20
-161.134
11
64.4827
21
-161.039
0
LINE
8
BLACK
6
CONTINUOUS
10
64.4827
20
-161.039
11
64.197
21
-161.039
0
LINE
8
BLACK
6
CONTINUOUS
10
64.197
20
-161.039
11
64.0065
21
-161.134
0
LINE
8
BLACK
6
CONTINUOUS
10
64.0065
20
-161.134
11
63.9113
21
-161.23
0
LINE
8
BLACK
6
CONTINUOUS
10
66.0065
20
-162.373
11
65.816
21
-162.277
0
LINE
8
BLACK
6
CONTINUOUS
10
65.816
20
-162.277
11
65.7208
21
-162.182
0
LINE
8
BLACK
6
CONTINUOUS
10
65.7208
20
-162.182
11
65.6255
21
-161.992
0
LINE
8
BLACK
6
CONTINUOUS
10
65.6255
20
-161.992
11
65.6255
21
-161.42
0
LINE
8
BLACK
6
CONTINUOUS
10
65.6255
20
-161.42
11
65.7208
21
-161.23
0
LINE
8
BLACK
6
CONTINUOUS
10
65.7208
20
-161.23
11
65.816
21
-161.134
0
LINE
8
BLACK
6
CONTINUOUS
10
65.816
20
-161.134
11
66.0065
21
-161.039
0
LINE
8
BLACK
6
CONTINUOUS
10
66.0065
20
-161.039
11
66.2922
21
-161.039
0
LINE
8
BLACK
6
CONTINUOUS
10
66.2922
20
-161.039
11
66.4827
21
-161.134
0
LINE
8
BLACK
6
CONTINUOUS
10
66.4827
20
-161.134
11
66.5779
21
-161.23
0
LINE
8
BLACK
6
CONTINUOUS
10
66.5779
20
-161.23
11
66.6732
21
-161.42
0
LINE
8
BLACK
6
CONTINUOUS
10
66.6732
20
-161.42
11
66.6732
21
-161.992
0
LINE
8
BLACK
6
CONTINUOUS
10
66.6732
20
-161.992
11
66.5779
21
-162.182
0
LINE
8
BLACK
6
CONTINUOUS
10
66.5779
20
-162.182
11
66.4827
21
-162.277
0
LINE
8
BLACK
6
CONTINUOUS
10
66.4827
20
-162.277
11
66.2922
21
-162.373
0
LINE
8
BLACK
6
CONTINUOUS
10
66.2922
20
-162.373
11
66.0065
21
-162.373
0
LINE
8
BLACK
6
CONTINUOUS
10
67.816
20
-162.373
11
67.6255
21
-162.277
0
LINE
8
BLACK
6
CONTINUOUS
10
67.6255
20
-162.277
11
67.5303
21
-162.087
0
LINE
8
BLACK
6
CONTINUOUS
10
67.5303
20
-162.087
11
67.5303
21
-160.373
0
LINE
8
BLACK
6
CONTINUOUS
10
69.3398
20
-162.277
11
69.1494
21
-162.373
0
LINE
8
BLACK
6
CONTINUOUS
10
69.1494
20
-162.373
11
68.7684
21
-162.373
0
LINE
8
BLACK
6
CONTINUOUS
10
68.7684
20
-162.373
11
68.5779
21
-162.277
0
LINE
8
BLACK
6
CONTINUOUS
10
68.5779
20
-162.277
11
68.4827
21
-162.087
0
LINE
8
BLACK
6
CONTINUOUS
10
68.4827
20
-162.087
11
68.4827
21
-161.325
0
LINE
8
BLACK
6
CONTINUOUS
10
68.4827
20
-161.325
11
68.5779
21
-161.134
0
LINE
8
BLACK
6
CONTINUOUS
10
68.5779
20
-161.134
11
68.7684
21
-161.039
0
LINE
8
BLACK
6
CONTINUOUS
10
68.7684
20
-161.039
11
69.1494
21
-161.039
0
LINE
8
BLACK
6
CONTINUOUS
10
69.1494
20
-161.039
11
69.3398
21
-161.134
0
LINE
8
BLACK
6
CONTINUOUS
10
69.3398
20
-161.134
11
69.4351
21
-161.325
0
LINE
8
BLACK
6
CONTINUOUS
10
69.4351
20
-161.325
11
69.4351
21
-161.515
0
LINE
8
BLACK
6
CONTINUOUS
10
69.4351
20
-161.515
11
68.4827
21
-161.706
0
LINE
8
BLACK
6
CONTINUOUS
10
70.197
20
-162.277
11
70.3874
21
-162.373
0
LINE
8
BLACK
6
CONTINUOUS
10
70.3874
20
-162.373
11
70.7684
21
-162.373
0
LINE
8
BLACK
6
CONTINUOUS
10
70.7684
20
-162.373
11
70.9589
21
-162.277
0
LINE
8
BLACK
6
CONTINUOUS
10
70.9589
20
-162.277
11
71.0541
21
-162.087
0
LINE
8
BLACK
6
CONTINUOUS
10
71.0541
20
-162.087
11
71.0541
21
-161.992
0
LINE
8
BLACK
6
CONTINUOUS
10
71.0541
20
-161.992
11
70.9589
21
-161.801
0
LINE
8
BLACK
6
CONTINUOUS
10
70.9589
20
-161.801
11
70.7684
21
-161.706
0
LINE
8
BLACK
6
CONTINUOUS
10
70.7684
20
-161.706
11
70.4827
21
-161.706
0
LINE
8
BLACK
6
CONTINUOUS
10
70.4827
20
-161.706
11
70.2922
21
-161.611
0
LINE
8
BLACK
6
CONTINUOUS
10
70.2922
20
-161.611
11
70.197
21
-161.42
0
LINE
8
BLACK
6
CONTINUOUS
10
70.197
20
-161.42
11
70.197
21
-161.325
0
LINE
8
BLACK
6
CONTINUOUS
10
70.197
20
-161.325
11
70.2922
21
-161.134
0
LINE
8
BLACK
6
CONTINUOUS
10
70.2922
20
-161.134
11
70.4827
21
-161.039
0
LINE
8
BLACK
6
CONTINUOUS
10
70.4827
20
-161.039
11
70.7684
21
-161.039
0
LINE
8
BLACK
6
CONTINUOUS
10
70.7684
20
-161.039
11
70.9589
21
-161.134
0
LINE
8
BLACK
6
CONTINUOUS
10
71.7208
20
-163.134
11
71.816
21
-163.039
0
LINE
8
BLACK
6
CONTINUOUS
10
71.816
20
-163.039
11
72.0065
21
-162.754
0
LINE
8
BLACK
6
CONTINUOUS
10
72.0065
20
-162.754
11
72.1017
21
-162.563
0
LINE
8
BLACK
6
CONTINUOUS
10
72.1017
20
-162.563
11
72.197
21
-162.277
0
LINE
8
BLACK
6
CONTINUOUS
10
72.197
20
-162.277
11
72.2922
21
-161.801
0
LINE
8
BLACK
6
CONTINUOUS
10
72.2922
20
-161.801
11
72.2922
21
-161.42
0
LINE
8
BLACK
6
CONTINUOUS
10
72.2922
20
-161.42
11
72.197
21
-160.944
0
LINE
8
BLACK
6
CONTINUOUS
10
72.197
20
-160.944
11
72.1017
21
-160.658
0
LINE
8
BLACK
6
CONTINUOUS
10
72.1017
20
-160.658
11
72.0065
21
-160.468
0
LINE
8
BLACK
6
CONTINUOUS
10
72.0065
20
-160.468
11
71.816
21
-160.182
0
LINE
8
BLACK
6
CONTINUOUS
10
71.816
20
-160.182
11
71.7208
21
-160.087
0
CIRCLE
8
BLACK
10
19.6922
20
-164.108
40
0.5
0
LINE
8
BLACK
6
CONTINUOUS
10
23.816
20
-165.013
11
22.6732
21
-165.013
0
LINE
8
BLACK
6
CONTINUOUS
10
23.2446
20
-165.013
11
23.2446
21
-163.013
0
LINE
8
BLACK
6
CONTINUOUS
10
23.2446
20
-163.013
11
23.0541
21
-163.298
0
LINE
8
BLACK
6
CONTINUOUS
10
23.0541
20
-163.298
11
22.8636
21
-163.489
0
LINE
8
BLACK
6
CONTINUOUS
10
22.8636
20
-163.489
11
22.6732
21
-163.584
0
LINE
8
BLACK
6
CONTINUOUS
10
24.6732
20
-164.822
11
24.7684
21
-164.917
0
LINE
8
BLACK
6
CONTINUOUS
10
24.7684
20
-164.917
11
24.6732
21
-165.013
0
LINE
8
BLACK
6
CONTINUOUS
10
24.6732
20
-165.013
11
24.5779
21
-164.917
0
LINE
8
BLACK
6
CONTINUOUS
10
24.5779
20
-164.917
11
24.6732
21
-164.822
0
LINE
8
BLACK
6
CONTINUOUS
10
24.6732
20
-164.822
11
24.6732
21
-165.013
0
LINE
8
BLACK
6
CONTINUOUS
10
26.0065
20
-163.013
11
26.197
21
-163.013
0
LINE
8
BLACK
6
CONTINUOUS
10
26.197
20
-163.013
11
26.3874
21
-163.108
0
LINE
8
BLACK
6
CONTINUOUS
10
26.3874
20
-163.108
11
26.4827
21
-163.203
0
LINE
8
BLACK
6
CONTINUOUS
10
26.4827
20
-163.203
11
26.5779
21
-163.394
0
LINE
8
BLACK
6
CONTINUOUS
10
26.5779
20
-163.394
11
26.6732
21
-163.774
0
LINE
8
BLACK
6
CONTINUOUS
10
26.6732
20
-163.774
11
26.6732
21
-164.251
0
LINE
8
BLACK
6
CONTINUOUS
10
26.6732
20
-164.251
11
26.5779
21
-164.632
0
LINE
8
BLACK
6
CONTINUOUS
10
26.5779
20
-164.632
11
26.4827
21
-164.822
0
LINE
8
BLACK
6
CONTINUOUS
10
26.4827
20
-164.822
11
26.3874
21
-164.917
0
LINE
8
BLACK
6
CONTINUOUS
10
26.3874
20
-164.917
11
26.197
21
-165.013
0
LINE
8
BLACK
6
CONTINUOUS
10
26.197
20
-165.013
11
26.0065
21
-165.013
0
LINE
8
BLACK
6
CONTINUOUS
10
26.0065
20
-165.013
11
25.816
21
-164.917
0
LINE
8
BLACK
6
CONTINUOUS
10
25.816
20
-164.917
11
25.7208
21
-164.822
0
LINE
8
BLACK
6
CONTINUOUS
10
25.7208
20
-164.822
11
25.6255
21
-164.632
0
LINE
8
BLACK
6
CONTINUOUS
10
25.6255
20
-164.632
11
25.5303
21
-164.251
0
LINE
8
BLACK
6
CONTINUOUS
10
25.5303
20
-164.251
11
25.5303
21
-163.774
0
LINE
8
BLACK
6
CONTINUOUS
10
25.5303
20
-163.774
11
25.6255
21
-163.394
0
LINE
8
BLACK
6
CONTINUOUS
10
25.6255
20
-163.394
11
25.7208
21
-163.203
0
LINE
8
BLACK
6
CONTINUOUS
10
25.7208
20
-163.203
11
25.816
21
-163.108
0
LINE
8
BLACK
6
CONTINUOUS
10
25.816
20
-163.108
11
26.0065
21
-163.013
0
LINE
8
BLACK
6
CONTINUOUS
10
27.9113
20
-163.013
11
28.1017
21
-163.013
0
LINE
8
BLACK
6
CONTINUOUS
10
28.1017
20
-163.013
11
28.2922
21
-163.108
0
LINE
8
BLACK
6
CONTINUOUS
10
28.2922
20
-163.108
11
28.3874
21
-163.203
0
LINE
8
BLACK
6
CONTINUOUS
10
28.3874
20
-163.203
11
28.4827
21
-163.394
0
LINE
8
BLACK
6
CONTINUOUS
10
28.4827
20
-163.394
11
28.5779
21
-163.774
0
LINE
8
BLACK
6
CONTINUOUS
10
28.5779
20
-163.774
11
28.5779
21
-164.251
0
LINE
8
BLACK
6
CONTINUOUS
10
28.5779
20
-164.251
11
28.4827
21
-164.632
0
LINE
8
BLACK
6
CONTINUOUS
10
28.4827
20
-164.632
11
28.3874
21
-164.822
0
LINE
8
BLACK
6
CONTINUOUS
10
28.3874
20
-164.822
11
28.2922
21
-164.917
0
LINE
8
BLACK
6
CONTINUOUS
10
28.2922
20
-164.917
11
28.1017
21
-165.013
0
LINE
8
BLACK
6
CONTINUOUS
10
28.1017
20
-165.013
11
27.9113
21
-165.013
0
LINE
8
BLACK
6
CONTINUOUS
10
27.9113
20
-165.013
11
27.7208
21
-164.917
0
LINE
8
BLACK
6
CONTINUOUS
10
27.7208
20
-164.917
11
27.6255
21
-164.822
0
LINE
8
BLACK
6
CONTINUOUS
10
27.6255
20
-164.822
11
27.5303
21
-164.632
0
LINE
8
BLACK
6
CONTINUOUS
10
27.5303
20
-164.632
11
27.4351
21
-164.251
0
LINE
8
BLACK
6
CONTINUOUS
10
27.4351
20
-164.251
11
27.4351
21
-163.774
0
LINE
8
BLACK
6
CONTINUOUS
10
27.4351
20
-163.774
11
27.5303
21
-163.394
0
LINE
8
BLACK
6
CONTINUOUS
10
27.5303
20
-163.394
11
27.6255
21
-163.203
0
LINE
8
BLACK
6
CONTINUOUS
10
27.6255
20
-163.203
11
27.7208
21
-163.108
0
LINE
8
BLACK
6
CONTINUOUS
10
27.7208
20
-163.108
11
27.9113
21
-163.013
0
LINE
8
BLACK
6
CONTINUOUS
10
29.816
20
-163.013
11
30.0065
21
-163.013
0
LINE
8
BLACK
6
CONTINUOUS
10
30.0065
20
-163.013
11
30.197
21
-163.108
0
LINE
8
BLACK
6
CONTINUOUS
10
30.197
20
-163.108
11
30.2922
21
-163.203
0
LINE
8
BLACK
6
CONTINUOUS
10
30.2922
20
-163.203
11
30.3874
21
-163.394
0
LINE
8
BLACK
6
CONTINUOUS
10
30.3874
20
-163.394
11
30.4827
21
-163.774
0
LINE
8
BLACK
6
CONTINUOUS
10
30.4827
20
-163.774
11
30.4827
21
-164.251
0
LINE
8
BLACK
6
CONTINUOUS
10
30.4827
20
-164.251
11
30.3874
21
-164.632
0
LINE
8
BLACK
6
CONTINUOUS
10
30.3874
20
-164.632
11
30.2922
21
-164.822
0
LINE
8
BLACK
6
CONTINUOUS
10
30.2922
20
-164.822
11
30.197
21
-164.917
0
LINE
8
BLACK
6
CONTINUOUS
10
30.197
20
-164.917
11
30.0065
21
-165.013
0
LINE
8
BLACK
6
CONTINUOUS
10
30.0065
20
-165.013
11
29.816
21
-165.013
0
LINE
8
BLACK
6
CONTINUOUS
10
29.816
20
-165.013
11
29.6255
21
-164.917
0
LINE
8
BLACK
6
CONTINUOUS
10
29.6255
20
-164.917
11
29.5303
21
-164.822
0
LINE
8
BLACK
6
CONTINUOUS
10
29.5303
20
-164.822
11
29.4351
21
-164.632
0
LINE
8
BLACK
6
CONTINUOUS
10
29.4351
20
-164.632
11
29.3398
21
-164.251
0
LINE
8
BLACK
6
CONTINUOUS
10
29.3398
20
-164.251
11
29.3398
21
-163.774
0
LINE
8
BLACK
6
CONTINUOUS
10
29.3398
20
-163.774
11
29.4351
21
-163.394
0
LINE
8
BLACK
6
CONTINUOUS
10
29.4351
20
-163.394
11
29.5303
21
-163.203
0
LINE
8
BLACK
6
CONTINUOUS
10
29.5303
20
-163.203
11
29.6255
21
-163.108
0
LINE
8
BLACK
6
CONTINUOUS
10
29.6255
20
-163.108
11
29.816
21
-163.013
0
LINE
8
BLACK
6
CONTINUOUS
10
31.3398
20
-165.013
11
31.3398
21
-163.679
0
LINE
8
BLACK
6
CONTINUOUS
10
31.3398
20
-163.87
11
31.4351
21
-163.774
0
LINE
8
BLACK
6
CONTINUOUS
10
31.4351
20
-163.774
11
31.6255
21
-163.679
0
LINE
8
BLACK
6
CONTINUOUS
10
31.6255
20
-163.679
11
31.9113
21
-163.679
0
LINE
8
BLACK
6
CONTINUOUS
10
31.9113
20
-163.679
11
32.1017
21
-163.774
0
LINE
8
BLACK
6
CONTINUOUS
10
32.1017
20
-163.774
11
32.197
21
-163.965
0
LINE
8
BLACK
6
CONTINUOUS
10
32.197
20
-163.965
11
32.197
21
-165.013
0
LINE
8
BLACK
6
CONTINUOUS
10
32.197
20
-163.965
11
32.2922
21
-163.774
0
LINE
8
BLACK
6
CONTINUOUS
10
32.2922
20
-163.774
11
32.4827
21
-163.679
0
LINE
8
BLACK
6
CONTINUOUS
10
32.4827
20
-163.679
11
32.7684
21
-163.679
0
LINE
8
BLACK
6
CONTINUOUS
10
32.7684
20
-163.679
11
32.9589
21
-163.774
0
LINE
8
BLACK
6
CONTINUOUS
10
32.9589
20
-163.774
11
33.0541
21
-163.965
0
LINE
8
BLACK
6
CONTINUOUS
10
33.0541
20
-163.965
11
33.0541
21
-165.013
0
LINE
8
BLACK
6
CONTINUOUS
10
34.0065
20
-165.013
11
34.0065
21
-163.679
0
LINE
8
BLACK
6
CONTINUOUS
10
34.0065
20
-163.87
11
34.1017
21
-163.774
0
LINE
8
BLACK
6
CONTINUOUS
10
34.1017
20
-163.774
11
34.2922
21
-163.679
0
LINE
8
BLACK
6
CONTINUOUS
10
34.2922
20
-163.679
11
34.5779
21
-163.679
0
LINE
8
BLACK
6
CONTINUOUS
10
34.5779
20
-163.679
11
34.7684
21
-163.774
0
LINE
8
BLACK
6
CONTINUOUS
10
34.7684
20
-163.774
11
34.8636
21
-163.965
0
LINE
8
BLACK
6
CONTINUOUS
10
34.8636
20
-163.965
11
34.8636
21
-165.013
0
LINE
8
BLACK
6
CONTINUOUS
10
34.8636
20
-163.965
11
34.9589
21
-163.774
0
LINE
8
BLACK
6
CONTINUOUS
10
34.9589
20
-163.774
11
35.1494
21
-163.679
0
LINE
8
BLACK
6
CONTINUOUS
10
35.1494
20
-163.679
11
35.4351
21
-163.679
0
LINE
8
BLACK
6
CONTINUOUS
10
35.4351
20
-163.679
11
35.6255
21
-163.774
0
LINE
8
BLACK
6
CONTINUOUS
10
35.6255
20
-163.774
11
35.7208
21
-163.965
0
LINE
8
BLACK
6
CONTINUOUS
10
35.7208
20
-163.965
11
35.7208
21
-165.013
0
LINE
8
BLACK
6
CONTINUOUS
10
39.6255
20
-162.917
11
37.9113
21
-165.489
0
LINE
8
BLACK
6
CONTINUOUS
10
42.197
20
-163.013
11
42.3874
21
-163.013
0
LINE
8
BLACK
6
CONTINUOUS
10
42.3874
20
-163.013
11
42.5779
21
-163.108
0
LINE
8
BLACK
6
CONTINUOUS
10
42.5779
20
-163.108
11
42.6732
21
-163.203
0
LINE
8
BLACK
6
CONTINUOUS
10
42.6732
20
-163.203
11
42.7684
21
-163.394
0
LINE
8
BLACK
6
CONTINUOUS
10
42.7684
20
-163.394
11
42.8636
21
-163.774
0
LINE
8
BLACK
6
CONTINUOUS
10
42.8636
20
-163.774
11
42.8636
21
-164.251
0
LINE
8
BLACK
6
CONTINUOUS
10
42.8636
20
-164.251
11
42.7684
21
-164.632
0
LINE
8
BLACK
6
CONTINUOUS
10
42.7684
20
-164.632
11
42.6732
21
-164.822
0
LINE
8
BLACK
6
CONTINUOUS
10
42.6732
20
-164.822
11
42.5779
21
-164.917
0
LINE
8
BLACK
6
CONTINUOUS
10
42.5779
20
-164.917
11
42.3874
21
-165.013
0
LINE
8
BLACK
6
CONTINUOUS
10
42.3874
20
-165.013
11
42.197
21
-165.013
0
LINE
8
BLACK
6
CONTINUOUS
10
42.197
20
-165.013
11
42.0065
21
-164.917
0
LINE
8
BLACK
6
CONTINUOUS
10
42.0065
20
-164.917
11
41.9113
21
-164.822
0
LINE
8
BLACK
6
CONTINUOUS
10
41.9113
20
-164.822
11
41.816
21
-164.632
0
LINE
8
BLACK
6
CONTINUOUS
10
41.816
20
-164.632
11
41.7208
21
-164.251
0
LINE
8
BLACK
6
CONTINUOUS
10
41.7208
20
-164.251
11
41.7208
21
-163.774
0
LINE
8
BLACK
6
CONTINUOUS
10
41.7208
20
-163.774
11
41.816
21
-163.394
0
LINE
8
BLACK
6
CONTINUOUS
10
41.816
20
-163.394
11
41.9113
21
-163.203
0
LINE
8
BLACK
6
CONTINUOUS
10
41.9113
20
-163.203
11
42.0065
21
-163.108
0
LINE
8
BLACK
6
CONTINUOUS
10
42.0065
20
-163.108
11
42.197
21
-163.013
0
LINE
8
BLACK
6
CONTINUOUS
10
43.7208
20
-164.822
11
43.816
21
-164.917
0
LINE
8
BLACK
6
CONTINUOUS
10
43.816
20
-164.917
11
43.7208
21
-165.013
0
LINE
8
BLACK
6
CONTINUOUS
10
43.7208
20
-165.013
11
43.6255
21
-164.917
0
LINE
8
BLACK
6
CONTINUOUS
10
43.6255
20
-164.917
11
43.7208
21
-164.822
0
LINE
8
BLACK
6
CONTINUOUS
10
43.7208
20
-164.822
11
43.7208
21
-165.013
0
LINE
8
BLACK
6
CONTINUOUS
10
45.0541
20
-163.013
11
45.2446
21
-163.013
0
LINE
8
BLACK
6
CONTINUOUS
10
45.2446
20
-163.013
11
45.4351
21
-163.108
0
LINE
8
BLACK
6
CONTINUOUS
10
45.4351
20
-163.108
11
45.5303
21
-163.203
0
LINE
8
BLACK
6
CONTINUOUS
10
45.5303
20
-163.203
11
45.6255
21
-163.394
0
LINE
8
BLACK
6
CONTINUOUS
10
45.6255
20
-163.394
11
45.7208
21
-163.774
0
LINE
8
BLACK
6
CONTINUOUS
10
45.7208
20
-163.774
11
45.7208
21
-164.251
0
LINE
8
BLACK
6
CONTINUOUS
10
45.7208
20
-164.251
11
45.6255
21
-164.632
0
LINE
8
BLACK
6
CONTINUOUS
10
45.6255
20
-164.632
11
45.5303
21
-164.822
0
LINE
8
BLACK
6
CONTINUOUS
10
45.5303
20
-164.822
11
45.4351
21
-164.917
0
LINE
8
BLACK
6
CONTINUOUS
10
45.4351
20
-164.917
11
45.2446
21
-165.013
0
LINE
8
BLACK
6
CONTINUOUS
10
45.2446
20
-165.013
11
45.0541
21
-165.013
0
LINE
8
BLACK
6
CONTINUOUS
10
45.0541
20
-165.013
11
44.8636
21
-164.917
0
LINE
8
BLACK
6
CONTINUOUS
10
44.8636
20
-164.917
11
44.7684
21
-164.822
0
LINE
8
BLACK
6
CONTINUOUS
10
44.7684
20
-164.822
11
44.6732
21
-164.632
0
LINE
8
BLACK
6
CONTINUOUS
10
44.6732
20
-164.632
11
44.5779
21
-164.251
0
LINE
8
BLACK
6
CONTINUOUS
10
44.5779
20
-164.251
11
44.5779
21
-163.774
0
LINE
8
BLACK
6
CONTINUOUS
10
44.5779
20
-163.774
11
44.6732
21
-163.394
0
LINE
8
BLACK
6
CONTINUOUS
10
44.6732
20
-163.394
11
44.7684
21
-163.203
0
LINE
8
BLACK
6
CONTINUOUS
10
44.7684
20
-163.203
11
44.8636
21
-163.108
0
LINE
8
BLACK
6
CONTINUOUS
10
44.8636
20
-163.108
11
45.0541
21
-163.013
0
LINE
8
BLACK
6
CONTINUOUS
10
46.3874
20
-163.013
11
47.6255
21
-163.013
0
LINE
8
BLACK
6
CONTINUOUS
10
47.6255
20
-163.013
11
46.9589
21
-163.774
0
LINE
8
BLACK
6
CONTINUOUS
10
46.9589
20
-163.774
11
47.2446
21
-163.774
0
LINE
8
BLACK
6
CONTINUOUS
10
47.2446
20
-163.774
11
47.4351
21
-163.87
0
LINE
8
BLACK
6
CONTINUOUS
10
47.4351
20
-163.87
11
47.5303
21
-163.965
0
LINE
8
BLACK
6
CONTINUOUS
10
47.5303
20
-163.965
11
47.6255
21
-164.155
0
LINE
8
BLACK
6
CONTINUOUS
10
47.6255
20
-164.155
11
47.6255
21
-164.632
0
LINE
8
BLACK
6
CONTINUOUS
10
47.6255
20
-164.632
11
47.5303
21
-164.822
0
LINE
8
BLACK
6
CONTINUOUS
10
47.5303
20
-164.822
11
47.4351
21
-164.917
0
LINE
8
BLACK
6
CONTINUOUS
10
47.4351
20
-164.917
11
47.2446
21
-165.013
0
LINE
8
BLACK
6
CONTINUOUS
10
47.2446
20
-165.013
11
46.6732
21
-165.013
0
LINE
8
BLACK
6
CONTINUOUS
10
46.6732
20
-165.013
11
46.4827
21
-164.917
0
LINE
8
BLACK
6
CONTINUOUS
10
46.4827
20
-164.917
11
46.3874
21
-164.822
0
LINE
8
BLACK
6
CONTINUOUS
10
48.5779
20
-165.013
11
48.9589
21
-165.013
0
LINE
8
BLACK
6
CONTINUOUS
10
48.9589
20
-165.013
11
49.1494
21
-164.917
0
LINE
8
BLACK
6
CONTINUOUS
10
49.1494
20
-164.917
11
49.2446
21
-164.822
0
LINE
8
BLACK
6
CONTINUOUS
10
49.2446
20
-164.822
11
49.4351
21
-164.536
0
LINE
8
BLACK
6
CONTINUOUS
10
49.4351
20
-164.536
11
49.5303
21
-164.155
0
LINE
8
BLACK
6
CONTINUOUS
10
49.5303
20
-164.155
11
49.5303
21
-163.394
0
LINE
8
BLACK
6
CONTINUOUS
10
49.5303
20
-163.394
11
49.4351
21
-163.203
0
LINE
8
BLACK
6
CONTINUOUS
10
49.4351
20
-163.203
11
49.3398
21
-163.108
0
LINE
8
BLACK
6
CONTINUOUS
10
49.3398
20
-163.108
11
49.1494
21
-163.013
0
LINE
8
BLACK
6
CONTINUOUS
10
49.1494
20
-163.013
11
48.7684
21
-163.013
0
LINE
8
BLACK
6
CONTINUOUS
10
48.7684
20
-163.013
11
48.5779
21
-163.108
0
LINE
8
BLACK
6
CONTINUOUS
10
48.5779
20
-163.108
11
48.4827
21
-163.203
0
LINE
8
BLACK
6
CONTINUOUS
10
48.4827
20
-163.203
11
48.3874
21
-163.394
0
LINE
8
BLACK
6
CONTINUOUS
10
48.3874
20
-163.394
11
48.3874
21
-163.87
0
LINE
8
BLACK
6
CONTINUOUS
10
48.3874
20
-163.87
11
48.4827
21
-164.06
0
LINE
8
BLACK
6
CONTINUOUS
10
48.4827
20
-164.06
11
48.5779
21
-164.155
0
LINE
8
BLACK
6
CONTINUOUS
10
48.5779
20
-164.155
11
48.7684
21
-164.251
0
LINE
8
BLACK
6
CONTINUOUS
10
48.7684
20
-164.251
11
49.1494
21
-164.251
0
LINE
8
BLACK
6
CONTINUOUS
10
49.1494
20
-164.251
11
49.3398
21
-164.155
0
LINE
8
BLACK
6
CONTINUOUS
10
49.3398
20
-164.155
11
49.4351
21
-164.06
0
LINE
8
BLACK
6
CONTINUOUS
10
49.4351
20
-164.06
11
49.5303
21
-163.87
0
LINE
8
BLACK
6
CONTINUOUS
10
51.2446
20
-163.679
11
51.2446
21
-165.013
0
LINE
8
BLACK
6
CONTINUOUS
10
50.7684
20
-162.917
11
50.2922
21
-164.346
0
LINE
8
BLACK
6
CONTINUOUS
10
50.2922
20
-164.346
11
51.5303
21
-164.346
0
LINE
8
BLACK
6
CONTINUOUS
10
52.197
20
-163.013
11
52.197
21
-163.394
0
LINE
8
BLACK
6
CONTINUOUS
10
52.9589
20
-163.013
11
52.9589
21
-163.394
0
LINE
8
BLACK
6
CONTINUOUS
10
55.9113
20
-165.774
11
55.816
21
-165.679
0
LINE
8
BLACK
6
CONTINUOUS
10
55.816
20
-165.679
11
55.6255
21
-165.394
0
LINE
8
BLACK
6
CONTINUOUS
10
55.6255
20
-165.394
11
55.5303
21
-165.203
0
LINE
8
BLACK
6
CONTINUOUS
10
55.5303
20
-165.203
11
55.4351
21
-164.917
0
LINE
8
BLACK
6
CONTINUOUS
10
55.4351
20
-164.917
11
55.3398
21
-164.441
0
LINE
8
BLACK
6
CONTINUOUS
10
55.3398
20
-164.441
11
55.3398
21
-164.06
0
LINE
8
BLACK
6
CONTINUOUS
10
55.3398
20
-164.06
11
55.4351
21
-163.584
0
LINE
8
BLACK
6
CONTINUOUS
10
55.4351
20
-163.584
11
55.5303
21
-163.298
0
LINE
8
BLACK
6
CONTINUOUS
10
55.5303
20
-163.298
11
55.6255
21
-163.108
0
LINE
8
BLACK
6
CONTINUOUS
10
55.6255
20
-163.108
11
55.816
21
-162.822
0
LINE
8
BLACK
6
CONTINUOUS
10
55.816
20
-162.822
11
55.9113
21
-162.727
0
LINE
8
BLACK
6
CONTINUOUS
10
57.5303
20
-163.013
11
57.1494
21
-163.013
0
LINE
8
BLACK
6
CONTINUOUS
10
57.1494
20
-163.013
11
56.9589
21
-163.108
0
LINE
8
BLACK
6
CONTINUOUS
10
56.9589
20
-163.108
11
56.8636
21
-163.203
0
LINE
8
BLACK
6
CONTINUOUS
10
56.8636
20
-163.203
11
56.6732
21
-163.489
0
LINE
8
BLACK
6
CONTINUOUS
10
56.6732
20
-163.489
11
56.5779
21
-163.87
0
LINE
8
BLACK
6
CONTINUOUS
10
56.5779
20
-163.87
11
56.5779
21
-164.632
0
LINE
8
BLACK
6
CONTINUOUS
10
56.5779
20
-164.632
11
56.6732
21
-164.822
0
LINE
8
BLACK
6
CONTINUOUS
10
56.6732
20
-164.822
11
56.7684
21
-164.917
0
LINE
8
BLACK
6
CONTINUOUS
10
56.7684
20
-164.917
11
56.9589
21
-165.013
0
LINE
8
BLACK
6
CONTINUOUS
10
56.9589
20
-165.013
11
57.3398
21
-165.013
0
LINE
8
BLACK
6
CONTINUOUS
10
57.3398
20
-165.013
11
57.5303
21
-164.917
0
LINE
8
BLACK
6
CONTINUOUS
10
57.5303
20
-164.917
11
57.6255
21
-164.822
0
LINE
8
BLACK
6
CONTINUOUS
10
57.6255
20
-164.822
11
57.7208
21
-164.632
0
LINE
8
BLACK
6
CONTINUOUS
10
57.7208
20
-164.632
11
57.7208
21
-164.155
0
LINE
8
BLACK
6
CONTINUOUS
10
57.7208
20
-164.155
11
57.6255
21
-163.965
0
LINE
8
BLACK
6
CONTINUOUS
10
57.6255
20
-163.965
11
57.5303
21
-163.87
0
LINE
8
BLACK
6
CONTINUOUS
10
57.5303
20
-163.87
11
57.3398
21
-163.774
0
LINE
8
BLACK
6
CONTINUOUS
10
57.3398
20
-163.774
11
56.9589
21
-163.774
0
LINE
8
BLACK
6
CONTINUOUS
10
56.9589
20
-163.774
11
56.7684
21
-163.87
0
LINE
8
BLACK
6
CONTINUOUS
10
56.7684
20
-163.87
11
56.6732
21
-163.965
0
LINE
8
BLACK
6
CONTINUOUS
10
56.6732
20
-163.965
11
56.5779
21
-164.155
0
LINE
8
BLACK
6
CONTINUOUS
10
59.5303
20
-163.013
11
58.5779
21
-163.013
0
LINE
8
BLACK
6
CONTINUOUS
10
58.5779
20
-163.013
11
58.4827
21
-163.965
0
LINE
8
BLACK
6
CONTINUOUS
10
58.4827
20
-163.965
11
58.5779
21
-163.87
0
LINE
8
BLACK
6
CONTINUOUS
10
58.5779
20
-163.87
11
58.7684
21
-163.774
0
LINE
8
BLACK
6
CONTINUOUS
10
58.7684
20
-163.774
11
59.2446
21
-163.774
0
LINE
8
BLACK
6
CONTINUOUS
10
59.2446
20
-163.774
11
59.4351
21
-163.87
0
LINE
8
BLACK
6
CONTINUOUS
10
59.4351
20
-163.87
11
59.5303
21
-163.965
0
LINE
8
BLACK
6
CONTINUOUS
10
59.5303
20
-163.965
11
59.6255
21
-164.155
0
LINE
8
BLACK
6
CONTINUOUS
10
59.6255
20
-164.155
11
59.6255
21
-164.632
0
LINE
8
BLACK
6
CONTINUOUS
10
59.6255
20
-164.632
11
59.5303
21
-164.822
0
LINE
8
BLACK
6
CONTINUOUS
10
59.5303
20
-164.822
11
59.4351
21
-164.917
0
LINE
8
BLACK
6
CONTINUOUS
10
59.4351
20
-164.917
11
59.2446
21
-165.013
0
LINE
8
BLACK
6
CONTINUOUS
10
59.2446
20
-165.013
11
58.7684
21
-165.013
0
LINE
8
BLACK
6
CONTINUOUS
10
58.7684
20
-165.013
11
58.5779
21
-164.917
0
LINE
8
BLACK
6
CONTINUOUS
10
58.5779
20
-164.917
11
58.4827
21
-164.822
0
LINE
8
BLACK
6
CONTINUOUS
10
62.0065
20
-165.013
11
62.0065
21
-163.013
0
LINE
8
BLACK
6
CONTINUOUS
10
62.8636
20
-165.013
11
62.8636
21
-163.965
0
LINE
8
BLACK
6
CONTINUOUS
10
62.8636
20
-163.965
11
62.7684
21
-163.774
0
LINE
8
BLACK
6
CONTINUOUS
10
62.7684
20
-163.774
11
62.5779
21
-163.679
0
LINE
8
BLACK
6
CONTINUOUS
10
62.5779
20
-163.679
11
62.2922
21
-163.679
0
LINE
8
BLACK
6
CONTINUOUS
10
62.2922
20
-163.679
11
62.1017
21
-163.774
0
LINE
8
BLACK
6
CONTINUOUS
10
62.1017
20
-163.774
11
62.0065
21
-163.87
0
LINE
8
BLACK
6
CONTINUOUS
10
64.1017
20
-165.013
11
63.9113
21
-164.917
0
LINE
8
BLACK
6
CONTINUOUS
10
63.9113
20
-164.917
11
63.816
21
-164.822
0
LINE
8
BLACK
6
CONTINUOUS
10
63.816
20
-164.822
11
63.7208
21
-164.632
0
LINE
8
BLACK
6
CONTINUOUS
10
63.7208
20
-164.632
11
63.7208
21
-164.06
0
LINE
8
BLACK
6
CONTINUOUS
10
63.7208
20
-164.06
11
63.816
21
-163.87
0
LINE
8
BLACK
6
CONTINUOUS
10
63.816
20
-163.87
11
63.9113
21
-163.774
0
LINE
8
BLACK
6
CONTINUOUS
10
63.9113
20
-163.774
11
64.1017
21
-163.679
0
LINE
8
BLACK
6
CONTINUOUS
10
64.1017
20
-163.679
11
64.3874
21
-163.679
0
LINE
8
BLACK
6
CONTINUOUS
10
64.3874
20
-163.679
11
64.5779
21
-163.774
0
LINE
8
BLACK
6
CONTINUOUS
10
64.5779
20
-163.774
11
64.6732
21
-163.87
0
LINE
8
BLACK
6
CONTINUOUS
10
64.6732
20
-163.87
11
64.7684
21
-164.06
0
LINE
8
BLACK
6
CONTINUOUS
10
64.7684
20
-164.06
11
64.7684
21
-164.632
0
LINE
8
BLACK
6
CONTINUOUS
10
64.7684
20
-164.632
11
64.6732
21
-164.822
0
LINE
8
BLACK
6
CONTINUOUS
10
64.6732
20
-164.822
11
64.5779
21
-164.917
0
LINE
8
BLACK
6
CONTINUOUS
10
64.5779
20
-164.917
11
64.3874
21
-165.013
0
LINE
8
BLACK
6
CONTINUOUS
10
64.3874
20
-165.013
11
64.1017
21
-165.013
0
LINE
8
BLACK
6
CONTINUOUS
10
65.9113
20
-165.013
11
65.7208
21
-164.917
0
LINE
8
BLACK
6
CONTINUOUS
10
65.7208
20
-164.917
11
65.6255
21
-164.727
0
LINE
8
BLACK
6
CONTINUOUS
10
65.6255
20
-164.727
11
65.6255
21
-163.013
0
LINE
8
BLACK
6
CONTINUOUS
10
67.4351
20
-164.917
11
67.2446
21
-165.013
0
LINE
8
BLACK
6
CONTINUOUS
10
67.2446
20
-165.013
11
66.8636
21
-165.013
0
LINE
8
BLACK
6
CONTINUOUS
10
66.8636
20
-165.013
11
66.6732
21
-164.917
0
LINE
8
BLACK
6
CONTINUOUS
10
66.6732
20
-164.917
11
66.5779
21
-164.727
0
LINE
8
BLACK
6
CONTINUOUS
10
66.5779
20
-164.727
11
66.5779
21
-163.965
0
LINE
8
BLACK
6
CONTINUOUS
10
66.5779
20
-163.965
11
66.6732
21
-163.774
0
LINE
8
BLACK
6
CONTINUOUS
10
66.6732
20
-163.774
11
66.8636
21
-163.679
0
LINE
8
BLACK
6
CONTINUOUS
10
66.8636
20
-163.679
11
67.2446
21
-163.679
0
LINE
8
BLACK
6
CONTINUOUS
10
67.2446
20
-163.679
11
67.4351
21
-163.774
0
LINE
8
BLACK
6
CONTINUOUS
10
67.4351
20
-163.774
11
67.5303
21
-163.965
0
LINE
8
BLACK
6
CONTINUOUS
10
67.5303
20
-163.965
11
67.5303
21
-164.155
0
LINE
8
BLACK
6
CONTINUOUS
10
67.5303
20
-164.155
11
66.5779
21
-164.346
0
LINE
8
BLACK
6
CONTINUOUS
10
68.2922
20
-164.917
11
68.4827
21
-165.013
0
LINE
8
BLACK
6
CONTINUOUS
10
68.4827
20
-165.013
11
68.8636
21
-165.013
0
LINE
8
BLACK
6
CONTINUOUS
10
68.8636
20
-165.013
11
69.0541
21
-164.917
0
LINE
8
BLACK
6
CONTINUOUS
10
69.0541
20
-164.917
11
69.1494
21
-164.727
0
LINE
8
BLACK
6
CONTINUOUS
10
69.1494
20
-164.727
11
69.1494
21
-164.632
0
LINE
8
BLACK
6
CONTINUOUS
10
69.1494
20
-164.632
11
69.0541
21
-164.441
0
LINE
8
BLACK
6
CONTINUOUS
10
69.0541
20
-164.441
11
68.8636
21
-164.346
0
LINE
8
BLACK
6
CONTINUOUS
10
68.8636
20
-164.346
11
68.5779
21
-164.346
0
LINE
8
BLACK
6
CONTINUOUS
10
68.5779
20
-164.346
11
68.3874
21
-164.251
0
LINE
8
BLACK
6
CONTINUOUS
10
68.3874
20
-164.251
11
68.2922
21
-164.06
0
LINE
8
BLACK
6
CONTINUOUS
10
68.2922
20
-164.06
11
68.2922
21
-163.965
0
LINE
8
BLACK
6
CONTINUOUS
10
68.2922
20
-163.965
11
68.3874
21
-163.774
0
LINE
8
BLACK
6
CONTINUOUS
10
68.3874
20
-163.774
11
68.5779
21
-163.679
0
LINE
8
BLACK
6
CONTINUOUS
10
68.5779
20
-163.679
11
68.8636
21
-163.679
0
LINE
8
BLACK
6
CONTINUOUS
10
68.8636
20
-163.679
11
69.0541
21
-163.774
0
LINE
8
BLACK
6
CONTINUOUS
10
69.816
20
-165.774
11
69.9113
21
-165.679
0
LINE
8
BLACK
6
CONTINUOUS
10
69.9113
20
-165.679
11
70.1017
21
-165.394
0
LINE
8
BLACK
6
CONTINUOUS
10
70.1017
20
-165.394
11
70.197
21
-165.203
0
LINE
8
BLACK
6
CONTINUOUS
10
70.197
20
-165.203
11
70.2922
21
-164.917
0
LINE
8
BLACK
6
CONTINUOUS
10
70.2922
20
-164.917
11
70.3874
21
-164.441
0
LINE
8
BLACK
6
CONTINUOUS
10
70.3874
20
-164.441
11
70.3874
21
-164.06
0
LINE
8
BLACK
6
CONTINUOUS
10
70.3874
20
-164.06
11
70.2922
21
-163.584
0
LINE
8
BLACK
6
CONTINUOUS
10
70.2922
20
-163.584
11
70.197
21
-163.298
0
LINE
8
BLACK
6
CONTINUOUS
10
70.197
20
-163.298
11
70.1017
21
-163.108
0
LINE
8
BLACK
6
CONTINUOUS
10
70.1017
20
-163.108
11
69.9113
21
-162.822
0
LINE
8
BLACK
6
CONTINUOUS
10
69.9113
20
-162.822
11
69.816
21
-162.727
0
LINE
8
BLACK
6
CONTINUOUS
10
19.6461
20
-166.202
11
19.6461
21
-167.294
0
LINE
8
BLACK
6
CONTINUOUS
10
19.1
20
-166.748
11
20.1922
21
-166.748
0
LINE
8
BLACK
6
CONTINUOUS
10
23.816
20
-167.653
11
22.6732
21
-167.653
0
LINE
8
BLACK
6
CONTINUOUS
10
23.2446
20
-167.653
11
23.2446
21
-165.653
0
LINE
8
BLACK
6
CONTINUOUS
10
23.2446
20
-165.653
11
23.0541
21
-165.938
0
LINE
8
BLACK
6
CONTINUOUS
10
23.0541
20
-165.938
11
22.8636
21
-166.129
0
LINE
8
BLACK
6
CONTINUOUS
10
22.8636
20
-166.129
11
22.6732
21
-166.224
0
LINE
8
BLACK
6
CONTINUOUS
10
24.6732
20
-167.462
11
24.7684
21
-167.557
0
LINE
8
BLACK
6
CONTINUOUS
10
24.7684
20
-167.557
11
24.6732
21
-167.653
0
LINE
8
BLACK
6
CONTINUOUS
10
24.6732
20
-167.653
11
24.5779
21
-167.557
0
LINE
8
BLACK
6
CONTINUOUS
10
24.5779
20
-167.557
11
24.6732
21
-167.462
0
LINE
8
BLACK
6
CONTINUOUS
10
24.6732
20
-167.462
11
24.6732
21
-167.653
0
LINE
8
BLACK
6
CONTINUOUS
10
26.0065
20
-165.653
11
26.197
21
-165.653
0
LINE
8
BLACK
6
CONTINUOUS
10
26.197
20
-165.653
11
26.3874
21
-165.748
0
LINE
8
BLACK
6
CONTINUOUS
10
26.3874
20
-165.748
11
26.4827
21
-165.843
0
LINE
8
BLACK
6
CONTINUOUS
10
26.4827
20
-165.843
11
26.5779
21
-166.034
0
LINE
8
BLACK
6
CONTINUOUS
10
26.5779
20
-166.034
11
26.6732
21
-166.414
0
LINE
8
BLACK
6
CONTINUOUS
10
26.6732
20
-166.414
11
26.6732
21
-166.891
0
LINE
8
BLACK
6
CONTINUOUS
10
26.6732
20
-166.891
11
26.5779
21
-167.272
0
LINE
8
BLACK
6
CONTINUOUS
10
26.5779
20
-167.272
11
26.4827
21
-167.462
0
LINE
8
BLACK
6
CONTINUOUS
10
26.4827
20
-167.462
11
26.3874
21
-167.557
0
LINE
8
BLACK
6
CONTINUOUS
10
26.3874
20
-167.557
11
26.197
21
-167.653
0
LINE
8
BLACK
6
CONTINUOUS
10
26.197
20
-167.653
11
26.0065
21
-167.653
0
LINE
8
BLACK
6
CONTINUOUS
10
26.0065
20
-167.653
11
25.816
21
-167.557
0
LINE
8
BLACK
6
CONTINUOUS
10
25.816
20
-167.557
11
25.7208
21
-167.462
0
LINE
8
BLACK
6
CONTINUOUS
10
25.7208
20
-167.462
11
25.6255
21
-167.272
0
LINE
8
BLACK
6
CONTINUOUS
10
25.6255
20
-167.272
11
25.5303
21
-166.891
0
LINE
8
BLACK
6
CONTINUOUS
10
25.5303
20
-166.891
11
25.5303
21
-166.414
0
LINE
8
BLACK
6
CONTINUOUS
10
25.5303
20
-166.414
11
25.6255
21
-166.034
0
LINE
8
BLACK
6
CONTINUOUS
10
25.6255
20
-166.034
11
25.7208
21
-165.843
0
LINE
8
BLACK
6
CONTINUOUS
10
25.7208
20
-165.843
11
25.816
21
-165.748
0
LINE
8
BLACK
6
CONTINUOUS
10
25.816
20
-165.748
11
26.0065
21
-165.653
0
LINE
8
BLACK
6
CONTINUOUS
10
27.6255
20
-167.653
11
28.0065
21
-167.653
0
LINE
8
BLACK
6
CONTINUOUS
10
28.0065
20
-167.653
11
28.197
21
-167.557
0
LINE
8
BLACK
6
CONTINUOUS
10
28.197
20
-167.557
11
28.2922
21
-167.462
0
LINE
8
BLACK
6
CONTINUOUS
10
28.2922
20
-167.462
11
28.4827
21
-167.176
0
LINE
8
BLACK
6
CONTINUOUS
10
28.4827
20
-167.176
11
28.5779
21
-166.795
0
LINE
8
BLACK
6
CONTINUOUS
10
28.5779
20
-166.795
11
28.5779
21
-166.034
0
LINE
8
BLACK
6
CONTINUOUS
10
28.5779
20
-166.034
11
28.4827
21
-165.843
0
LINE
8
BLACK
6
CONTINUOUS
10
28.4827
20
-165.843
11
28.3874
21
-165.748
0
LINE
8
BLACK
6
CONTINUOUS
10
28.3874
20
-165.748
11
28.197
21
-165.653
0
LINE
8
BLACK
6
CONTINUOUS
10
28.197
20
-165.653
11
27.816
21
-165.653
0
LINE
8
BLACK
6
CONTINUOUS
10
27.816
20
-165.653
11
27.6255
21
-165.748
0
LINE
8
BLACK
6
CONTINUOUS
10
27.6255
20
-165.748
11
27.5303
21
-165.843
0
LINE
8
BLACK
6
CONTINUOUS
10
27.5303
20
-165.843
11
27.4351
21
-166.034
0
LINE
8
BLACK
6
CONTINUOUS
10
27.4351
20
-166.034
11
27.4351
21
-166.51
0
LINE
8
BLACK
6
CONTINUOUS
10
27.4351
20
-166.51
11
27.5303
21
-166.7
0
LINE
8
BLACK
6
CONTINUOUS
10
27.5303
20
-166.7
11
27.6255
21
-166.795
0
LINE
8
BLACK
6
CONTINUOUS
10
27.6255
20
-166.795
11
27.816
21
-166.891
0
LINE
8
BLACK
6
CONTINUOUS
10
27.816
20
-166.891
11
28.197
21
-166.891
0
LINE
8
BLACK
6
CONTINUOUS
10
28.197
20
-166.891
11
28.3874
21
-166.795
0
LINE
8
BLACK
6
CONTINUOUS
10
28.3874
20
-166.795
11
28.4827
21
-166.7
0
LINE
8
BLACK
6
CONTINUOUS
10
28.4827
20
-166.7
11
28.5779
21
-166.51
0
LINE
8
BLACK
6
CONTINUOUS
10
29.3398
20
-165.843
11
29.4351
21
-165.748
0
LINE
8
BLACK
6
CONTINUOUS
10
29.4351
20
-165.748
11
29.6255
21
-165.653
0
LINE
8
BLACK
6
CONTINUOUS
10
29.6255
20
-165.653
11
30.1017
21
-165.653
0
LINE
8
BLACK
6
CONTINUOUS
10
30.1017
20
-165.653
11
30.2922
21
-165.748
0
LINE
8
BLACK
6
CONTINUOUS
10
30.2922
20
-165.748
11
30.3874
21
-165.843
0
LINE
8
BLACK
6
CONTINUOUS
10
30.3874
20
-165.843
11
30.4827
21
-166.034
0
LINE
8
BLACK
6
CONTINUOUS
10
30.4827
20
-166.034
11
30.4827
21
-166.224
0
LINE
8
BLACK
6
CONTINUOUS
10
30.4827
20
-166.224
11
30.3874
21
-166.51
0
LINE
8
BLACK
6
CONTINUOUS
10
30.3874
20
-166.51
11
29.2446
21
-167.653
0
LINE
8
BLACK
6
CONTINUOUS
10
29.2446
20
-167.653
11
30.4827
21
-167.653
0
LINE
8
BLACK
6
CONTINUOUS
10
31.3398
20
-167.653
11
31.3398
21
-166.319
0
LINE
8
BLACK
6
CONTINUOUS
10
31.3398
20
-166.51
11
31.4351
21
-166.414
0
LINE
8
BLACK
6
CONTINUOUS
10
31.4351
20
-166.414
11
31.6255
21
-166.319
0
LINE
8
BLACK
6
CONTINUOUS
10
31.6255
20
-166.319
11
31.9113
21
-166.319
0
LINE
8
BLACK
6
CONTINUOUS
10
31.9113
20
-166.319
11
32.1017
21
-166.414
0
LINE
8
BLACK
6
CONTINUOUS
10
32.1017
20
-166.414
11
32.197
21
-166.605
0
LINE
8
BLACK
6
CONTINUOUS
10
32.197
20
-166.605
11
32.197
21
-167.653
0
LINE
8
BLACK
6
CONTINUOUS
10
32.197
20
-166.605
11
32.2922
21
-166.414
0
LINE
8
BLACK
6
CONTINUOUS
10
32.2922
20
-166.414
11
32.4827
21
-166.319
0
LINE
8
BLACK
6
CONTINUOUS
10
32.4827
20
-166.319
11
32.7684
21
-166.319
0
LINE
8
BLACK
6
CONTINUOUS
10
32.7684
20
-166.319
11
32.9589
21
-166.414
0
LINE
8
BLACK
6
CONTINUOUS
10
32.9589
20
-166.414
11
33.0541
21
-166.605
0
LINE
8
BLACK
6
CONTINUOUS
10
33.0541
20
-166.605
11
33.0541
21
-167.653
0
LINE
8
BLACK
6
CONTINUOUS
10
34.0065
20
-167.653
11
34.0065
21
-166.319
0
LINE
8
BLACK
6
CONTINUOUS
10
34.0065
20
-166.51
11
34.1017
21
-166.414
0
LINE
8
BLACK
6
CONTINUOUS
10
34.1017
20
-166.414
11
34.2922
21
-166.319
0
LINE
8
BLACK
6
CONTINUOUS
10
34.2922
20
-166.319
11
34.5779
21
-166.319
0
LINE
8
BLACK
6
CONTINUOUS
10
34.5779
20
-166.319
11
34.7684
21
-166.414
0
LINE
8
BLACK
6
CONTINUOUS
10
34.7684
20
-166.414
11
34.8636
21
-166.605
0
LINE
8
BLACK
6
CONTINUOUS
10
34.8636
20
-166.605
11
34.8636
21
-167.653
0
LINE
8
BLACK
6
CONTINUOUS
10
34.8636
20
-166.605
11
34.9589
21
-166.414
0
LINE
8
BLACK
6
CONTINUOUS
10
34.9589
20
-166.414
11
35.1494
21
-166.319
0
LINE
8
BLACK
6
CONTINUOUS
10
35.1494
20
-166.319
11
35.4351
21
-166.319
0
LINE
8
BLACK
6
CONTINUOUS
10
35.4351
20
-166.319
11
35.6255
21
-166.414
0
LINE
8
BLACK
6
CONTINUOUS
10
35.6255
20
-166.414
11
35.7208
21
-166.605
0
LINE
8
BLACK
6
CONTINUOUS
10
35.7208
20
-166.605
11
35.7208
21
-167.653
0
LINE
8
BLACK
6
CONTINUOUS
10
39.6255
20
-165.557
11
37.9113
21
-168.129
0
LINE
8
BLACK
6
CONTINUOUS
10
42.197
20
-165.653
11
42.3874
21
-165.653
0
LINE
8
BLACK
6
CONTINUOUS
10
42.3874
20
-165.653
11
42.5779
21
-165.748
0
LINE
8
BLACK
6
CONTINUOUS
10
42.5779
20
-165.748
11
42.6732
21
-165.843
0
LINE
8
BLACK
6
CONTINUOUS
10
42.6732
20
-165.843
11
42.7684
21
-166.034
0
LINE
8
BLACK
6
CONTINUOUS
10
42.7684
20
-166.034
11
42.8636
21
-166.414
0
LINE
8
BLACK
6
CONTINUOUS
10
42.8636
20
-166.414
11
42.8636
21
-166.891
0
LINE
8
BLACK
6
CONTINUOUS
10
42.8636
20
-166.891
11
42.7684
21
-167.272
0
LINE
8
BLACK
6
CONTINUOUS
10
42.7684
20
-167.272
11
42.6732
21
-167.462
0
LINE
8
BLACK
6
CONTINUOUS
10
42.6732
20
-167.462
11
42.5779
21
-167.557
0
LINE
8
BLACK
6
CONTINUOUS
10
42.5779
20
-167.557
11
42.3874
21
-167.653
0
LINE
8
BLACK
6
CONTINUOUS
10
42.3874
20
-167.653
11
42.197
21
-167.653
0
LINE
8
BLACK
6
CONTINUOUS
10
42.197
20
-167.653
11
42.0065
21
-167.557
0
LINE
8
BLACK
6
CONTINUOUS
10
42.0065
20
-167.557
11
41.9113
21
-167.462
0
LINE
8
BLACK
6
CONTINUOUS
10
41.9113
20
-167.462
11
41.816
21
-167.272
0
LINE
8
BLACK
6
CONTINUOUS
10
41.816
20
-167.272
11
41.7208
21
-166.891
0
LINE
8
BLACK
6
CONTINUOUS
10
41.7208
20
-166.891
11
41.7208
21
-166.414
0
LINE
8
BLACK
6
CONTINUOUS
10
41.7208
20
-166.414
11
41.816
21
-166.034
0
LINE
8
BLACK
6
CONTINUOUS
10
41.816
20
-166.034
11
41.9113
21
-165.843
0
LINE
8
BLACK
6
CONTINUOUS
10
41.9113
20
-165.843
11
42.0065
21
-165.748
0
LINE
8
BLACK
6
CONTINUOUS
10
42.0065
20
-165.748
11
42.197
21
-165.653
0
LINE
8
BLACK
6
CONTINUOUS
10
43.7208
20
-167.462
11
43.816
21
-167.557
0
LINE
8
BLACK
6
CONTINUOUS
10
43.816
20
-167.557
11
43.7208
21
-167.653
0
LINE
8
BLACK
6
CONTINUOUS
10
43.7208
20
-167.653
11
43.6255
21
-167.557
0
LINE
8
BLACK
6
CONTINUOUS
10
43.6255
20
-167.557
11
43.7208
21
-167.462
0
LINE
8
BLACK
6
CONTINUOUS
10
43.7208
20
-167.462
11
43.7208
21
-167.653
0
LINE
8
BLACK
6
CONTINUOUS
10
45.0541
20
-165.653
11
45.2446
21
-165.653
0
LINE
8
BLACK
6
CONTINUOUS
10
45.2446
20
-165.653
11
45.4351
21
-165.748
0
LINE
8
BLACK
6
CONTINUOUS
10
45.4351
20
-165.748
11
45.5303
21
-165.843
0
LINE
8
BLACK
6
CONTINUOUS
10
45.5303
20
-165.843
11
45.6255
21
-166.034
0
LINE
8
BLACK
6
CONTINUOUS
10
45.6255
20
-166.034
11
45.7208
21
-166.414
0
LINE
8
BLACK
6
CONTINUOUS
10
45.7208
20
-166.414
11
45.7208
21
-166.891
0
LINE
8
BLACK
6
CONTINUOUS
10
45.7208
20
-166.891
11
45.6255
21
-167.272
0
LINE
8
BLACK
6
CONTINUOUS
10
45.6255
20
-167.272
11
45.5303
21
-167.462
0
LINE
8
BLACK
6
CONTINUOUS
10
45.5303
20
-167.462
11
45.4351
21
-167.557
0
LINE
8
BLACK
6
CONTINUOUS
10
45.4351
20
-167.557
11
45.2446
21
-167.653
0
LINE
8
BLACK
6
CONTINUOUS
10
45.2446
20
-167.653
11
45.0541
21
-167.653
0
LINE
8
BLACK
6
CONTINUOUS
10
45.0541
20
-167.653
11
44.8636
21
-167.557
0
LINE
8
BLACK
6
CONTINUOUS
10
44.8636
20
-167.557
11
44.7684
21
-167.462
0
LINE
8
BLACK
6
CONTINUOUS
10
44.7684
20
-167.462
11
44.6732
21
-167.272
0
LINE
8
BLACK
6
CONTINUOUS
10
44.6732
20
-167.272
11
44.5779
21
-166.891
0
LINE
8
BLACK
6
CONTINUOUS
10
44.5779
20
-166.891
11
44.5779
21
-166.414
0
LINE
8
BLACK
6
CONTINUOUS
10
44.5779
20
-166.414
11
44.6732
21
-166.034
0
LINE
8
BLACK
6
CONTINUOUS
10
44.6732
20
-166.034
11
44.7684
21
-165.843
0
LINE
8
BLACK
6
CONTINUOUS
10
44.7684
20
-165.843
11
44.8636
21
-165.748
0
LINE
8
BLACK
6
CONTINUOUS
10
44.8636
20
-165.748
11
45.0541
21
-165.653
0
LINE
8
BLACK
6
CONTINUOUS
10
47.4351
20
-166.319
11
47.4351
21
-167.653
0
LINE
8
BLACK
6
CONTINUOUS
10
46.9589
20
-165.557
11
46.4827
21
-166.986
0
LINE
8
BLACK
6
CONTINUOUS
10
46.4827
20
-166.986
11
47.7208
21
-166.986
0
LINE
8
BLACK
6
CONTINUOUS
10
48.2922
20
-165.653
11
49.5303
21
-165.653
0
LINE
8
BLACK
6
CONTINUOUS
10
49.5303
20
-165.653
11
48.8636
21
-166.414
0
LINE
8
BLACK
6
CONTINUOUS
10
48.8636
20
-166.414
11
49.1494
21
-166.414
0
LINE
8
BLACK
6
CONTINUOUS
10
49.1494
20
-166.414
11
49.3398
21
-166.51
0
LINE
8
BLACK
6
CONTINUOUS
10
49.3398
20
-166.51
11
49.4351
21
-166.605
0
LINE
8
BLACK
6
CONTINUOUS
10
49.4351
20
-166.605
11
49.5303
21
-166.795
0
LINE
8
BLACK
6
CONTINUOUS
10
49.5303
20
-166.795
11
49.5303
21
-167.272
0
LINE
8
BLACK
6
CONTINUOUS
10
49.5303
20
-167.272
11
49.4351
21
-167.462
0
LINE
8
BLACK
6
CONTINUOUS
10
49.4351
20
-167.462
11
49.3398
21
-167.557
0
LINE
8
BLACK
6
CONTINUOUS
10
49.3398
20
-167.557
11
49.1494
21
-167.653
0
LINE
8
BLACK
6
CONTINUOUS
10
49.1494
20
-167.653
11
48.5779
21
-167.653
0
LINE
8
BLACK
6
CONTINUOUS
10
48.5779
20
-167.653
11
48.3874
21
-167.557
0
LINE
8
BLACK
6
CONTINUOUS
10
48.3874
20
-167.557
11
48.2922
21
-167.462
0
LINE
8
BLACK
6
CONTINUOUS
10
50.7684
20
-165.653
11
50.9589
21
-165.653
0
LINE
8
BLACK
6
CONTINUOUS
10
50.9589
20
-165.653
11
51.1494
21
-165.748
0
LINE
8
BLACK
6
CONTINUOUS
10
51.1494
20
-165.748
11
51.2446
21
-165.843
0
LINE
8
BLACK
6
CONTINUOUS
10
51.2446
20
-165.843
11
51.3398
21
-166.034
0
LINE
8
BLACK
6
CONTINUOUS
10
51.3398
20
-166.034
11
51.4351
21
-166.414
0
LINE
8
BLACK
6
CONTINUOUS
10
51.4351
20
-166.414
11
51.4351
21
-166.891
0
LINE
8
BLACK
6
CONTINUOUS
10
51.4351
20
-166.891
11
51.3398
21
-167.272
0
LINE
8
BLACK
6
CONTINUOUS
10
51.3398
20
-167.272
11
51.2446
21
-167.462
0
LINE
8
BLACK
6
CONTINUOUS
10
51.2446
20
-167.462
11
51.1494
21
-167.557
0
LINE
8
BLACK
6
CONTINUOUS
10
51.1494
20
-167.557
11
50.9589
21
-167.653
0
LINE
8
BLACK
6
CONTINUOUS
10
50.9589
20
-167.653
11
50.7684
21
-167.653
0
LINE
8
BLACK
6
CONTINUOUS
10
50.7684
20
-167.653
11
50.5779
21
-167.557
0
LINE
8
BLACK
6
CONTINUOUS
10
50.5779
20
-167.557
11
50.4827
21
-167.462
0
LINE
8
BLACK
6
CONTINUOUS
10
50.4827
20
-167.462
11
50.3874
21
-167.272
0
LINE
8
BLACK
6
CONTINUOUS
10
50.3874
20
-167.272
11
50.2922
21
-166.891
0
LINE
8
BLACK
6
CONTINUOUS
10
50.2922
20
-166.891
11
50.2922
21
-166.414
0
LINE
8
BLACK
6
CONTINUOUS
10
50.2922
20
-166.414
11
50.3874
21
-166.034
0
LINE
8
BLACK
6
CONTINUOUS
10
50.3874
20
-166.034
11
50.4827
21
-165.843
0
LINE
8
BLACK
6
CONTINUOUS
10
50.4827
20
-165.843
11
50.5779
21
-165.748
0
LINE
8
BLACK
6
CONTINUOUS
10
50.5779
20
-165.748
11
50.7684
21
-165.653
0
LINE
8
BLACK
6
CONTINUOUS
10
52.197
20
-165.653
11
52.197
21
-166.034
0
LINE
8
BLACK
6
CONTINUOUS
10
52.9589
20
-165.653
11
52.9589
21
-166.034
0
LINE
8
BLACK
6
CONTINUOUS
10
55.9113
20
-168.414
11
55.816
21
-168.319
0
LINE
8
BLACK
6
CONTINUOUS
10
55.816
20
-168.319
11
55.6255
21
-168.034
0
LINE
8
BLACK
6
CONTINUOUS
10
55.6255
20
-168.034
11
55.5303
21
-167.843
0
LINE
8
BLACK
6
CONTINUOUS
10
55.5303
20
-167.843
11
55.4351
21
-167.557
0
LINE
8
BLACK
6
CONTINUOUS
10
55.4351
20
-167.557
11
55.3398
21
-167.081
0
LINE
8
BLACK
6
CONTINUOUS
10
55.3398
20
-167.081
11
55.3398
21
-166.7
0
LINE
8
BLACK
6
CONTINUOUS
10
55.3398
20
-166.7
11
55.4351
21
-166.224
0
LINE
8
BLACK
6
CONTINUOUS
10
55.4351
20
-166.224
11
55.5303
21
-165.938
0
LINE
8
BLACK
6
CONTINUOUS
10
55.5303
20
-165.938
11
55.6255
21
-165.748
0
LINE
8
BLACK
6
CONTINUOUS
10
55.6255
20
-165.748
11
55.816
21
-165.462
0
LINE
8
BLACK
6
CONTINUOUS
10
55.816
20
-165.462
11
55.9113
21
-165.367
0
LINE
8
BLACK
6
CONTINUOUS
10
56.5779
20
-165.843
11
56.6732
21
-165.748
0
LINE
8
BLACK
6
CONTINUOUS
10
56.6732
20
-165.748
11
56.8636
21
-165.653
0
LINE
8
BLACK
6
CONTINUOUS
10
56.8636
20
-165.653
11
57.3398
21
-165.653
0
LINE
8
BLACK
6
CONTINUOUS
10
57.3398
20
-165.653
11
57.5303
21
-165.748
0
LINE
8
BLACK
6
CONTINUOUS
10
57.5303
20
-165.748
11
57.6255
21
-165.843
0
LINE
8
BLACK
6
CONTINUOUS
10
57.6255
20
-165.843
11
57.7208
21
-166.034
0
LINE
8
BLACK
6
CONTINUOUS
10
57.7208
20
-166.034
11
57.7208
21
-166.224
0
LINE
8
BLACK
6
CONTINUOUS
10
57.7208
20
-166.224
11
57.6255
21
-166.51
0
LINE
8
BLACK
6
CONTINUOUS
10
57.6255
20
-166.51
11
56.4827
21
-167.653
0
LINE
8
BLACK
6
CONTINUOUS
10
56.4827
20
-167.653
11
57.7208
21
-167.653
0
LINE
8
BLACK
6
CONTINUOUS
10
59.4351
20
-165.653
11
59.0541
21
-165.653
0
LINE
8
BLACK
6
CONTINUOUS
10
59.0541
20
-165.653
11
58.8636
21
-165.748
0
LINE
8
BLACK
6
CONTINUOUS
10
58.8636
20
-165.748
11
58.7684
21
-165.843
0
LINE
8
BLACK
6
CONTINUOUS
10
58.7684
20
-165.843
11
58.5779
21
-166.129
0
LINE
8
BLACK
6
CONTINUOUS
10
58.5779
20
-166.129
11
58.4827
21
-166.51
0
LINE
8
BLACK
6
CONTINUOUS
10
58.4827
20
-166.51
11
58.4827
21
-167.272
0
LINE
8
BLACK
6
CONTINUOUS
10
58.4827
20
-167.272
11
58.5779
21
-167.462
0
LINE
8
BLACK
6
CONTINUOUS
10
58.5779
20
-167.462
11
58.6732
21
-167.557
0
LINE
8
BLACK
6
CONTINUOUS
10
58.6732
20
-167.557
11
58.8636
21
-167.653
0
LINE
8
BLACK
6
CONTINUOUS
10
58.8636
20
-167.653
11
59.2446
21
-167.653
0
LINE
8
BLACK
6
CONTINUOUS
10
59.2446
20
-167.653
11
59.4351
21
-167.557
0
LINE
8
BLACK
6
CONTINUOUS
10
59.4351
20
-167.557
11
59.5303
21
-167.462
0
LINE
8
BLACK
6
CONTINUOUS
10
59.5303
20
-167.462
11
59.6255
21
-167.272
0
LINE
8
BLACK
6
CONTINUOUS
10
59.6255
20
-167.272
11
59.6255
21
-166.795
0
LINE
8
BLACK
6
CONTINUOUS
10
59.6255
20
-166.795
11
59.5303
21
-166.605
0
LINE
8
BLACK
6
CONTINUOUS
10
59.5303
20
-166.605
11
59.4351
21
-166.51
0
LINE
8
BLACK
6
CONTINUOUS
10
59.4351
20
-166.51
11
59.2446
21
-166.414
0
LINE
8
BLACK
6
CONTINUOUS
10
59.2446
20
-166.414
11
58.8636
21
-166.414
0
LINE
8
BLACK
6
CONTINUOUS
10
58.8636
20
-166.414
11
58.6732
21
-166.51
0
LINE
8
BLACK
6
CONTINUOUS
10
58.6732
20
-166.51
11
58.5779
21
-166.605
0
LINE
8
BLACK
6
CONTINUOUS
10
58.5779
20
-166.605
11
58.4827
21
-166.795
0
LINE
8
BLACK
6
CONTINUOUS
10
62.0065
20
-167.653
11
62.0065
21
-165.653
0
LINE
8
BLACK
6
CONTINUOUS
10
62.8636
20
-167.653
11
62.8636
21
-166.605
0
LINE
8
BLACK
6
CONTINUOUS
10
62.8636
20
-166.605
11
62.7684
21
-166.414
0
LINE
8
BLACK
6
CONTINUOUS
10
62.7684
20
-166.414
11
62.5779
21
-166.319
0
LINE
8
BLACK
6
CONTINUOUS
10
62.5779
20
-166.319
11
62.2922
21
-166.319
0
LINE
8
BLACK
6
CONTINUOUS
10
62.2922
20
-166.319
11
62.1017
21
-166.414
0
LINE
8
BLACK
6
CONTINUOUS
10
62.1017
20
-166.414
11
62.0065
21
-166.51
0
LINE
8
BLACK
6
CONTINUOUS
10
64.1017
20
-167.653
11
63.9113
21
-167.557
0
LINE
8
BLACK
6
CONTINUOUS
10
63.9113
20
-167.557
11
63.816
21
-167.462
0
LINE
8
BLACK
6
CONTINUOUS
10
63.816
20
-167.462
11
63.7208
21
-167.272
0
LINE
8
BLACK
6
CONTINUOUS
10
63.7208
20
-167.272
11
63.7208
21
-166.7
0
LINE
8
BLACK
6
CONTINUOUS
10
63.7208
20
-166.7
11
63.816
21
-166.51
0
LINE
8
BLACK
6
CONTINUOUS
10
63.816
20
-166.51
11
63.9113
21
-166.414
0
LINE
8
BLACK
6
CONTINUOUS
10
63.9113
20
-166.414
11
64.1017
21
-166.319
0
LINE
8
BLACK
6
CONTINUOUS
10
64.1017
20
-166.319
11
64.3874
21
-166.319
0
LINE
8
BLACK
6
CONTINUOUS
10
64.3874
20
-166.319
11
64.5779
21
-166.414
0
LINE
8
BLACK
6
CONTINUOUS
10
64.5779
20
-166.414
11
64.6732
21
-166.51
0
LINE
8
BLACK
6
CONTINUOUS
10
64.6732
20
-166.51
11
64.7684
21
-166.7
0
LINE
8
BLACK
6
CONTINUOUS
10
64.7684
20
-166.7
11
64.7684
21
-167.272
0
LINE
8
BLACK
6
CONTINUOUS
10
64.7684
20
-167.272
11
64.6732
21
-167.462
0
LINE
8
BLACK
6
CONTINUOUS
10
64.6732
20
-167.462
11
64.5779
21
-167.557
0
LINE
8
BLACK
6
CONTINUOUS
10
64.5779
20
-167.557
11
64.3874
21
-167.653
0
LINE
8
BLACK
6
CONTINUOUS
10
64.3874
20
-167.653
11
64.1017
21
-167.653
0
LINE
8
BLACK
6
CONTINUOUS
10
65.9113
20
-167.653
11
65.7208
21
-167.557
0
LINE
8
BLACK
6
CONTINUOUS
10
65.7208
20
-167.557
11
65.6255
21
-167.367
0
LINE
8
BLACK
6
CONTINUOUS
10
65.6255
20
-167.367
11
65.6255
21
-165.653
0
LINE
8
BLACK
6
CONTINUOUS
10
67.4351
20
-167.557
11
67.2446
21
-167.653
0
LINE
8
BLACK
6
CONTINUOUS
10
67.2446
20
-167.653
11
66.8636
21
-167.653
0
LINE
8
BLACK
6
CONTINUOUS
10
66.8636
20
-167.653
11
66.6732
21
-167.557
0
LINE
8
BLACK
6
CONTINUOUS
10
66.6732
20
-167.557
11
66.5779
21
-167.367
0
LINE
8
BLACK
6
CONTINUOUS
10
66.5779
20
-167.367
11
66.5779
21
-166.605
0
LINE
8
BLACK
6
CONTINUOUS
10
66.5779
20
-166.605
11
66.6732
21
-166.414
0
LINE
8
BLACK
6
CONTINUOUS
10
66.6732
20
-166.414
11
66.8636
21
-166.319
0
LINE
8
BLACK
6
CONTINUOUS
10
66.8636
20
-166.319
11
67.2446
21
-166.319
0
LINE
8
BLACK
6
CONTINUOUS
10
67.2446
20
-166.319
11
67.4351
21
-166.414
0
LINE
8
BLACK
6
CONTINUOUS
10
67.4351
20
-166.414
11
67.5303
21
-166.605
0
LINE
8
BLACK
6
CONTINUOUS
10
67.5303
20
-166.605
11
67.5303
21
-166.795
0
LINE
8
BLACK
6
CONTINUOUS
10
67.5303
20
-166.795
11
66.5779
21
-166.986
0
LINE
8
BLACK
6
CONTINUOUS
10
68.2922
20
-167.557
11
68.4827
21
-167.653
0
LINE
8
BLACK
6
CONTINUOUS
10
68.4827
20
-167.653
11
68.8636
21
-167.653
0
LINE
8
BLACK
6
CONTINUOUS
10
68.8636
20
-167.653
11
69.0541
21
-167.557
0
LINE
8
BLACK
6
CONTINUOUS
10
69.0541
20
-167.557
11
69.1494
21
-167.367
0
LINE
8
BLACK
6
CONTINUOUS
10
69.1494
20
-167.367
11
69.1494
21
-167.272
0
LINE
8
BLACK
6
CONTINUOUS
10
69.1494
20
-167.272
11
69.0541
21
-167.081
0
LINE
8
BLACK
6
CONTINUOUS
10
69.0541
20
-167.081
11
68.8636
21
-166.986
0
LINE
8
BLACK
6
CONTINUOUS
10
68.8636
20
-166.986
11
68.5779
21
-166.986
0
LINE
8
BLACK
6
CONTINUOUS
10
68.5779
20
-166.986
11
68.3874
21
-166.891
0
LINE
8
BLACK
6
CONTINUOUS
10
68.3874
20
-166.891
11
68.2922
21
-166.7
0
LINE
8
BLACK
6
CONTINUOUS
10
68.2922
20
-166.7
11
68.2922
21
-166.605
0
LINE
8
BLACK
6
CONTINUOUS
10
68.2922
20
-166.605
11
68.3874
21
-166.414
0
LINE
8
BLACK
6
CONTINUOUS
10
68.3874
20
-166.414
11
68.5779
21
-166.319
0
LINE
8
BLACK
6
CONTINUOUS
10
68.5779
20
-166.319
11
68.8636
21
-166.319
0
LINE
8
BLACK
6
CONTINUOUS
10
68.8636
20
-166.319
11
69.0541
21
-166.414
0
LINE
8
BLACK
6
CONTINUOUS
10
69.816
20
-168.414
11
69.9113
21
-168.319
0
LINE
8
BLACK
6
CONTINUOUS
10
69.9113
20
-168.319
11
70.1017
21
-168.034
0
LINE
8
BLACK
6
CONTINUOUS
10
70.1017
20
-168.034
11
70.197
21
-167.843
0
LINE
8
BLACK
6
CONTINUOUS
10
70.197
20
-167.843
11
70.2922
21
-167.557
0
LINE
8
BLACK
6
CONTINUOUS
10
70.2922
20
-167.557
11
70.3874
21
-167.081
0
LINE
8
BLACK
6
CONTINUOUS
10
70.3874
20
-167.081
11
70.3874
21
-166.7
0
LINE
8
BLACK
6
CONTINUOUS
10
70.3874
20
-166.7
11
70.2922
21
-166.224
0
LINE
8
BLACK
6
CONTINUOUS
10
70.2922
20
-166.224
11
70.197
21
-165.938
0
LINE
8
BLACK
6
CONTINUOUS
10
70.197
20
-165.938
11
70.1017
21
-165.748
0
LINE
8
BLACK
6
CONTINUOUS
10
70.1017
20
-165.748
11
69.9113
21
-165.462
0
LINE
8
BLACK
6
CONTINUOUS
10
69.9113
20
-165.462
11
69.816
21
-165.367
0
LINE
8
BLACK
6
CONTINUOUS
10
19.9725
20
-169.918
11
19.9725
21
-168.857
0
LINE
8
BLACK
6
CONTINUOUS
10
19.9725
20
-168.857
11
18.9119
21
-168.857
0
LINE
8
BLACK
6
CONTINUOUS
10
18.9119
20
-168.857
11
18.9119
21
-169.918
0
LINE
8
BLACK
6
CONTINUOUS
10
18.9119
20
-169.918
11
19.9725
21
-169.918
0
LINE
8
BLACK
6
CONTINUOUS
10
23.816
20
-170.293
11
22.6732
21
-170.293
0
LINE
8
BLACK
6
CONTINUOUS
10
23.2446
20
-170.293
11
23.2446
21
-168.293
0
LINE
8
BLACK
6
CONTINUOUS
10
23.2446
20
-168.293
11
23.0541
21
-168.578
0
LINE
8
BLACK
6
CONTINUOUS
10
23.0541
20
-168.578
11
22.8636
21
-168.769
0
LINE
8
BLACK
6
CONTINUOUS
10
22.8636
20
-168.769
11
22.6732
21
-168.864
0
LINE
8
BLACK
6
CONTINUOUS
10
24.6732
20
-170.102
11
24.7684
21
-170.197
0
LINE
8
BLACK
6
CONTINUOUS
10
24.7684
20
-170.197
11
24.6732
21
-170.293
0
LINE
8
BLACK
6
CONTINUOUS
10
24.6732
20
-170.293
11
24.5779
21
-170.197
0
LINE
8
BLACK
6
CONTINUOUS
10
24.5779
20
-170.197
11
24.6732
21
-170.102
0
LINE
8
BLACK
6
CONTINUOUS
10
24.6732
20
-170.102
11
24.6732
21
-170.293
0
LINE
8
BLACK
6
CONTINUOUS
10
26.5779
20
-168.293
11
25.6255
21
-168.293
0
LINE
8
BLACK
6
CONTINUOUS
10
25.6255
20
-168.293
11
25.5303
21
-169.245
0
LINE
8
BLACK
6
CONTINUOUS
10
25.5303
20
-169.245
11
25.6255
21
-169.15
0
LINE
8
BLACK
6
CONTINUOUS
10
25.6255
20
-169.15
11
25.816
21
-169.054
0
LINE
8
BLACK
6
CONTINUOUS
10
25.816
20
-169.054
11
26.2922
21
-169.054
0
LINE
8
BLACK
6
CONTINUOUS
10
26.2922
20
-169.054
11
26.4827
21
-169.15
0
LINE
8
BLACK
6
CONTINUOUS
10
26.4827
20
-169.15
11
26.5779
21
-169.245
0
LINE
8
BLACK
6
CONTINUOUS
10
26.5779
20
-169.245
11
26.6732
21
-169.435
0
LINE
8
BLACK
6
CONTINUOUS
10
26.6732
20
-169.435
11
26.6732
21
-169.912
0
LINE
8
BLACK
6
CONTINUOUS
10
26.6732
20
-169.912
11
26.5779
21
-170.102
0
LINE
8
BLACK
6
CONTINUOUS
10
26.5779
20
-170.102
11
26.4827
21
-170.197
0
LINE
8
BLACK
6
CONTINUOUS
10
26.4827
20
-170.197
11
26.2922
21
-170.293
0
LINE
8
BLACK
6
CONTINUOUS
10
26.2922
20
-170.293
11
25.816
21
-170.293
0
LINE
8
BLACK
6
CONTINUOUS
10
25.816
20
-170.293
11
25.6255
21
-170.197
0
LINE
8
BLACK
6
CONTINUOUS
10
25.6255
20
-170.197
11
25.5303
21
-170.102
0
LINE
8
BLACK
6
CONTINUOUS
10
27.9113
20
-168.293
11
28.1017
21
-168.293
0
LINE
8
BLACK
6
CONTINUOUS
10
28.1017
20
-168.293
11
28.2922
21
-168.388
0
LINE
8
BLACK
6
CONTINUOUS
10
28.2922
20
-168.388
11
28.3874
21
-168.483
0
LINE
8
BLACK
6
CONTINUOUS
10
28.3874
20
-168.483
11
28.4827
21
-168.674
0
LINE
8
BLACK
6
CONTINUOUS
10
28.4827
20
-168.674
11
28.5779
21
-169.054
0
LINE
8
BLACK
6
CONTINUOUS
10
28.5779
20
-169.054
11
28.5779
21
-169.531
0
LINE
8
BLACK
6
CONTINUOUS
10
28.5779
20
-169.531
11
28.4827
21
-169.912
0
LINE
8
BLACK
6
CONTINUOUS
10
28.4827
20
-169.912
11
28.3874
21
-170.102
0
LINE
8
BLACK
6
CONTINUOUS
10
28.3874
20
-170.102
11
28.2922
21
-170.197
0
LINE
8
BLACK
6
CONTINUOUS
10
28.2922
20
-170.197
11
28.1017
21
-170.293
0
LINE
8
BLACK
6
CONTINUOUS
10
28.1017
20
-170.293
11
27.9113
21
-170.293
0
LINE
8
BLACK
6
CONTINUOUS
10
27.9113
20
-170.293
11
27.7208
21
-170.197
0
LINE
8
BLACK
6
CONTINUOUS
10
27.7208
20
-170.197
11
27.6255
21
-170.102
0
LINE
8
BLACK
6
CONTINUOUS
10
27.6255
20
-170.102
11
27.5303
21
-169.912
0
LINE
8
BLACK
6
CONTINUOUS
10
27.5303
20
-169.912
11
27.4351
21
-169.531
0
LINE
8
BLACK
6
CONTINUOUS
10
27.4351
20
-169.531
11
27.4351
21
-169.054
0
LINE
8
BLACK
6
CONTINUOUS
10
27.4351
20
-169.054
11
27.5303
21
-168.674
0
LINE
8
BLACK
6
CONTINUOUS
10
27.5303
20
-168.674
11
27.6255
21
-168.483
0
LINE
8
BLACK
6
CONTINUOUS
10
27.6255
20
-168.483
11
27.7208
21
-168.388
0
LINE
8
BLACK
6
CONTINUOUS
10
27.7208
20
-168.388
11
27.9113
21
-168.293
0
LINE
8
BLACK
6
CONTINUOUS
10
29.816
20
-168.293
11
30.0065
21
-168.293
0
LINE
8
BLACK
6
CONTINUOUS
10
30.0065
20
-168.293
11
30.197
21
-168.388
0
LINE
8
BLACK
6
CONTINUOUS
10
30.197
20
-168.388
11
30.2922
21
-168.483
0
LINE
8
BLACK
6
CONTINUOUS
10
30.2922
20
-168.483
11
30.3874
21
-168.674
0
LINE
8
BLACK
6
CONTINUOUS
10
30.3874
20
-168.674
11
30.4827
21
-169.054
0
LINE
8
BLACK
6
CONTINUOUS
10
30.4827
20
-169.054
11
30.4827
21
-169.531
0
LINE
8
BLACK
6
CONTINUOUS
10
30.4827
20
-169.531
11
30.3874
21
-169.912
0
LINE
8
BLACK
6
CONTINUOUS
10
30.3874
20
-169.912
11
30.2922
21
-170.102
0
LINE
8
BLACK
6
CONTINUOUS
10
30.2922
20
-170.102
11
30.197
21
-170.197
0
LINE
8
BLACK
6
CONTINUOUS
10
30.197
20
-170.197
11
30.0065
21
-170.293
0
LINE
8
BLACK
6
CONTINUOUS
10
30.0065
20
-170.293
11
29.816
21
-170.293
0
LINE
8
BLACK
6
CONTINUOUS
10
29.816
20
-170.293
11
29.6255
21
-170.197
0
LINE
8
BLACK
6
CONTINUOUS
10
29.6255
20
-170.197
11
29.5303
21
-170.102
0
LINE
8
BLACK
6
CONTINUOUS
10
29.5303
20
-170.102
11
29.4351
21
-169.912
0
LINE
8
BLACK
6
CONTINUOUS
10
29.4351
20
-169.912
11
29.3398
21
-169.531
0
LINE
8
BLACK
6
CONTINUOUS
10
29.3398
20
-169.531
11
29.3398
21
-169.054
0
LINE
8
BLACK
6
CONTINUOUS
10
29.3398
20
-169.054
11
29.4351
21
-168.674
0
LINE
8
BLACK
6
CONTINUOUS
10
29.4351
20
-168.674
11
29.5303
21
-168.483
0
LINE
8
BLACK
6
CONTINUOUS
10
29.5303
20
-168.483
11
29.6255
21
-168.388
0
LINE
8
BLACK
6
CONTINUOUS
10
29.6255
20
-168.388
11
29.816
21
-168.293
0
LINE
8
BLACK
6
CONTINUOUS
10
31.3398
20
-170.293
11
31.3398
21
-168.959
0
LINE
8
BLACK
6
CONTINUOUS
10
31.3398
20
-169.15
11
31.4351
21
-169.054
0
LINE
8
BLACK
6
CONTINUOUS
10
31.4351
20
-169.054
11
31.6255
21
-168.959
0
LINE
8
BLACK
6
CONTINUOUS
10
31.6255
20
-168.959
11
31.9113
21
-168.959
0
LINE
8
BLACK
6
CONTINUOUS
10
31.9113
20
-168.959
11
32.1017
21
-169.054
0
LINE
8
BLACK
6
CONTINUOUS
10
32.1017
20
-169.054
11
32.197
21
-169.245
0
LINE
8
BLACK
6
CONTINUOUS
10
32.197
20
-169.245
11
32.197
21
-170.293
0
LINE
8
BLACK
6
CONTINUOUS
10
32.197
20
-169.245
11
32.2922
21
-169.054
0
LINE
8
BLACK
6
CONTINUOUS
10
32.2922
20
-169.054
11
32.4827
21
-168.959
0
LINE
8
BLACK
6
CONTINUOUS
10
32.4827
20
-168.959
11
32.7684
21
-168.959
0
LINE
8
BLACK
6
CONTINUOUS
10
32.7684
20
-168.959
11
32.9589
21
-169.054
0
LINE
8
BLACK
6
CONTINUOUS
10
32.9589
20
-169.054
11
33.0541
21
-169.245
0
LINE
8
BLACK
6
CONTINUOUS
10
33.0541
20
-169.245
11
33.0541
21
-170.293
0
LINE
8
BLACK
6
CONTINUOUS
10
34.0065
20
-170.293
11
34.0065
21
-168.959
0
LINE
8
BLACK
6
CONTINUOUS
10
34.0065
20
-169.15
11
34.1017
21
-169.054
0
LINE
8
BLACK
6
CONTINUOUS
10
34.1017
20
-169.054
11
34.2922
21
-168.959
0
LINE
8
BLACK
6
CONTINUOUS
10
34.2922
20
-168.959
11
34.5779
21
-168.959
0
LINE
8
BLACK
6
CONTINUOUS
10
34.5779
20
-168.959
11
34.7684
21
-169.054
0
LINE
8
BLACK
6
CONTINUOUS
10
34.7684
20
-169.054
11
34.8636
21
-169.245
0
LINE
8
BLACK
6
CONTINUOUS
10
34.8636
20
-169.245
11
34.8636
21
-170.293
0
LINE
8
BLACK
6
CONTINUOUS
10
34.8636
20
-169.245
11
34.9589
21
-169.054
0
LINE
8
BLACK
6
CONTINUOUS
10
34.9589
20
-169.054
11
35.1494
21
-168.959
0
LINE
8
BLACK
6
CONTINUOUS
10
35.1494
20
-168.959
11
35.4351
21
-168.959
0
LINE
8
BLACK
6
CONTINUOUS
10
35.4351
20
-168.959
11
35.6255
21
-169.054
0
LINE
8
BLACK
6
CONTINUOUS
10
35.6255
20
-169.054
11
35.7208
21
-169.245
0
LINE
8
BLACK
6
CONTINUOUS
10
35.7208
20
-169.245
11
35.7208
21
-170.293
0
LINE
8
BLACK
6
CONTINUOUS
10
39.6255
20
-168.197
11
37.9113
21
-170.769
0
LINE
8
BLACK
6
CONTINUOUS
10
42.197
20
-168.293
11
42.3874
21
-168.293
0
LINE
8
BLACK
6
CONTINUOUS
10
42.3874
20
-168.293
11
42.5779
21
-168.388
0
LINE
8
BLACK
6
CONTINUOUS
10
42.5779
20
-168.388
11
42.6732
21
-168.483
0
LINE
8
BLACK
6
CONTINUOUS
10
42.6732
20
-168.483
11
42.7684
21
-168.674
0
LINE
8
BLACK
6
CONTINUOUS
10
42.7684
20
-168.674
11
42.8636
21
-169.054
0
LINE
8
BLACK
6
CONTINUOUS
10
42.8636
20
-169.054
11
42.8636
21
-169.531
0
LINE
8
BLACK
6
CONTINUOUS
10
42.8636
20
-169.531
11
42.7684
21
-169.912
0
LINE
8
BLACK
6
CONTINUOUS
10
42.7684
20
-169.912
11
42.6732
21
-170.102
0
LINE
8
BLACK
6
CONTINUOUS
10
42.6732
20
-170.102
11
42.5779
21
-170.197
0
LINE
8
BLACK
6
CONTINUOUS
10
42.5779
20
-170.197
11
42.3874
21
-170.293
0
LINE
8
BLACK
6
CONTINUOUS
10
42.3874
20
-170.293
11
42.197
21
-170.293
0
LINE
8
BLACK
6
CONTINUOUS
10
42.197
20
-170.293
11
42.0065
21
-170.197
0
LINE
8
BLACK
6
CONTINUOUS
10
42.0065
20
-170.197
11
41.9113
21
-170.102
0
LINE
8
BLACK
6
CONTINUOUS
10
41.9113
20
-170.102
11
41.816
21
-169.912
0
LINE
8
BLACK
6
CONTINUOUS
10
41.816
20
-169.912
11
41.7208
21
-169.531
0
LINE
8
BLACK
6
CONTINUOUS
10
41.7208
20
-169.531
11
41.7208
21
-169.054
0
LINE
8
BLACK
6
CONTINUOUS
10
41.7208
20
-169.054
11
41.816
21
-168.674
0
LINE
8
BLACK
6
CONTINUOUS
10
41.816
20
-168.674
11
41.9113
21
-168.483
0
LINE
8
BLACK
6
CONTINUOUS
10
41.9113
20
-168.483
11
42.0065
21
-168.388
0
LINE
8
BLACK
6
CONTINUOUS
10
42.0065
20
-168.388
11
42.197
21
-168.293
0
LINE
8
BLACK
6
CONTINUOUS
10
43.7208
20
-170.102
11
43.816
21
-170.197
0
LINE
8
BLACK
6
CONTINUOUS
10
43.816
20
-170.197
11
43.7208
21
-170.293
0
LINE
8
BLACK
6
CONTINUOUS
10
43.7208
20
-170.293
11
43.6255
21
-170.197
0
LINE
8
BLACK
6
CONTINUOUS
10
43.6255
20
-170.197
11
43.7208
21
-170.102
0
LINE
8
BLACK
6
CONTINUOUS
10
43.7208
20
-170.102
11
43.7208
21
-170.293
0
LINE
8
BLACK
6
CONTINUOUS
10
45.0541
20
-168.293
11
45.2446
21
-168.293
0
LINE
8
BLACK
6
CONTINUOUS
10
45.2446
20
-168.293
11
45.4351
21
-168.388
0
LINE
8
BLACK
6
CONTINUOUS
10
45.4351
20
-168.388
11
45.5303
21
-168.483
0
LINE
8
BLACK
6
CONTINUOUS
10
45.5303
20
-168.483
11
45.6255
21
-168.674
0
LINE
8
BLACK
6
CONTINUOUS
10
45.6255
20
-168.674
11
45.7208
21
-169.054
0
LINE
8
BLACK
6
CONTINUOUS
10
45.7208
20
-169.054
11
45.7208
21
-169.531
0
LINE
8
BLACK
6
CONTINUOUS
10
45.7208
20
-169.531
11
45.6255
21
-169.912
0
LINE
8
BLACK
6
CONTINUOUS
10
45.6255
20
-169.912
11
45.5303
21
-170.102
0
LINE
8
BLACK
6
CONTINUOUS
10
45.5303
20
-170.102
11
45.4351
21
-170.197
0
LINE
8
BLACK
6
CONTINUOUS
10
45.4351
20
-170.197
11
45.2446
21
-170.293
0
LINE
8
BLACK
6
CONTINUOUS
10
45.2446
20
-170.293
11
45.0541
21
-170.293
0
LINE
8
BLACK
6
CONTINUOUS
10
45.0541
20
-170.293
11
44.8636
21
-170.197
0
LINE
8
BLACK
6
CONTINUOUS
10
44.8636
20
-170.197
11
44.7684
21
-170.102
0
LINE
8
BLACK
6
CONTINUOUS
10
44.7684
20
-170.102
11
44.6732
21
-169.912
0
LINE
8
BLACK
6
CONTINUOUS
10
44.6732
20
-169.912
11
44.5779
21
-169.531
0
LINE
8
BLACK
6
CONTINUOUS
10
44.5779
20
-169.531
11
44.5779
21
-169.054
0
LINE
8
BLACK
6
CONTINUOUS
10
44.5779
20
-169.054
11
44.6732
21
-168.674
0
LINE
8
BLACK
6
CONTINUOUS
10
44.6732
20
-168.674
11
44.7684
21
-168.483
0
LINE
8
BLACK
6
CONTINUOUS
10
44.7684
20
-168.483
11
44.8636
21
-168.388
0
LINE
8
BLACK
6
CONTINUOUS
10
44.8636
20
-168.388
11
45.0541
21
-168.293
0
LINE
8
BLACK
6
CONTINUOUS
10
47.5303
20
-168.293
11
46.5779
21
-168.293
0
LINE
8
BLACK
6
CONTINUOUS
10
46.5779
20
-168.293
11
46.4827
21
-169.245
0
LINE
8
BLACK
6
CONTINUOUS
10
46.4827
20
-169.245
11
46.5779
21
-169.15
0
LINE
8
BLACK
6
CONTINUOUS
10
46.5779
20
-169.15
11
46.7684
21
-169.054
0
LINE
8
BLACK
6
CONTINUOUS
10
46.7684
20
-169.054
11
47.2446
21
-169.054
0
LINE
8
BLACK
6
CONTINUOUS
10
47.2446
20
-169.054
11
47.4351
21
-169.15
0
LINE
8
BLACK
6
CONTINUOUS
10
47.4351
20
-169.15
11
47.5303
21
-169.245
0
LINE
8
BLACK
6
CONTINUOUS
10
47.5303
20
-169.245
11
47.6255
21
-169.435
0
LINE
8
BLACK
6
CONTINUOUS
10
47.6255
20
-169.435
11
47.6255
21
-169.912
0
LINE
8
BLACK
6
CONTINUOUS
10
47.6255
20
-169.912
11
47.5303
21
-170.102
0
LINE
8
BLACK
6
CONTINUOUS
10
47.5303
20
-170.102
11
47.4351
21
-170.197
0
LINE
8
BLACK
6
CONTINUOUS
10
47.4351
20
-170.197
11
47.2446
21
-170.293
0
LINE
8
BLACK
6
CONTINUOUS
10
47.2446
20
-170.293
11
46.7684
21
-170.293
0
LINE
8
BLACK
6
CONTINUOUS
10
46.7684
20
-170.293
11
46.5779
21
-170.197
0
LINE
8
BLACK
6
CONTINUOUS
10
46.5779
20
-170.197
11
46.4827
21
-170.102
0
LINE
8
BLACK
6
CONTINUOUS
10
48.5779
20
-170.293
11
48.9589
21
-170.293
0
LINE
8
BLACK
6
CONTINUOUS
10
48.9589
20
-170.293
11
49.1494
21
-170.197
0
LINE
8
BLACK
6
CONTINUOUS
10
49.1494
20
-170.197
11
49.2446
21
-170.102
0
LINE
8
BLACK
6
CONTINUOUS
10
49.2446
20
-170.102
11
49.4351
21
-169.816
0
LINE
8
BLACK
6
CONTINUOUS
10
49.4351
20
-169.816
11
49.5303
21
-169.435
0
LINE
8
BLACK
6
CONTINUOUS
10
49.5303
20
-169.435
11
49.5303
21
-168.674
0
LINE
8
BLACK
6
CONTINUOUS
10
49.5303
20
-168.674
11
49.4351
21
-168.483
0
LINE
8
BLACK
6
CONTINUOUS
10
49.4351
20
-168.483
11
49.3398
21
-168.388
0
LINE
8
BLACK
6
CONTINUOUS
10
49.3398
20
-168.388
11
49.1494
21
-168.293
0
LINE
8
BLACK
6
CONTINUOUS
10
49.1494
20
-168.293
11
48.7684
21
-168.293
0
LINE
8
BLACK
6
CONTINUOUS
10
48.7684
20
-168.293
11
48.5779
21
-168.388
0
LINE
8
BLACK
6
CONTINUOUS
10
48.5779
20
-168.388
11
48.4827
21
-168.483
0
LINE
8
BLACK
6
CONTINUOUS
10
48.4827
20
-168.483
11
48.3874
21
-168.674
0
LINE
8
BLACK
6
CONTINUOUS
10
48.3874
20
-168.674
11
48.3874
21
-169.15
0
LINE
8
BLACK
6
CONTINUOUS
10
48.3874
20
-169.15
11
48.4827
21
-169.34
0
LINE
8
BLACK
6
CONTINUOUS
10
48.4827
20
-169.34
11
48.5779
21
-169.435
0
LINE
8
BLACK
6
CONTINUOUS
10
48.5779
20
-169.435
11
48.7684
21
-169.531
0
LINE
8
BLACK
6
CONTINUOUS
10
48.7684
20
-169.531
11
49.1494
21
-169.531
0
LINE
8
BLACK
6
CONTINUOUS
10
49.1494
20
-169.531
11
49.3398
21
-169.435
0
LINE
8
BLACK
6
CONTINUOUS
10
49.3398
20
-169.435
11
49.4351
21
-169.34
0
LINE
8
BLACK
6
CONTINUOUS
10
49.4351
20
-169.34
11
49.5303
21
-169.15
0
LINE
8
BLACK
6
CONTINUOUS
10
51.4351
20
-170.293
11
50.2922
21
-170.293
0
LINE
8
BLACK
6
CONTINUOUS
10
50.8636
20
-170.293
11
50.8636
21
-168.293
0
LINE
8
BLACK
6
CONTINUOUS
10
50.8636
20
-168.293
11
50.6732
21
-168.578
0
LINE
8
BLACK
6
CONTINUOUS
10
50.6732
20
-168.578
11
50.4827
21
-168.769
0
LINE
8
BLACK
6
CONTINUOUS
10
50.4827
20
-168.769
11
50.2922
21
-168.864
0
LINE
8
BLACK
6
CONTINUOUS
10
52.197
20
-168.293
11
52.197
21
-168.674
0
LINE
8
BLACK
6
CONTINUOUS
10
52.9589
20
-168.293
11
52.9589
21
-168.674
0
LINE
8
BLACK
6
CONTINUOUS
10
55.9113
20
-171.054
11
55.816
21
-170.959
0
LINE
8
BLACK
6
CONTINUOUS
10
55.816
20
-170.959
11
55.6255
21
-170.674
0
LINE
8
BLACK
6
CONTINUOUS
10
55.6255
20
-170.674
11
55.5303
21
-170.483
0
LINE
8
BLACK
6
CONTINUOUS
10
55.5303
20
-170.483
11
55.4351
21
-170.197
0
LINE
8
BLACK
6
CONTINUOUS
10
55.4351
20
-170.197
11
55.3398
21
-169.721
0
LINE
8
BLACK
6
CONTINUOUS
10
55.3398
20
-169.721
11
55.3398
21
-169.34
0
LINE
8
BLACK
6
CONTINUOUS
10
55.3398
20
-169.34
11
55.4351
21
-168.864
0
LINE
8
BLACK
6
CONTINUOUS
10
55.4351
20
-168.864
11
55.5303
21
-168.578
0
LINE
8
BLACK
6
CONTINUOUS
10
55.5303
20
-168.578
11
55.6255
21
-168.388
0
LINE
8
BLACK
6
CONTINUOUS
10
55.6255
20
-168.388
11
55.816
21
-168.102
0
LINE
8
BLACK
6
CONTINUOUS
10
55.816
20
-168.102
11
55.9113
21
-168.007
0
LINE
8
BLACK
6
CONTINUOUS
10
57.0541
20
-168.293
11
57.2446
21
-168.293
0
LINE
8
BLACK
6
CONTINUOUS
10
57.2446
20
-168.293
11
57.4351
21
-168.388
0
LINE
8
BLACK
6
CONTINUOUS
10
57.4351
20
-168.388
11
57.5303
21
-168.483
0
LINE
8
BLACK
6
CONTINUOUS
10
57.5303
20
-168.483
11
57.6255
21
-168.674
0
LINE
8
BLACK
6
CONTINUOUS
10
57.6255
20
-168.674
11
57.7208
21
-169.054
0
LINE
8
BLACK
6
CONTINUOUS
10
57.7208
20
-169.054
11
57.7208
21
-169.531
0
LINE
8
BLACK
6
CONTINUOUS
10
57.7208
20
-169.531
11
57.6255
21
-169.912
0
LINE
8
BLACK
6
CONTINUOUS
10
57.6255
20
-169.912
11
57.5303
21
-170.102
0
LINE
8
BLACK
6
CONTINUOUS
10
57.5303
20
-170.102
11
57.4351
21
-170.197
0
LINE
8
BLACK
6
CONTINUOUS
10
57.4351
20
-170.197
11
57.2446
21
-170.293
0
LINE
8
BLACK
6
CONTINUOUS
10
57.2446
20
-170.293
11
57.0541
21
-170.293
0
LINE
8
BLACK
6
CONTINUOUS
10
57.0541
20
-170.293
11
56.8636
21
-170.197
0
LINE
8
BLACK
6
CONTINUOUS
10
56.8636
20
-170.197
11
56.7684
21
-170.102
0
LINE
8
BLACK
6
CONTINUOUS
10
56.7684
20
-170.102
11
56.6732
21
-169.912
0
LINE
8
BLACK
6
CONTINUOUS
10
56.6732
20
-169.912
11
56.5779
21
-169.531
0
LINE
8
BLACK
6
CONTINUOUS
10
56.5779
20
-169.531
11
56.5779
21
-169.054
0
LINE
8
BLACK
6
CONTINUOUS
10
56.5779
20
-169.054
11
56.6732
21
-168.674
0
LINE
8
BLACK
6
CONTINUOUS
10
56.6732
20
-168.674
11
56.7684
21
-168.483
0
LINE
8
BLACK
6
CONTINUOUS
10
56.7684
20
-168.483
11
56.8636
21
-168.388
0
LINE
8
BLACK
6
CONTINUOUS
10
56.8636
20
-168.388
11
57.0541
21
-168.293
0
LINE
8
BLACK
6
CONTINUOUS
10
60.1017
20
-170.293
11
60.1017
21
-168.293
0
LINE
8
BLACK
6
CONTINUOUS
10
60.9589
20
-170.293
11
60.9589
21
-169.245
0
LINE
8
BLACK
6
CONTINUOUS
10
60.9589
20
-169.245
11
60.8636
21
-169.054
0
LINE
8
BLACK
6
CONTINUOUS
10
60.8636
20
-169.054
11
60.6732
21
-168.959
0
LINE
8
BLACK
6
CONTINUOUS
10
60.6732
20
-168.959
11
60.3874
21
-168.959
0
LINE
8
BLACK
6
CONTINUOUS
10
60.3874
20
-168.959
11
60.197
21
-169.054
0
LINE
8
BLACK
6
CONTINUOUS
10
60.197
20
-169.054
11
60.1017
21
-169.15
0
LINE
8
BLACK
6
CONTINUOUS
10
62.197
20
-170.293
11
62.0065
21
-170.197
0
LINE
8
BLACK
6
CONTINUOUS
10
62.0065
20
-170.197
11
61.9113
21
-170.102
0
LINE
8
BLACK
6
CONTINUOUS
10
61.9113
20
-170.102
11
61.816
21
-169.912
0
LINE
8
BLACK
6
CONTINUOUS
10
61.816
20
-169.912
11
61.816
21
-169.34
0
LINE
8
BLACK
6
CONTINUOUS
10
61.816
20
-169.34
11
61.9113
21
-169.15
0
LINE
8
BLACK
6
CONTINUOUS
10
61.9113
20
-169.15
11
62.0065
21
-169.054
0
LINE
8
BLACK
6
CONTINUOUS
10
62.0065
20
-169.054
11
62.197
21
-168.959
0
LINE
8
BLACK
6
CONTINUOUS
10
62.197
20
-168.959
11
62.4827
21
-168.959
0
LINE
8
BLACK
6
CONTINUOUS
10
62.4827
20
-168.959
11
62.6732
21
-169.054
0
LINE
8
BLACK
6
CONTINUOUS
10
62.6732
20
-169.054
11
62.7684
21
-169.15
0
LINE
8
BLACK
6
CONTINUOUS
10
62.7684
20
-169.15
11
62.8636
21
-169.34
0
LINE
8
BLACK
6
CONTINUOUS
10
62.8636
20
-169.34
11
62.8636
21
-169.912
0
LINE
8
BLACK
6
CONTINUOUS
10
62.8636
20
-169.912
11
62.7684
21
-170.102
0
LINE
8
BLACK
6
CONTINUOUS
10
62.7684
20
-170.102
11
62.6732
21
-170.197
0
LINE
8
BLACK
6
CONTINUOUS
10
62.6732
20
-170.197
11
62.4827
21
-170.293
0
LINE
8
BLACK
6
CONTINUOUS
10
62.4827
20
-170.293
11
62.197
21
-170.293
0
LINE
8
BLACK
6
CONTINUOUS
10
64.0065
20
-170.293
11
63.816
21
-170.197
0
LINE
8
BLACK
6
CONTINUOUS
10
63.816
20
-170.197
11
63.7208
21
-170.007
0
LINE
8
BLACK
6
CONTINUOUS
10
63.7208
20
-170.007
11
63.7208
21
-168.293
0
LINE
8
BLACK
6
CONTINUOUS
10
65.5303
20
-170.197
11
65.3398
21
-170.293
0
LINE
8
BLACK
6
CONTINUOUS
10
65.3398
20
-170.293
11
64.9589
21
-170.293
0
LINE
8
BLACK
6
CONTINUOUS
10
64.9589
20
-170.293
11
64.7684
21
-170.197
0
LINE
8
BLACK
6
CONTINUOUS
10
64.7684
20
-170.197
11
64.6732
21
-170.007
0
LINE
8
BLACK
6
CONTINUOUS
10
64.6732
20
-170.007
11
64.6732
21
-169.245
0
LINE
8
BLACK
6
CONTINUOUS
10
64.6732
20
-169.245
11
64.7684
21
-169.054
0
LINE
8
BLACK
6
CONTINUOUS
10
64.7684
20
-169.054
11
64.9589
21
-168.959
0
LINE
8
BLACK
6
CONTINUOUS
10
64.9589
20
-168.959
11
65.3398
21
-168.959
0
LINE
8
BLACK
6
CONTINUOUS
10
65.3398
20
-168.959
11
65.5303
21
-169.054
0
LINE
8
BLACK
6
CONTINUOUS
10
65.5303
20
-169.054
11
65.6255
21
-169.245
0
LINE
8
BLACK
6
CONTINUOUS
10
65.6255
20
-169.245
11
65.6255
21
-169.435
0
LINE
8
BLACK
6
CONTINUOUS
10
65.6255
20
-169.435
11
64.6732
21
-169.626
0
LINE
8
BLACK
6
CONTINUOUS
10
66.3874
20
-170.197
11
66.5779
21
-170.293
0
LINE
8
BLACK
6
CONTINUOUS
10
66.5779
20
-170.293
11
66.9589
21
-170.293
0
LINE
8
BLACK
6
CONTINUOUS
10
66.9589
20
-170.293
11
67.1494
21
-170.197
0
LINE
8
BLACK
6
CONTINUOUS
10
67.1494
20
-170.197
11
67.2446
21
-170.007
0
LINE
8
BLACK
6
CONTINUOUS
10
67.2446
20
-170.007
11
67.2446
21
-169.912
0
LINE
8
BLACK
6
CONTINUOUS
10
67.2446
20
-169.912
11
67.1494
21
-169.721
0
LINE
8
BLACK
6
CONTINUOUS
10
67.1494
20
-169.721
11
66.9589
21
-169.626
0
LINE
8
BLACK
6
CONTINUOUS
10
66.9589
20
-169.626
11
66.6732
21
-169.626
0
LINE
8
BLACK
6
CONTINUOUS
10
66.6732
20
-169.626
11
66.4827
21
-169.531
0
LINE
8
BLACK
6
CONTINUOUS
10
66.4827
20
-169.531
11
66.3874
21
-169.34
0
LINE
8
BLACK
6
CONTINUOUS
10
66.3874
20
-169.34
11
66.3874
21
-169.245
0
LINE
8
BLACK
6
CONTINUOUS
10
66.3874
20
-169.245
11
66.4827
21
-169.054
0
LINE
8
BLACK
6
CONTINUOUS
10
66.4827
20
-169.054
11
66.6732
21
-168.959
0
LINE
8
BLACK
6
CONTINUOUS
10
66.6732
20
-168.959
11
66.9589
21
-168.959
0
LINE
8
BLACK
6
CONTINUOUS
10
66.9589
20
-168.959
11
67.1494
21
-169.054
0
LINE
8
BLACK
6
CONTINUOUS
10
69.6255
20
-169.531
11
71.1494
21
-169.531
0
LINE
8
BLACK
6
CONTINUOUS
10
70.3874
20
-170.293
11
70.3874
21
-168.769
0
LINE
8
BLACK
6
CONTINUOUS
10
74.4827
20
-168.293
11
74.1017
21
-168.293
0
LINE
8
BLACK
6
CONTINUOUS
10
74.1017
20
-168.293
11
73.9113
21
-168.388
0
LINE
8
BLACK
6
CONTINUOUS
10
73.9113
20
-168.388
11
73.816
21
-168.483
0
LINE
8
BLACK
6
CONTINUOUS
10
73.816
20
-168.483
11
73.6255
21
-168.769
0
LINE
8
BLACK
6
CONTINUOUS
10
73.6255
20
-168.769
11
73.5303
21
-169.15
0
LINE
8
BLACK
6
CONTINUOUS
10
73.5303
20
-169.15
11
73.5303
21
-169.912
0
LINE
8
BLACK
6
CONTINUOUS
10
73.5303
20
-169.912
11
73.6255
21
-170.102
0
LINE
8
BLACK
6
CONTINUOUS
10
73.6255
20
-170.102
11
73.7208
21
-170.197
0
LINE
8
BLACK
6
CONTINUOUS
10
73.7208
20
-170.197
11
73.9113
21
-170.293
0
LINE
8
BLACK
6
CONTINUOUS
10
73.9113
20
-170.293
11
74.2922
21
-170.293
0
LINE
8
BLACK
6
CONTINUOUS
10
74.2922
20
-170.293
11
74.4827
21
-170.197
0
LINE
8
BLACK
6
CONTINUOUS
10
74.4827
20
-170.197
11
74.5779
21
-170.102
0
LINE
8
BLACK
6
CONTINUOUS
10
74.5779
20
-170.102
11
74.6732
21
-169.912
0
LINE
8
BLACK
6
CONTINUOUS
10
74.6732
20
-169.912
11
74.6732
21
-169.435
0
LINE
8
BLACK
6
CONTINUOUS
10
74.6732
20
-169.435
11
74.5779
21
-169.245
0
LINE
8
BLACK
6
CONTINUOUS
10
74.5779
20
-169.245
11
74.4827
21
-169.15
0
LINE
8
BLACK
6
CONTINUOUS
10
74.4827
20
-169.15
11
74.2922
21
-169.054
0
LINE
8
BLACK
6
CONTINUOUS
10
74.2922
20
-169.054
11
73.9113
21
-169.054
0
LINE
8
BLACK
6
CONTINUOUS
10
73.9113
20
-169.054
11
73.7208
21
-169.15
0
LINE
8
BLACK
6
CONTINUOUS
10
73.7208
20
-169.15
11
73.6255
21
-169.245
0
LINE
8
BLACK
6
CONTINUOUS
10
73.6255
20
-169.245
11
73.5303
21
-169.435
0
LINE
8
BLACK
6
CONTINUOUS
10
76.9589
20
-170.197
11
77.1494
21
-170.293
0
LINE
8
BLACK
6
CONTINUOUS
10
77.1494
20
-170.293
11
77.5303
21
-170.293
0
LINE
8
BLACK
6
CONTINUOUS
10
77.5303
20
-170.293
11
77.7208
21
-170.197
0
LINE
8
BLACK
6
CONTINUOUS
10
77.7208
20
-170.197
11
77.816
21
-170.007
0
LINE
8
BLACK
6
CONTINUOUS
10
77.816
20
-170.007
11
77.816
21
-169.912
0
LINE
8
BLACK
6
CONTINUOUS
10
77.816
20
-169.912
11
77.7208
21
-169.721
0
LINE
8
BLACK
6
CONTINUOUS
10
77.7208
20
-169.721
11
77.5303
21
-169.626
0
LINE
8
BLACK
6
CONTINUOUS
10
77.5303
20
-169.626
11
77.2446
21
-169.626
0
LINE
8
BLACK
6
CONTINUOUS
10
77.2446
20
-169.626
11
77.0541
21
-169.531
0
LINE
8
BLACK
6
CONTINUOUS
10
77.0541
20
-169.531
11
76.9589
21
-169.34
0
LINE
8
BLACK
6
CONTINUOUS
10
76.9589
20
-169.34
11
76.9589
21
-169.245
0
LINE
8
BLACK
6
CONTINUOUS
10
76.9589
20
-169.245
11
77.0541
21
-169.054
0
LINE
8
BLACK
6
CONTINUOUS
10
77.0541
20
-169.054
11
77.2446
21
-168.959
0
LINE
8
BLACK
6
CONTINUOUS
10
77.2446
20
-168.959
11
77.5303
21
-168.959
0
LINE
8
BLACK
6
CONTINUOUS
10
77.5303
20
-168.959
11
77.7208
21
-169.054
0
LINE
8
BLACK
6
CONTINUOUS
10
78.9589
20
-170.293
11
78.7684
21
-170.197
0
LINE
8
BLACK
6
CONTINUOUS
10
78.7684
20
-170.197
11
78.6732
21
-170.007
0
LINE
8
BLACK
6
CONTINUOUS
10
78.6732
20
-170.007
11
78.6732
21
-168.293
0
LINE
8
BLACK
6
CONTINUOUS
10
80.0065
20
-170.293
11
79.816
21
-170.197
0
LINE
8
BLACK
6
CONTINUOUS
10
79.816
20
-170.197
11
79.7208
21
-170.102
0
LINE
8
BLACK
6
CONTINUOUS
10
79.7208
20
-170.102
11
79.6255
21
-169.912
0
LINE
8
BLACK
6
CONTINUOUS
10
79.6255
20
-169.912
11
79.6255
21
-169.34
0
LINE
8
BLACK
6
CONTINUOUS
10
79.6255
20
-169.34
11
79.7208
21
-169.15
0
LINE
8
BLACK
6
CONTINUOUS
10
79.7208
20
-169.15
11
79.816
21
-169.054
0
LINE
8
BLACK
6
CONTINUOUS
10
79.816
20
-169.054
11
80.0065
21
-168.959
0
LINE
8
BLACK
6
CONTINUOUS
10
80.0065
20
-168.959
11
80.2922
21
-168.959
0
LINE
8
BLACK
6
CONTINUOUS
10
80.2922
20
-168.959
11
80.4827
21
-169.054
0
LINE
8
BLACK
6
CONTINUOUS
10
80.4827
20
-169.054
11
80.5779
21
-169.15
0
LINE
8
BLACK
6
CONTINUOUS
10
80.5779
20
-169.15
11
80.6732
21
-169.34
0
LINE
8
BLACK
6
CONTINUOUS
10
80.6732
20
-169.34
11
80.6732
21
-169.912
0
LINE
8
BLACK
6
CONTINUOUS
10
80.6732
20
-169.912
11
80.5779
21
-170.102
0
LINE
8
BLACK
6
CONTINUOUS
10
80.5779
20
-170.102
11
80.4827
21
-170.197
0
LINE
8
BLACK
6
CONTINUOUS
10
80.4827
20
-170.197
11
80.2922
21
-170.293
0
LINE
8
BLACK
6
CONTINUOUS
10
80.2922
20
-170.293
11
80.0065
21
-170.293
0
LINE
8
BLACK
6
CONTINUOUS
10
81.2446
20
-168.959
11
82.0065
21
-168.959
0
LINE
8
BLACK
6
CONTINUOUS
10
81.5303
20
-168.293
11
81.5303
21
-170.007
0
LINE
8
BLACK
6
CONTINUOUS
10
81.5303
20
-170.007
11
81.6255
21
-170.197
0
LINE
8
BLACK
6
CONTINUOUS
10
81.6255
20
-170.197
11
81.816
21
-170.293
0
LINE
8
BLACK
6
CONTINUOUS
10
81.816
20
-170.293
11
82.0065
21
-170.293
0
LINE
8
BLACK
6
CONTINUOUS
10
82.5779
20
-170.197
11
82.7684
21
-170.293
0
LINE
8
BLACK
6
CONTINUOUS
10
82.7684
20
-170.293
11
83.1494
21
-170.293
0
LINE
8
BLACK
6
CONTINUOUS
10
83.1494
20
-170.293
11
83.3398
21
-170.197
0
LINE
8
BLACK
6
CONTINUOUS
10
83.3398
20
-170.197
11
83.4351
21
-170.007
0
LINE
8
BLACK
6
CONTINUOUS
10
83.4351
20
-170.007
11
83.4351
21
-169.912
0
LINE
8
BLACK
6
CONTINUOUS
10
83.4351
20
-169.912
11
83.3398
21
-169.721
0
LINE
8
BLACK
6
CONTINUOUS
10
83.3398
20
-169.721
11
83.1494
21
-169.626
0
LINE
8
BLACK
6
CONTINUOUS
10
83.1494
20
-169.626
11
82.8636
21
-169.626
0
LINE
8
BLACK
6
CONTINUOUS
10
82.8636
20
-169.626
11
82.6732
21
-169.531
0
LINE
8
BLACK
6
CONTINUOUS
10
82.6732
20
-169.531
11
82.5779
21
-169.34
0
LINE
8
BLACK
6
CONTINUOUS
10
82.5779
20
-169.34
11
82.5779
21
-169.245
0
LINE
8
BLACK
6
CONTINUOUS
10
82.5779
20
-169.245
11
82.6732
21
-169.054
0
LINE
8
BLACK
6
CONTINUOUS
10
82.6732
20
-169.054
11
82.8636
21
-168.959
0
LINE
8
BLACK
6
CONTINUOUS
10
82.8636
20
-168.959
11
83.1494
21
-168.959
0
LINE
8
BLACK
6
CONTINUOUS
10
83.1494
20
-168.959
11
83.3398
21
-169.054
0
LINE
8
BLACK
6
CONTINUOUS
10
84.1017
20
-171.054
11
84.197
21
-170.959
0
LINE
8
BLACK
6
CONTINUOUS
10
84.197
20
-170.959
11
84.3874
21
-170.674
0
LINE
8
BLACK
6
CONTINUOUS
10
84.3874
20
-170.674
11
84.4827
21
-170.483
0
LINE
8
BLACK
6
CONTINUOUS
10
84.4827
20
-170.483
11
84.5779
21
-170.197
0
LINE
8
BLACK
6
CONTINUOUS
10
84.5779
20
-170.197
11
84.6732
21
-169.721
0
LINE
8
BLACK
6
CONTINUOUS
10
84.6732
20
-169.721
11
84.6732
21
-169.34
0
LINE
8
BLACK
6
CONTINUOUS
10
84.6732
20
-169.34
11
84.5779
21
-168.864
0
LINE
8
BLACK
6
CONTINUOUS
10
84.5779
20
-168.864
11
84.4827
21
-168.578
0
LINE
8
BLACK
6
CONTINUOUS
10
84.4827
20
-168.578
11
84.3874
21
-168.388
0
LINE
8
BLACK
6
CONTINUOUS
10
84.3874
20
-168.388
11
84.197
21
-168.102
0
LINE
8
BLACK
6
CONTINUOUS
10
84.197
20
-168.102
11
84.1017
21
-168.007
0
LINE
8
BLACK
6
CONTINUOUS
10
19.1922
20
-173.088
11
20.1922
21
-172.088
0
LINE
8
BLACK
6
CONTINUOUS
10
20.1922
20
-172.088
11
19.1922
21
-171.088
0
LINE
8
BLACK
6
CONTINUOUS
10
19.1922
20
-171.088
11
18.1922
21
-172.088
0
LINE
8
BLACK
6
CONTINUOUS
10
18.1922
20
-172.088
11
19.1922
21
-173.088
0
LINE
8
BLACK
6
CONTINUOUS
10
22.6732
20
-171.183
11
22.7684
21
-171.088
0
LINE
8
BLACK
6
CONTINUOUS
10
22.7684
20
-171.088
11
22.9589
21
-170.993
0
LINE
8
BLACK
6
CONTINUOUS
10
22.9589
20
-170.993
11
23.4351
21
-170.993
0
LINE
8
BLACK
6
CONTINUOUS
10
23.4351
20
-170.993
11
23.6255
21
-171.088
0
LINE
8
BLACK
6
CONTINUOUS
10
23.6255
20
-171.088
11
23.7208
21
-171.183
0
LINE
8
BLACK
6
CONTINUOUS
10
23.7208
20
-171.183
11
23.816
21
-171.374
0
LINE
8
BLACK
6
CONTINUOUS
10
23.816
20
-171.374
11
23.816
21
-171.564
0
LINE
8
BLACK
6
CONTINUOUS
10
23.816
20
-171.564
11
23.7208
21
-171.85
0
LINE
8
BLACK
6
CONTINUOUS
10
23.7208
20
-171.85
11
22.5779
21
-172.993
0
LINE
8
BLACK
6
CONTINUOUS
10
22.5779
20
-172.993
11
23.816
21
-172.993
0
LINE
8
BLACK
6
CONTINUOUS
10
24.6732
20
-172.802
11
24.7684
21
-172.897
0
LINE
8
BLACK
6
CONTINUOUS
10
24.7684
20
-172.897
11
24.6732
21
-172.993
0
LINE
8
BLACK
6
CONTINUOUS
10
24.6732
20
-172.993
11
24.5779
21
-172.897
0
LINE
8
BLACK
6
CONTINUOUS
10
24.5779
20
-172.897
11
24.6732
21
-172.802
0
LINE
8
BLACK
6
CONTINUOUS
10
24.6732
20
-172.802
11
24.6732
21
-172.993
0
LINE
8
BLACK
6
CONTINUOUS
10
26.5779
20
-170.993
11
25.6255
21
-170.993
0
LINE
8
BLACK
6
CONTINUOUS
10
25.6255
20
-170.993
11
25.5303
21
-171.945
0
LINE
8
BLACK
6
CONTINUOUS
10
25.5303
20
-171.945
11
25.6255
21
-171.85
0
LINE
8
BLACK
6
CONTINUOUS
10
25.6255
20
-171.85
11
25.816
21
-171.754
0
LINE
8
BLACK
6
CONTINUOUS
10
25.816
20
-171.754
11
26.2922
21
-171.754
0
LINE
8
BLACK
6
CONTINUOUS
10
26.2922
20
-171.754
11
26.4827
21
-171.85
0
LINE
8
BLACK
6
CONTINUOUS
10
26.4827
20
-171.85
11
26.5779
21
-171.945
0
LINE
8
BLACK
6
CONTINUOUS
10
26.5779
20
-171.945
11
26.6732
21
-172.135
0
LINE
8
BLACK
6
CONTINUOUS
10
26.6732
20
-172.135
11
26.6732
21
-172.612
0
LINE
8
BLACK
6
CONTINUOUS
10
26.6732
20
-172.612
11
26.5779
21
-172.802
0
LINE
8
BLACK
6
CONTINUOUS
10
26.5779
20
-172.802
11
26.4827
21
-172.897
0
LINE
8
BLACK
6
CONTINUOUS
10
26.4827
20
-172.897
11
26.2922
21
-172.993
0
LINE
8
BLACK
6
CONTINUOUS
10
26.2922
20
-172.993
11
25.816
21
-172.993
0
LINE
8
BLACK
6
CONTINUOUS
10
25.816
20
-172.993
11
25.6255
21
-172.897
0
LINE
8
BLACK
6
CONTINUOUS
10
25.6255
20
-172.897
11
25.5303
21
-172.802
0
LINE
8
BLACK
6
CONTINUOUS
10
27.9113
20
-170.993
11
28.1017
21
-170.993
0
LINE
8
BLACK
6
CONTINUOUS
10
28.1017
20
-170.993
11
28.2922
21
-171.088
0
LINE
8
BLACK
6
CONTINUOUS
10
28.2922
20
-171.088
11
28.3874
21
-171.183
0
LINE
8
BLACK
6
CONTINUOUS
10
28.3874
20
-171.183
11
28.4827
21
-171.374
0
LINE
8
BLACK
6
CONTINUOUS
10
28.4827
20
-171.374
11
28.5779
21
-171.754
0
LINE
8
BLACK
6
CONTINUOUS
10
28.5779
20
-171.754
11
28.5779
21
-172.231
0
LINE
8
BLACK
6
CONTINUOUS
10
28.5779
20
-172.231
11
28.4827
21
-172.612
0
LINE
8
BLACK
6
CONTINUOUS
10
28.4827
20
-172.612
11
28.3874
21
-172.802
0
LINE
8
BLACK
6
CONTINUOUS
10
28.3874
20
-172.802
11
28.2922
21
-172.897
0
LINE
8
BLACK
6
CONTINUOUS
10
28.2922
20
-172.897
11
28.1017
21
-172.993
0
LINE
8
BLACK
6
CONTINUOUS
10
28.1017
20
-172.993
11
27.9113
21
-172.993
0
LINE
8
BLACK
6
CONTINUOUS
10
27.9113
20
-172.993
11
27.7208
21
-172.897
0
LINE
8
BLACK
6
CONTINUOUS
10
27.7208
20
-172.897
11
27.6255
21
-172.802
0
LINE
8
BLACK
6
CONTINUOUS
10
27.6255
20
-172.802
11
27.5303
21
-172.612
0
LINE
8
BLACK
6
CONTINUOUS
10
27.5303
20
-172.612
11
27.4351
21
-172.231
0
LINE
8
BLACK
6
CONTINUOUS
10
27.4351
20
-172.231
11
27.4351
21
-171.754
0
LINE
8
BLACK
6
CONTINUOUS
10
27.4351
20
-171.754
11
27.5303
21
-171.374
0
LINE
8
BLACK
6
CONTINUOUS
10
27.5303
20
-171.374
11
27.6255
21
-171.183
0
LINE
8
BLACK
6
CONTINUOUS
10
27.6255
20
-171.183
11
27.7208
21
-171.088
0
LINE
8
BLACK
6
CONTINUOUS
10
27.7208
20
-171.088
11
27.9113
21
-170.993
0
LINE
8
BLACK
6
CONTINUOUS
10
29.816
20
-170.993
11
30.0065
21
-170.993
0
LINE
8
BLACK
6
CONTINUOUS
10
30.0065
20
-170.993
11
30.197
21
-171.088
0
LINE
8
BLACK
6
CONTINUOUS
10
30.197
20
-171.088
11
30.2922
21
-171.183
0
LINE
8
BLACK
6
CONTINUOUS
10
30.2922
20
-171.183
11
30.3874
21
-171.374
0
LINE
8
BLACK
6
CONTINUOUS
10
30.3874
20
-171.374
11
30.4827
21
-171.754
0
LINE
8
BLACK
6
CONTINUOUS
10
30.4827
20
-171.754
11
30.4827
21
-172.231
0
LINE
8
BLACK
6
CONTINUOUS
10
30.4827
20
-172.231
11
30.3874
21
-172.612
0
LINE
8
BLACK
6
CONTINUOUS
10
30.3874
20
-172.612
11
30.2922
21
-172.802
0
LINE
8
BLACK
6
CONTINUOUS
10
30.2922
20
-172.802
11
30.197
21
-172.897
0
LINE
8
BLACK
6
CONTINUOUS
10
30.197
20
-172.897
11
30.0065
21
-172.993
0
LINE
8
BLACK
6
CONTINUOUS
10
30.0065
20
-172.993
11
29.816
21
-172.993
0
LINE
8
BLACK
6
CONTINUOUS
10
29.816
20
-172.993
11
29.6255
21
-172.897
0
LINE
8
BLACK
6
CONTINUOUS
10
29.6255
20
-172.897
11
29.5303
21
-172.802
0
LINE
8
BLACK
6
CONTINUOUS
10
29.5303
20
-172.802
11
29.4351
21
-172.612
0
LINE
8
BLACK
6
CONTINUOUS
10
29.4351
20
-172.612
11
29.3398
21
-172.231
0
LINE
8
BLACK
6
CONTINUOUS
10
29.3398
20
-172.231
11
29.3398
21
-171.754
0
LINE
8
BLACK
6
CONTINUOUS
10
29.3398
20
-171.754
11
29.4351
21
-171.374
0
LINE
8
BLACK
6
CONTINUOUS
10
29.4351
20
-171.374
11
29.5303
21
-171.183
0
LINE
8
BLACK
6
CONTINUOUS
10
29.5303
20
-171.183
11
29.6255
21
-171.088
0
LINE
8
BLACK
6
CONTINUOUS
10
29.6255
20
-171.088
11
29.816
21
-170.993
0
LINE
8
BLACK
6
CONTINUOUS
10
31.3398
20
-172.993
11
31.3398
21
-171.659
0
LINE
8
BLACK
6
CONTINUOUS
10
31.3398
20
-171.85
11
31.4351
21
-171.754
0
LINE
8
BLACK
6
CONTINUOUS
10
31.4351
20
-171.754
11
31.6255
21
-171.659
0
LINE
8
BLACK
6
CONTINUOUS
10
31.6255
20
-171.659
11
31.9113
21
-171.659
0
LINE
8
BLACK
6
CONTINUOUS
10
31.9113
20
-171.659
11
32.1017
21
-171.754
0
LINE
8
BLACK
6
CONTINUOUS
10
32.1017
20
-171.754
11
32.197
21
-171.945
0
LINE
8
BLACK
6
CONTINUOUS
10
32.197
20
-171.945
11
32.197
21
-172.993
0
LINE
8
BLACK
6
CONTINUOUS
10
32.197
20
-171.945
11
32.2922
21
-171.754
0
LINE
8
BLACK
6
CONTINUOUS
10
32.2922
20
-171.754
11
32.4827
21
-171.659
0
LINE
8
BLACK
6
CONTINUOUS
10
32.4827
20
-171.659
11
32.7684
21
-171.659
0
LINE
8
BLACK
6
CONTINUOUS
10
32.7684
20
-171.659
11
32.9589
21
-171.754
0
LINE
8
BLACK
6
CONTINUOUS
10
32.9589
20
-171.754
11
33.0541
21
-171.945
0
LINE
8
BLACK
6
CONTINUOUS
10
33.0541
20
-171.945
11
33.0541
21
-172.993
0
LINE
8
BLACK
6
CONTINUOUS
10
34.0065
20
-172.993
11
34.0065
21
-171.659
0
LINE
8
BLACK
6
CONTINUOUS
10
34.0065
20
-171.85
11
34.1017
21
-171.754
0
LINE
8
BLACK
6
CONTINUOUS
10
34.1017
20
-171.754
11
34.2922
21
-171.659
0
LINE
8
BLACK
6
CONTINUOUS
10
34.2922
20
-171.659
11
34.5779
21
-171.659
0
LINE
8
BLACK
6
CONTINUOUS
10
34.5779
20
-171.659
11
34.7684
21
-171.754
0
LINE
8
BLACK
6
CONTINUOUS
10
34.7684
20
-171.754
11
34.8636
21
-171.945
0
LINE
8
BLACK
6
CONTINUOUS
10
34.8636
20
-171.945
11
34.8636
21
-172.993
0
LINE
8
BLACK
6
CONTINUOUS
10
34.8636
20
-171.945
11
34.9589
21
-171.754
0
LINE
8
BLACK
6
CONTINUOUS
10
34.9589
20
-171.754
11
35.1494
21
-171.659
0
LINE
8
BLACK
6
CONTINUOUS
10
35.1494
20
-171.659
11
35.4351
21
-171.659
0
LINE
8
BLACK
6
CONTINUOUS
10
35.4351
20
-171.659
11
35.6255
21
-171.754
0
LINE
8
BLACK
6
CONTINUOUS
10
35.6255
20
-171.754
11
35.7208
21
-171.945
0
LINE
8
BLACK
6
CONTINUOUS
10
35.7208
20
-171.945
11
35.7208
21
-172.993
0
LINE
8
BLACK
6
CONTINUOUS
10
39.6255
20
-170.897
11
37.9113
21
-173.469
0
LINE
8
BLACK
6
CONTINUOUS
10
42.197
20
-170.993
11
42.3874
21
-170.993
0
LINE
8
BLACK
6
CONTINUOUS
10
42.3874
20
-170.993
11
42.5779
21
-171.088
0
LINE
8
BLACK
6
CONTINUOUS
10
42.5779
20
-171.088
11
42.6732
21
-171.183
0
LINE
8
BLACK
6
CONTINUOUS
10
42.6732
20
-171.183
11
42.7684
21
-171.374
0
LINE
8
BLACK
6
CONTINUOUS
10
42.7684
20
-171.374
11
42.8636
21
-171.754
0
LINE
8
BLACK
6
CONTINUOUS
10
42.8636
20
-171.754
11
42.8636
21
-172.231
0
LINE
8
BLACK
6
CONTINUOUS
10
42.8636
20
-172.231
11
42.7684
21
-172.612
0
LINE
8
BLACK
6
CONTINUOUS
10
42.7684
20
-172.612
11
42.6732
21
-172.802
0
LINE
8
BLACK
6
CONTINUOUS
10
42.6732
20
-172.802
11
42.5779
21
-172.897
0
LINE
8
BLACK
6
CONTINUOUS
10
42.5779
20
-172.897
11
42.3874
21
-172.993
0
LINE
8
BLACK
6
CONTINUOUS
10
42.3874
20
-172.993
11
42.197
21
-172.993
0
LINE
8
BLACK
6
CONTINUOUS
10
42.197
20
-172.993
11
42.0065
21
-172.897
0
LINE
8
BLACK
6
CONTINUOUS
10
42.0065
20
-172.897
11
41.9113
21
-172.802
0
LINE
8
BLACK
6
CONTINUOUS
10
41.9113
20
-172.802
11
41.816
21
-172.612
0
LINE
8
BLACK
6
CONTINUOUS
10
41.816
20
-172.612
11
41.7208
21
-172.231
0
LINE
8
BLACK
6
CONTINUOUS
10
41.7208
20
-172.231
11
41.7208
21
-171.754
0
LINE
8
BLACK
6
CONTINUOUS
10
41.7208
20
-171.754
11
41.816
21
-171.374
0
LINE
8
BLACK
6
CONTINUOUS
10
41.816
20
-171.374
11
41.9113
21
-171.183
0
LINE
8
BLACK
6
CONTINUOUS
10
41.9113
20
-171.183
11
42.0065
21
-171.088
0
LINE
8
BLACK
6
CONTINUOUS
10
42.0065
20
-171.088
11
42.197
21
-170.993
0
LINE
8
BLACK
6
CONTINUOUS
10
43.7208
20
-172.802
11
43.816
21
-172.897
0
LINE
8
BLACK
6
CONTINUOUS
10
43.816
20
-172.897
11
43.7208
21
-172.993
0
LINE
8
BLACK
6
CONTINUOUS
10
43.7208
20
-172.993
11
43.6255
21
-172.897
0
LINE
8
BLACK
6
CONTINUOUS
10
43.6255
20
-172.897
11
43.7208
21
-172.802
0
LINE
8
BLACK
6
CONTINUOUS
10
43.7208
20
-172.802
11
43.7208
21
-172.993
0
LINE
8
BLACK
6
CONTINUOUS
10
45.0541
20
-170.993
11
45.2446
21
-170.993
0
LINE
8
BLACK
6
CONTINUOUS
10
45.2446
20
-170.993
11
45.4351
21
-171.088
0
LINE
8
BLACK
6
CONTINUOUS
10
45.4351
20
-171.088
11
45.5303
21
-171.183
0
LINE
8
BLACK
6
CONTINUOUS
10
45.5303
20
-171.183
11
45.6255
21
-171.374
0
LINE
8
BLACK
6
CONTINUOUS
10
45.6255
20
-171.374
11
45.7208
21
-171.754
0
LINE
8
BLACK
6
CONTINUOUS
10
45.7208
20
-171.754
11
45.7208
21
-172.231
0
LINE
8
BLACK
6
CONTINUOUS
10
45.7208
20
-172.231
11
45.6255
21
-172.612
0
LINE
8
BLACK
6
CONTINUOUS
10
45.6255
20
-172.612
11
45.5303
21
-172.802
0
LINE
8
BLACK
6
CONTINUOUS
10
45.5303
20
-172.802
11
45.4351
21
-172.897
0
LINE
8
BLACK
6
CONTINUOUS
10
45.4351
20
-172.897
11
45.2446
21
-172.993
0
LINE
8
BLACK
6
CONTINUOUS
10
45.2446
20
-172.993
11
45.0541
21
-172.993
0
LINE
8
BLACK
6
CONTINUOUS
10
45.0541
20
-172.993
11
44.8636
21
-172.897
0
LINE
8
BLACK
6
CONTINUOUS
10
44.8636
20
-172.897
11
44.7684
21
-172.802
0
LINE
8
BLACK
6
CONTINUOUS
10
44.7684
20
-172.802
11
44.6732
21
-172.612
0
LINE
8
BLACK
6
CONTINUOUS
10
44.6732
20
-172.612
11
44.5779
21
-172.231
0
LINE
8
BLACK
6
CONTINUOUS
10
44.5779
20
-172.231
11
44.5779
21
-171.754
0
LINE
8
BLACK
6
CONTINUOUS
10
44.5779
20
-171.754
11
44.6732
21
-171.374
0
LINE
8
BLACK
6
CONTINUOUS
10
44.6732
20
-171.374
11
44.7684
21
-171.183
0
LINE
8
BLACK
6
CONTINUOUS
10
44.7684
20
-171.183
11
44.8636
21
-171.088
0
LINE
8
BLACK
6
CONTINUOUS
10
44.8636
20
-171.088
11
45.0541
21
-170.993
0
LINE
8
BLACK
6
CONTINUOUS
10
46.6732
20
-172.993
11
47.0541
21
-172.993
0
LINE
8
BLACK
6
CONTINUOUS
10
47.0541
20
-172.993
11
47.2446
21
-172.897
0
LINE
8
BLACK
6
CONTINUOUS
10
47.2446
20
-172.897
11
47.3398
21
-172.802
0
LINE
8
BLACK
6
CONTINUOUS
10
47.3398
20
-172.802
11
47.5303
21
-172.516
0
LINE
8
BLACK
6
CONTINUOUS
10
47.5303
20
-172.516
11
47.6255
21
-172.135
0
LINE
8
BLACK
6
CONTINUOUS
10
47.6255
20
-172.135
11
47.6255
21
-171.374
0
LINE
8
BLACK
6
CONTINUOUS
10
47.6255
20
-171.374
11
47.5303
21
-171.183
0
LINE
8
BLACK
6
CONTINUOUS
10
47.5303
20
-171.183
11
47.4351
21
-171.088
0
LINE
8
BLACK
6
CONTINUOUS
10
47.4351
20
-171.088
11
47.2446
21
-170.993
0
LINE
8
BLACK
6
CONTINUOUS
10
47.2446
20
-170.993
11
46.8636
21
-170.993
0
LINE
8
BLACK
6
CONTINUOUS
10
46.8636
20
-170.993
11
46.6732
21
-171.088
0
LINE
8
BLACK
6
CONTINUOUS
10
46.6732
20
-171.088
11
46.5779
21
-171.183
0
LINE
8
BLACK
6
CONTINUOUS
10
46.5779
20
-171.183
11
46.4827
21
-171.374
0
LINE
8
BLACK
6
CONTINUOUS
10
46.4827
20
-171.374
11
46.4827
21
-171.85
0
LINE
8
BLACK
6
CONTINUOUS
10
46.4827
20
-171.85
11
46.5779
21
-172.04
0
LINE
8
BLACK
6
CONTINUOUS
10
46.5779
20
-172.04
11
46.6732
21
-172.135
0
LINE
8
BLACK
6
CONTINUOUS
10
46.6732
20
-172.135
11
46.8636
21
-172.231
0
LINE
8
BLACK
6
CONTINUOUS
10
46.8636
20
-172.231
11
47.2446
21
-172.231
0
LINE
8
BLACK
6
CONTINUOUS
10
47.2446
20
-172.231
11
47.4351
21
-172.135
0
LINE
8
BLACK
6
CONTINUOUS
10
47.4351
20
-172.135
11
47.5303
21
-172.04
0
LINE
8
BLACK
6
CONTINUOUS
10
47.5303
20
-172.04
11
47.6255
21
-171.85
0
LINE
8
BLACK
6
CONTINUOUS
10
48.7684
20
-171.85
11
48.5779
21
-171.754
0
LINE
8
BLACK
6
CONTINUOUS
10
48.5779
20
-171.754
11
48.4827
21
-171.659
0
LINE
8
BLACK
6
CONTINUOUS
10
48.4827
20
-171.659
11
48.3874
21
-171.469
0
LINE
8
BLACK
6
CONTINUOUS
10
48.3874
20
-171.469
11
48.3874
21
-171.374
0
LINE
8
BLACK
6
CONTINUOUS
10
48.3874
20
-171.374
11
48.4827
21
-171.183
0
LINE
8
BLACK
6
CONTINUOUS
10
48.4827
20
-171.183
11
48.5779
21
-171.088
0
LINE
8
BLACK
6
CONTINUOUS
10
48.5779
20
-171.088
11
48.7684
21
-170.993
0
LINE
8
BLACK
6
CONTINUOUS
10
48.7684
20
-170.993
11
49.1494
21
-170.993
0
LINE
8
BLACK
6
CONTINUOUS
10
49.1494
20
-170.993
11
49.3398
21
-171.088
0
LINE
8
BLACK
6
CONTINUOUS
10
49.3398
20
-171.088
11
49.4351
21
-171.183
0
LINE
8
BLACK
6
CONTINUOUS
10
49.4351
20
-171.183
11
49.5303
21
-171.374
0
LINE
8
BLACK
6
CONTINUOUS
10
49.5303
20
-171.374
11
49.5303
21
-171.469
0
LINE
8
BLACK
6
CONTINUOUS
10
49.5303
20
-171.469
11
49.4351
21
-171.659
0
LINE
8
BLACK
6
CONTINUOUS
10
49.4351
20
-171.659
11
49.3398
21
-171.754
0
LINE
8
BLACK
6
CONTINUOUS
10
49.3398
20
-171.754
11
49.1494
21
-171.85
0
LINE
8
BLACK
6
CONTINUOUS
10
49.1494
20
-171.85
11
48.7684
21
-171.85
0
LINE
8
BLACK
6
CONTINUOUS
10
48.7684
20
-171.85
11
48.5779
21
-171.945
0
LINE
8
BLACK
6
CONTINUOUS
10
48.5779
20
-171.945
11
48.4827
21
-172.04
0
LINE
8
BLACK
6
CONTINUOUS
10
48.4827
20
-172.04
11
48.3874
21
-172.231
0
LINE
8
BLACK
6
CONTINUOUS
10
48.3874
20
-172.231
11
48.3874
21
-172.612
0
LINE
8
BLACK
6
CONTINUOUS
10
48.3874
20
-172.612
11
48.4827
21
-172.802
0
LINE
8
BLACK
6
CONTINUOUS
10
48.4827
20
-172.802
11
48.5779
21
-172.897
0
LINE
8
BLACK
6
CONTINUOUS
10
48.5779
20
-172.897
11
48.7684
21
-172.993
0
LINE
8
BLACK
6
CONTINUOUS
10
48.7684
20
-172.993
11
49.1494
21
-172.993
0
LINE
8
BLACK
6
CONTINUOUS
10
49.1494
20
-172.993
11
49.3398
21
-172.897
0
LINE
8
BLACK
6
CONTINUOUS
10
49.3398
20
-172.897
11
49.4351
21
-172.802
0
LINE
8
BLACK
6
CONTINUOUS
10
49.4351
20
-172.802
11
49.5303
21
-172.612
0
LINE
8
BLACK
6
CONTINUOUS
10
49.5303
20
-172.612
11
49.5303
21
-172.231
0
LINE
8
BLACK
6
CONTINUOUS
10
49.5303
20
-172.231
11
49.4351
21
-172.04
0
LINE
8
BLACK
6
CONTINUOUS
10
49.4351
20
-172.04
11
49.3398
21
-171.945
0
LINE
8
BLACK
6
CONTINUOUS
10
49.3398
20
-171.945
11
49.1494
21
-171.85
0
LINE
8
BLACK
6
CONTINUOUS
10
51.2446
20
-171.659
11
51.2446
21
-172.993
0
LINE
8
BLACK
6
CONTINUOUS
10
50.7684
20
-170.897
11
50.2922
21
-172.326
0
LINE
8
BLACK
6
CONTINUOUS
10
50.2922
20
-172.326
11
51.5303
21
-172.326
0
LINE
8
BLACK
6
CONTINUOUS
10
52.197
20
-170.993
11
52.197
21
-171.374
0
LINE
8
BLACK
6
CONTINUOUS
10
52.9589
20
-170.993
11
52.9589
21
-171.374
0
LINE
8
BLACK
6
CONTINUOUS
10
55.9113
20
-173.754
11
55.816
21
-173.659
0
LINE
8
BLACK
6
CONTINUOUS
10
55.816
20
-173.659
11
55.6255
21
-173.374
0
LINE
8
BLACK
6
CONTINUOUS
10
55.6255
20
-173.374
11
55.5303
21
-173.183
0
LINE
8
BLACK
6
CONTINUOUS
10
55.5303
20
-173.183
11
55.4351
21
-172.897
0
LINE
8
BLACK
6
CONTINUOUS
10
55.4351
20
-172.897
11
55.3398
21
-172.421
0
LINE
8
BLACK
6
CONTINUOUS
10
55.3398
20
-172.421
11
55.3398
21
-172.04
0
LINE
8
BLACK
6
CONTINUOUS
10
55.3398
20
-172.04
11
55.4351
21
-171.564
0
LINE
8
BLACK
6
CONTINUOUS
10
55.4351
20
-171.564
11
55.5303
21
-171.278
0
LINE
8
BLACK
6
CONTINUOUS
10
55.5303
20
-171.278
11
55.6255
21
-171.088
0
LINE
8
BLACK
6
CONTINUOUS
10
55.6255
20
-171.088
11
55.816
21
-170.802
0
LINE
8
BLACK
6
CONTINUOUS
10
55.816
20
-170.802
11
55.9113
21
-170.707
0
LINE
8
BLACK
6
CONTINUOUS
10
57.7208
20
-172.993
11
56.5779
21
-172.993
0
LINE
8
BLACK
6
CONTINUOUS
10
57.1494
20
-172.993
11
57.1494
21
-170.993
0
LINE
8
BLACK
6
CONTINUOUS
10
57.1494
20
-170.993
11
56.9589
21
-171.278
0
LINE
8
BLACK
6
CONTINUOUS
10
56.9589
20
-171.278
11
56.7684
21
-171.469
0
LINE
8
BLACK
6
CONTINUOUS
10
56.7684
20
-171.469
11
56.5779
21
-171.564
0
LINE
8
BLACK
6
CONTINUOUS
10
58.4827
20
-171.183
11
58.5779
21
-171.088
0
LINE
8
BLACK
6
CONTINUOUS
10
58.5779
20
-171.088
11
58.7684
21
-170.993
0
LINE
8
BLACK
6
CONTINUOUS
10
58.7684
20
-170.993
11
59.2446
21
-170.993
0
LINE
8
BLACK
6
CONTINUOUS
10
59.2446
20
-170.993
11
59.4351
21
-171.088
0
LINE
8
BLACK
6
CONTINUOUS
10
59.4351
20
-171.088
11
59.5303
21
-171.183
0
LINE
8
BLACK
6
CONTINUOUS
10
59.5303
20
-171.183
11
59.6255
21
-171.374
0
LINE
8
BLACK
6
CONTINUOUS
10
59.6255
20
-171.374
11
59.6255
21
-171.564
0
LINE
8
BLACK
6
CONTINUOUS
10
59.6255
20
-171.564
11
59.5303
21
-171.85
0
LINE
8
BLACK
6
CONTINUOUS
10
59.5303
20
-171.85
11
58.3874
21
-172.993
0
LINE
8
BLACK
6
CONTINUOUS
10
58.3874
20
-172.993
11
59.6255
21
-172.993
0
LINE
8
BLACK
6
CONTINUOUS
10
62.0065
20
-172.993
11
62.0065
21
-170.993
0
LINE
8
BLACK
6
CONTINUOUS
10
62.8636
20
-172.993
11
62.8636
21
-171.945
0
LINE
8
BLACK
6
CONTINUOUS
10
62.8636
20
-171.945
11
62.7684
21
-171.754
0
LINE
8
BLACK
6
CONTINUOUS
10
62.7684
20
-171.754
11
62.5779
21
-171.659
0
LINE
8
BLACK
6
CONTINUOUS
10
62.5779
20
-171.659
11
62.2922
21
-171.659
0
LINE
8
BLACK
6
CONTINUOUS
10
62.2922
20
-171.659
11
62.1017
21
-171.754
0
LINE
8
BLACK
6
CONTINUOUS
10
62.1017
20
-171.754
11
62.0065
21
-171.85
0
LINE
8
BLACK
6
CONTINUOUS
10
64.1017
20
-172.993
11
63.9113
21
-172.897
0
LINE
8
BLACK
6
CONTINUOUS
10
63.9113
20
-172.897
11
63.816
21
-172.802
0
LINE
8
BLACK
6
CONTINUOUS
10
63.816
20
-172.802
11
63.7208
21
-172.612
0
LINE
8
BLACK
6
CONTINUOUS
10
63.7208
20
-172.612
11
63.7208
21
-172.04
0
LINE
8
BLACK
6
CONTINUOUS
10
63.7208
20
-172.04
11
63.816
21
-171.85
0
LINE
8
BLACK
6
CONTINUOUS
10
63.816
20
-171.85
11
63.9113
21
-171.754
0
LINE
8
BLACK
6
CONTINUOUS
10
63.9113
20
-171.754
11
64.1017
21
-171.659
0
LINE
8
BLACK
6
CONTINUOUS
10
64.1017
20
-171.659
11
64.3874
21
-171.659
0
LINE
8
BLACK
6
CONTINUOUS
10
64.3874
20
-171.659
11
64.5779
21
-171.754
0
LINE
8
BLACK
6
CONTINUOUS
10
64.5779
20
-171.754
11
64.6732
21
-171.85
0
LINE
8
BLACK
6
CONTINUOUS
10
64.6732
20
-171.85
11
64.7684
21
-172.04
0
LINE
8
BLACK
6
CONTINUOUS
10
64.7684
20
-172.04
11
64.7684
21
-172.612
0
LINE
8
BLACK
6
CONTINUOUS
10
64.7684
20
-172.612
11
64.6732
21
-172.802
0
LINE
8
BLACK
6
CONTINUOUS
10
64.6732
20
-172.802
11
64.5779
21
-172.897
0
LINE
8
BLACK
6
CONTINUOUS
10
64.5779
20
-172.897
11
64.3874
21
-172.993
0
LINE
8
BLACK
6
CONTINUOUS
10
64.3874
20
-172.993
11
64.1017
21
-172.993
0
LINE
8
BLACK
6
CONTINUOUS
10
65.9113
20
-172.993
11
65.7208
21
-172.897
0
LINE
8
BLACK
6
CONTINUOUS
10
65.7208
20
-172.897
11
65.6255
21
-172.707
0
LINE
8
BLACK
6
CONTINUOUS
10
65.6255
20
-172.707
11
65.6255
21
-170.993
0
LINE
8
BLACK
6
CONTINUOUS
10
67.4351
20
-172.897
11
67.2446
21
-172.993
0
LINE
8
BLACK
6
CONTINUOUS
10
67.2446
20
-172.993
11
66.8636
21
-172.993
0
LINE
8
BLACK
6
CONTINUOUS
10
66.8636
20
-172.993
11
66.6732
21
-172.897
0
LINE
8
BLACK
6
CONTINUOUS
10
66.6732
20
-172.897
11
66.5779
21
-172.707
0
LINE
8
BLACK
6
CONTINUOUS
10
66.5779
20
-172.707
11
66.5779
21
-171.945
0
LINE
8
BLACK
6
CONTINUOUS
10
66.5779
20
-171.945
11
66.6732
21
-171.754
0
LINE
8
BLACK
6
CONTINUOUS
10
66.6732
20
-171.754
11
66.8636
21
-171.659
0
LINE
8
BLACK
6
CONTINUOUS
10
66.8636
20
-171.659
11
67.2446
21
-171.659
0
LINE
8
BLACK
6
CONTINUOUS
10
67.2446
20
-171.659
11
67.4351
21
-171.754
0
LINE
8
BLACK
6
CONTINUOUS
10
67.4351
20
-171.754
11
67.5303
21
-171.945
0
LINE
8
BLACK
6
CONTINUOUS
10
67.5303
20
-171.945
11
67.5303
21
-172.135
0
LINE
8
BLACK
6
CONTINUOUS
10
67.5303
20
-172.135
11
66.5779
21
-172.326
0
LINE
8
BLACK
6
CONTINUOUS
10
68.2922
20
-172.897
11
68.4827
21
-172.993
0
LINE
8
BLACK
6
CONTINUOUS
10
68.4827
20
-172.993
11
68.8636
21
-172.993
0
LINE
8
BLACK
6
CONTINUOUS
10
68.8636
20
-172.993
11
69.0541
21
-172.897
0
LINE
8
BLACK
6
CONTINUOUS
10
69.0541
20
-172.897
11
69.1494
21
-172.707
0
LINE
8
BLACK
6
CONTINUOUS
10
69.1494
20
-172.707
11
69.1494
21
-172.612
0
LINE
8
BLACK
6
CONTINUOUS
10
69.1494
20
-172.612
11
69.0541
21
-172.421
0
LINE
8
BLACK
6
CONTINUOUS
10
69.0541
20
-172.421
11
68.8636
21
-172.326
0
LINE
8
BLACK
6
CONTINUOUS
10
68.8636
20
-172.326
11
68.5779
21
-172.326
0
LINE
8
BLACK
6
CONTINUOUS
10
68.5779
20
-172.326
11
68.3874
21
-172.231
0
LINE
8
BLACK
6
CONTINUOUS
10
68.3874
20
-172.231
11
68.2922
21
-172.04
0
LINE
8
BLACK
6
CONTINUOUS
10
68.2922
20
-172.04
11
68.2922
21
-171.945
0
LINE
8
BLACK
6
CONTINUOUS
10
68.2922
20
-171.945
11
68.3874
21
-171.754
0
LINE
8
BLACK
6
CONTINUOUS
10
68.3874
20
-171.754
11
68.5779
21
-171.659
0
LINE
8
BLACK
6
CONTINUOUS
10
68.5779
20
-171.659
11
68.8636
21
-171.659
0
LINE
8
BLACK
6
CONTINUOUS
10
68.8636
20
-171.659
11
69.0541
21
-171.754
0
LINE
8
BLACK
6
CONTINUOUS
10
69.816
20
-173.754
11
69.9113
21
-173.659
0
LINE
8
BLACK
6
CONTINUOUS
10
69.9113
20
-173.659
11
70.1017
21
-173.374
0
LINE
8
BLACK
6
CONTINUOUS
10
70.1017
20
-173.374
11
70.197
21
-173.183
0
LINE
8
BLACK
6
CONTINUOUS
10
70.197
20
-173.183
11
70.2922
21
-172.897
0
LINE
8
BLACK
6
CONTINUOUS
10
70.2922
20
-172.897
11
70.3874
21
-172.421
0
LINE
8
BLACK
6
CONTINUOUS
10
70.3874
20
-172.421
11
70.3874
21
-172.04
0
LINE
8
BLACK
6
CONTINUOUS
10
70.3874
20
-172.04
11
70.2922
21
-171.564
0
LINE
8
BLACK
6
CONTINUOUS
10
70.2922
20
-171.564
11
70.197
21
-171.278
0
LINE
8
BLACK
6
CONTINUOUS
10
70.197
20
-171.278
11
70.1017
21
-171.088
0
LINE
8
BLACK
6
CONTINUOUS
10
70.1017
20
-171.088
11
69.9113
21
-170.802
0
LINE
8
BLACK
6
CONTINUOUS
10
69.9113
20
-170.802
11
69.816
21
-170.707
  0
ENDSEC
  0
EOF
