M48
; DRILL file {KiCad (6.0.8)} date Fri Oct 14 01:30:43 2022
; FORMAT={-:-/ absolute / inch / decimal}
; #@! TF.CreationDate,2022-10-14T01:30:43-06:00
; #@! TF.GenerationSoftware,Kicad,Pcbnew,(6.0.8)
; #@! TF.FileFunction,NonPlated,1,2,NPTH
FMAT,2
INCH
; #@! TA.AperFunction,NonPlated,NPTH,ComponentDrill
T1C0.0670
; #@! TA.AperFunction,NonPlated,NPTH,ComponentDrill
T2C0.1181
; #@! TA.AperFunction,NonPlated,NPTH,ComponentDrill
T3C0.1201
; #@! TA.AperFunction,NonPlated,NPTH,ComponentDrill
T4C0.1570
; #@! TA.AperFunction,NonPlated,NPTH,ComponentDrill
T5C0.1575
%
G90
G05
T1
X1.0346Y-2.6674
X1.0346Y-3.4174
X1.0346Y-4.1674
X1.0346Y-4.9174
X1.0346Y-5.6674
X1.4346Y-2.6674
X1.4346Y-3.4174
X1.4346Y-4.1674
X1.4346Y-4.9174
X1.4346Y-5.6674
X1.7846Y-2.6674
X1.7846Y-3.4174
X1.7846Y-4.1674
X1.7846Y-4.9174
X2.1596Y-5.6674
X2.1846Y-2.6674
X2.1846Y-3.4174
X2.1846Y-4.1674
X2.1846Y-4.9174
X2.5346Y-2.6674
X2.5346Y-3.4174
X2.5346Y-4.1674
X2.5346Y-4.9174
X2.5596Y-5.6674
X2.9346Y-2.6674
X2.9346Y-3.4174
X2.9346Y-4.1674
X2.9346Y-4.9174
X3.2846Y-2.6674
X3.2846Y-3.4174
X3.2846Y-4.1674
X3.2846Y-4.9174
X3.2846Y-5.6674
X3.6846Y-2.6674
X3.6846Y-3.4174
X3.6846Y-4.1674
X3.6846Y-4.9174
X3.6846Y-5.6674
X4.0346Y-2.6674
X4.2346Y-3.5924
X4.2346Y-3.9924
X4.2346Y-5.0924
X4.2346Y-5.4924
X4.4346Y-2.6674
T2
X1.0846Y-2.5674
X1.0846Y-3.3174
X1.0846Y-4.0674
X1.0846Y-4.8174
X1.0846Y-5.5674
X1.3346Y-2.4674
X1.3346Y-3.2174
X1.3346Y-3.9674
X1.3346Y-4.7174
X1.3346Y-5.4674
X1.8346Y-2.5674
X1.8346Y-3.3174
X1.8346Y-4.0674
X1.8346Y-4.8174
X2.0846Y-2.4674
X2.0846Y-3.2174
X2.0846Y-3.9674
X2.0846Y-4.7174
X2.2096Y-5.5674
X2.4596Y-5.4674
X2.5846Y-2.5674
X2.5846Y-3.3174
X2.5846Y-4.0674
X2.5846Y-4.8174
X2.8346Y-2.4674
X2.8346Y-3.2174
X2.8346Y-3.9674
X2.8346Y-4.7174
X3.3346Y-2.5674
X3.3346Y-3.3174
X3.3346Y-4.0674
X3.3346Y-4.8174
X3.3346Y-5.5674
X3.5846Y-2.4674
X3.5846Y-3.2174
X3.5846Y-3.9674
X3.5846Y-4.7174
X3.5846Y-5.4674
X4.0846Y-2.5674
X4.3346Y-2.4674
X4.3346Y-3.6424
X4.3346Y-5.1424
X4.4346Y-3.8924
X4.4346Y-5.3924
T3
X1.8911Y-5.3919
X2.8281Y-5.3919
X4.5101Y-3.3239
X4.5101Y-4.2609
X4.5101Y-4.8239
X4.5101Y-5.7609
T4
X1.2346Y-2.6674
X1.2346Y-3.4174
X1.2346Y-4.1674
X1.2346Y-4.9174
X1.2346Y-5.6674
X1.9846Y-2.6674
X1.9846Y-3.4174
X1.9846Y-4.1674
X1.9846Y-4.9174
X2.3596Y-5.6674
X2.7346Y-2.6674
X2.7346Y-3.4174
X2.7346Y-4.1674
X2.7346Y-4.9174
X3.4846Y-2.6674
X3.4846Y-3.4174
X3.4846Y-4.1674
X3.4846Y-4.9174
X3.4846Y-5.6674
X4.2346Y-2.6674
X4.2346Y-3.7924
X4.2346Y-5.2924
T5
X1.8911Y-5.9919
X2.8281Y-5.9919
X3.9101Y-3.3239
X3.9101Y-4.2609
X3.9101Y-4.8239
X3.9101Y-5.7609
T0
M30
