  0
SECTION
  2
HEADER
  9
$ANGBASE
  50
0.0
  9
$ANGDIR
  70
1
  9
$MEASUREMENT
  70
1
  0
ENDSEC
  0
SECTION
  2
TABLES
  0
TABLE
  2
LTYPE
  70
4
  0
LTYPE
  5
40F
  2
CONTINUOUS
  70
0
  3
Solid line
  72
65
  73
0
  40
0.0
  0
LTYPE
  5
410
  2
DASHDOT
 70
0
  3
Dash Dot ____ _ ____ _
 72
65
 73
4
 40
2.0
 49
1.25
 49
-0.25
 49
0.25
 49
-0.25
  0
LTYPE
  5
411
  2
DASHED
 70
0
  3
Dashed __ __ __ __ __
 72
65
 73
2
 40
0.75
 49
0.5
 49
-0.25
  0
LTYPE
  5
43B
  2
DOTTED
 70
0
  3
Dotted .  .  .  .
 72
65
 73
2
 40
0.2
 49
0.0
 49
-0.2
  0
ENDTAB
  0
TABLE
  2
STYLE
  70
4
  0
STYLE
  2
KICAD
  70
0
  40
0
  41
1
  42
1
  50
0
  71
0
  3
isocp.shx
  0
STYLE
  2
KICADB
  70
0
  40
0
  41
1
  42
1
  50
0
  71
0
  3
isocp.shx
  0
STYLE
  2
KICADI
  70
0
  40
0
  41
1
  42
1
  50
15
  71
0
  3
isocp.shx
  0
STYLE
  2
KICADBI
  70
0
  40
0
  41
1
  42
1
  50
15
  71
0
  3
isocp.shx
  0
ENDTAB
  0
TABLE
  2
LAYER
  70
1
  0
LAYER
  2
BLACK
  70
0
  62
7
  6
CONTINUOUS
  0
ENDTAB
  0
ENDSEC
  0
SECTION
  2
ENTITIES
0
LINE
8
BLACK
6
CONTINUOUS
10
116.5
20
-155.001
11
22.2422
21
-155.018
0
ARC
8
BLACK
10
22.2432
20
-25.701
40
2.00099
50
-269.972
51
-179.971
0
LINE
8
BLACK
6
CONTINUOUS
10
22.2422
20
-23.7
11
115.7
21
-23.7
0
ARC
8
BLACK
10
22.2422
20
-153.018
40
1.99999
50
-180
51
-89.9997
0
LINE
8
BLACK
6
CONTINUOUS
10
118.5
20
-26.5
11
118.5
21
-153.001
0
ARC
8
BLACK
10
115.767
20
-26.4325
40
2.73333
50
-1.41507
51
91.4151
0
ARC
8
BLACK
10
116.5
20
-153.001
40
2
50
-90
51
0.00040107
0
LINE
8
BLACK
6
CONTINUOUS
10
20.2422
20
-153.018
11
20.2422
21
-25.702
0
LINE
8
BLACK
6
CONTINUOUS
10
25.4268
20
-66.9022
11
27.1286
21
-68.604
0
LINE
8
BLACK
6
CONTINUOUS
10
27.1286
20
-66.9022
11
25.4268
21
-68.604
0
LINE
8
BLACK
6
CONTINUOUS
10
25.4268
20
-85.9522
11
27.1286
21
-87.654
0
LINE
8
BLACK
6
CONTINUOUS
10
27.1286
20
-85.9522
11
25.4268
21
-87.654
0
LINE
8
BLACK
6
CONTINUOUS
10
25.4268
20
-105.002
11
27.1286
21
-106.704
0
LINE
8
BLACK
6
CONTINUOUS
10
27.1286
20
-105.002
11
25.4268
21
-106.704
0
LINE
8
BLACK
6
CONTINUOUS
10
25.4268
20
-124.052
11
27.1286
21
-125.754
0
LINE
8
BLACK
6
CONTINUOUS
10
27.1286
20
-124.052
11
25.4268
21
-125.754
0
LINE
8
BLACK
6
CONTINUOUS
10
25.4268
20
-143.102
11
27.1286
21
-144.804
0
LINE
8
BLACK
6
CONTINUOUS
10
27.1286
20
-143.102
11
25.4268
21
-144.804
0
LINE
8
BLACK
6
CONTINUOUS
10
35.5868
20
-66.9022
11
37.2886
21
-68.604
0
LINE
8
BLACK
6
CONTINUOUS
10
37.2886
20
-66.9022
11
35.5868
21
-68.604
0
LINE
8
BLACK
6
CONTINUOUS
10
35.5868
20
-85.9522
11
37.2886
21
-87.654
0
LINE
8
BLACK
6
CONTINUOUS
10
37.2886
20
-85.9522
11
35.5868
21
-87.654
0
LINE
8
BLACK
6
CONTINUOUS
10
35.5868
20
-105.002
11
37.2886
21
-106.704
0
LINE
8
BLACK
6
CONTINUOUS
10
37.2886
20
-105.002
11
35.5868
21
-106.704
0
LINE
8
BLACK
6
CONTINUOUS
10
35.5868
20
-124.052
11
37.2886
21
-125.754
0
LINE
8
BLACK
6
CONTINUOUS
10
37.2886
20
-124.052
11
35.5868
21
-125.754
0
LINE
8
BLACK
6
CONTINUOUS
10
35.5868
20
-143.102
11
37.2886
21
-144.804
0
LINE
8
BLACK
6
CONTINUOUS
10
37.2886
20
-143.102
11
35.5868
21
-144.804
0
LINE
8
BLACK
6
CONTINUOUS
10
44.4768
20
-66.9022
11
46.1786
21
-68.604
0
LINE
8
BLACK
6
CONTINUOUS
10
46.1786
20
-66.9022
11
44.4768
21
-68.604
0
LINE
8
BLACK
6
CONTINUOUS
10
44.4768
20
-85.9522
11
46.1786
21
-87.654
0
LINE
8
BLACK
6
CONTINUOUS
10
46.1786
20
-85.9522
11
44.4768
21
-87.654
0
LINE
8
BLACK
6
CONTINUOUS
10
44.4768
20
-105.002
11
46.1786
21
-106.704
0
LINE
8
BLACK
6
CONTINUOUS
10
46.1786
20
-105.002
11
44.4768
21
-106.704
0
LINE
8
BLACK
6
CONTINUOUS
10
44.4768
20
-124.052
11
46.1786
21
-125.754
0
LINE
8
BLACK
6
CONTINUOUS
10
46.1786
20
-124.052
11
44.4768
21
-125.754
0
LINE
8
BLACK
6
CONTINUOUS
10
54.0018
20
-143.102
11
55.7036
21
-144.804
0
LINE
8
BLACK
6
CONTINUOUS
10
55.7036
20
-143.102
11
54.0018
21
-144.804
0
LINE
8
BLACK
6
CONTINUOUS
10
54.6368
20
-66.9022
11
56.3386
21
-68.604
0
LINE
8
BLACK
6
CONTINUOUS
10
56.3386
20
-66.9022
11
54.6368
21
-68.604
0
LINE
8
BLACK
6
CONTINUOUS
10
54.6368
20
-85.9522
11
56.3386
21
-87.654
0
LINE
8
BLACK
6
CONTINUOUS
10
56.3386
20
-85.9522
11
54.6368
21
-87.654
0
LINE
8
BLACK
6
CONTINUOUS
10
54.6368
20
-105.002
11
56.3386
21
-106.704
0
LINE
8
BLACK
6
CONTINUOUS
10
56.3386
20
-105.002
11
54.6368
21
-106.704
0
LINE
8
BLACK
6
CONTINUOUS
10
54.6368
20
-124.052
11
56.3386
21
-125.754
0
LINE
8
BLACK
6
CONTINUOUS
10
56.3386
20
-124.052
11
54.6368
21
-125.754
0
LINE
8
BLACK
6
CONTINUOUS
10
63.5268
20
-66.9022
11
65.2286
21
-68.604
0
LINE
8
BLACK
6
CONTINUOUS
10
65.2286
20
-66.9022
11
63.5268
21
-68.604
0
LINE
8
BLACK
6
CONTINUOUS
10
63.5268
20
-85.9522
11
65.2286
21
-87.654
0
LINE
8
BLACK
6
CONTINUOUS
10
65.2286
20
-85.9522
11
63.5268
21
-87.654
0
LINE
8
BLACK
6
CONTINUOUS
10
63.5268
20
-105.002
11
65.2286
21
-106.704
0
LINE
8
BLACK
6
CONTINUOUS
10
65.2286
20
-105.002
11
63.5268
21
-106.704
0
LINE
8
BLACK
6
CONTINUOUS
10
63.5268
20
-124.052
11
65.2286
21
-125.754
0
LINE
8
BLACK
6
CONTINUOUS
10
65.2286
20
-124.052
11
63.5268
21
-125.754
0
LINE
8
BLACK
6
CONTINUOUS
10
64.1618
20
-143.102
11
65.8636
21
-144.804
0
LINE
8
BLACK
6
CONTINUOUS
10
65.8636
20
-143.102
11
64.1618
21
-144.804
0
LINE
8
BLACK
6
CONTINUOUS
10
73.6868
20
-66.9022
11
75.3886
21
-68.604
0
LINE
8
BLACK
6
CONTINUOUS
10
75.3886
20
-66.9022
11
73.6868
21
-68.604
0
LINE
8
BLACK
6
CONTINUOUS
10
73.6868
20
-85.9522
11
75.3886
21
-87.654
0
LINE
8
BLACK
6
CONTINUOUS
10
75.3886
20
-85.9522
11
73.6868
21
-87.654
0
LINE
8
BLACK
6
CONTINUOUS
10
73.6868
20
-105.002
11
75.3886
21
-106.704
0
LINE
8
BLACK
6
CONTINUOUS
10
75.3886
20
-105.002
11
73.6868
21
-106.704
0
LINE
8
BLACK
6
CONTINUOUS
10
73.6868
20
-124.052
11
75.3886
21
-125.754
0
LINE
8
BLACK
6
CONTINUOUS
10
75.3886
20
-124.052
11
73.6868
21
-125.754
0
LINE
8
BLACK
6
CONTINUOUS
10
82.5768
20
-66.9022
11
84.2786
21
-68.604
0
LINE
8
BLACK
6
CONTINUOUS
10
84.2786
20
-66.9022
11
82.5768
21
-68.604
0
LINE
8
BLACK
6
CONTINUOUS
10
82.5768
20
-85.9522
11
84.2786
21
-87.654
0
LINE
8
BLACK
6
CONTINUOUS
10
84.2786
20
-85.9522
11
82.5768
21
-87.654
0
LINE
8
BLACK
6
CONTINUOUS
10
82.5768
20
-105.002
11
84.2786
21
-106.704
0
LINE
8
BLACK
6
CONTINUOUS
10
84.2786
20
-105.002
11
82.5768
21
-106.704
0
LINE
8
BLACK
6
CONTINUOUS
10
82.5768
20
-124.052
11
84.2786
21
-125.754
0
LINE
8
BLACK
6
CONTINUOUS
10
84.2786
20
-124.052
11
82.5768
21
-125.754
0
LINE
8
BLACK
6
CONTINUOUS
10
82.5768
20
-143.102
11
84.2786
21
-144.804
0
LINE
8
BLACK
6
CONTINUOUS
10
84.2786
20
-143.102
11
82.5768
21
-144.804
0
LINE
8
BLACK
6
CONTINUOUS
10
92.7368
20
-66.9022
11
94.4386
21
-68.604
0
LINE
8
BLACK
6
CONTINUOUS
10
94.4386
20
-66.9022
11
92.7368
21
-68.604
0
LINE
8
BLACK
6
CONTINUOUS
10
92.7368
20
-85.9522
11
94.4386
21
-87.654
0
LINE
8
BLACK
6
CONTINUOUS
10
94.4386
20
-85.9522
11
92.7368
21
-87.654
0
LINE
8
BLACK
6
CONTINUOUS
10
92.7368
20
-105.002
11
94.4386
21
-106.704
0
LINE
8
BLACK
6
CONTINUOUS
10
94.4386
20
-105.002
11
92.7368
21
-106.704
0
LINE
8
BLACK
6
CONTINUOUS
10
92.7368
20
-124.052
11
94.4386
21
-125.754
0
LINE
8
BLACK
6
CONTINUOUS
10
94.4386
20
-124.052
11
92.7368
21
-125.754
0
LINE
8
BLACK
6
CONTINUOUS
10
92.7368
20
-143.102
11
94.4386
21
-144.804
0
LINE
8
BLACK
6
CONTINUOUS
10
94.4386
20
-143.102
11
92.7368
21
-144.804
0
LINE
8
BLACK
6
CONTINUOUS
10
101.627
20
-66.9022
11
103.329
21
-68.604
0
LINE
8
BLACK
6
CONTINUOUS
10
103.329
20
-66.9022
11
101.627
21
-68.604
0
LINE
8
BLACK
6
CONTINUOUS
10
106.707
20
-90.3972
11
108.409
21
-92.099
0
LINE
8
BLACK
6
CONTINUOUS
10
108.409
20
-90.3972
11
106.707
21
-92.099
0
LINE
8
BLACK
6
CONTINUOUS
10
106.707
20
-100.557
11
108.409
21
-102.259
0
LINE
8
BLACK
6
CONTINUOUS
10
108.409
20
-100.557
11
106.707
21
-102.259
0
LINE
8
BLACK
6
CONTINUOUS
10
106.707
20
-128.497
11
108.409
21
-130.199
0
LINE
8
BLACK
6
CONTINUOUS
10
108.409
20
-128.497
11
106.707
21
-130.199
0
LINE
8
BLACK
6
CONTINUOUS
10
106.707
20
-138.657
11
108.409
21
-140.359
0
LINE
8
BLACK
6
CONTINUOUS
10
108.409
20
-138.657
11
106.707
21
-140.359
0
LINE
8
BLACK
6
CONTINUOUS
10
111.787
20
-66.9022
11
113.489
21
-68.604
0
LINE
8
BLACK
6
CONTINUOUS
10
113.489
20
-66.9022
11
111.787
21
-68.604
0
CIRCLE
8
BLACK
10
27.5477
20
-65.2131
40
1.5
0
CIRCLE
8
BLACK
10
27.5477
20
-84.2631
40
1.5
0
CIRCLE
8
BLACK
10
27.5477
20
-103.313
40
1.5
0
CIRCLE
8
BLACK
10
27.5477
20
-122.363
40
1.5
0
CIRCLE
8
BLACK
10
27.5477
20
-141.413
40
1.5
0
CIRCLE
8
BLACK
10
33.8977
20
-62.6731
40
1.5
0
CIRCLE
8
BLACK
10
33.8977
20
-81.7231
40
1.5
0
CIRCLE
8
BLACK
10
33.8977
20
-100.773
40
1.5
0
CIRCLE
8
BLACK
10
33.8977
20
-119.823
40
1.5
0
CIRCLE
8
BLACK
10
33.8977
20
-138.873
40
1.5
0
CIRCLE
8
BLACK
10
46.5977
20
-65.2131
40
1.5
0
CIRCLE
8
BLACK
10
46.5977
20
-84.2631
40
1.5
0
CIRCLE
8
BLACK
10
46.5977
20
-103.313
40
1.5
0
CIRCLE
8
BLACK
10
46.5977
20
-122.363
40
1.5
0
CIRCLE
8
BLACK
10
52.9477
20
-62.6731
40
1.5
0
CIRCLE
8
BLACK
10
52.9477
20
-81.7231
40
1.5
0
CIRCLE
8
BLACK
10
52.9477
20
-100.773
40
1.5
0
CIRCLE
8
BLACK
10
52.9477
20
-119.823
40
1.5
0
CIRCLE
8
BLACK
10
56.1227
20
-141.413
40
1.5
0
CIRCLE
8
BLACK
10
62.4727
20
-138.873
40
1.5
0
CIRCLE
8
BLACK
10
65.6477
20
-65.2131
40
1.5
0
CIRCLE
8
BLACK
10
65.6477
20
-84.2631
40
1.5
0
CIRCLE
8
BLACK
10
65.6477
20
-103.313
40
1.5
0
CIRCLE
8
BLACK
10
65.6477
20
-122.363
40
1.5
0
CIRCLE
8
BLACK
10
71.9977
20
-62.6731
40
1.5
0
CIRCLE
8
BLACK
10
71.9977
20
-81.7231
40
1.5
0
CIRCLE
8
BLACK
10
71.9977
20
-100.773
40
1.5
0
CIRCLE
8
BLACK
10
71.9977
20
-119.823
40
1.5
0
CIRCLE
8
BLACK
10
84.6977
20
-65.2131
40
1.5
0
CIRCLE
8
BLACK
10
84.6977
20
-84.2631
40
1.5
0
CIRCLE
8
BLACK
10
84.6977
20
-103.313
40
1.5
0
CIRCLE
8
BLACK
10
84.6977
20
-122.363
40
1.5
0
CIRCLE
8
BLACK
10
84.6977
20
-141.413
40
1.5
0
CIRCLE
8
BLACK
10
91.0477
20
-62.6731
40
1.5
0
CIRCLE
8
BLACK
10
91.0477
20
-81.7231
40
1.5
0
CIRCLE
8
BLACK
10
91.0477
20
-100.773
40
1.5
0
CIRCLE
8
BLACK
10
91.0477
20
-119.823
40
1.5
0
CIRCLE
8
BLACK
10
91.0477
20
-138.873
40
1.5
0
CIRCLE
8
BLACK
10
103.748
20
-65.2131
40
1.5
0
CIRCLE
8
BLACK
10
110.098
20
-62.6731
40
1.5
0
CIRCLE
8
BLACK
10
110.098
20
-92.5181
40
1.5
0
CIRCLE
8
BLACK
10
110.098
20
-130.618
40
1.5
0
CIRCLE
8
BLACK
10
112.638
20
-98.8681
40
1.5
0
CIRCLE
8
BLACK
10
112.638
20
-136.968
40
1.5
0
LINE
8
BLACK
6
CONTINUOUS
10
48.0327
20
-135.428
11
48.0327
21
-138.478
0
LINE
8
BLACK
6
CONTINUOUS
10
46.5077
20
-136.953
11
49.5577
21
-136.953
0
LINE
8
BLACK
6
CONTINUOUS
10
71.8327
20
-135.428
11
71.8327
21
-138.478
0
LINE
8
BLACK
6
CONTINUOUS
10
70.3077
20
-136.953
11
73.3577
21
-136.953
0
LINE
8
BLACK
6
CONTINUOUS
10
114.558
20
-82.9031
11
114.558
21
-85.9531
0
LINE
8
BLACK
6
CONTINUOUS
10
113.033
20
-84.4281
11
116.083
21
-84.4281
0
LINE
8
BLACK
6
CONTINUOUS
10
114.558
20
-106.703
11
114.558
21
-109.753
0
LINE
8
BLACK
6
CONTINUOUS
10
113.033
20
-108.228
11
116.083
21
-108.228
0
LINE
8
BLACK
6
CONTINUOUS
10
114.558
20
-121.003
11
114.558
21
-124.053
0
LINE
8
BLACK
6
CONTINUOUS
10
113.033
20
-122.528
11
116.083
21
-122.528
0
LINE
8
BLACK
6
CONTINUOUS
10
114.558
20
-144.803
11
114.558
21
-147.853
0
LINE
8
BLACK
6
CONTINUOUS
10
113.033
20
-146.328
11
116.083
21
-146.328
0
LINE
8
BLACK
6
CONTINUOUS
10
32.7676
20
-69.163
11
32.7676
21
-66.3432
0
LINE
8
BLACK
6
CONTINUOUS
10
32.7676
20
-66.3432
11
29.9478
21
-66.3432
0
LINE
8
BLACK
6
CONTINUOUS
10
29.9478
20
-66.3432
11
29.9478
21
-69.163
0
LINE
8
BLACK
6
CONTINUOUS
10
29.9478
20
-69.163
11
32.7676
21
-69.163
0
LINE
8
BLACK
6
CONTINUOUS
10
32.7676
20
-88.213
11
32.7676
21
-85.3932
0
LINE
8
BLACK
6
CONTINUOUS
10
32.7676
20
-85.3932
11
29.9478
21
-85.3932
0
LINE
8
BLACK
6
CONTINUOUS
10
29.9478
20
-85.3932
11
29.9478
21
-88.213
0
LINE
8
BLACK
6
CONTINUOUS
10
29.9478
20
-88.213
11
32.7676
21
-88.213
0
LINE
8
BLACK
6
CONTINUOUS
10
32.7676
20
-107.263
11
32.7676
21
-104.443
0
LINE
8
BLACK
6
CONTINUOUS
10
32.7676
20
-104.443
11
29.9478
21
-104.443
0
LINE
8
BLACK
6
CONTINUOUS
10
29.9478
20
-104.443
11
29.9478
21
-107.263
0
LINE
8
BLACK
6
CONTINUOUS
10
29.9478
20
-107.263
11
32.7676
21
-107.263
0
LINE
8
BLACK
6
CONTINUOUS
10
32.7676
20
-126.313
11
32.7676
21
-123.493
0
LINE
8
BLACK
6
CONTINUOUS
10
32.7676
20
-123.493
11
29.9478
21
-123.493
0
LINE
8
BLACK
6
CONTINUOUS
10
29.9478
20
-123.493
11
29.9478
21
-126.313
0
LINE
8
BLACK
6
CONTINUOUS
10
29.9478
20
-126.313
11
32.7676
21
-126.313
0
LINE
8
BLACK
6
CONTINUOUS
10
32.7676
20
-145.363
11
32.7676
21
-142.543
0
LINE
8
BLACK
6
CONTINUOUS
10
32.7676
20
-142.543
11
29.9478
21
-142.543
0
LINE
8
BLACK
6
CONTINUOUS
10
29.9478
20
-142.543
11
29.9478
21
-145.363
0
LINE
8
BLACK
6
CONTINUOUS
10
29.9478
20
-145.363
11
32.7676
21
-145.363
0
LINE
8
BLACK
6
CONTINUOUS
10
51.8176
20
-69.163
11
51.8176
21
-66.3432
0
LINE
8
BLACK
6
CONTINUOUS
10
51.8176
20
-66.3432
11
48.9978
21
-66.3432
0
LINE
8
BLACK
6
CONTINUOUS
10
48.9978
20
-66.3432
11
48.9978
21
-69.163
0
LINE
8
BLACK
6
CONTINUOUS
10
48.9978
20
-69.163
11
51.8176
21
-69.163
0
LINE
8
BLACK
6
CONTINUOUS
10
51.8176
20
-88.213
11
51.8176
21
-85.3932
0
LINE
8
BLACK
6
CONTINUOUS
10
51.8176
20
-85.3932
11
48.9978
21
-85.3932
0
LINE
8
BLACK
6
CONTINUOUS
10
48.9978
20
-85.3932
11
48.9978
21
-88.213
0
LINE
8
BLACK
6
CONTINUOUS
10
48.9978
20
-88.213
11
51.8176
21
-88.213
0
LINE
8
BLACK
6
CONTINUOUS
10
51.8176
20
-107.263
11
51.8176
21
-104.443
0
LINE
8
BLACK
6
CONTINUOUS
10
51.8176
20
-104.443
11
48.9978
21
-104.443
0
LINE
8
BLACK
6
CONTINUOUS
10
48.9978
20
-104.443
11
48.9978
21
-107.263
0
LINE
8
BLACK
6
CONTINUOUS
10
48.9978
20
-107.263
11
51.8176
21
-107.263
0
LINE
8
BLACK
6
CONTINUOUS
10
51.8176
20
-126.313
11
51.8176
21
-123.493
0
LINE
8
BLACK
6
CONTINUOUS
10
51.8176
20
-123.493
11
48.9978
21
-123.493
0
LINE
8
BLACK
6
CONTINUOUS
10
48.9978
20
-123.493
11
48.9978
21
-126.313
0
LINE
8
BLACK
6
CONTINUOUS
10
48.9978
20
-126.313
11
51.8176
21
-126.313
0
LINE
8
BLACK
6
CONTINUOUS
10
61.3426
20
-145.363
11
61.3426
21
-142.543
0
LINE
8
BLACK
6
CONTINUOUS
10
61.3426
20
-142.543
11
58.5228
21
-142.543
0
LINE
8
BLACK
6
CONTINUOUS
10
58.5228
20
-142.543
11
58.5228
21
-145.363
0
LINE
8
BLACK
6
CONTINUOUS
10
58.5228
20
-145.363
11
61.3426
21
-145.363
0
LINE
8
BLACK
6
CONTINUOUS
10
70.8676
20
-69.163
11
70.8676
21
-66.3432
0
LINE
8
BLACK
6
CONTINUOUS
10
70.8676
20
-66.3432
11
68.0478
21
-66.3432
0
LINE
8
BLACK
6
CONTINUOUS
10
68.0478
20
-66.3432
11
68.0478
21
-69.163
0
LINE
8
BLACK
6
CONTINUOUS
10
68.0478
20
-69.163
11
70.8676
21
-69.163
0
LINE
8
BLACK
6
CONTINUOUS
10
70.8676
20
-88.213
11
70.8676
21
-85.3932
0
LINE
8
BLACK
6
CONTINUOUS
10
70.8676
20
-85.3932
11
68.0478
21
-85.3932
0
LINE
8
BLACK
6
CONTINUOUS
10
68.0478
20
-85.3932
11
68.0478
21
-88.213
0
LINE
8
BLACK
6
CONTINUOUS
10
68.0478
20
-88.213
11
70.8676
21
-88.213
0
LINE
8
BLACK
6
CONTINUOUS
10
70.8676
20
-107.263
11
70.8676
21
-104.443
0
LINE
8
BLACK
6
CONTINUOUS
10
70.8676
20
-104.443
11
68.0478
21
-104.443
0
LINE
8
BLACK
6
CONTINUOUS
10
68.0478
20
-104.443
11
68.0478
21
-107.263
0
LINE
8
BLACK
6
CONTINUOUS
10
68.0478
20
-107.263
11
70.8676
21
-107.263
0
LINE
8
BLACK
6
CONTINUOUS
10
70.8676
20
-126.313
11
70.8676
21
-123.493
0
LINE
8
BLACK
6
CONTINUOUS
10
70.8676
20
-123.493
11
68.0478
21
-123.493
0
LINE
8
BLACK
6
CONTINUOUS
10
68.0478
20
-123.493
11
68.0478
21
-126.313
0
LINE
8
BLACK
6
CONTINUOUS
10
68.0478
20
-126.313
11
70.8676
21
-126.313
0
LINE
8
BLACK
6
CONTINUOUS
10
89.9176
20
-69.163
11
89.9176
21
-66.3432
0
LINE
8
BLACK
6
CONTINUOUS
10
89.9176
20
-66.3432
11
87.0978
21
-66.3432
0
LINE
8
BLACK
6
CONTINUOUS
10
87.0978
20
-66.3432
11
87.0978
21
-69.163
0
LINE
8
BLACK
6
CONTINUOUS
10
87.0978
20
-69.163
11
89.9176
21
-69.163
0
LINE
8
BLACK
6
CONTINUOUS
10
89.9176
20
-88.213
11
89.9176
21
-85.3932
0
LINE
8
BLACK
6
CONTINUOUS
10
89.9176
20
-85.3932
11
87.0978
21
-85.3932
0
LINE
8
BLACK
6
CONTINUOUS
10
87.0978
20
-85.3932
11
87.0978
21
-88.213
0
LINE
8
BLACK
6
CONTINUOUS
10
87.0978
20
-88.213
11
89.9176
21
-88.213
0
LINE
8
BLACK
6
CONTINUOUS
10
89.9176
20
-107.263
11
89.9176
21
-104.443
0
LINE
8
BLACK
6
CONTINUOUS
10
89.9176
20
-104.443
11
87.0978
21
-104.443
0
LINE
8
BLACK
6
CONTINUOUS
10
87.0978
20
-104.443
11
87.0978
21
-107.263
0
LINE
8
BLACK
6
CONTINUOUS
10
87.0978
20
-107.263
11
89.9176
21
-107.263
0
LINE
8
BLACK
6
CONTINUOUS
10
89.9176
20
-126.313
11
89.9176
21
-123.493
0
LINE
8
BLACK
6
CONTINUOUS
10
89.9176
20
-123.493
11
87.0978
21
-123.493
0
LINE
8
BLACK
6
CONTINUOUS
10
87.0978
20
-123.493
11
87.0978
21
-126.313
0
LINE
8
BLACK
6
CONTINUOUS
10
87.0978
20
-126.313
11
89.9176
21
-126.313
0
LINE
8
BLACK
6
CONTINUOUS
10
89.9176
20
-145.363
11
89.9176
21
-142.543
0
LINE
8
BLACK
6
CONTINUOUS
10
89.9176
20
-142.543
11
87.0978
21
-142.543
0
LINE
8
BLACK
6
CONTINUOUS
10
87.0978
20
-142.543
11
87.0978
21
-145.363
0
LINE
8
BLACK
6
CONTINUOUS
10
87.0978
20
-145.363
11
89.9176
21
-145.363
0
LINE
8
BLACK
6
CONTINUOUS
10
108.968
20
-69.163
11
108.968
21
-66.3432
0
LINE
8
BLACK
6
CONTINUOUS
10
108.968
20
-66.3432
11
106.148
21
-66.3432
0
LINE
8
BLACK
6
CONTINUOUS
10
106.148
20
-66.3432
11
106.148
21
-69.163
0
LINE
8
BLACK
6
CONTINUOUS
10
106.148
20
-69.163
11
108.968
21
-69.163
0
LINE
8
BLACK
6
CONTINUOUS
10
108.968
20
-97.738
11
108.968
21
-94.9182
0
LINE
8
BLACK
6
CONTINUOUS
10
108.968
20
-94.9182
11
106.148
21
-94.9182
0
LINE
8
BLACK
6
CONTINUOUS
10
106.148
20
-94.9182
11
106.148
21
-97.738
0
LINE
8
BLACK
6
CONTINUOUS
10
106.148
20
-97.738
11
108.968
21
-97.738
0
LINE
8
BLACK
6
CONTINUOUS
10
108.968
20
-135.838
11
108.968
21
-133.018
0
LINE
8
BLACK
6
CONTINUOUS
10
108.968
20
-133.018
11
106.148
21
-133.018
0
LINE
8
BLACK
6
CONTINUOUS
10
106.148
20
-133.018
11
106.148
21
-135.838
0
LINE
8
BLACK
6
CONTINUOUS
10
106.148
20
-135.838
11
108.968
21
-135.838
0
LINE
8
BLACK
6
CONTINUOUS
10
48.0327
20
-154.193
11
50.0327
21
-152.193
0
LINE
8
BLACK
6
CONTINUOUS
10
50.0327
20
-152.193
11
48.0327
21
-150.193
0
LINE
8
BLACK
6
CONTINUOUS
10
48.0327
20
-150.193
11
46.0327
21
-152.193
0
LINE
8
BLACK
6
CONTINUOUS
10
46.0327
20
-152.193
11
48.0327
21
-154.193
0
LINE
8
BLACK
6
CONTINUOUS
10
71.8327
20
-154.193
11
73.8327
21
-152.193
0
LINE
8
BLACK
6
CONTINUOUS
10
73.8327
20
-152.193
11
71.8327
21
-150.193
0
LINE
8
BLACK
6
CONTINUOUS
10
71.8327
20
-150.193
11
69.8327
21
-152.193
0
LINE
8
BLACK
6
CONTINUOUS
10
69.8327
20
-152.193
11
71.8327
21
-154.193
0
LINE
8
BLACK
6
CONTINUOUS
10
99.3177
20
-86.4281
11
101.318
21
-84.4281
0
LINE
8
BLACK
6
CONTINUOUS
10
101.318
20
-84.4281
11
99.3177
21
-82.4281
0
LINE
8
BLACK
6
CONTINUOUS
10
99.3177
20
-82.4281
11
97.3177
21
-84.4281
0
LINE
8
BLACK
6
CONTINUOUS
10
97.3177
20
-84.4281
11
99.3177
21
-86.4281
0
LINE
8
BLACK
6
CONTINUOUS
10
99.3177
20
-110.228
11
101.318
21
-108.228
0
LINE
8
BLACK
6
CONTINUOUS
10
101.318
20
-108.228
11
99.3177
21
-106.228
0
LINE
8
BLACK
6
CONTINUOUS
10
99.3177
20
-106.228
11
97.3177
21
-108.228
0
LINE
8
BLACK
6
CONTINUOUS
10
97.3177
20
-108.228
11
99.3177
21
-110.228
0
LINE
8
BLACK
6
CONTINUOUS
10
99.3177
20
-124.528
11
101.318
21
-122.528
0
LINE
8
BLACK
6
CONTINUOUS
10
101.318
20
-122.528
11
99.3177
21
-120.528
0
LINE
8
BLACK
6
CONTINUOUS
10
99.3177
20
-120.528
11
97.3177
21
-122.528
0
LINE
8
BLACK
6
CONTINUOUS
10
97.3177
20
-122.528
11
99.3177
21
-124.528
0
LINE
8
BLACK
6
CONTINUOUS
10
99.3177
20
-148.328
11
101.318
21
-146.328
0
LINE
8
BLACK
6
CONTINUOUS
10
101.318
20
-146.328
11
99.3177
21
-144.328
0
LINE
8
BLACK
6
CONTINUOUS
10
99.3177
20
-144.328
11
97.3177
21
-146.328
0
LINE
8
BLACK
6
CONTINUOUS
10
97.3177
20
-146.328
11
99.3177
21
-148.328
0
LINE
8
BLACK
6
CONTINUOUS
10
22.7684
20
-158.173
11
22.7684
21
-156.173
0
LINE
8
BLACK
6
CONTINUOUS
10
22.7684
20
-156.173
11
23.2446
21
-156.173
0
LINE
8
BLACK
6
CONTINUOUS
10
23.2446
20
-156.173
11
23.5303
21
-156.268
0
LINE
8
BLACK
6
CONTINUOUS
10
23.5303
20
-156.268
11
23.7208
21
-156.458
0
LINE
8
BLACK
6
CONTINUOUS
10
23.7208
20
-156.458
11
23.816
21
-156.649
0
LINE
8
BLACK
6
CONTINUOUS
10
23.816
20
-156.649
11
23.9113
21
-157.03
0
LINE
8
BLACK
6
CONTINUOUS
10
23.9113
20
-157.03
11
23.9113
21
-157.315
0
LINE
8
BLACK
6
CONTINUOUS
10
23.9113
20
-157.315
11
23.816
21
-157.696
0
LINE
8
BLACK
6
CONTINUOUS
10
23.816
20
-157.696
11
23.7208
21
-157.887
0
LINE
8
BLACK
6
CONTINUOUS
10
23.7208
20
-157.887
11
23.5303
21
-158.077
0
LINE
8
BLACK
6
CONTINUOUS
10
23.5303
20
-158.077
11
23.2446
21
-158.173
0
LINE
8
BLACK
6
CONTINUOUS
10
23.2446
20
-158.173
11
22.7684
21
-158.173
0
LINE
8
BLACK
6
CONTINUOUS
10
24.7684
20
-158.173
11
24.7684
21
-156.839
0
LINE
8
BLACK
6
CONTINUOUS
10
24.7684
20
-157.22
11
24.8636
21
-157.03
0
LINE
8
BLACK
6
CONTINUOUS
10
24.8636
20
-157.03
11
24.9589
21
-156.934
0
LINE
8
BLACK
6
CONTINUOUS
10
24.9589
20
-156.934
11
25.1494
21
-156.839
0
LINE
8
BLACK
6
CONTINUOUS
10
25.1494
20
-156.839
11
25.3398
21
-156.839
0
LINE
8
BLACK
6
CONTINUOUS
10
26.0065
20
-158.173
11
26.0065
21
-156.839
0
LINE
8
BLACK
6
CONTINUOUS
10
26.0065
20
-156.173
11
25.9113
21
-156.268
0
LINE
8
BLACK
6
CONTINUOUS
10
25.9113
20
-156.268
11
26.0065
21
-156.363
0
LINE
8
BLACK
6
CONTINUOUS
10
26.0065
20
-156.363
11
26.1017
21
-156.268
0
LINE
8
BLACK
6
CONTINUOUS
10
26.1017
20
-156.268
11
26.0065
21
-156.173
0
LINE
8
BLACK
6
CONTINUOUS
10
26.0065
20
-156.173
11
26.0065
21
-156.363
0
LINE
8
BLACK
6
CONTINUOUS
10
27.2446
20
-158.173
11
27.0541
21
-158.077
0
LINE
8
BLACK
6
CONTINUOUS
10
27.0541
20
-158.077
11
26.9589
21
-157.887
0
LINE
8
BLACK
6
CONTINUOUS
10
26.9589
20
-157.887
11
26.9589
21
-156.173
0
LINE
8
BLACK
6
CONTINUOUS
10
28.2922
20
-158.173
11
28.1017
21
-158.077
0
LINE
8
BLACK
6
CONTINUOUS
10
28.1017
20
-158.077
11
28.0065
21
-157.887
0
LINE
8
BLACK
6
CONTINUOUS
10
28.0065
20
-157.887
11
28.0065
21
-156.173
0
LINE
8
BLACK
6
CONTINUOUS
10
30.5779
20
-158.173
11
30.5779
21
-156.173
0
LINE
8
BLACK
6
CONTINUOUS
10
30.5779
20
-156.173
11
31.2446
21
-157.601
0
LINE
8
BLACK
6
CONTINUOUS
10
31.2446
20
-157.601
11
31.9113
21
-156.173
0
LINE
8
BLACK
6
CONTINUOUS
10
31.9113
20
-156.173
11
31.9113
21
-158.173
0
LINE
8
BLACK
6
CONTINUOUS
10
33.7208
20
-158.173
11
33.7208
21
-157.125
0
LINE
8
BLACK
6
CONTINUOUS
10
33.7208
20
-157.125
11
33.6255
21
-156.934
0
LINE
8
BLACK
6
CONTINUOUS
10
33.6255
20
-156.934
11
33.4351
21
-156.839
0
LINE
8
BLACK
6
CONTINUOUS
10
33.4351
20
-156.839
11
33.0541
21
-156.839
0
LINE
8
BLACK
6
CONTINUOUS
10
33.0541
20
-156.839
11
32.8636
21
-156.934
0
LINE
8
BLACK
6
CONTINUOUS
10
33.7208
20
-158.077
11
33.5303
21
-158.173
0
LINE
8
BLACK
6
CONTINUOUS
10
33.5303
20
-158.173
11
33.0541
21
-158.173
0
LINE
8
BLACK
6
CONTINUOUS
10
33.0541
20
-158.173
11
32.8636
21
-158.077
0
LINE
8
BLACK
6
CONTINUOUS
10
32.8636
20
-158.077
11
32.7684
21
-157.887
0
LINE
8
BLACK
6
CONTINUOUS
10
32.7684
20
-157.887
11
32.7684
21
-157.696
0
LINE
8
BLACK
6
CONTINUOUS
10
32.7684
20
-157.696
11
32.8636
21
-157.506
0
LINE
8
BLACK
6
CONTINUOUS
10
32.8636
20
-157.506
11
33.0541
21
-157.411
0
LINE
8
BLACK
6
CONTINUOUS
10
33.0541
20
-157.411
11
33.5303
21
-157.411
0
LINE
8
BLACK
6
CONTINUOUS
10
33.5303
20
-157.411
11
33.7208
21
-157.315
0
LINE
8
BLACK
6
CONTINUOUS
10
34.6732
20
-156.839
11
34.6732
21
-158.839
0
LINE
8
BLACK
6
CONTINUOUS
10
34.6732
20
-156.934
11
34.8636
21
-156.839
0
LINE
8
BLACK
6
CONTINUOUS
10
34.8636
20
-156.839
11
35.2446
21
-156.839
0
LINE
8
BLACK
6
CONTINUOUS
10
35.2446
20
-156.839
11
35.4351
21
-156.934
0
LINE
8
BLACK
6
CONTINUOUS
10
35.4351
20
-156.934
11
35.5303
21
-157.03
0
LINE
8
BLACK
6
CONTINUOUS
10
35.5303
20
-157.03
11
35.6255
21
-157.22
0
LINE
8
BLACK
6
CONTINUOUS
10
35.6255
20
-157.22
11
35.6255
21
-157.792
0
LINE
8
BLACK
6
CONTINUOUS
10
35.6255
20
-157.792
11
35.5303
21
-157.982
0
LINE
8
BLACK
6
CONTINUOUS
10
35.5303
20
-157.982
11
35.4351
21
-158.077
0
LINE
8
BLACK
6
CONTINUOUS
10
35.4351
20
-158.077
11
35.2446
21
-158.173
0
LINE
8
BLACK
6
CONTINUOUS
10
35.2446
20
-158.173
11
34.8636
21
-158.173
0
LINE
8
BLACK
6
CONTINUOUS
10
34.8636
20
-158.173
11
34.6732
21
-158.077
0
LINE
8
BLACK
6
CONTINUOUS
10
36.4827
20
-157.982
11
36.5779
21
-158.077
0
LINE
8
BLACK
6
CONTINUOUS
10
36.5779
20
-158.077
11
36.4827
21
-158.173
0
LINE
8
BLACK
6
CONTINUOUS
10
36.4827
20
-158.173
11
36.3874
21
-158.077
0
LINE
8
BLACK
6
CONTINUOUS
10
36.3874
20
-158.077
11
36.4827
21
-157.982
0
LINE
8
BLACK
6
CONTINUOUS
10
36.4827
20
-157.982
11
36.4827
21
-158.173
0
LINE
8
BLACK
6
CONTINUOUS
10
36.4827
20
-156.934
11
36.5779
21
-157.03
0
LINE
8
BLACK
6
CONTINUOUS
10
36.5779
20
-157.03
11
36.4827
21
-157.125
0
LINE
8
BLACK
6
CONTINUOUS
10
36.4827
20
-157.125
11
36.3874
21
-157.03
0
LINE
8
BLACK
6
CONTINUOUS
10
36.3874
20
-157.03
11
36.4827
21
-156.934
0
LINE
8
BLACK
6
CONTINUOUS
10
36.4827
20
-156.934
11
36.4827
21
-157.125
0
LINE
8
BLACK
6
CONTINUOUS
10
18.4904
20
-160.617
11
20.1922
21
-162.319
0
LINE
8
BLACK
6
CONTINUOUS
10
20.1922
20
-160.617
11
18.4904
21
-162.319
0
LINE
8
BLACK
6
CONTINUOUS
10
23.816
20
-162.373
11
22.6732
21
-162.373
0
LINE
8
BLACK
6
CONTINUOUS
10
23.2446
20
-162.373
11
23.2446
21
-160.373
0
LINE
8
BLACK
6
CONTINUOUS
10
23.2446
20
-160.373
11
23.0541
21
-160.658
0
LINE
8
BLACK
6
CONTINUOUS
10
23.0541
20
-160.658
11
22.8636
21
-160.849
0
LINE
8
BLACK
6
CONTINUOUS
10
22.8636
20
-160.849
11
22.6732
21
-160.944
0
LINE
8
BLACK
6
CONTINUOUS
10
24.6732
20
-162.182
11
24.7684
21
-162.277
0
LINE
8
BLACK
6
CONTINUOUS
10
24.7684
20
-162.277
11
24.6732
21
-162.373
0
LINE
8
BLACK
6
CONTINUOUS
10
24.6732
20
-162.373
11
24.5779
21
-162.277
0
LINE
8
BLACK
6
CONTINUOUS
10
24.5779
20
-162.277
11
24.6732
21
-162.182
0
LINE
8
BLACK
6
CONTINUOUS
10
24.6732
20
-162.182
11
24.6732
21
-162.373
0
LINE
8
BLACK
6
CONTINUOUS
10
25.4351
20
-160.373
11
26.7684
21
-160.373
0
LINE
8
BLACK
6
CONTINUOUS
10
26.7684
20
-160.373
11
25.9113
21
-162.373
0
LINE
8
BLACK
6
CONTINUOUS
10
27.9113
20
-160.373
11
28.1017
21
-160.373
0
LINE
8
BLACK
6
CONTINUOUS
10
28.1017
20
-160.373
11
28.2922
21
-160.468
0
LINE
8
BLACK
6
CONTINUOUS
10
28.2922
20
-160.468
11
28.3874
21
-160.563
0
LINE
8
BLACK
6
CONTINUOUS
10
28.3874
20
-160.563
11
28.4827
21
-160.754
0
LINE
8
BLACK
6
CONTINUOUS
10
28.4827
20
-160.754
11
28.5779
21
-161.134
0
LINE
8
BLACK
6
CONTINUOUS
10
28.5779
20
-161.134
11
28.5779
21
-161.611
0
LINE
8
BLACK
6
CONTINUOUS
10
28.5779
20
-161.611
11
28.4827
21
-161.992
0
LINE
8
BLACK
6
CONTINUOUS
10
28.4827
20
-161.992
11
28.3874
21
-162.182
0
LINE
8
BLACK
6
CONTINUOUS
10
28.3874
20
-162.182
11
28.2922
21
-162.277
0
LINE
8
BLACK
6
CONTINUOUS
10
28.2922
20
-162.277
11
28.1017
21
-162.373
0
LINE
8
BLACK
6
CONTINUOUS
10
28.1017
20
-162.373
11
27.9113
21
-162.373
0
LINE
8
BLACK
6
CONTINUOUS
10
27.9113
20
-162.373
11
27.7208
21
-162.277
0
LINE
8
BLACK
6
CONTINUOUS
10
27.7208
20
-162.277
11
27.6255
21
-162.182
0
LINE
8
BLACK
6
CONTINUOUS
10
27.6255
20
-162.182
11
27.5303
21
-161.992
0
LINE
8
BLACK
6
CONTINUOUS
10
27.5303
20
-161.992
11
27.4351
21
-161.611
0
LINE
8
BLACK
6
CONTINUOUS
10
27.4351
20
-161.611
11
27.4351
21
-161.134
0
LINE
8
BLACK
6
CONTINUOUS
10
27.4351
20
-161.134
11
27.5303
21
-160.754
0
LINE
8
BLACK
6
CONTINUOUS
10
27.5303
20
-160.754
11
27.6255
21
-160.563
0
LINE
8
BLACK
6
CONTINUOUS
10
27.6255
20
-160.563
11
27.7208
21
-160.468
0
LINE
8
BLACK
6
CONTINUOUS
10
27.7208
20
-160.468
11
27.9113
21
-160.373
0
LINE
8
BLACK
6
CONTINUOUS
10
29.3398
20
-160.563
11
29.4351
21
-160.468
0
LINE
8
BLACK
6
CONTINUOUS
10
29.4351
20
-160.468
11
29.6255
21
-160.373
0
LINE
8
BLACK
6
CONTINUOUS
10
29.6255
20
-160.373
11
30.1017
21
-160.373
0
LINE
8
BLACK
6
CONTINUOUS
10
30.1017
20
-160.373
11
30.2922
21
-160.468
0
LINE
8
BLACK
6
CONTINUOUS
10
30.2922
20
-160.468
11
30.3874
21
-160.563
0
LINE
8
BLACK
6
CONTINUOUS
10
30.3874
20
-160.563
11
30.4827
21
-160.754
0
LINE
8
BLACK
6
CONTINUOUS
10
30.4827
20
-160.754
11
30.4827
21
-160.944
0
LINE
8
BLACK
6
CONTINUOUS
10
30.4827
20
-160.944
11
30.3874
21
-161.23
0
LINE
8
BLACK
6
CONTINUOUS
10
30.3874
20
-161.23
11
29.2446
21
-162.373
0
LINE
8
BLACK
6
CONTINUOUS
10
29.2446
20
-162.373
11
30.4827
21
-162.373
0
LINE
8
BLACK
6
CONTINUOUS
10
31.3398
20
-162.373
11
31.3398
21
-161.039
0
LINE
8
BLACK
6
CONTINUOUS
10
31.3398
20
-161.23
11
31.4351
21
-161.134
0
LINE
8
BLACK
6
CONTINUOUS
10
31.4351
20
-161.134
11
31.6255
21
-161.039
0
LINE
8
BLACK
6
CONTINUOUS
10
31.6255
20
-161.039
11
31.9113
21
-161.039
0
LINE
8
BLACK
6
CONTINUOUS
10
31.9113
20
-161.039
11
32.1017
21
-161.134
0
LINE
8
BLACK
6
CONTINUOUS
10
32.1017
20
-161.134
11
32.197
21
-161.325
0
LINE
8
BLACK
6
CONTINUOUS
10
32.197
20
-161.325
11
32.197
21
-162.373
0
LINE
8
BLACK
6
CONTINUOUS
10
32.197
20
-161.325
11
32.2922
21
-161.134
0
LINE
8
BLACK
6
CONTINUOUS
10
32.2922
20
-161.134
11
32.4827
21
-161.039
0
LINE
8
BLACK
6
CONTINUOUS
10
32.4827
20
-161.039
11
32.7684
21
-161.039
0
LINE
8
BLACK
6
CONTINUOUS
10
32.7684
20
-161.039
11
32.9589
21
-161.134
0
LINE
8
BLACK
6
CONTINUOUS
10
32.9589
20
-161.134
11
33.0541
21
-161.325
0
LINE
8
BLACK
6
CONTINUOUS
10
33.0541
20
-161.325
11
33.0541
21
-162.373
0
LINE
8
BLACK
6
CONTINUOUS
10
34.0065
20
-162.373
11
34.0065
21
-161.039
0
LINE
8
BLACK
6
CONTINUOUS
10
34.0065
20
-161.23
11
34.1017
21
-161.134
0
LINE
8
BLACK
6
CONTINUOUS
10
34.1017
20
-161.134
11
34.2922
21
-161.039
0
LINE
8
BLACK
6
CONTINUOUS
10
34.2922
20
-161.039
11
34.5779
21
-161.039
0
LINE
8
BLACK
6
CONTINUOUS
10
34.5779
20
-161.039
11
34.7684
21
-161.134
0
LINE
8
BLACK
6
CONTINUOUS
10
34.7684
20
-161.134
11
34.8636
21
-161.325
0
LINE
8
BLACK
6
CONTINUOUS
10
34.8636
20
-161.325
11
34.8636
21
-162.373
0
LINE
8
BLACK
6
CONTINUOUS
10
34.8636
20
-161.325
11
34.9589
21
-161.134
0
LINE
8
BLACK
6
CONTINUOUS
10
34.9589
20
-161.134
11
35.1494
21
-161.039
0
LINE
8
BLACK
6
CONTINUOUS
10
35.1494
20
-161.039
11
35.4351
21
-161.039
0
LINE
8
BLACK
6
CONTINUOUS
10
35.4351
20
-161.039
11
35.6255
21
-161.134
0
LINE
8
BLACK
6
CONTINUOUS
10
35.6255
20
-161.134
11
35.7208
21
-161.325
0
LINE
8
BLACK
6
CONTINUOUS
10
35.7208
20
-161.325
11
35.7208
21
-162.373
0
LINE
8
BLACK
6
CONTINUOUS
10
39.6255
20
-160.277
11
37.9113
21
-162.849
0
LINE
8
BLACK
6
CONTINUOUS
10
42.197
20
-160.373
11
42.3874
21
-160.373
0
LINE
8
BLACK
6
CONTINUOUS
10
42.3874
20
-160.373
11
42.5779
21
-160.468
0
LINE
8
BLACK
6
CONTINUOUS
10
42.5779
20
-160.468
11
42.6732
21
-160.563
0
LINE
8
BLACK
6
CONTINUOUS
10
42.6732
20
-160.563
11
42.7684
21
-160.754
0
LINE
8
BLACK
6
CONTINUOUS
10
42.7684
20
-160.754
11
42.8636
21
-161.134
0
LINE
8
BLACK
6
CONTINUOUS
10
42.8636
20
-161.134
11
42.8636
21
-161.611
0
LINE
8
BLACK
6
CONTINUOUS
10
42.8636
20
-161.611
11
42.7684
21
-161.992
0
LINE
8
BLACK
6
CONTINUOUS
10
42.7684
20
-161.992
11
42.6732
21
-162.182
0
LINE
8
BLACK
6
CONTINUOUS
10
42.6732
20
-162.182
11
42.5779
21
-162.277
0
LINE
8
BLACK
6
CONTINUOUS
10
42.5779
20
-162.277
11
42.3874
21
-162.373
0
LINE
8
BLACK
6
CONTINUOUS
10
42.3874
20
-162.373
11
42.197
21
-162.373
0
LINE
8
BLACK
6
CONTINUOUS
10
42.197
20
-162.373
11
42.0065
21
-162.277
0
LINE
8
BLACK
6
CONTINUOUS
10
42.0065
20
-162.277
11
41.9113
21
-162.182
0
LINE
8
BLACK
6
CONTINUOUS
10
41.9113
20
-162.182
11
41.816
21
-161.992
0
LINE
8
BLACK
6
CONTINUOUS
10
41.816
20
-161.992
11
41.7208
21
-161.611
0
LINE
8
BLACK
6
CONTINUOUS
10
41.7208
20
-161.611
11
41.7208
21
-161.134
0
LINE
8
BLACK
6
CONTINUOUS
10
41.7208
20
-161.134
11
41.816
21
-160.754
0
LINE
8
BLACK
6
CONTINUOUS
10
41.816
20
-160.754
11
41.9113
21
-160.563
0
LINE
8
BLACK
6
CONTINUOUS
10
41.9113
20
-160.563
11
42.0065
21
-160.468
0
LINE
8
BLACK
6
CONTINUOUS
10
42.0065
20
-160.468
11
42.197
21
-160.373
0
LINE
8
BLACK
6
CONTINUOUS
10
43.7208
20
-162.182
11
43.816
21
-162.277
0
LINE
8
BLACK
6
CONTINUOUS
10
43.816
20
-162.277
11
43.7208
21
-162.373
0
LINE
8
BLACK
6
CONTINUOUS
10
43.7208
20
-162.373
11
43.6255
21
-162.277
0
LINE
8
BLACK
6
CONTINUOUS
10
43.6255
20
-162.277
11
43.7208
21
-162.182
0
LINE
8
BLACK
6
CONTINUOUS
10
43.7208
20
-162.182
11
43.7208
21
-162.373
0
LINE
8
BLACK
6
CONTINUOUS
10
45.0541
20
-160.373
11
45.2446
21
-160.373
0
LINE
8
BLACK
6
CONTINUOUS
10
45.2446
20
-160.373
11
45.4351
21
-160.468
0
LINE
8
BLACK
6
CONTINUOUS
10
45.4351
20
-160.468
11
45.5303
21
-160.563
0
LINE
8
BLACK
6
CONTINUOUS
10
45.5303
20
-160.563
11
45.6255
21
-160.754
0
LINE
8
BLACK
6
CONTINUOUS
10
45.6255
20
-160.754
11
45.7208
21
-161.134
0
LINE
8
BLACK
6
CONTINUOUS
10
45.7208
20
-161.134
11
45.7208
21
-161.611
0
LINE
8
BLACK
6
CONTINUOUS
10
45.7208
20
-161.611
11
45.6255
21
-161.992
0
LINE
8
BLACK
6
CONTINUOUS
10
45.6255
20
-161.992
11
45.5303
21
-162.182
0
LINE
8
BLACK
6
CONTINUOUS
10
45.5303
20
-162.182
11
45.4351
21
-162.277
0
LINE
8
BLACK
6
CONTINUOUS
10
45.4351
20
-162.277
11
45.2446
21
-162.373
0
LINE
8
BLACK
6
CONTINUOUS
10
45.2446
20
-162.373
11
45.0541
21
-162.373
0
LINE
8
BLACK
6
CONTINUOUS
10
45.0541
20
-162.373
11
44.8636
21
-162.277
0
LINE
8
BLACK
6
CONTINUOUS
10
44.8636
20
-162.277
11
44.7684
21
-162.182
0
LINE
8
BLACK
6
CONTINUOUS
10
44.7684
20
-162.182
11
44.6732
21
-161.992
0
LINE
8
BLACK
6
CONTINUOUS
10
44.6732
20
-161.992
11
44.5779
21
-161.611
0
LINE
8
BLACK
6
CONTINUOUS
10
44.5779
20
-161.611
11
44.5779
21
-161.134
0
LINE
8
BLACK
6
CONTINUOUS
10
44.5779
20
-161.134
11
44.6732
21
-160.754
0
LINE
8
BLACK
6
CONTINUOUS
10
44.6732
20
-160.754
11
44.7684
21
-160.563
0
LINE
8
BLACK
6
CONTINUOUS
10
44.7684
20
-160.563
11
44.8636
21
-160.468
0
LINE
8
BLACK
6
CONTINUOUS
10
44.8636
20
-160.468
11
45.0541
21
-160.373
0
LINE
8
BLACK
6
CONTINUOUS
10
47.4351
20
-160.373
11
47.0541
21
-160.373
0
LINE
8
BLACK
6
CONTINUOUS
10
47.0541
20
-160.373
11
46.8636
21
-160.468
0
LINE
8
BLACK
6
CONTINUOUS
10
46.8636
20
-160.468
11
46.7684
21
-160.563
0
LINE
8
BLACK
6
CONTINUOUS
10
46.7684
20
-160.563
11
46.5779
21
-160.849
0
LINE
8
BLACK
6
CONTINUOUS
10
46.5779
20
-160.849
11
46.4827
21
-161.23
0
LINE
8
BLACK
6
CONTINUOUS
10
46.4827
20
-161.23
11
46.4827
21
-161.992
0
LINE
8
BLACK
6
CONTINUOUS
10
46.4827
20
-161.992
11
46.5779
21
-162.182
0
LINE
8
BLACK
6
CONTINUOUS
10
46.5779
20
-162.182
11
46.6732
21
-162.277
0
LINE
8
BLACK
6
CONTINUOUS
10
46.6732
20
-162.277
11
46.8636
21
-162.373
0
LINE
8
BLACK
6
CONTINUOUS
10
46.8636
20
-162.373
11
47.2446
21
-162.373
0
LINE
8
BLACK
6
CONTINUOUS
10
47.2446
20
-162.373
11
47.4351
21
-162.277
0
LINE
8
BLACK
6
CONTINUOUS
10
47.4351
20
-162.277
11
47.5303
21
-162.182
0
LINE
8
BLACK
6
CONTINUOUS
10
47.5303
20
-162.182
11
47.6255
21
-161.992
0
LINE
8
BLACK
6
CONTINUOUS
10
47.6255
20
-161.992
11
47.6255
21
-161.515
0
LINE
8
BLACK
6
CONTINUOUS
10
47.6255
20
-161.515
11
47.5303
21
-161.325
0
LINE
8
BLACK
6
CONTINUOUS
10
47.5303
20
-161.325
11
47.4351
21
-161.23
0
LINE
8
BLACK
6
CONTINUOUS
10
47.4351
20
-161.23
11
47.2446
21
-161.134
0
LINE
8
BLACK
6
CONTINUOUS
10
47.2446
20
-161.134
11
46.8636
21
-161.134
0
LINE
8
BLACK
6
CONTINUOUS
10
46.8636
20
-161.134
11
46.6732
21
-161.23
0
LINE
8
BLACK
6
CONTINUOUS
10
46.6732
20
-161.23
11
46.5779
21
-161.325
0
LINE
8
BLACK
6
CONTINUOUS
10
46.5779
20
-161.325
11
46.4827
21
-161.515
0
LINE
8
BLACK
6
CONTINUOUS
10
48.2922
20
-160.373
11
49.6255
21
-160.373
0
LINE
8
BLACK
6
CONTINUOUS
10
49.6255
20
-160.373
11
48.7684
21
-162.373
0
LINE
8
BLACK
6
CONTINUOUS
10
50.7684
20
-160.373
11
50.9589
21
-160.373
0
LINE
8
BLACK
6
CONTINUOUS
10
50.9589
20
-160.373
11
51.1494
21
-160.468
0
LINE
8
BLACK
6
CONTINUOUS
10
51.1494
20
-160.468
11
51.2446
21
-160.563
0
LINE
8
BLACK
6
CONTINUOUS
10
51.2446
20
-160.563
11
51.3398
21
-160.754
0
LINE
8
BLACK
6
CONTINUOUS
10
51.3398
20
-160.754
11
51.4351
21
-161.134
0
LINE
8
BLACK
6
CONTINUOUS
10
51.4351
20
-161.134
11
51.4351
21
-161.611
0
LINE
8
BLACK
6
CONTINUOUS
10
51.4351
20
-161.611
11
51.3398
21
-161.992
0
LINE
8
BLACK
6
CONTINUOUS
10
51.3398
20
-161.992
11
51.2446
21
-162.182
0
LINE
8
BLACK
6
CONTINUOUS
10
51.2446
20
-162.182
11
51.1494
21
-162.277
0
LINE
8
BLACK
6
CONTINUOUS
10
51.1494
20
-162.277
11
50.9589
21
-162.373
0
LINE
8
BLACK
6
CONTINUOUS
10
50.9589
20
-162.373
11
50.7684
21
-162.373
0
LINE
8
BLACK
6
CONTINUOUS
10
50.7684
20
-162.373
11
50.5779
21
-162.277
0
LINE
8
BLACK
6
CONTINUOUS
10
50.5779
20
-162.277
11
50.4827
21
-162.182
0
LINE
8
BLACK
6
CONTINUOUS
10
50.4827
20
-162.182
11
50.3874
21
-161.992
0
LINE
8
BLACK
6
CONTINUOUS
10
50.3874
20
-161.992
11
50.2922
21
-161.611
0
LINE
8
BLACK
6
CONTINUOUS
10
50.2922
20
-161.611
11
50.2922
21
-161.134
0
LINE
8
BLACK
6
CONTINUOUS
10
50.2922
20
-161.134
11
50.3874
21
-160.754
0
LINE
8
BLACK
6
CONTINUOUS
10
50.3874
20
-160.754
11
50.4827
21
-160.563
0
LINE
8
BLACK
6
CONTINUOUS
10
50.4827
20
-160.563
11
50.5779
21
-160.468
0
LINE
8
BLACK
6
CONTINUOUS
10
50.5779
20
-160.468
11
50.7684
21
-160.373
0
LINE
8
BLACK
6
CONTINUOUS
10
52.197
20
-160.373
11
52.197
21
-160.754
0
LINE
8
BLACK
6
CONTINUOUS
10
52.9589
20
-160.373
11
52.9589
21
-160.754
0
LINE
8
BLACK
6
CONTINUOUS
10
55.9113
20
-163.134
11
55.816
21
-163.039
0
LINE
8
BLACK
6
CONTINUOUS
10
55.816
20
-163.039
11
55.6255
21
-162.754
0
LINE
8
BLACK
6
CONTINUOUS
10
55.6255
20
-162.754
11
55.5303
21
-162.563
0
LINE
8
BLACK
6
CONTINUOUS
10
55.5303
20
-162.563
11
55.4351
21
-162.277
0
LINE
8
BLACK
6
CONTINUOUS
10
55.4351
20
-162.277
11
55.3398
21
-161.801
0
LINE
8
BLACK
6
CONTINUOUS
10
55.3398
20
-161.801
11
55.3398
21
-161.42
0
LINE
8
BLACK
6
CONTINUOUS
10
55.3398
20
-161.42
11
55.4351
21
-160.944
0
LINE
8
BLACK
6
CONTINUOUS
10
55.4351
20
-160.944
11
55.5303
21
-160.658
0
LINE
8
BLACK
6
CONTINUOUS
10
55.5303
20
-160.658
11
55.6255
21
-160.468
0
LINE
8
BLACK
6
CONTINUOUS
10
55.6255
20
-160.468
11
55.816
21
-160.182
0
LINE
8
BLACK
6
CONTINUOUS
10
55.816
20
-160.182
11
55.9113
21
-160.087
0
LINE
8
BLACK
6
CONTINUOUS
10
57.5303
20
-161.039
11
57.5303
21
-162.373
0
LINE
8
BLACK
6
CONTINUOUS
10
57.0541
20
-160.277
11
56.5779
21
-161.706
0
LINE
8
BLACK
6
CONTINUOUS
10
56.5779
20
-161.706
11
57.816
21
-161.706
0
LINE
8
BLACK
6
CONTINUOUS
10
59.4351
20
-161.039
11
59.4351
21
-162.373
0
LINE
8
BLACK
6
CONTINUOUS
10
58.9589
20
-160.277
11
58.4827
21
-161.706
0
LINE
8
BLACK
6
CONTINUOUS
10
58.4827
20
-161.706
11
59.7208
21
-161.706
0
LINE
8
BLACK
6
CONTINUOUS
10
62.0065
20
-162.373
11
62.0065
21
-160.373
0
LINE
8
BLACK
6
CONTINUOUS
10
62.8636
20
-162.373
11
62.8636
21
-161.325
0
LINE
8
BLACK
6
CONTINUOUS
10
62.8636
20
-161.325
11
62.7684
21
-161.134
0
LINE
8
BLACK
6
CONTINUOUS
10
62.7684
20
-161.134
11
62.5779
21
-161.039
0
LINE
8
BLACK
6
CONTINUOUS
10
62.5779
20
-161.039
11
62.2922
21
-161.039
0
LINE
8
BLACK
6
CONTINUOUS
10
62.2922
20
-161.039
11
62.1017
21
-161.134
0
LINE
8
BLACK
6
CONTINUOUS
10
62.1017
20
-161.134
11
62.0065
21
-161.23
0
LINE
8
BLACK
6
CONTINUOUS
10
64.1017
20
-162.373
11
63.9113
21
-162.277
0
LINE
8
BLACK
6
CONTINUOUS
10
63.9113
20
-162.277
11
63.816
21
-162.182
0
LINE
8
BLACK
6
CONTINUOUS
10
63.816
20
-162.182
11
63.7208
21
-161.992
0
LINE
8
BLACK
6
CONTINUOUS
10
63.7208
20
-161.992
11
63.7208
21
-161.42
0
LINE
8
BLACK
6
CONTINUOUS
10
63.7208
20
-161.42
11
63.816
21
-161.23
0
LINE
8
BLACK
6
CONTINUOUS
10
63.816
20
-161.23
11
63.9113
21
-161.134
0
LINE
8
BLACK
6
CONTINUOUS
10
63.9113
20
-161.134
11
64.1017
21
-161.039
0
LINE
8
BLACK
6
CONTINUOUS
10
64.1017
20
-161.039
11
64.3874
21
-161.039
0
LINE
8
BLACK
6
CONTINUOUS
10
64.3874
20
-161.039
11
64.5779
21
-161.134
0
LINE
8
BLACK
6
CONTINUOUS
10
64.5779
20
-161.134
11
64.6732
21
-161.23
0
LINE
8
BLACK
6
CONTINUOUS
10
64.6732
20
-161.23
11
64.7684
21
-161.42
0
LINE
8
BLACK
6
CONTINUOUS
10
64.7684
20
-161.42
11
64.7684
21
-161.992
0
LINE
8
BLACK
6
CONTINUOUS
10
64.7684
20
-161.992
11
64.6732
21
-162.182
0
LINE
8
BLACK
6
CONTINUOUS
10
64.6732
20
-162.182
11
64.5779
21
-162.277
0
LINE
8
BLACK
6
CONTINUOUS
10
64.5779
20
-162.277
11
64.3874
21
-162.373
0
LINE
8
BLACK
6
CONTINUOUS
10
64.3874
20
-162.373
11
64.1017
21
-162.373
0
LINE
8
BLACK
6
CONTINUOUS
10
65.9113
20
-162.373
11
65.7208
21
-162.277
0
LINE
8
BLACK
6
CONTINUOUS
10
65.7208
20
-162.277
11
65.6255
21
-162.087
0
LINE
8
BLACK
6
CONTINUOUS
10
65.6255
20
-162.087
11
65.6255
21
-160.373
0
LINE
8
BLACK
6
CONTINUOUS
10
67.4351
20
-162.277
11
67.2446
21
-162.373
0
LINE
8
BLACK
6
CONTINUOUS
10
67.2446
20
-162.373
11
66.8636
21
-162.373
0
LINE
8
BLACK
6
CONTINUOUS
10
66.8636
20
-162.373
11
66.6732
21
-162.277
0
LINE
8
BLACK
6
CONTINUOUS
10
66.6732
20
-162.277
11
66.5779
21
-162.087
0
LINE
8
BLACK
6
CONTINUOUS
10
66.5779
20
-162.087
11
66.5779
21
-161.325
0
LINE
8
BLACK
6
CONTINUOUS
10
66.5779
20
-161.325
11
66.6732
21
-161.134
0
LINE
8
BLACK
6
CONTINUOUS
10
66.6732
20
-161.134
11
66.8636
21
-161.039
0
LINE
8
BLACK
6
CONTINUOUS
10
66.8636
20
-161.039
11
67.2446
21
-161.039
0
LINE
8
BLACK
6
CONTINUOUS
10
67.2446
20
-161.039
11
67.4351
21
-161.134
0
LINE
8
BLACK
6
CONTINUOUS
10
67.4351
20
-161.134
11
67.5303
21
-161.325
0
LINE
8
BLACK
6
CONTINUOUS
10
67.5303
20
-161.325
11
67.5303
21
-161.515
0
LINE
8
BLACK
6
CONTINUOUS
10
67.5303
20
-161.515
11
66.5779
21
-161.706
0
LINE
8
BLACK
6
CONTINUOUS
10
68.2922
20
-162.277
11
68.4827
21
-162.373
0
LINE
8
BLACK
6
CONTINUOUS
10
68.4827
20
-162.373
11
68.8636
21
-162.373
0
LINE
8
BLACK
6
CONTINUOUS
10
68.8636
20
-162.373
11
69.0541
21
-162.277
0
LINE
8
BLACK
6
CONTINUOUS
10
69.0541
20
-162.277
11
69.1494
21
-162.087
0
LINE
8
BLACK
6
CONTINUOUS
10
69.1494
20
-162.087
11
69.1494
21
-161.992
0
LINE
8
BLACK
6
CONTINUOUS
10
69.1494
20
-161.992
11
69.0541
21
-161.801
0
LINE
8
BLACK
6
CONTINUOUS
10
69.0541
20
-161.801
11
68.8636
21
-161.706
0
LINE
8
BLACK
6
CONTINUOUS
10
68.8636
20
-161.706
11
68.5779
21
-161.706
0
LINE
8
BLACK
6
CONTINUOUS
10
68.5779
20
-161.706
11
68.3874
21
-161.611
0
LINE
8
BLACK
6
CONTINUOUS
10
68.3874
20
-161.611
11
68.2922
21
-161.42
0
LINE
8
BLACK
6
CONTINUOUS
10
68.2922
20
-161.42
11
68.2922
21
-161.325
0
LINE
8
BLACK
6
CONTINUOUS
10
68.2922
20
-161.325
11
68.3874
21
-161.134
0
LINE
8
BLACK
6
CONTINUOUS
10
68.3874
20
-161.134
11
68.5779
21
-161.039
0
LINE
8
BLACK
6
CONTINUOUS
10
68.5779
20
-161.039
11
68.8636
21
-161.039
0
LINE
8
BLACK
6
CONTINUOUS
10
68.8636
20
-161.039
11
69.0541
21
-161.134
0
LINE
8
BLACK
6
CONTINUOUS
10
69.816
20
-163.134
11
69.9113
21
-163.039
0
LINE
8
BLACK
6
CONTINUOUS
10
69.9113
20
-163.039
11
70.1017
21
-162.754
0
LINE
8
BLACK
6
CONTINUOUS
10
70.1017
20
-162.754
11
70.197
21
-162.563
0
LINE
8
BLACK
6
CONTINUOUS
10
70.197
20
-162.563
11
70.2922
21
-162.277
0
LINE
8
BLACK
6
CONTINUOUS
10
70.2922
20
-162.277
11
70.3874
21
-161.801
0
LINE
8
BLACK
6
CONTINUOUS
10
70.3874
20
-161.801
11
70.3874
21
-161.42
0
LINE
8
BLACK
6
CONTINUOUS
10
70.3874
20
-161.42
11
70.2922
21
-160.944
0
LINE
8
BLACK
6
CONTINUOUS
10
70.2922
20
-160.944
11
70.197
21
-160.658
0
LINE
8
BLACK
6
CONTINUOUS
10
70.197
20
-160.658
11
70.1017
21
-160.468
0
LINE
8
BLACK
6
CONTINUOUS
10
70.1017
20
-160.468
11
69.9113
21
-160.182
0
LINE
8
BLACK
6
CONTINUOUS
10
69.9113
20
-160.182
11
69.816
21
-160.087
0
LINE
8
BLACK
6
CONTINUOUS
10
73.4351
20
-163.134
11
73.3398
21
-163.039
0
LINE
8
BLACK
6
CONTINUOUS
10
73.3398
20
-163.039
11
73.1494
21
-162.754
0
LINE
8
BLACK
6
CONTINUOUS
10
73.1494
20
-162.754
11
73.0541
21
-162.563
0
LINE
8
BLACK
6
CONTINUOUS
10
73.0541
20
-162.563
11
72.9589
21
-162.277
0
LINE
8
BLACK
6
CONTINUOUS
10
72.9589
20
-162.277
11
72.8636
21
-161.801
0
LINE
8
BLACK
6
CONTINUOUS
10
72.8636
20
-161.801
11
72.8636
21
-161.42
0
LINE
8
BLACK
6
CONTINUOUS
10
72.8636
20
-161.42
11
72.9589
21
-160.944
0
LINE
8
BLACK
6
CONTINUOUS
10
72.9589
20
-160.944
11
73.0541
21
-160.658
0
LINE
8
BLACK
6
CONTINUOUS
10
73.0541
20
-160.658
11
73.1494
21
-160.468
0
LINE
8
BLACK
6
CONTINUOUS
10
73.1494
20
-160.468
11
73.3398
21
-160.182
0
LINE
8
BLACK
6
CONTINUOUS
10
73.3398
20
-160.182
11
73.4351
21
-160.087
0
LINE
8
BLACK
6
CONTINUOUS
10
74.197
20
-161.039
11
74.197
21
-162.373
0
LINE
8
BLACK
6
CONTINUOUS
10
74.197
20
-161.23
11
74.2922
21
-161.134
0
LINE
8
BLACK
6
CONTINUOUS
10
74.2922
20
-161.134
11
74.4827
21
-161.039
0
LINE
8
BLACK
6
CONTINUOUS
10
74.4827
20
-161.039
11
74.7684
21
-161.039
0
LINE
8
BLACK
6
CONTINUOUS
10
74.7684
20
-161.039
11
74.9589
21
-161.134
0
LINE
8
BLACK
6
CONTINUOUS
10
74.9589
20
-161.134
11
75.0541
21
-161.325
0
LINE
8
BLACK
6
CONTINUOUS
10
75.0541
20
-161.325
11
75.0541
21
-162.373
0
LINE
8
BLACK
6
CONTINUOUS
10
76.2922
20
-162.373
11
76.1017
21
-162.277
0
LINE
8
BLACK
6
CONTINUOUS
10
76.1017
20
-162.277
11
76.0065
21
-162.182
0
LINE
8
BLACK
6
CONTINUOUS
10
76.0065
20
-162.182
11
75.9113
21
-161.992
0
LINE
8
BLACK
6
CONTINUOUS
10
75.9113
20
-161.992
11
75.9113
21
-161.42
0
LINE
8
BLACK
6
CONTINUOUS
10
75.9113
20
-161.42
11
76.0065
21
-161.23
0
LINE
8
BLACK
6
CONTINUOUS
10
76.0065
20
-161.23
11
76.1017
21
-161.134
0
LINE
8
BLACK
6
CONTINUOUS
10
76.1017
20
-161.134
11
76.2922
21
-161.039
0
LINE
8
BLACK
6
CONTINUOUS
10
76.2922
20
-161.039
11
76.5779
21
-161.039
0
LINE
8
BLACK
6
CONTINUOUS
10
76.5779
20
-161.039
11
76.7684
21
-161.134
0
LINE
8
BLACK
6
CONTINUOUS
10
76.7684
20
-161.134
11
76.8636
21
-161.23
0
LINE
8
BLACK
6
CONTINUOUS
10
76.8636
20
-161.23
11
76.9589
21
-161.42
0
LINE
8
BLACK
6
CONTINUOUS
10
76.9589
20
-161.42
11
76.9589
21
-161.992
0
LINE
8
BLACK
6
CONTINUOUS
10
76.9589
20
-161.992
11
76.8636
21
-162.182
0
LINE
8
BLACK
6
CONTINUOUS
10
76.8636
20
-162.182
11
76.7684
21
-162.277
0
LINE
8
BLACK
6
CONTINUOUS
10
76.7684
20
-162.277
11
76.5779
21
-162.373
0
LINE
8
BLACK
6
CONTINUOUS
10
76.5779
20
-162.373
11
76.2922
21
-162.373
0
LINE
8
BLACK
6
CONTINUOUS
10
77.5303
20
-161.039
11
78.2922
21
-161.039
0
LINE
8
BLACK
6
CONTINUOUS
10
77.816
20
-160.373
11
77.816
21
-162.087
0
LINE
8
BLACK
6
CONTINUOUS
10
77.816
20
-162.087
11
77.9113
21
-162.277
0
LINE
8
BLACK
6
CONTINUOUS
10
77.9113
20
-162.277
11
78.1017
21
-162.373
0
LINE
8
BLACK
6
CONTINUOUS
10
78.1017
20
-162.373
11
78.2922
21
-162.373
0
LINE
8
BLACK
6
CONTINUOUS
10
80.4827
20
-161.039
11
80.4827
21
-163.039
0
LINE
8
BLACK
6
CONTINUOUS
10
80.4827
20
-161.134
11
80.6732
21
-161.039
0
LINE
8
BLACK
6
CONTINUOUS
10
80.6732
20
-161.039
11
81.0541
21
-161.039
0
LINE
8
BLACK
6
CONTINUOUS
10
81.0541
20
-161.039
11
81.2446
21
-161.134
0
LINE
8
BLACK
6
CONTINUOUS
10
81.2446
20
-161.134
11
81.3398
21
-161.23
0
LINE
8
BLACK
6
CONTINUOUS
10
81.3398
20
-161.23
11
81.4351
21
-161.42
0
LINE
8
BLACK
6
CONTINUOUS
10
81.4351
20
-161.42
11
81.4351
21
-161.992
0
LINE
8
BLACK
6
CONTINUOUS
10
81.4351
20
-161.992
11
81.3398
21
-162.182
0
LINE
8
BLACK
6
CONTINUOUS
10
81.3398
20
-162.182
11
81.2446
21
-162.277
0
LINE
8
BLACK
6
CONTINUOUS
10
81.2446
20
-162.277
11
81.0541
21
-162.373
0
LINE
8
BLACK
6
CONTINUOUS
10
81.0541
20
-162.373
11
80.6732
21
-162.373
0
LINE
8
BLACK
6
CONTINUOUS
10
80.6732
20
-162.373
11
80.4827
21
-162.277
0
LINE
8
BLACK
6
CONTINUOUS
10
82.5779
20
-162.373
11
82.3874
21
-162.277
0
LINE
8
BLACK
6
CONTINUOUS
10
82.3874
20
-162.277
11
82.2922
21
-162.087
0
LINE
8
BLACK
6
CONTINUOUS
10
82.2922
20
-162.087
11
82.2922
21
-160.373
0
LINE
8
BLACK
6
CONTINUOUS
10
84.197
20
-162.373
11
84.197
21
-161.325
0
LINE
8
BLACK
6
CONTINUOUS
10
84.197
20
-161.325
11
84.1017
21
-161.134
0
LINE
8
BLACK
6
CONTINUOUS
10
84.1017
20
-161.134
11
83.9113
21
-161.039
0
LINE
8
BLACK
6
CONTINUOUS
10
83.9113
20
-161.039
11
83.5303
21
-161.039
0
LINE
8
BLACK
6
CONTINUOUS
10
83.5303
20
-161.039
11
83.3398
21
-161.134
0
LINE
8
BLACK
6
CONTINUOUS
10
84.197
20
-162.277
11
84.0065
21
-162.373
0
LINE
8
BLACK
6
CONTINUOUS
10
84.0065
20
-162.373
11
83.5303
21
-162.373
0
LINE
8
BLACK
6
CONTINUOUS
10
83.5303
20
-162.373
11
83.3398
21
-162.277
0
LINE
8
BLACK
6
CONTINUOUS
10
83.3398
20
-162.277
11
83.2446
21
-162.087
0
LINE
8
BLACK
6
CONTINUOUS
10
83.2446
20
-162.087
11
83.2446
21
-161.896
0
LINE
8
BLACK
6
CONTINUOUS
10
83.2446
20
-161.896
11
83.3398
21
-161.706
0
LINE
8
BLACK
6
CONTINUOUS
10
83.3398
20
-161.706
11
83.5303
21
-161.611
0
LINE
8
BLACK
6
CONTINUOUS
10
83.5303
20
-161.611
11
84.0065
21
-161.611
0
LINE
8
BLACK
6
CONTINUOUS
10
84.0065
20
-161.611
11
84.197
21
-161.515
0
LINE
8
BLACK
6
CONTINUOUS
10
84.8636
20
-161.039
11
85.6255
21
-161.039
0
LINE
8
BLACK
6
CONTINUOUS
10
85.1494
20
-160.373
11
85.1494
21
-162.087
0
LINE
8
BLACK
6
CONTINUOUS
10
85.1494
20
-162.087
11
85.2446
21
-162.277
0
LINE
8
BLACK
6
CONTINUOUS
10
85.2446
20
-162.277
11
85.4351
21
-162.373
0
LINE
8
BLACK
6
CONTINUOUS
10
85.4351
20
-162.373
11
85.6255
21
-162.373
0
LINE
8
BLACK
6
CONTINUOUS
10
87.0541
20
-162.277
11
86.8636
21
-162.373
0
LINE
8
BLACK
6
CONTINUOUS
10
86.8636
20
-162.373
11
86.4827
21
-162.373
0
LINE
8
BLACK
6
CONTINUOUS
10
86.4827
20
-162.373
11
86.2922
21
-162.277
0
LINE
8
BLACK
6
CONTINUOUS
10
86.2922
20
-162.277
11
86.197
21
-162.087
0
LINE
8
BLACK
6
CONTINUOUS
10
86.197
20
-162.087
11
86.197
21
-161.325
0
LINE
8
BLACK
6
CONTINUOUS
10
86.197
20
-161.325
11
86.2922
21
-161.134
0
LINE
8
BLACK
6
CONTINUOUS
10
86.2922
20
-161.134
11
86.4827
21
-161.039
0
LINE
8
BLACK
6
CONTINUOUS
10
86.4827
20
-161.039
11
86.8636
21
-161.039
0
LINE
8
BLACK
6
CONTINUOUS
10
86.8636
20
-161.039
11
87.0541
21
-161.134
0
LINE
8
BLACK
6
CONTINUOUS
10
87.0541
20
-161.134
11
87.1494
21
-161.325
0
LINE
8
BLACK
6
CONTINUOUS
10
87.1494
20
-161.325
11
87.1494
21
-161.515
0
LINE
8
BLACK
6
CONTINUOUS
10
87.1494
20
-161.515
11
86.197
21
-161.706
0
LINE
8
BLACK
6
CONTINUOUS
10
88.8636
20
-162.373
11
88.8636
21
-160.373
0
LINE
8
BLACK
6
CONTINUOUS
10
88.8636
20
-162.277
11
88.6732
21
-162.373
0
LINE
8
BLACK
6
CONTINUOUS
10
88.6732
20
-162.373
11
88.2922
21
-162.373
0
LINE
8
BLACK
6
CONTINUOUS
10
88.2922
20
-162.373
11
88.1017
21
-162.277
0
LINE
8
BLACK
6
CONTINUOUS
10
88.1017
20
-162.277
11
88.0065
21
-162.182
0
LINE
8
BLACK
6
CONTINUOUS
10
88.0065
20
-162.182
11
87.9113
21
-161.992
0
LINE
8
BLACK
6
CONTINUOUS
10
87.9113
20
-161.992
11
87.9113
21
-161.42
0
LINE
8
BLACK
6
CONTINUOUS
10
87.9113
20
-161.42
11
88.0065
21
-161.23
0
LINE
8
BLACK
6
CONTINUOUS
10
88.0065
20
-161.23
11
88.1017
21
-161.134
0
LINE
8
BLACK
6
CONTINUOUS
10
88.1017
20
-161.134
11
88.2922
21
-161.039
0
LINE
8
BLACK
6
CONTINUOUS
10
88.2922
20
-161.039
11
88.6732
21
-161.039
0
LINE
8
BLACK
6
CONTINUOUS
10
88.6732
20
-161.039
11
88.8636
21
-161.134
0
LINE
8
BLACK
6
CONTINUOUS
10
89.6255
20
-163.134
11
89.7208
21
-163.039
0
LINE
8
BLACK
6
CONTINUOUS
10
89.7208
20
-163.039
11
89.9113
21
-162.754
0
LINE
8
BLACK
6
CONTINUOUS
10
89.9113
20
-162.754
11
90.0065
21
-162.563
0
LINE
8
BLACK
6
CONTINUOUS
10
90.0065
20
-162.563
11
90.1017
21
-162.277
0
LINE
8
BLACK
6
CONTINUOUS
10
90.1017
20
-162.277
11
90.197
21
-161.801
0
LINE
8
BLACK
6
CONTINUOUS
10
90.197
20
-161.801
11
90.197
21
-161.42
0
LINE
8
BLACK
6
CONTINUOUS
10
90.197
20
-161.42
11
90.1017
21
-160.944
0
LINE
8
BLACK
6
CONTINUOUS
10
90.1017
20
-160.944
11
90.0065
21
-160.658
0
LINE
8
BLACK
6
CONTINUOUS
10
90.0065
20
-160.658
11
89.9113
21
-160.468
0
LINE
8
BLACK
6
CONTINUOUS
10
89.9113
20
-160.468
11
89.7208
21
-160.182
0
LINE
8
BLACK
6
CONTINUOUS
10
89.7208
20
-160.182
11
89.6255
21
-160.087
0
CIRCLE
8
BLACK
10
19.1922
20
-164.37
40
1
0
LINE
8
BLACK
6
CONTINUOUS
10
22.5779
20
-163.274
11
23.816
21
-163.274
0
LINE
8
BLACK
6
CONTINUOUS
10
23.816
20
-163.274
11
23.1494
21
-164.036
0
LINE
8
BLACK
6
CONTINUOUS
10
23.1494
20
-164.036
11
23.4351
21
-164.036
0
LINE
8
BLACK
6
CONTINUOUS
10
23.4351
20
-164.036
11
23.6255
21
-164.131
0
LINE
8
BLACK
6
CONTINUOUS
10
23.6255
20
-164.131
11
23.7208
21
-164.227
0
LINE
8
BLACK
6
CONTINUOUS
10
23.7208
20
-164.227
11
23.816
21
-164.417
0
LINE
8
BLACK
6
CONTINUOUS
10
23.816
20
-164.417
11
23.816
21
-164.893
0
LINE
8
BLACK
6
CONTINUOUS
10
23.816
20
-164.893
11
23.7208
21
-165.084
0
LINE
8
BLACK
6
CONTINUOUS
10
23.7208
20
-165.084
11
23.6255
21
-165.179
0
LINE
8
BLACK
6
CONTINUOUS
10
23.6255
20
-165.179
11
23.4351
21
-165.274
0
LINE
8
BLACK
6
CONTINUOUS
10
23.4351
20
-165.274
11
22.8636
21
-165.274
0
LINE
8
BLACK
6
CONTINUOUS
10
22.8636
20
-165.274
11
22.6732
21
-165.179
0
LINE
8
BLACK
6
CONTINUOUS
10
22.6732
20
-165.179
11
22.5779
21
-165.084
0
LINE
8
BLACK
6
CONTINUOUS
10
24.6732
20
-165.084
11
24.7684
21
-165.179
0
LINE
8
BLACK
6
CONTINUOUS
10
24.7684
20
-165.179
11
24.6732
21
-165.274
0
LINE
8
BLACK
6
CONTINUOUS
10
24.6732
20
-165.274
11
24.5779
21
-165.179
0
LINE
8
BLACK
6
CONTINUOUS
10
24.5779
20
-165.179
11
24.6732
21
-165.084
0
LINE
8
BLACK
6
CONTINUOUS
10
24.6732
20
-165.084
11
24.6732
21
-165.274
0
LINE
8
BLACK
6
CONTINUOUS
10
26.0065
20
-163.274
11
26.197
21
-163.274
0
LINE
8
BLACK
6
CONTINUOUS
10
26.197
20
-163.274
11
26.3874
21
-163.37
0
LINE
8
BLACK
6
CONTINUOUS
10
26.3874
20
-163.37
11
26.4827
21
-163.465
0
LINE
8
BLACK
6
CONTINUOUS
10
26.4827
20
-163.465
11
26.5779
21
-163.655
0
LINE
8
BLACK
6
CONTINUOUS
10
26.5779
20
-163.655
11
26.6732
21
-164.036
0
LINE
8
BLACK
6
CONTINUOUS
10
26.6732
20
-164.036
11
26.6732
21
-164.512
0
LINE
8
BLACK
6
CONTINUOUS
10
26.6732
20
-164.512
11
26.5779
21
-164.893
0
LINE
8
BLACK
6
CONTINUOUS
10
26.5779
20
-164.893
11
26.4827
21
-165.084
0
LINE
8
BLACK
6
CONTINUOUS
10
26.4827
20
-165.084
11
26.3874
21
-165.179
0
LINE
8
BLACK
6
CONTINUOUS
10
26.3874
20
-165.179
11
26.197
21
-165.274
0
LINE
8
BLACK
6
CONTINUOUS
10
26.197
20
-165.274
11
26.0065
21
-165.274
0
LINE
8
BLACK
6
CONTINUOUS
10
26.0065
20
-165.274
11
25.816
21
-165.179
0
LINE
8
BLACK
6
CONTINUOUS
10
25.816
20
-165.179
11
25.7208
21
-165.084
0
LINE
8
BLACK
6
CONTINUOUS
10
25.7208
20
-165.084
11
25.6255
21
-164.893
0
LINE
8
BLACK
6
CONTINUOUS
10
25.6255
20
-164.893
11
25.5303
21
-164.512
0
LINE
8
BLACK
6
CONTINUOUS
10
25.5303
20
-164.512
11
25.5303
21
-164.036
0
LINE
8
BLACK
6
CONTINUOUS
10
25.5303
20
-164.036
11
25.6255
21
-163.655
0
LINE
8
BLACK
6
CONTINUOUS
10
25.6255
20
-163.655
11
25.7208
21
-163.465
0
LINE
8
BLACK
6
CONTINUOUS
10
25.7208
20
-163.465
11
25.816
21
-163.37
0
LINE
8
BLACK
6
CONTINUOUS
10
25.816
20
-163.37
11
26.0065
21
-163.274
0
LINE
8
BLACK
6
CONTINUOUS
10
27.9113
20
-163.274
11
28.1017
21
-163.274
0
LINE
8
BLACK
6
CONTINUOUS
10
28.1017
20
-163.274
11
28.2922
21
-163.37
0
LINE
8
BLACK
6
CONTINUOUS
10
28.2922
20
-163.37
11
28.3874
21
-163.465
0
LINE
8
BLACK
6
CONTINUOUS
10
28.3874
20
-163.465
11
28.4827
21
-163.655
0
LINE
8
BLACK
6
CONTINUOUS
10
28.4827
20
-163.655
11
28.5779
21
-164.036
0
LINE
8
BLACK
6
CONTINUOUS
10
28.5779
20
-164.036
11
28.5779
21
-164.512
0
LINE
8
BLACK
6
CONTINUOUS
10
28.5779
20
-164.512
11
28.4827
21
-164.893
0
LINE
8
BLACK
6
CONTINUOUS
10
28.4827
20
-164.893
11
28.3874
21
-165.084
0
LINE
8
BLACK
6
CONTINUOUS
10
28.3874
20
-165.084
11
28.2922
21
-165.179
0
LINE
8
BLACK
6
CONTINUOUS
10
28.2922
20
-165.179
11
28.1017
21
-165.274
0
LINE
8
BLACK
6
CONTINUOUS
10
28.1017
20
-165.274
11
27.9113
21
-165.274
0
LINE
8
BLACK
6
CONTINUOUS
10
27.9113
20
-165.274
11
27.7208
21
-165.179
0
LINE
8
BLACK
6
CONTINUOUS
10
27.7208
20
-165.179
11
27.6255
21
-165.084
0
LINE
8
BLACK
6
CONTINUOUS
10
27.6255
20
-165.084
11
27.5303
21
-164.893
0
LINE
8
BLACK
6
CONTINUOUS
10
27.5303
20
-164.893
11
27.4351
21
-164.512
0
LINE
8
BLACK
6
CONTINUOUS
10
27.4351
20
-164.512
11
27.4351
21
-164.036
0
LINE
8
BLACK
6
CONTINUOUS
10
27.4351
20
-164.036
11
27.5303
21
-163.655
0
LINE
8
BLACK
6
CONTINUOUS
10
27.5303
20
-163.655
11
27.6255
21
-163.465
0
LINE
8
BLACK
6
CONTINUOUS
10
27.6255
20
-163.465
11
27.7208
21
-163.37
0
LINE
8
BLACK
6
CONTINUOUS
10
27.7208
20
-163.37
11
27.9113
21
-163.274
0
LINE
8
BLACK
6
CONTINUOUS
10
29.816
20
-163.274
11
30.0065
21
-163.274
0
LINE
8
BLACK
6
CONTINUOUS
10
30.0065
20
-163.274
11
30.197
21
-163.37
0
LINE
8
BLACK
6
CONTINUOUS
10
30.197
20
-163.37
11
30.2922
21
-163.465
0
LINE
8
BLACK
6
CONTINUOUS
10
30.2922
20
-163.465
11
30.3874
21
-163.655
0
LINE
8
BLACK
6
CONTINUOUS
10
30.3874
20
-163.655
11
30.4827
21
-164.036
0
LINE
8
BLACK
6
CONTINUOUS
10
30.4827
20
-164.036
11
30.4827
21
-164.512
0
LINE
8
BLACK
6
CONTINUOUS
10
30.4827
20
-164.512
11
30.3874
21
-164.893
0
LINE
8
BLACK
6
CONTINUOUS
10
30.3874
20
-164.893
11
30.2922
21
-165.084
0
LINE
8
BLACK
6
CONTINUOUS
10
30.2922
20
-165.084
11
30.197
21
-165.179
0
LINE
8
BLACK
6
CONTINUOUS
10
30.197
20
-165.179
11
30.0065
21
-165.274
0
LINE
8
BLACK
6
CONTINUOUS
10
30.0065
20
-165.274
11
29.816
21
-165.274
0
LINE
8
BLACK
6
CONTINUOUS
10
29.816
20
-165.274
11
29.6255
21
-165.179
0
LINE
8
BLACK
6
CONTINUOUS
10
29.6255
20
-165.179
11
29.5303
21
-165.084
0
LINE
8
BLACK
6
CONTINUOUS
10
29.5303
20
-165.084
11
29.4351
21
-164.893
0
LINE
8
BLACK
6
CONTINUOUS
10
29.4351
20
-164.893
11
29.3398
21
-164.512
0
LINE
8
BLACK
6
CONTINUOUS
10
29.3398
20
-164.512
11
29.3398
21
-164.036
0
LINE
8
BLACK
6
CONTINUOUS
10
29.3398
20
-164.036
11
29.4351
21
-163.655
0
LINE
8
BLACK
6
CONTINUOUS
10
29.4351
20
-163.655
11
29.5303
21
-163.465
0
LINE
8
BLACK
6
CONTINUOUS
10
29.5303
20
-163.465
11
29.6255
21
-163.37
0
LINE
8
BLACK
6
CONTINUOUS
10
29.6255
20
-163.37
11
29.816
21
-163.274
0
LINE
8
BLACK
6
CONTINUOUS
10
31.3398
20
-165.274
11
31.3398
21
-163.941
0
LINE
8
BLACK
6
CONTINUOUS
10
31.3398
20
-164.131
11
31.4351
21
-164.036
0
LINE
8
BLACK
6
CONTINUOUS
10
31.4351
20
-164.036
11
31.6255
21
-163.941
0
LINE
8
BLACK
6
CONTINUOUS
10
31.6255
20
-163.941
11
31.9113
21
-163.941
0
LINE
8
BLACK
6
CONTINUOUS
10
31.9113
20
-163.941
11
32.1017
21
-164.036
0
LINE
8
BLACK
6
CONTINUOUS
10
32.1017
20
-164.036
11
32.197
21
-164.227
0
LINE
8
BLACK
6
CONTINUOUS
10
32.197
20
-164.227
11
32.197
21
-165.274
0
LINE
8
BLACK
6
CONTINUOUS
10
32.197
20
-164.227
11
32.2922
21
-164.036
0
LINE
8
BLACK
6
CONTINUOUS
10
32.2922
20
-164.036
11
32.4827
21
-163.941
0
LINE
8
BLACK
6
CONTINUOUS
10
32.4827
20
-163.941
11
32.7684
21
-163.941
0
LINE
8
BLACK
6
CONTINUOUS
10
32.7684
20
-163.941
11
32.9589
21
-164.036
0
LINE
8
BLACK
6
CONTINUOUS
10
32.9589
20
-164.036
11
33.0541
21
-164.227
0
LINE
8
BLACK
6
CONTINUOUS
10
33.0541
20
-164.227
11
33.0541
21
-165.274
0
LINE
8
BLACK
6
CONTINUOUS
10
34.0065
20
-165.274
11
34.0065
21
-163.941
0
LINE
8
BLACK
6
CONTINUOUS
10
34.0065
20
-164.131
11
34.1017
21
-164.036
0
LINE
8
BLACK
6
CONTINUOUS
10
34.1017
20
-164.036
11
34.2922
21
-163.941
0
LINE
8
BLACK
6
CONTINUOUS
10
34.2922
20
-163.941
11
34.5779
21
-163.941
0
LINE
8
BLACK
6
CONTINUOUS
10
34.5779
20
-163.941
11
34.7684
21
-164.036
0
LINE
8
BLACK
6
CONTINUOUS
10
34.7684
20
-164.036
11
34.8636
21
-164.227
0
LINE
8
BLACK
6
CONTINUOUS
10
34.8636
20
-164.227
11
34.8636
21
-165.274
0
LINE
8
BLACK
6
CONTINUOUS
10
34.8636
20
-164.227
11
34.9589
21
-164.036
0
LINE
8
BLACK
6
CONTINUOUS
10
34.9589
20
-164.036
11
35.1494
21
-163.941
0
LINE
8
BLACK
6
CONTINUOUS
10
35.1494
20
-163.941
11
35.4351
21
-163.941
0
LINE
8
BLACK
6
CONTINUOUS
10
35.4351
20
-163.941
11
35.6255
21
-164.036
0
LINE
8
BLACK
6
CONTINUOUS
10
35.6255
20
-164.036
11
35.7208
21
-164.227
0
LINE
8
BLACK
6
CONTINUOUS
10
35.7208
20
-164.227
11
35.7208
21
-165.274
0
LINE
8
BLACK
6
CONTINUOUS
10
39.6255
20
-163.179
11
37.9113
21
-165.751
0
LINE
8
BLACK
6
CONTINUOUS
10
42.197
20
-163.274
11
42.3874
21
-163.274
0
LINE
8
BLACK
6
CONTINUOUS
10
42.3874
20
-163.274
11
42.5779
21
-163.37
0
LINE
8
BLACK
6
CONTINUOUS
10
42.5779
20
-163.37
11
42.6732
21
-163.465
0
LINE
8
BLACK
6
CONTINUOUS
10
42.6732
20
-163.465
11
42.7684
21
-163.655
0
LINE
8
BLACK
6
CONTINUOUS
10
42.7684
20
-163.655
11
42.8636
21
-164.036
0
LINE
8
BLACK
6
CONTINUOUS
10
42.8636
20
-164.036
11
42.8636
21
-164.512
0
LINE
8
BLACK
6
CONTINUOUS
10
42.8636
20
-164.512
11
42.7684
21
-164.893
0
LINE
8
BLACK
6
CONTINUOUS
10
42.7684
20
-164.893
11
42.6732
21
-165.084
0
LINE
8
BLACK
6
CONTINUOUS
10
42.6732
20
-165.084
11
42.5779
21
-165.179
0
LINE
8
BLACK
6
CONTINUOUS
10
42.5779
20
-165.179
11
42.3874
21
-165.274
0
LINE
8
BLACK
6
CONTINUOUS
10
42.3874
20
-165.274
11
42.197
21
-165.274
0
LINE
8
BLACK
6
CONTINUOUS
10
42.197
20
-165.274
11
42.0065
21
-165.179
0
LINE
8
BLACK
6
CONTINUOUS
10
42.0065
20
-165.179
11
41.9113
21
-165.084
0
LINE
8
BLACK
6
CONTINUOUS
10
41.9113
20
-165.084
11
41.816
21
-164.893
0
LINE
8
BLACK
6
CONTINUOUS
10
41.816
20
-164.893
11
41.7208
21
-164.512
0
LINE
8
BLACK
6
CONTINUOUS
10
41.7208
20
-164.512
11
41.7208
21
-164.036
0
LINE
8
BLACK
6
CONTINUOUS
10
41.7208
20
-164.036
11
41.816
21
-163.655
0
LINE
8
BLACK
6
CONTINUOUS
10
41.816
20
-163.655
11
41.9113
21
-163.465
0
LINE
8
BLACK
6
CONTINUOUS
10
41.9113
20
-163.465
11
42.0065
21
-163.37
0
LINE
8
BLACK
6
CONTINUOUS
10
42.0065
20
-163.37
11
42.197
21
-163.274
0
LINE
8
BLACK
6
CONTINUOUS
10
43.7208
20
-165.084
11
43.816
21
-165.179
0
LINE
8
BLACK
6
CONTINUOUS
10
43.816
20
-165.179
11
43.7208
21
-165.274
0
LINE
8
BLACK
6
CONTINUOUS
10
43.7208
20
-165.274
11
43.6255
21
-165.179
0
LINE
8
BLACK
6
CONTINUOUS
10
43.6255
20
-165.179
11
43.7208
21
-165.084
0
LINE
8
BLACK
6
CONTINUOUS
10
43.7208
20
-165.084
11
43.7208
21
-165.274
0
LINE
8
BLACK
6
CONTINUOUS
10
45.7208
20
-165.274
11
44.5779
21
-165.274
0
LINE
8
BLACK
6
CONTINUOUS
10
45.1494
20
-165.274
11
45.1494
21
-163.274
0
LINE
8
BLACK
6
CONTINUOUS
10
45.1494
20
-163.274
11
44.9589
21
-163.56
0
LINE
8
BLACK
6
CONTINUOUS
10
44.9589
20
-163.56
11
44.7684
21
-163.751
0
LINE
8
BLACK
6
CONTINUOUS
10
44.7684
20
-163.751
11
44.5779
21
-163.846
0
LINE
8
BLACK
6
CONTINUOUS
10
47.6255
20
-165.274
11
46.4827
21
-165.274
0
LINE
8
BLACK
6
CONTINUOUS
10
47.0541
20
-165.274
11
47.0541
21
-163.274
0
LINE
8
BLACK
6
CONTINUOUS
10
47.0541
20
-163.274
11
46.8636
21
-163.56
0
LINE
8
BLACK
6
CONTINUOUS
10
46.8636
20
-163.56
11
46.6732
21
-163.751
0
LINE
8
BLACK
6
CONTINUOUS
10
46.6732
20
-163.751
11
46.4827
21
-163.846
0
LINE
8
BLACK
6
CONTINUOUS
10
48.7684
20
-164.131
11
48.5779
21
-164.036
0
LINE
8
BLACK
6
CONTINUOUS
10
48.5779
20
-164.036
11
48.4827
21
-163.941
0
LINE
8
BLACK
6
CONTINUOUS
10
48.4827
20
-163.941
11
48.3874
21
-163.751
0
LINE
8
BLACK
6
CONTINUOUS
10
48.3874
20
-163.751
11
48.3874
21
-163.655
0
LINE
8
BLACK
6
CONTINUOUS
10
48.3874
20
-163.655
11
48.4827
21
-163.465
0
LINE
8
BLACK
6
CONTINUOUS
10
48.4827
20
-163.465
11
48.5779
21
-163.37
0
LINE
8
BLACK
6
CONTINUOUS
10
48.5779
20
-163.37
11
48.7684
21
-163.274
0
LINE
8
BLACK
6
CONTINUOUS
10
48.7684
20
-163.274
11
49.1494
21
-163.274
0
LINE
8
BLACK
6
CONTINUOUS
10
49.1494
20
-163.274
11
49.3398
21
-163.37
0
LINE
8
BLACK
6
CONTINUOUS
10
49.3398
20
-163.37
11
49.4351
21
-163.465
0
LINE
8
BLACK
6
CONTINUOUS
10
49.4351
20
-163.465
11
49.5303
21
-163.655
0
LINE
8
BLACK
6
CONTINUOUS
10
49.5303
20
-163.655
11
49.5303
21
-163.751
0
LINE
8
BLACK
6
CONTINUOUS
10
49.5303
20
-163.751
11
49.4351
21
-163.941
0
LINE
8
BLACK
6
CONTINUOUS
10
49.4351
20
-163.941
11
49.3398
21
-164.036
0
LINE
8
BLACK
6
CONTINUOUS
10
49.3398
20
-164.036
11
49.1494
21
-164.131
0
LINE
8
BLACK
6
CONTINUOUS
10
49.1494
20
-164.131
11
48.7684
21
-164.131
0
LINE
8
BLACK
6
CONTINUOUS
10
48.7684
20
-164.131
11
48.5779
21
-164.227
0
LINE
8
BLACK
6
CONTINUOUS
10
48.5779
20
-164.227
11
48.4827
21
-164.322
0
LINE
8
BLACK
6
CONTINUOUS
10
48.4827
20
-164.322
11
48.3874
21
-164.512
0
LINE
8
BLACK
6
CONTINUOUS
10
48.3874
20
-164.512
11
48.3874
21
-164.893
0
LINE
8
BLACK
6
CONTINUOUS
10
48.3874
20
-164.893
11
48.4827
21
-165.084
0
LINE
8
BLACK
6
CONTINUOUS
10
48.4827
20
-165.084
11
48.5779
21
-165.179
0
LINE
8
BLACK
6
CONTINUOUS
10
48.5779
20
-165.179
11
48.7684
21
-165.274
0
LINE
8
BLACK
6
CONTINUOUS
10
48.7684
20
-165.274
11
49.1494
21
-165.274
0
LINE
8
BLACK
6
CONTINUOUS
10
49.1494
20
-165.274
11
49.3398
21
-165.179
0
LINE
8
BLACK
6
CONTINUOUS
10
49.3398
20
-165.179
11
49.4351
21
-165.084
0
LINE
8
BLACK
6
CONTINUOUS
10
49.4351
20
-165.084
11
49.5303
21
-164.893
0
LINE
8
BLACK
6
CONTINUOUS
10
49.5303
20
-164.893
11
49.5303
21
-164.512
0
LINE
8
BLACK
6
CONTINUOUS
10
49.5303
20
-164.512
11
49.4351
21
-164.322
0
LINE
8
BLACK
6
CONTINUOUS
10
49.4351
20
-164.322
11
49.3398
21
-164.227
0
LINE
8
BLACK
6
CONTINUOUS
10
49.3398
20
-164.227
11
49.1494
21
-164.131
0
LINE
8
BLACK
6
CONTINUOUS
10
51.4351
20
-165.274
11
50.2922
21
-165.274
0
LINE
8
BLACK
6
CONTINUOUS
10
50.8636
20
-165.274
11
50.8636
21
-163.274
0
LINE
8
BLACK
6
CONTINUOUS
10
50.8636
20
-163.274
11
50.6732
21
-163.56
0
LINE
8
BLACK
6
CONTINUOUS
10
50.6732
20
-163.56
11
50.4827
21
-163.751
0
LINE
8
BLACK
6
CONTINUOUS
10
50.4827
20
-163.751
11
50.2922
21
-163.846
0
LINE
8
BLACK
6
CONTINUOUS
10
52.197
20
-163.274
11
52.197
21
-163.655
0
LINE
8
BLACK
6
CONTINUOUS
10
52.9589
20
-163.274
11
52.9589
21
-163.655
0
LINE
8
BLACK
6
CONTINUOUS
10
55.9113
20
-166.036
11
55.816
21
-165.941
0
LINE
8
BLACK
6
CONTINUOUS
10
55.816
20
-165.941
11
55.6255
21
-165.655
0
LINE
8
BLACK
6
CONTINUOUS
10
55.6255
20
-165.655
11
55.5303
21
-165.465
0
LINE
8
BLACK
6
CONTINUOUS
10
55.5303
20
-165.465
11
55.4351
21
-165.179
0
LINE
8
BLACK
6
CONTINUOUS
10
55.4351
20
-165.179
11
55.3398
21
-164.703
0
LINE
8
BLACK
6
CONTINUOUS
10
55.3398
20
-164.703
11
55.3398
21
-164.322
0
LINE
8
BLACK
6
CONTINUOUS
10
55.3398
20
-164.322
11
55.4351
21
-163.846
0
LINE
8
BLACK
6
CONTINUOUS
10
55.4351
20
-163.846
11
55.5303
21
-163.56
0
LINE
8
BLACK
6
CONTINUOUS
10
55.5303
20
-163.56
11
55.6255
21
-163.37
0
LINE
8
BLACK
6
CONTINUOUS
10
55.6255
20
-163.37
11
55.816
21
-163.084
0
LINE
8
BLACK
6
CONTINUOUS
10
55.816
20
-163.084
11
55.9113
21
-162.989
0
LINE
8
BLACK
6
CONTINUOUS
10
57.5303
20
-163.941
11
57.5303
21
-165.274
0
LINE
8
BLACK
6
CONTINUOUS
10
57.0541
20
-163.179
11
56.5779
21
-164.608
0
LINE
8
BLACK
6
CONTINUOUS
10
56.5779
20
-164.608
11
57.816
21
-164.608
0
LINE
8
BLACK
6
CONTINUOUS
10
59.4351
20
-163.941
11
59.4351
21
-165.274
0
LINE
8
BLACK
6
CONTINUOUS
10
58.9589
20
-163.179
11
58.4827
21
-164.608
0
LINE
8
BLACK
6
CONTINUOUS
10
58.4827
20
-164.608
11
59.7208
21
-164.608
0
LINE
8
BLACK
6
CONTINUOUS
10
62.0065
20
-165.274
11
62.0065
21
-163.274
0
LINE
8
BLACK
6
CONTINUOUS
10
62.8636
20
-165.274
11
62.8636
21
-164.227
0
LINE
8
BLACK
6
CONTINUOUS
10
62.8636
20
-164.227
11
62.7684
21
-164.036
0
LINE
8
BLACK
6
CONTINUOUS
10
62.7684
20
-164.036
11
62.5779
21
-163.941
0
LINE
8
BLACK
6
CONTINUOUS
10
62.5779
20
-163.941
11
62.2922
21
-163.941
0
LINE
8
BLACK
6
CONTINUOUS
10
62.2922
20
-163.941
11
62.1017
21
-164.036
0
LINE
8
BLACK
6
CONTINUOUS
10
62.1017
20
-164.036
11
62.0065
21
-164.131
0
LINE
8
BLACK
6
CONTINUOUS
10
64.1017
20
-165.274
11
63.9113
21
-165.179
0
LINE
8
BLACK
6
CONTINUOUS
10
63.9113
20
-165.179
11
63.816
21
-165.084
0
LINE
8
BLACK
6
CONTINUOUS
10
63.816
20
-165.084
11
63.7208
21
-164.893
0
LINE
8
BLACK
6
CONTINUOUS
10
63.7208
20
-164.893
11
63.7208
21
-164.322
0
LINE
8
BLACK
6
CONTINUOUS
10
63.7208
20
-164.322
11
63.816
21
-164.131
0
LINE
8
BLACK
6
CONTINUOUS
10
63.816
20
-164.131
11
63.9113
21
-164.036
0
LINE
8
BLACK
6
CONTINUOUS
10
63.9113
20
-164.036
11
64.1017
21
-163.941
0
LINE
8
BLACK
6
CONTINUOUS
10
64.1017
20
-163.941
11
64.3874
21
-163.941
0
LINE
8
BLACK
6
CONTINUOUS
10
64.3874
20
-163.941
11
64.5779
21
-164.036
0
LINE
8
BLACK
6
CONTINUOUS
10
64.5779
20
-164.036
11
64.6732
21
-164.131
0
LINE
8
BLACK
6
CONTINUOUS
10
64.6732
20
-164.131
11
64.7684
21
-164.322
0
LINE
8
BLACK
6
CONTINUOUS
10
64.7684
20
-164.322
11
64.7684
21
-164.893
0
LINE
8
BLACK
6
CONTINUOUS
10
64.7684
20
-164.893
11
64.6732
21
-165.084
0
LINE
8
BLACK
6
CONTINUOUS
10
64.6732
20
-165.084
11
64.5779
21
-165.179
0
LINE
8
BLACK
6
CONTINUOUS
10
64.5779
20
-165.179
11
64.3874
21
-165.274
0
LINE
8
BLACK
6
CONTINUOUS
10
64.3874
20
-165.274
11
64.1017
21
-165.274
0
LINE
8
BLACK
6
CONTINUOUS
10
65.9113
20
-165.274
11
65.7208
21
-165.179
0
LINE
8
BLACK
6
CONTINUOUS
10
65.7208
20
-165.179
11
65.6255
21
-164.989
0
LINE
8
BLACK
6
CONTINUOUS
10
65.6255
20
-164.989
11
65.6255
21
-163.274
0
LINE
8
BLACK
6
CONTINUOUS
10
67.4351
20
-165.179
11
67.2446
21
-165.274
0
LINE
8
BLACK
6
CONTINUOUS
10
67.2446
20
-165.274
11
66.8636
21
-165.274
0
LINE
8
BLACK
6
CONTINUOUS
10
66.8636
20
-165.274
11
66.6732
21
-165.179
0
LINE
8
BLACK
6
CONTINUOUS
10
66.6732
20
-165.179
11
66.5779
21
-164.989
0
LINE
8
BLACK
6
CONTINUOUS
10
66.5779
20
-164.989
11
66.5779
21
-164.227
0
LINE
8
BLACK
6
CONTINUOUS
10
66.5779
20
-164.227
11
66.6732
21
-164.036
0
LINE
8
BLACK
6
CONTINUOUS
10
66.6732
20
-164.036
11
66.8636
21
-163.941
0
LINE
8
BLACK
6
CONTINUOUS
10
66.8636
20
-163.941
11
67.2446
21
-163.941
0
LINE
8
BLACK
6
CONTINUOUS
10
67.2446
20
-163.941
11
67.4351
21
-164.036
0
LINE
8
BLACK
6
CONTINUOUS
10
67.4351
20
-164.036
11
67.5303
21
-164.227
0
LINE
8
BLACK
6
CONTINUOUS
10
67.5303
20
-164.227
11
67.5303
21
-164.417
0
LINE
8
BLACK
6
CONTINUOUS
10
67.5303
20
-164.417
11
66.5779
21
-164.608
0
LINE
8
BLACK
6
CONTINUOUS
10
68.2922
20
-165.179
11
68.4827
21
-165.274
0
LINE
8
BLACK
6
CONTINUOUS
10
68.4827
20
-165.274
11
68.8636
21
-165.274
0
LINE
8
BLACK
6
CONTINUOUS
10
68.8636
20
-165.274
11
69.0541
21
-165.179
0
LINE
8
BLACK
6
CONTINUOUS
10
69.0541
20
-165.179
11
69.1494
21
-164.989
0
LINE
8
BLACK
6
CONTINUOUS
10
69.1494
20
-164.989
11
69.1494
21
-164.893
0
LINE
8
BLACK
6
CONTINUOUS
10
69.1494
20
-164.893
11
69.0541
21
-164.703
0
LINE
8
BLACK
6
CONTINUOUS
10
69.0541
20
-164.703
11
68.8636
21
-164.608
0
LINE
8
BLACK
6
CONTINUOUS
10
68.8636
20
-164.608
11
68.5779
21
-164.608
0
LINE
8
BLACK
6
CONTINUOUS
10
68.5779
20
-164.608
11
68.3874
21
-164.512
0
LINE
8
BLACK
6
CONTINUOUS
10
68.3874
20
-164.512
11
68.2922
21
-164.322
0
LINE
8
BLACK
6
CONTINUOUS
10
68.2922
20
-164.322
11
68.2922
21
-164.227
0
LINE
8
BLACK
6
CONTINUOUS
10
68.2922
20
-164.227
11
68.3874
21
-164.036
0
LINE
8
BLACK
6
CONTINUOUS
10
68.3874
20
-164.036
11
68.5779
21
-163.941
0
LINE
8
BLACK
6
CONTINUOUS
10
68.5779
20
-163.941
11
68.8636
21
-163.941
0
LINE
8
BLACK
6
CONTINUOUS
10
68.8636
20
-163.941
11
69.0541
21
-164.036
0
LINE
8
BLACK
6
CONTINUOUS
10
69.816
20
-166.036
11
69.9113
21
-165.941
0
LINE
8
BLACK
6
CONTINUOUS
10
69.9113
20
-165.941
11
70.1017
21
-165.655
0
LINE
8
BLACK
6
CONTINUOUS
10
70.1017
20
-165.655
11
70.197
21
-165.465
0
LINE
8
BLACK
6
CONTINUOUS
10
70.197
20
-165.465
11
70.2922
21
-165.179
0
LINE
8
BLACK
6
CONTINUOUS
10
70.2922
20
-165.179
11
70.3874
21
-164.703
0
LINE
8
BLACK
6
CONTINUOUS
10
70.3874
20
-164.703
11
70.3874
21
-164.322
0
LINE
8
BLACK
6
CONTINUOUS
10
70.3874
20
-164.322
11
70.2922
21
-163.846
0
LINE
8
BLACK
6
CONTINUOUS
10
70.2922
20
-163.846
11
70.197
21
-163.56
0
LINE
8
BLACK
6
CONTINUOUS
10
70.197
20
-163.56
11
70.1017
21
-163.37
0
LINE
8
BLACK
6
CONTINUOUS
10
70.1017
20
-163.37
11
69.9113
21
-163.084
0
LINE
8
BLACK
6
CONTINUOUS
10
69.9113
20
-163.084
11
69.816
21
-162.989
0
LINE
8
BLACK
6
CONTINUOUS
10
73.4351
20
-166.036
11
73.3398
21
-165.941
0
LINE
8
BLACK
6
CONTINUOUS
10
73.3398
20
-165.941
11
73.1494
21
-165.655
0
LINE
8
BLACK
6
CONTINUOUS
10
73.1494
20
-165.655
11
73.0541
21
-165.465
0
LINE
8
BLACK
6
CONTINUOUS
10
73.0541
20
-165.465
11
72.9589
21
-165.179
0
LINE
8
BLACK
6
CONTINUOUS
10
72.9589
20
-165.179
11
72.8636
21
-164.703
0
LINE
8
BLACK
6
CONTINUOUS
10
72.8636
20
-164.703
11
72.8636
21
-164.322
0
LINE
8
BLACK
6
CONTINUOUS
10
72.8636
20
-164.322
11
72.9589
21
-163.846
0
LINE
8
BLACK
6
CONTINUOUS
10
72.9589
20
-163.846
11
73.0541
21
-163.56
0
LINE
8
BLACK
6
CONTINUOUS
10
73.0541
20
-163.56
11
73.1494
21
-163.37
0
LINE
8
BLACK
6
CONTINUOUS
10
73.1494
20
-163.37
11
73.3398
21
-163.084
0
LINE
8
BLACK
6
CONTINUOUS
10
73.3398
20
-163.084
11
73.4351
21
-162.989
0
LINE
8
BLACK
6
CONTINUOUS
10
74.197
20
-163.941
11
74.197
21
-165.274
0
LINE
8
BLACK
6
CONTINUOUS
10
74.197
20
-164.131
11
74.2922
21
-164.036
0
LINE
8
BLACK
6
CONTINUOUS
10
74.2922
20
-164.036
11
74.4827
21
-163.941
0
LINE
8
BLACK
6
CONTINUOUS
10
74.4827
20
-163.941
11
74.7684
21
-163.941
0
LINE
8
BLACK
6
CONTINUOUS
10
74.7684
20
-163.941
11
74.9589
21
-164.036
0
LINE
8
BLACK
6
CONTINUOUS
10
74.9589
20
-164.036
11
75.0541
21
-164.227
0
LINE
8
BLACK
6
CONTINUOUS
10
75.0541
20
-164.227
11
75.0541
21
-165.274
0
LINE
8
BLACK
6
CONTINUOUS
10
76.2922
20
-165.274
11
76.1017
21
-165.179
0
LINE
8
BLACK
6
CONTINUOUS
10
76.1017
20
-165.179
11
76.0065
21
-165.084
0
LINE
8
BLACK
6
CONTINUOUS
10
76.0065
20
-165.084
11
75.9113
21
-164.893
0
LINE
8
BLACK
6
CONTINUOUS
10
75.9113
20
-164.893
11
75.9113
21
-164.322
0
LINE
8
BLACK
6
CONTINUOUS
10
75.9113
20
-164.322
11
76.0065
21
-164.131
0
LINE
8
BLACK
6
CONTINUOUS
10
76.0065
20
-164.131
11
76.1017
21
-164.036
0
LINE
8
BLACK
6
CONTINUOUS
10
76.1017
20
-164.036
11
76.2922
21
-163.941
0
LINE
8
BLACK
6
CONTINUOUS
10
76.2922
20
-163.941
11
76.5779
21
-163.941
0
LINE
8
BLACK
6
CONTINUOUS
10
76.5779
20
-163.941
11
76.7684
21
-164.036
0
LINE
8
BLACK
6
CONTINUOUS
10
76.7684
20
-164.036
11
76.8636
21
-164.131
0
LINE
8
BLACK
6
CONTINUOUS
10
76.8636
20
-164.131
11
76.9589
21
-164.322
0
LINE
8
BLACK
6
CONTINUOUS
10
76.9589
20
-164.322
11
76.9589
21
-164.893
0
LINE
8
BLACK
6
CONTINUOUS
10
76.9589
20
-164.893
11
76.8636
21
-165.084
0
LINE
8
BLACK
6
CONTINUOUS
10
76.8636
20
-165.084
11
76.7684
21
-165.179
0
LINE
8
BLACK
6
CONTINUOUS
10
76.7684
20
-165.179
11
76.5779
21
-165.274
0
LINE
8
BLACK
6
CONTINUOUS
10
76.5779
20
-165.274
11
76.2922
21
-165.274
0
LINE
8
BLACK
6
CONTINUOUS
10
77.5303
20
-163.941
11
78.2922
21
-163.941
0
LINE
8
BLACK
6
CONTINUOUS
10
77.816
20
-163.274
11
77.816
21
-164.989
0
LINE
8
BLACK
6
CONTINUOUS
10
77.816
20
-164.989
11
77.9113
21
-165.179
0
LINE
8
BLACK
6
CONTINUOUS
10
77.9113
20
-165.179
11
78.1017
21
-165.274
0
LINE
8
BLACK
6
CONTINUOUS
10
78.1017
20
-165.274
11
78.2922
21
-165.274
0
LINE
8
BLACK
6
CONTINUOUS
10
80.4827
20
-163.941
11
80.4827
21
-165.941
0
LINE
8
BLACK
6
CONTINUOUS
10
80.4827
20
-164.036
11
80.6732
21
-163.941
0
LINE
8
BLACK
6
CONTINUOUS
10
80.6732
20
-163.941
11
81.0541
21
-163.941
0
LINE
8
BLACK
6
CONTINUOUS
10
81.0541
20
-163.941
11
81.2446
21
-164.036
0
LINE
8
BLACK
6
CONTINUOUS
10
81.2446
20
-164.036
11
81.3398
21
-164.131
0
LINE
8
BLACK
6
CONTINUOUS
10
81.3398
20
-164.131
11
81.4351
21
-164.322
0
LINE
8
BLACK
6
CONTINUOUS
10
81.4351
20
-164.322
11
81.4351
21
-164.893
0
LINE
8
BLACK
6
CONTINUOUS
10
81.4351
20
-164.893
11
81.3398
21
-165.084
0
LINE
8
BLACK
6
CONTINUOUS
10
81.3398
20
-165.084
11
81.2446
21
-165.179
0
LINE
8
BLACK
6
CONTINUOUS
10
81.2446
20
-165.179
11
81.0541
21
-165.274
0
LINE
8
BLACK
6
CONTINUOUS
10
81.0541
20
-165.274
11
80.6732
21
-165.274
0
LINE
8
BLACK
6
CONTINUOUS
10
80.6732
20
-165.274
11
80.4827
21
-165.179
0
LINE
8
BLACK
6
CONTINUOUS
10
82.5779
20
-165.274
11
82.3874
21
-165.179
0
LINE
8
BLACK
6
CONTINUOUS
10
82.3874
20
-165.179
11
82.2922
21
-164.989
0
LINE
8
BLACK
6
CONTINUOUS
10
82.2922
20
-164.989
11
82.2922
21
-163.274
0
LINE
8
BLACK
6
CONTINUOUS
10
84.197
20
-165.274
11
84.197
21
-164.227
0
LINE
8
BLACK
6
CONTINUOUS
10
84.197
20
-164.227
11
84.1017
21
-164.036
0
LINE
8
BLACK
6
CONTINUOUS
10
84.1017
20
-164.036
11
83.9113
21
-163.941
0
LINE
8
BLACK
6
CONTINUOUS
10
83.9113
20
-163.941
11
83.5303
21
-163.941
0
LINE
8
BLACK
6
CONTINUOUS
10
83.5303
20
-163.941
11
83.3398
21
-164.036
0
LINE
8
BLACK
6
CONTINUOUS
10
84.197
20
-165.179
11
84.0065
21
-165.274
0
LINE
8
BLACK
6
CONTINUOUS
10
84.0065
20
-165.274
11
83.5303
21
-165.274
0
LINE
8
BLACK
6
CONTINUOUS
10
83.5303
20
-165.274
11
83.3398
21
-165.179
0
LINE
8
BLACK
6
CONTINUOUS
10
83.3398
20
-165.179
11
83.2446
21
-164.989
0
LINE
8
BLACK
6
CONTINUOUS
10
83.2446
20
-164.989
11
83.2446
21
-164.798
0
LINE
8
BLACK
6
CONTINUOUS
10
83.2446
20
-164.798
11
83.3398
21
-164.608
0
LINE
8
BLACK
6
CONTINUOUS
10
83.3398
20
-164.608
11
83.5303
21
-164.512
0
LINE
8
BLACK
6
CONTINUOUS
10
83.5303
20
-164.512
11
84.0065
21
-164.512
0
LINE
8
BLACK
6
CONTINUOUS
10
84.0065
20
-164.512
11
84.197
21
-164.417
0
LINE
8
BLACK
6
CONTINUOUS
10
84.8636
20
-163.941
11
85.6255
21
-163.941
0
LINE
8
BLACK
6
CONTINUOUS
10
85.1494
20
-163.274
11
85.1494
21
-164.989
0
LINE
8
BLACK
6
CONTINUOUS
10
85.1494
20
-164.989
11
85.2446
21
-165.179
0
LINE
8
BLACK
6
CONTINUOUS
10
85.2446
20
-165.179
11
85.4351
21
-165.274
0
LINE
8
BLACK
6
CONTINUOUS
10
85.4351
20
-165.274
11
85.6255
21
-165.274
0
LINE
8
BLACK
6
CONTINUOUS
10
87.0541
20
-165.179
11
86.8636
21
-165.274
0
LINE
8
BLACK
6
CONTINUOUS
10
86.8636
20
-165.274
11
86.4827
21
-165.274
0
LINE
8
BLACK
6
CONTINUOUS
10
86.4827
20
-165.274
11
86.2922
21
-165.179
0
LINE
8
BLACK
6
CONTINUOUS
10
86.2922
20
-165.179
11
86.197
21
-164.989
0
LINE
8
BLACK
6
CONTINUOUS
10
86.197
20
-164.989
11
86.197
21
-164.227
0
LINE
8
BLACK
6
CONTINUOUS
10
86.197
20
-164.227
11
86.2922
21
-164.036
0
LINE
8
BLACK
6
CONTINUOUS
10
86.2922
20
-164.036
11
86.4827
21
-163.941
0
LINE
8
BLACK
6
CONTINUOUS
10
86.4827
20
-163.941
11
86.8636
21
-163.941
0
LINE
8
BLACK
6
CONTINUOUS
10
86.8636
20
-163.941
11
87.0541
21
-164.036
0
LINE
8
BLACK
6
CONTINUOUS
10
87.0541
20
-164.036
11
87.1494
21
-164.227
0
LINE
8
BLACK
6
CONTINUOUS
10
87.1494
20
-164.227
11
87.1494
21
-164.417
0
LINE
8
BLACK
6
CONTINUOUS
10
87.1494
20
-164.417
11
86.197
21
-164.608
0
LINE
8
BLACK
6
CONTINUOUS
10
88.8636
20
-165.274
11
88.8636
21
-163.274
0
LINE
8
BLACK
6
CONTINUOUS
10
88.8636
20
-165.179
11
88.6732
21
-165.274
0
LINE
8
BLACK
6
CONTINUOUS
10
88.6732
20
-165.274
11
88.2922
21
-165.274
0
LINE
8
BLACK
6
CONTINUOUS
10
88.2922
20
-165.274
11
88.1017
21
-165.179
0
LINE
8
BLACK
6
CONTINUOUS
10
88.1017
20
-165.179
11
88.0065
21
-165.084
0
LINE
8
BLACK
6
CONTINUOUS
10
88.0065
20
-165.084
11
87.9113
21
-164.893
0
LINE
8
BLACK
6
CONTINUOUS
10
87.9113
20
-164.893
11
87.9113
21
-164.322
0
LINE
8
BLACK
6
CONTINUOUS
10
87.9113
20
-164.322
11
88.0065
21
-164.131
0
LINE
8
BLACK
6
CONTINUOUS
10
88.0065
20
-164.131
11
88.1017
21
-164.036
0
LINE
8
BLACK
6
CONTINUOUS
10
88.1017
20
-164.036
11
88.2922
21
-163.941
0
LINE
8
BLACK
6
CONTINUOUS
10
88.2922
20
-163.941
11
88.6732
21
-163.941
0
LINE
8
BLACK
6
CONTINUOUS
10
88.6732
20
-163.941
11
88.8636
21
-164.036
0
LINE
8
BLACK
6
CONTINUOUS
10
89.6255
20
-166.036
11
89.7208
21
-165.941
0
LINE
8
BLACK
6
CONTINUOUS
10
89.7208
20
-165.941
11
89.9113
21
-165.655
0
LINE
8
BLACK
6
CONTINUOUS
10
89.9113
20
-165.655
11
90.0065
21
-165.465
0
LINE
8
BLACK
6
CONTINUOUS
10
90.0065
20
-165.465
11
90.1017
21
-165.179
0
LINE
8
BLACK
6
CONTINUOUS
10
90.1017
20
-165.179
11
90.197
21
-164.703
0
LINE
8
BLACK
6
CONTINUOUS
10
90.197
20
-164.703
11
90.197
21
-164.322
0
LINE
8
BLACK
6
CONTINUOUS
10
90.197
20
-164.322
11
90.1017
21
-163.846
0
LINE
8
BLACK
6
CONTINUOUS
10
90.1017
20
-163.846
11
90.0065
21
-163.56
0
LINE
8
BLACK
6
CONTINUOUS
10
90.0065
20
-163.56
11
89.9113
21
-163.37
0
LINE
8
BLACK
6
CONTINUOUS
10
89.9113
20
-163.37
11
89.7208
21
-163.084
0
LINE
8
BLACK
6
CONTINUOUS
10
89.7208
20
-163.084
11
89.6255
21
-162.989
0
LINE
8
BLACK
6
CONTINUOUS
10
19.1922
20
-166.57
11
19.1922
21
-168.57
0
LINE
8
BLACK
6
CONTINUOUS
10
18.1922
20
-167.57
11
20.1922
21
-167.57
0
LINE
8
BLACK
6
CONTINUOUS
10
22.5779
20
-166.474
11
23.816
21
-166.474
0
LINE
8
BLACK
6
CONTINUOUS
10
23.816
20
-166.474
11
23.1494
21
-167.236
0
LINE
8
BLACK
6
CONTINUOUS
10
23.1494
20
-167.236
11
23.4351
21
-167.236
0
LINE
8
BLACK
6
CONTINUOUS
10
23.4351
20
-167.236
11
23.6255
21
-167.331
0
LINE
8
BLACK
6
CONTINUOUS
10
23.6255
20
-167.331
11
23.7208
21
-167.427
0
LINE
8
BLACK
6
CONTINUOUS
10
23.7208
20
-167.427
11
23.816
21
-167.617
0
LINE
8
BLACK
6
CONTINUOUS
10
23.816
20
-167.617
11
23.816
21
-168.093
0
LINE
8
BLACK
6
CONTINUOUS
10
23.816
20
-168.093
11
23.7208
21
-168.284
0
LINE
8
BLACK
6
CONTINUOUS
10
23.7208
20
-168.284
11
23.6255
21
-168.379
0
LINE
8
BLACK
6
CONTINUOUS
10
23.6255
20
-168.379
11
23.4351
21
-168.474
0
LINE
8
BLACK
6
CONTINUOUS
10
23.4351
20
-168.474
11
22.8636
21
-168.474
0
LINE
8
BLACK
6
CONTINUOUS
10
22.8636
20
-168.474
11
22.6732
21
-168.379
0
LINE
8
BLACK
6
CONTINUOUS
10
22.6732
20
-168.379
11
22.5779
21
-168.284
0
LINE
8
BLACK
6
CONTINUOUS
10
24.6732
20
-168.284
11
24.7684
21
-168.379
0
LINE
8
BLACK
6
CONTINUOUS
10
24.7684
20
-168.379
11
24.6732
21
-168.474
0
LINE
8
BLACK
6
CONTINUOUS
10
24.6732
20
-168.474
11
24.5779
21
-168.379
0
LINE
8
BLACK
6
CONTINUOUS
10
24.5779
20
-168.379
11
24.6732
21
-168.284
0
LINE
8
BLACK
6
CONTINUOUS
10
24.6732
20
-168.284
11
24.6732
21
-168.474
0
LINE
8
BLACK
6
CONTINUOUS
10
26.0065
20
-166.474
11
26.197
21
-166.474
0
LINE
8
BLACK
6
CONTINUOUS
10
26.197
20
-166.474
11
26.3874
21
-166.57
0
LINE
8
BLACK
6
CONTINUOUS
10
26.3874
20
-166.57
11
26.4827
21
-166.665
0
LINE
8
BLACK
6
CONTINUOUS
10
26.4827
20
-166.665
11
26.5779
21
-166.855
0
LINE
8
BLACK
6
CONTINUOUS
10
26.5779
20
-166.855
11
26.6732
21
-167.236
0
LINE
8
BLACK
6
CONTINUOUS
10
26.6732
20
-167.236
11
26.6732
21
-167.712
0
LINE
8
BLACK
6
CONTINUOUS
10
26.6732
20
-167.712
11
26.5779
21
-168.093
0
LINE
8
BLACK
6
CONTINUOUS
10
26.5779
20
-168.093
11
26.4827
21
-168.284
0
LINE
8
BLACK
6
CONTINUOUS
10
26.4827
20
-168.284
11
26.3874
21
-168.379
0
LINE
8
BLACK
6
CONTINUOUS
10
26.3874
20
-168.379
11
26.197
21
-168.474
0
LINE
8
BLACK
6
CONTINUOUS
10
26.197
20
-168.474
11
26.0065
21
-168.474
0
LINE
8
BLACK
6
CONTINUOUS
10
26.0065
20
-168.474
11
25.816
21
-168.379
0
LINE
8
BLACK
6
CONTINUOUS
10
25.816
20
-168.379
11
25.7208
21
-168.284
0
LINE
8
BLACK
6
CONTINUOUS
10
25.7208
20
-168.284
11
25.6255
21
-168.093
0
LINE
8
BLACK
6
CONTINUOUS
10
25.6255
20
-168.093
11
25.5303
21
-167.712
0
LINE
8
BLACK
6
CONTINUOUS
10
25.5303
20
-167.712
11
25.5303
21
-167.236
0
LINE
8
BLACK
6
CONTINUOUS
10
25.5303
20
-167.236
11
25.6255
21
-166.855
0
LINE
8
BLACK
6
CONTINUOUS
10
25.6255
20
-166.855
11
25.7208
21
-166.665
0
LINE
8
BLACK
6
CONTINUOUS
10
25.7208
20
-166.665
11
25.816
21
-166.57
0
LINE
8
BLACK
6
CONTINUOUS
10
25.816
20
-166.57
11
26.0065
21
-166.474
0
LINE
8
BLACK
6
CONTINUOUS
10
28.4827
20
-166.474
11
27.5303
21
-166.474
0
LINE
8
BLACK
6
CONTINUOUS
10
27.5303
20
-166.474
11
27.4351
21
-167.427
0
LINE
8
BLACK
6
CONTINUOUS
10
27.4351
20
-167.427
11
27.5303
21
-167.331
0
LINE
8
BLACK
6
CONTINUOUS
10
27.5303
20
-167.331
11
27.7208
21
-167.236
0
LINE
8
BLACK
6
CONTINUOUS
10
27.7208
20
-167.236
11
28.197
21
-167.236
0
LINE
8
BLACK
6
CONTINUOUS
10
28.197
20
-167.236
11
28.3874
21
-167.331
0
LINE
8
BLACK
6
CONTINUOUS
10
28.3874
20
-167.331
11
28.4827
21
-167.427
0
LINE
8
BLACK
6
CONTINUOUS
10
28.4827
20
-167.427
11
28.5779
21
-167.617
0
LINE
8
BLACK
6
CONTINUOUS
10
28.5779
20
-167.617
11
28.5779
21
-168.093
0
LINE
8
BLACK
6
CONTINUOUS
10
28.5779
20
-168.093
11
28.4827
21
-168.284
0
LINE
8
BLACK
6
CONTINUOUS
10
28.4827
20
-168.284
11
28.3874
21
-168.379
0
LINE
8
BLACK
6
CONTINUOUS
10
28.3874
20
-168.379
11
28.197
21
-168.474
0
LINE
8
BLACK
6
CONTINUOUS
10
28.197
20
-168.474
11
27.7208
21
-168.474
0
LINE
8
BLACK
6
CONTINUOUS
10
27.7208
20
-168.474
11
27.5303
21
-168.379
0
LINE
8
BLACK
6
CONTINUOUS
10
27.5303
20
-168.379
11
27.4351
21
-168.284
0
LINE
8
BLACK
6
CONTINUOUS
10
29.816
20
-166.474
11
30.0065
21
-166.474
0
LINE
8
BLACK
6
CONTINUOUS
10
30.0065
20
-166.474
11
30.197
21
-166.57
0
LINE
8
BLACK
6
CONTINUOUS
10
30.197
20
-166.57
11
30.2922
21
-166.665
0
LINE
8
BLACK
6
CONTINUOUS
10
30.2922
20
-166.665
11
30.3874
21
-166.855
0
LINE
8
BLACK
6
CONTINUOUS
10
30.3874
20
-166.855
11
30.4827
21
-167.236
0
LINE
8
BLACK
6
CONTINUOUS
10
30.4827
20
-167.236
11
30.4827
21
-167.712
0
LINE
8
BLACK
6
CONTINUOUS
10
30.4827
20
-167.712
11
30.3874
21
-168.093
0
LINE
8
BLACK
6
CONTINUOUS
10
30.3874
20
-168.093
11
30.2922
21
-168.284
0
LINE
8
BLACK
6
CONTINUOUS
10
30.2922
20
-168.284
11
30.197
21
-168.379
0
LINE
8
BLACK
6
CONTINUOUS
10
30.197
20
-168.379
11
30.0065
21
-168.474
0
LINE
8
BLACK
6
CONTINUOUS
10
30.0065
20
-168.474
11
29.816
21
-168.474
0
LINE
8
BLACK
6
CONTINUOUS
10
29.816
20
-168.474
11
29.6255
21
-168.379
0
LINE
8
BLACK
6
CONTINUOUS
10
29.6255
20
-168.379
11
29.5303
21
-168.284
0
LINE
8
BLACK
6
CONTINUOUS
10
29.5303
20
-168.284
11
29.4351
21
-168.093
0
LINE
8
BLACK
6
CONTINUOUS
10
29.4351
20
-168.093
11
29.3398
21
-167.712
0
LINE
8
BLACK
6
CONTINUOUS
10
29.3398
20
-167.712
11
29.3398
21
-167.236
0
LINE
8
BLACK
6
CONTINUOUS
10
29.3398
20
-167.236
11
29.4351
21
-166.855
0
LINE
8
BLACK
6
CONTINUOUS
10
29.4351
20
-166.855
11
29.5303
21
-166.665
0
LINE
8
BLACK
6
CONTINUOUS
10
29.5303
20
-166.665
11
29.6255
21
-166.57
0
LINE
8
BLACK
6
CONTINUOUS
10
29.6255
20
-166.57
11
29.816
21
-166.474
0
LINE
8
BLACK
6
CONTINUOUS
10
31.3398
20
-168.474
11
31.3398
21
-167.141
0
LINE
8
BLACK
6
CONTINUOUS
10
31.3398
20
-167.331
11
31.4351
21
-167.236
0
LINE
8
BLACK
6
CONTINUOUS
10
31.4351
20
-167.236
11
31.6255
21
-167.141
0
LINE
8
BLACK
6
CONTINUOUS
10
31.6255
20
-167.141
11
31.9113
21
-167.141
0
LINE
8
BLACK
6
CONTINUOUS
10
31.9113
20
-167.141
11
32.1017
21
-167.236
0
LINE
8
BLACK
6
CONTINUOUS
10
32.1017
20
-167.236
11
32.197
21
-167.427
0
LINE
8
BLACK
6
CONTINUOUS
10
32.197
20
-167.427
11
32.197
21
-168.474
0
LINE
8
BLACK
6
CONTINUOUS
10
32.197
20
-167.427
11
32.2922
21
-167.236
0
LINE
8
BLACK
6
CONTINUOUS
10
32.2922
20
-167.236
11
32.4827
21
-167.141
0
LINE
8
BLACK
6
CONTINUOUS
10
32.4827
20
-167.141
11
32.7684
21
-167.141
0
LINE
8
BLACK
6
CONTINUOUS
10
32.7684
20
-167.141
11
32.9589
21
-167.236
0
LINE
8
BLACK
6
CONTINUOUS
10
32.9589
20
-167.236
11
33.0541
21
-167.427
0
LINE
8
BLACK
6
CONTINUOUS
10
33.0541
20
-167.427
11
33.0541
21
-168.474
0
LINE
8
BLACK
6
CONTINUOUS
10
34.0065
20
-168.474
11
34.0065
21
-167.141
0
LINE
8
BLACK
6
CONTINUOUS
10
34.0065
20
-167.331
11
34.1017
21
-167.236
0
LINE
8
BLACK
6
CONTINUOUS
10
34.1017
20
-167.236
11
34.2922
21
-167.141
0
LINE
8
BLACK
6
CONTINUOUS
10
34.2922
20
-167.141
11
34.5779
21
-167.141
0
LINE
8
BLACK
6
CONTINUOUS
10
34.5779
20
-167.141
11
34.7684
21
-167.236
0
LINE
8
BLACK
6
CONTINUOUS
10
34.7684
20
-167.236
11
34.8636
21
-167.427
0
LINE
8
BLACK
6
CONTINUOUS
10
34.8636
20
-167.427
11
34.8636
21
-168.474
0
LINE
8
BLACK
6
CONTINUOUS
10
34.8636
20
-167.427
11
34.9589
21
-167.236
0
LINE
8
BLACK
6
CONTINUOUS
10
34.9589
20
-167.236
11
35.1494
21
-167.141
0
LINE
8
BLACK
6
CONTINUOUS
10
35.1494
20
-167.141
11
35.4351
21
-167.141
0
LINE
8
BLACK
6
CONTINUOUS
10
35.4351
20
-167.141
11
35.6255
21
-167.236
0
LINE
8
BLACK
6
CONTINUOUS
10
35.6255
20
-167.236
11
35.7208
21
-167.427
0
LINE
8
BLACK
6
CONTINUOUS
10
35.7208
20
-167.427
11
35.7208
21
-168.474
0
LINE
8
BLACK
6
CONTINUOUS
10
39.6255
20
-166.379
11
37.9113
21
-168.951
0
LINE
8
BLACK
6
CONTINUOUS
10
42.197
20
-166.474
11
42.3874
21
-166.474
0
LINE
8
BLACK
6
CONTINUOUS
10
42.3874
20
-166.474
11
42.5779
21
-166.57
0
LINE
8
BLACK
6
CONTINUOUS
10
42.5779
20
-166.57
11
42.6732
21
-166.665
0
LINE
8
BLACK
6
CONTINUOUS
10
42.6732
20
-166.665
11
42.7684
21
-166.855
0
LINE
8
BLACK
6
CONTINUOUS
10
42.7684
20
-166.855
11
42.8636
21
-167.236
0
LINE
8
BLACK
6
CONTINUOUS
10
42.8636
20
-167.236
11
42.8636
21
-167.712
0
LINE
8
BLACK
6
CONTINUOUS
10
42.8636
20
-167.712
11
42.7684
21
-168.093
0
LINE
8
BLACK
6
CONTINUOUS
10
42.7684
20
-168.093
11
42.6732
21
-168.284
0
LINE
8
BLACK
6
CONTINUOUS
10
42.6732
20
-168.284
11
42.5779
21
-168.379
0
LINE
8
BLACK
6
CONTINUOUS
10
42.5779
20
-168.379
11
42.3874
21
-168.474
0
LINE
8
BLACK
6
CONTINUOUS
10
42.3874
20
-168.474
11
42.197
21
-168.474
0
LINE
8
BLACK
6
CONTINUOUS
10
42.197
20
-168.474
11
42.0065
21
-168.379
0
LINE
8
BLACK
6
CONTINUOUS
10
42.0065
20
-168.379
11
41.9113
21
-168.284
0
LINE
8
BLACK
6
CONTINUOUS
10
41.9113
20
-168.284
11
41.816
21
-168.093
0
LINE
8
BLACK
6
CONTINUOUS
10
41.816
20
-168.093
11
41.7208
21
-167.712
0
LINE
8
BLACK
6
CONTINUOUS
10
41.7208
20
-167.712
11
41.7208
21
-167.236
0
LINE
8
BLACK
6
CONTINUOUS
10
41.7208
20
-167.236
11
41.816
21
-166.855
0
LINE
8
BLACK
6
CONTINUOUS
10
41.816
20
-166.855
11
41.9113
21
-166.665
0
LINE
8
BLACK
6
CONTINUOUS
10
41.9113
20
-166.665
11
42.0065
21
-166.57
0
LINE
8
BLACK
6
CONTINUOUS
10
42.0065
20
-166.57
11
42.197
21
-166.474
0
LINE
8
BLACK
6
CONTINUOUS
10
43.7208
20
-168.284
11
43.816
21
-168.379
0
LINE
8
BLACK
6
CONTINUOUS
10
43.816
20
-168.379
11
43.7208
21
-168.474
0
LINE
8
BLACK
6
CONTINUOUS
10
43.7208
20
-168.474
11
43.6255
21
-168.379
0
LINE
8
BLACK
6
CONTINUOUS
10
43.6255
20
-168.379
11
43.7208
21
-168.284
0
LINE
8
BLACK
6
CONTINUOUS
10
43.7208
20
-168.284
11
43.7208
21
-168.474
0
LINE
8
BLACK
6
CONTINUOUS
10
45.7208
20
-168.474
11
44.5779
21
-168.474
0
LINE
8
BLACK
6
CONTINUOUS
10
45.1494
20
-168.474
11
45.1494
21
-166.474
0
LINE
8
BLACK
6
CONTINUOUS
10
45.1494
20
-166.474
11
44.9589
21
-166.76
0
LINE
8
BLACK
6
CONTINUOUS
10
44.9589
20
-166.76
11
44.7684
21
-166.951
0
LINE
8
BLACK
6
CONTINUOUS
10
44.7684
20
-166.951
11
44.5779
21
-167.046
0
LINE
8
BLACK
6
CONTINUOUS
10
46.4827
20
-166.665
11
46.5779
21
-166.57
0
LINE
8
BLACK
6
CONTINUOUS
10
46.5779
20
-166.57
11
46.7684
21
-166.474
0
LINE
8
BLACK
6
CONTINUOUS
10
46.7684
20
-166.474
11
47.2446
21
-166.474
0
LINE
8
BLACK
6
CONTINUOUS
10
47.2446
20
-166.474
11
47.4351
21
-166.57
0
LINE
8
BLACK
6
CONTINUOUS
10
47.4351
20
-166.57
11
47.5303
21
-166.665
0
LINE
8
BLACK
6
CONTINUOUS
10
47.5303
20
-166.665
11
47.6255
21
-166.855
0
LINE
8
BLACK
6
CONTINUOUS
10
47.6255
20
-166.855
11
47.6255
21
-167.046
0
LINE
8
BLACK
6
CONTINUOUS
10
47.6255
20
-167.046
11
47.5303
21
-167.331
0
LINE
8
BLACK
6
CONTINUOUS
10
47.5303
20
-167.331
11
46.3874
21
-168.474
0
LINE
8
BLACK
6
CONTINUOUS
10
46.3874
20
-168.474
11
47.6255
21
-168.474
0
LINE
8
BLACK
6
CONTINUOUS
10
48.8636
20
-166.474
11
49.0541
21
-166.474
0
LINE
8
BLACK
6
CONTINUOUS
10
49.0541
20
-166.474
11
49.2446
21
-166.57
0
LINE
8
BLACK
6
CONTINUOUS
10
49.2446
20
-166.57
11
49.3398
21
-166.665
0
LINE
8
BLACK
6
CONTINUOUS
10
49.3398
20
-166.665
11
49.4351
21
-166.855
0
LINE
8
BLACK
6
CONTINUOUS
10
49.4351
20
-166.855
11
49.5303
21
-167.236
0
LINE
8
BLACK
6
CONTINUOUS
10
49.5303
20
-167.236
11
49.5303
21
-167.712
0
LINE
8
BLACK
6
CONTINUOUS
10
49.5303
20
-167.712
11
49.4351
21
-168.093
0
LINE
8
BLACK
6
CONTINUOUS
10
49.4351
20
-168.093
11
49.3398
21
-168.284
0
LINE
8
BLACK
6
CONTINUOUS
10
49.3398
20
-168.284
11
49.2446
21
-168.379
0
LINE
8
BLACK
6
CONTINUOUS
10
49.2446
20
-168.379
11
49.0541
21
-168.474
0
LINE
8
BLACK
6
CONTINUOUS
10
49.0541
20
-168.474
11
48.8636
21
-168.474
0
LINE
8
BLACK
6
CONTINUOUS
10
48.8636
20
-168.474
11
48.6732
21
-168.379
0
LINE
8
BLACK
6
CONTINUOUS
10
48.6732
20
-168.379
11
48.5779
21
-168.284
0
LINE
8
BLACK
6
CONTINUOUS
10
48.5779
20
-168.284
11
48.4827
21
-168.093
0
LINE
8
BLACK
6
CONTINUOUS
10
48.4827
20
-168.093
11
48.3874
21
-167.712
0
LINE
8
BLACK
6
CONTINUOUS
10
48.3874
20
-167.712
11
48.3874
21
-167.236
0
LINE
8
BLACK
6
CONTINUOUS
10
48.3874
20
-167.236
11
48.4827
21
-166.855
0
LINE
8
BLACK
6
CONTINUOUS
10
48.4827
20
-166.855
11
48.5779
21
-166.665
0
LINE
8
BLACK
6
CONTINUOUS
10
48.5779
20
-166.665
11
48.6732
21
-166.57
0
LINE
8
BLACK
6
CONTINUOUS
10
48.6732
20
-166.57
11
48.8636
21
-166.474
0
LINE
8
BLACK
6
CONTINUOUS
10
51.4351
20
-168.474
11
50.2922
21
-168.474
0
LINE
8
BLACK
6
CONTINUOUS
10
50.8636
20
-168.474
11
50.8636
21
-166.474
0
LINE
8
BLACK
6
CONTINUOUS
10
50.8636
20
-166.474
11
50.6732
21
-166.76
0
LINE
8
BLACK
6
CONTINUOUS
10
50.6732
20
-166.76
11
50.4827
21
-166.951
0
LINE
8
BLACK
6
CONTINUOUS
10
50.4827
20
-166.951
11
50.2922
21
-167.046
0
LINE
8
BLACK
6
CONTINUOUS
10
52.197
20
-166.474
11
52.197
21
-166.855
0
LINE
8
BLACK
6
CONTINUOUS
10
52.9589
20
-166.474
11
52.9589
21
-166.855
0
LINE
8
BLACK
6
CONTINUOUS
10
55.9113
20
-169.236
11
55.816
21
-169.141
0
LINE
8
BLACK
6
CONTINUOUS
10
55.816
20
-169.141
11
55.6255
21
-168.855
0
LINE
8
BLACK
6
CONTINUOUS
10
55.6255
20
-168.855
11
55.5303
21
-168.665
0
LINE
8
BLACK
6
CONTINUOUS
10
55.5303
20
-168.665
11
55.4351
21
-168.379
0
LINE
8
BLACK
6
CONTINUOUS
10
55.4351
20
-168.379
11
55.3398
21
-167.903
0
LINE
8
BLACK
6
CONTINUOUS
10
55.3398
20
-167.903
11
55.3398
21
-167.522
0
LINE
8
BLACK
6
CONTINUOUS
10
55.3398
20
-167.522
11
55.4351
21
-167.046
0
LINE
8
BLACK
6
CONTINUOUS
10
55.4351
20
-167.046
11
55.5303
21
-166.76
0
LINE
8
BLACK
6
CONTINUOUS
10
55.5303
20
-166.76
11
55.6255
21
-166.57
0
LINE
8
BLACK
6
CONTINUOUS
10
55.6255
20
-166.57
11
55.816
21
-166.284
0
LINE
8
BLACK
6
CONTINUOUS
10
55.816
20
-166.284
11
55.9113
21
-166.189
0
LINE
8
BLACK
6
CONTINUOUS
10
57.5303
20
-166.474
11
57.1494
21
-166.474
0
LINE
8
BLACK
6
CONTINUOUS
10
57.1494
20
-166.474
11
56.9589
21
-166.57
0
LINE
8
BLACK
6
CONTINUOUS
10
56.9589
20
-166.57
11
56.8636
21
-166.665
0
LINE
8
BLACK
6
CONTINUOUS
10
56.8636
20
-166.665
11
56.6732
21
-166.951
0
LINE
8
BLACK
6
CONTINUOUS
10
56.6732
20
-166.951
11
56.5779
21
-167.331
0
LINE
8
BLACK
6
CONTINUOUS
10
56.5779
20
-167.331
11
56.5779
21
-168.093
0
LINE
8
BLACK
6
CONTINUOUS
10
56.5779
20
-168.093
11
56.6732
21
-168.284
0
LINE
8
BLACK
6
CONTINUOUS
10
56.6732
20
-168.284
11
56.7684
21
-168.379
0
LINE
8
BLACK
6
CONTINUOUS
10
56.7684
20
-168.379
11
56.9589
21
-168.474
0
LINE
8
BLACK
6
CONTINUOUS
10
56.9589
20
-168.474
11
57.3398
21
-168.474
0
LINE
8
BLACK
6
CONTINUOUS
10
57.3398
20
-168.474
11
57.5303
21
-168.379
0
LINE
8
BLACK
6
CONTINUOUS
10
57.5303
20
-168.379
11
57.6255
21
-168.284
0
LINE
8
BLACK
6
CONTINUOUS
10
57.6255
20
-168.284
11
57.7208
21
-168.093
0
LINE
8
BLACK
6
CONTINUOUS
10
57.7208
20
-168.093
11
57.7208
21
-167.617
0
LINE
8
BLACK
6
CONTINUOUS
10
57.7208
20
-167.617
11
57.6255
21
-167.427
0
LINE
8
BLACK
6
CONTINUOUS
10
57.6255
20
-167.427
11
57.5303
21
-167.331
0
LINE
8
BLACK
6
CONTINUOUS
10
57.5303
20
-167.331
11
57.3398
21
-167.236
0
LINE
8
BLACK
6
CONTINUOUS
10
57.3398
20
-167.236
11
56.9589
21
-167.236
0
LINE
8
BLACK
6
CONTINUOUS
10
56.9589
20
-167.236
11
56.7684
21
-167.331
0
LINE
8
BLACK
6
CONTINUOUS
10
56.7684
20
-167.331
11
56.6732
21
-167.427
0
LINE
8
BLACK
6
CONTINUOUS
10
56.6732
20
-167.427
11
56.5779
21
-167.617
0
LINE
8
BLACK
6
CONTINUOUS
10
60.1017
20
-168.474
11
60.1017
21
-166.474
0
LINE
8
BLACK
6
CONTINUOUS
10
60.9589
20
-168.474
11
60.9589
21
-167.427
0
LINE
8
BLACK
6
CONTINUOUS
10
60.9589
20
-167.427
11
60.8636
21
-167.236
0
LINE
8
BLACK
6
CONTINUOUS
10
60.8636
20
-167.236
11
60.6732
21
-167.141
0
LINE
8
BLACK
6
CONTINUOUS
10
60.6732
20
-167.141
11
60.3874
21
-167.141
0
LINE
8
BLACK
6
CONTINUOUS
10
60.3874
20
-167.141
11
60.197
21
-167.236
0
LINE
8
BLACK
6
CONTINUOUS
10
60.197
20
-167.236
11
60.1017
21
-167.331
0
LINE
8
BLACK
6
CONTINUOUS
10
62.197
20
-168.474
11
62.0065
21
-168.379
0
LINE
8
BLACK
6
CONTINUOUS
10
62.0065
20
-168.379
11
61.9113
21
-168.284
0
LINE
8
BLACK
6
CONTINUOUS
10
61.9113
20
-168.284
11
61.816
21
-168.093
0
LINE
8
BLACK
6
CONTINUOUS
10
61.816
20
-168.093
11
61.816
21
-167.522
0
LINE
8
BLACK
6
CONTINUOUS
10
61.816
20
-167.522
11
61.9113
21
-167.331
0
LINE
8
BLACK
6
CONTINUOUS
10
61.9113
20
-167.331
11
62.0065
21
-167.236
0
LINE
8
BLACK
6
CONTINUOUS
10
62.0065
20
-167.236
11
62.197
21
-167.141
0
LINE
8
BLACK
6
CONTINUOUS
10
62.197
20
-167.141
11
62.4827
21
-167.141
0
LINE
8
BLACK
6
CONTINUOUS
10
62.4827
20
-167.141
11
62.6732
21
-167.236
0
LINE
8
BLACK
6
CONTINUOUS
10
62.6732
20
-167.236
11
62.7684
21
-167.331
0
LINE
8
BLACK
6
CONTINUOUS
10
62.7684
20
-167.331
11
62.8636
21
-167.522
0
LINE
8
BLACK
6
CONTINUOUS
10
62.8636
20
-167.522
11
62.8636
21
-168.093
0
LINE
8
BLACK
6
CONTINUOUS
10
62.8636
20
-168.093
11
62.7684
21
-168.284
0
LINE
8
BLACK
6
CONTINUOUS
10
62.7684
20
-168.284
11
62.6732
21
-168.379
0
LINE
8
BLACK
6
CONTINUOUS
10
62.6732
20
-168.379
11
62.4827
21
-168.474
0
LINE
8
BLACK
6
CONTINUOUS
10
62.4827
20
-168.474
11
62.197
21
-168.474
0
LINE
8
BLACK
6
CONTINUOUS
10
64.0065
20
-168.474
11
63.816
21
-168.379
0
LINE
8
BLACK
6
CONTINUOUS
10
63.816
20
-168.379
11
63.7208
21
-168.189
0
LINE
8
BLACK
6
CONTINUOUS
10
63.7208
20
-168.189
11
63.7208
21
-166.474
0
LINE
8
BLACK
6
CONTINUOUS
10
65.5303
20
-168.379
11
65.3398
21
-168.474
0
LINE
8
BLACK
6
CONTINUOUS
10
65.3398
20
-168.474
11
64.9589
21
-168.474
0
LINE
8
BLACK
6
CONTINUOUS
10
64.9589
20
-168.474
11
64.7684
21
-168.379
0
LINE
8
BLACK
6
CONTINUOUS
10
64.7684
20
-168.379
11
64.6732
21
-168.189
0
LINE
8
BLACK
6
CONTINUOUS
10
64.6732
20
-168.189
11
64.6732
21
-167.427
0
LINE
8
BLACK
6
CONTINUOUS
10
64.6732
20
-167.427
11
64.7684
21
-167.236
0
LINE
8
BLACK
6
CONTINUOUS
10
64.7684
20
-167.236
11
64.9589
21
-167.141
0
LINE
8
BLACK
6
CONTINUOUS
10
64.9589
20
-167.141
11
65.3398
21
-167.141
0
LINE
8
BLACK
6
CONTINUOUS
10
65.3398
20
-167.141
11
65.5303
21
-167.236
0
LINE
8
BLACK
6
CONTINUOUS
10
65.5303
20
-167.236
11
65.6255
21
-167.427
0
LINE
8
BLACK
6
CONTINUOUS
10
65.6255
20
-167.427
11
65.6255
21
-167.617
0
LINE
8
BLACK
6
CONTINUOUS
10
65.6255
20
-167.617
11
64.6732
21
-167.808
0
LINE
8
BLACK
6
CONTINUOUS
10
66.3874
20
-168.379
11
66.5779
21
-168.474
0
LINE
8
BLACK
6
CONTINUOUS
10
66.5779
20
-168.474
11
66.9589
21
-168.474
0
LINE
8
BLACK
6
CONTINUOUS
10
66.9589
20
-168.474
11
67.1494
21
-168.379
0
LINE
8
BLACK
6
CONTINUOUS
10
67.1494
20
-168.379
11
67.2446
21
-168.189
0
LINE
8
BLACK
6
CONTINUOUS
10
67.2446
20
-168.189
11
67.2446
21
-168.093
0
LINE
8
BLACK
6
CONTINUOUS
10
67.2446
20
-168.093
11
67.1494
21
-167.903
0
LINE
8
BLACK
6
CONTINUOUS
10
67.1494
20
-167.903
11
66.9589
21
-167.808
0
LINE
8
BLACK
6
CONTINUOUS
10
66.9589
20
-167.808
11
66.6732
21
-167.808
0
LINE
8
BLACK
6
CONTINUOUS
10
66.6732
20
-167.808
11
66.4827
21
-167.712
0
LINE
8
BLACK
6
CONTINUOUS
10
66.4827
20
-167.712
11
66.3874
21
-167.522
0
LINE
8
BLACK
6
CONTINUOUS
10
66.3874
20
-167.522
11
66.3874
21
-167.427
0
LINE
8
BLACK
6
CONTINUOUS
10
66.3874
20
-167.427
11
66.4827
21
-167.236
0
LINE
8
BLACK
6
CONTINUOUS
10
66.4827
20
-167.236
11
66.6732
21
-167.141
0
LINE
8
BLACK
6
CONTINUOUS
10
66.6732
20
-167.141
11
66.9589
21
-167.141
0
LINE
8
BLACK
6
CONTINUOUS
10
66.9589
20
-167.141
11
67.1494
21
-167.236
0
LINE
8
BLACK
6
CONTINUOUS
10
67.9113
20
-169.236
11
68.0065
21
-169.141
0
LINE
8
BLACK
6
CONTINUOUS
10
68.0065
20
-169.141
11
68.197
21
-168.855
0
LINE
8
BLACK
6
CONTINUOUS
10
68.197
20
-168.855
11
68.2922
21
-168.665
0
LINE
8
BLACK
6
CONTINUOUS
10
68.2922
20
-168.665
11
68.3874
21
-168.379
0
LINE
8
BLACK
6
CONTINUOUS
10
68.3874
20
-168.379
11
68.4827
21
-167.903
0
LINE
8
BLACK
6
CONTINUOUS
10
68.4827
20
-167.903
11
68.4827
21
-167.522
0
LINE
8
BLACK
6
CONTINUOUS
10
68.4827
20
-167.522
11
68.3874
21
-167.046
0
LINE
8
BLACK
6
CONTINUOUS
10
68.3874
20
-167.046
11
68.2922
21
-166.76
0
LINE
8
BLACK
6
CONTINUOUS
10
68.2922
20
-166.76
11
68.197
21
-166.57
0
LINE
8
BLACK
6
CONTINUOUS
10
68.197
20
-166.57
11
68.0065
21
-166.284
0
LINE
8
BLACK
6
CONTINUOUS
10
68.0065
20
-166.284
11
67.9113
21
-166.189
0
LINE
8
BLACK
6
CONTINUOUS
10
71.5303
20
-169.236
11
71.4351
21
-169.141
0
LINE
8
BLACK
6
CONTINUOUS
10
71.4351
20
-169.141
11
71.2446
21
-168.855
0
LINE
8
BLACK
6
CONTINUOUS
10
71.2446
20
-168.855
11
71.1494
21
-168.665
0
LINE
8
BLACK
6
CONTINUOUS
10
71.1494
20
-168.665
11
71.0541
21
-168.379
0
LINE
8
BLACK
6
CONTINUOUS
10
71.0541
20
-168.379
11
70.9589
21
-167.903
0
LINE
8
BLACK
6
CONTINUOUS
10
70.9589
20
-167.903
11
70.9589
21
-167.522
0
LINE
8
BLACK
6
CONTINUOUS
10
70.9589
20
-167.522
11
71.0541
21
-167.046
0
LINE
8
BLACK
6
CONTINUOUS
10
71.0541
20
-167.046
11
71.1494
21
-166.76
0
LINE
8
BLACK
6
CONTINUOUS
10
71.1494
20
-166.76
11
71.2446
21
-166.57
0
LINE
8
BLACK
6
CONTINUOUS
10
71.2446
20
-166.57
11
71.4351
21
-166.284
0
LINE
8
BLACK
6
CONTINUOUS
10
71.4351
20
-166.284
11
71.5303
21
-166.189
0
LINE
8
BLACK
6
CONTINUOUS
10
72.2922
20
-167.141
11
72.2922
21
-168.474
0
LINE
8
BLACK
6
CONTINUOUS
10
72.2922
20
-167.331
11
72.3874
21
-167.236
0
LINE
8
BLACK
6
CONTINUOUS
10
72.3874
20
-167.236
11
72.5779
21
-167.141
0
LINE
8
BLACK
6
CONTINUOUS
10
72.5779
20
-167.141
11
72.8636
21
-167.141
0
LINE
8
BLACK
6
CONTINUOUS
10
72.8636
20
-167.141
11
73.0541
21
-167.236
0
LINE
8
BLACK
6
CONTINUOUS
10
73.0541
20
-167.236
11
73.1494
21
-167.427
0
LINE
8
BLACK
6
CONTINUOUS
10
73.1494
20
-167.427
11
73.1494
21
-168.474
0
LINE
8
BLACK
6
CONTINUOUS
10
74.3874
20
-168.474
11
74.197
21
-168.379
0
LINE
8
BLACK
6
CONTINUOUS
10
74.197
20
-168.379
11
74.1017
21
-168.284
0
LINE
8
BLACK
6
CONTINUOUS
10
74.1017
20
-168.284
11
74.0065
21
-168.093
0
LINE
8
BLACK
6
CONTINUOUS
10
74.0065
20
-168.093
11
74.0065
21
-167.522
0
LINE
8
BLACK
6
CONTINUOUS
10
74.0065
20
-167.522
11
74.1017
21
-167.331
0
LINE
8
BLACK
6
CONTINUOUS
10
74.1017
20
-167.331
11
74.197
21
-167.236
0
LINE
8
BLACK
6
CONTINUOUS
10
74.197
20
-167.236
11
74.3874
21
-167.141
0
LINE
8
BLACK
6
CONTINUOUS
10
74.3874
20
-167.141
11
74.6732
21
-167.141
0
LINE
8
BLACK
6
CONTINUOUS
10
74.6732
20
-167.141
11
74.8636
21
-167.236
0
LINE
8
BLACK
6
CONTINUOUS
10
74.8636
20
-167.236
11
74.9589
21
-167.331
0
LINE
8
BLACK
6
CONTINUOUS
10
74.9589
20
-167.331
11
75.0541
21
-167.522
0
LINE
8
BLACK
6
CONTINUOUS
10
75.0541
20
-167.522
11
75.0541
21
-168.093
0
LINE
8
BLACK
6
CONTINUOUS
10
75.0541
20
-168.093
11
74.9589
21
-168.284
0
LINE
8
BLACK
6
CONTINUOUS
10
74.9589
20
-168.284
11
74.8636
21
-168.379
0
LINE
8
BLACK
6
CONTINUOUS
10
74.8636
20
-168.379
11
74.6732
21
-168.474
0
LINE
8
BLACK
6
CONTINUOUS
10
74.6732
20
-168.474
11
74.3874
21
-168.474
0
LINE
8
BLACK
6
CONTINUOUS
10
75.6255
20
-167.141
11
76.3874
21
-167.141
0
LINE
8
BLACK
6
CONTINUOUS
10
75.9113
20
-166.474
11
75.9113
21
-168.189
0
LINE
8
BLACK
6
CONTINUOUS
10
75.9113
20
-168.189
11
76.0065
21
-168.379
0
LINE
8
BLACK
6
CONTINUOUS
10
76.0065
20
-168.379
11
76.197
21
-168.474
0
LINE
8
BLACK
6
CONTINUOUS
10
76.197
20
-168.474
11
76.3874
21
-168.474
0
LINE
8
BLACK
6
CONTINUOUS
10
78.5779
20
-167.141
11
78.5779
21
-169.141
0
LINE
8
BLACK
6
CONTINUOUS
10
78.5779
20
-167.236
11
78.7684
21
-167.141
0
LINE
8
BLACK
6
CONTINUOUS
10
78.7684
20
-167.141
11
79.1494
21
-167.141
0
LINE
8
BLACK
6
CONTINUOUS
10
79.1494
20
-167.141
11
79.3398
21
-167.236
0
LINE
8
BLACK
6
CONTINUOUS
10
79.3398
20
-167.236
11
79.4351
21
-167.331
0
LINE
8
BLACK
6
CONTINUOUS
10
79.4351
20
-167.331
11
79.5303
21
-167.522
0
LINE
8
BLACK
6
CONTINUOUS
10
79.5303
20
-167.522
11
79.5303
21
-168.093
0
LINE
8
BLACK
6
CONTINUOUS
10
79.5303
20
-168.093
11
79.4351
21
-168.284
0
LINE
8
BLACK
6
CONTINUOUS
10
79.4351
20
-168.284
11
79.3398
21
-168.379
0
LINE
8
BLACK
6
CONTINUOUS
10
79.3398
20
-168.379
11
79.1494
21
-168.474
0
LINE
8
BLACK
6
CONTINUOUS
10
79.1494
20
-168.474
11
78.7684
21
-168.474
0
LINE
8
BLACK
6
CONTINUOUS
10
78.7684
20
-168.474
11
78.5779
21
-168.379
0
LINE
8
BLACK
6
CONTINUOUS
10
80.6732
20
-168.474
11
80.4827
21
-168.379
0
LINE
8
BLACK
6
CONTINUOUS
10
80.4827
20
-168.379
11
80.3874
21
-168.189
0
LINE
8
BLACK
6
CONTINUOUS
10
80.3874
20
-168.189
11
80.3874
21
-166.474
0
LINE
8
BLACK
6
CONTINUOUS
10
82.2922
20
-168.474
11
82.2922
21
-167.427
0
LINE
8
BLACK
6
CONTINUOUS
10
82.2922
20
-167.427
11
82.197
21
-167.236
0
LINE
8
BLACK
6
CONTINUOUS
10
82.197
20
-167.236
11
82.0065
21
-167.141
0
LINE
8
BLACK
6
CONTINUOUS
10
82.0065
20
-167.141
11
81.6255
21
-167.141
0
LINE
8
BLACK
6
CONTINUOUS
10
81.6255
20
-167.141
11
81.4351
21
-167.236
0
LINE
8
BLACK
6
CONTINUOUS
10
82.2922
20
-168.379
11
82.1017
21
-168.474
0
LINE
8
BLACK
6
CONTINUOUS
10
82.1017
20
-168.474
11
81.6255
21
-168.474
0
LINE
8
BLACK
6
CONTINUOUS
10
81.6255
20
-168.474
11
81.4351
21
-168.379
0
LINE
8
BLACK
6
CONTINUOUS
10
81.4351
20
-168.379
11
81.3398
21
-168.189
0
LINE
8
BLACK
6
CONTINUOUS
10
81.3398
20
-168.189
11
81.3398
21
-167.998
0
LINE
8
BLACK
6
CONTINUOUS
10
81.3398
20
-167.998
11
81.4351
21
-167.808
0
LINE
8
BLACK
6
CONTINUOUS
10
81.4351
20
-167.808
11
81.6255
21
-167.712
0
LINE
8
BLACK
6
CONTINUOUS
10
81.6255
20
-167.712
11
82.1017
21
-167.712
0
LINE
8
BLACK
6
CONTINUOUS
10
82.1017
20
-167.712
11
82.2922
21
-167.617
0
LINE
8
BLACK
6
CONTINUOUS
10
82.9589
20
-167.141
11
83.7208
21
-167.141
0
LINE
8
BLACK
6
CONTINUOUS
10
83.2446
20
-166.474
11
83.2446
21
-168.189
0
LINE
8
BLACK
6
CONTINUOUS
10
83.2446
20
-168.189
11
83.3398
21
-168.379
0
LINE
8
BLACK
6
CONTINUOUS
10
83.3398
20
-168.379
11
83.5303
21
-168.474
0
LINE
8
BLACK
6
CONTINUOUS
10
83.5303
20
-168.474
11
83.7208
21
-168.474
0
LINE
8
BLACK
6
CONTINUOUS
10
85.1494
20
-168.379
11
84.9589
21
-168.474
0
LINE
8
BLACK
6
CONTINUOUS
10
84.9589
20
-168.474
11
84.5779
21
-168.474
0
LINE
8
BLACK
6
CONTINUOUS
10
84.5779
20
-168.474
11
84.3874
21
-168.379
0
LINE
8
BLACK
6
CONTINUOUS
10
84.3874
20
-168.379
11
84.2922
21
-168.189
0
LINE
8
BLACK
6
CONTINUOUS
10
84.2922
20
-168.189
11
84.2922
21
-167.427
0
LINE
8
BLACK
6
CONTINUOUS
10
84.2922
20
-167.427
11
84.3874
21
-167.236
0
LINE
8
BLACK
6
CONTINUOUS
10
84.3874
20
-167.236
11
84.5779
21
-167.141
0
LINE
8
BLACK
6
CONTINUOUS
10
84.5779
20
-167.141
11
84.9589
21
-167.141
0
LINE
8
BLACK
6
CONTINUOUS
10
84.9589
20
-167.141
11
85.1494
21
-167.236
0
LINE
8
BLACK
6
CONTINUOUS
10
85.1494
20
-167.236
11
85.2446
21
-167.427
0
LINE
8
BLACK
6
CONTINUOUS
10
85.2446
20
-167.427
11
85.2446
21
-167.617
0
LINE
8
BLACK
6
CONTINUOUS
10
85.2446
20
-167.617
11
84.2922
21
-167.808
0
LINE
8
BLACK
6
CONTINUOUS
10
86.9589
20
-168.474
11
86.9589
21
-166.474
0
LINE
8
BLACK
6
CONTINUOUS
10
86.9589
20
-168.379
11
86.7684
21
-168.474
0
LINE
8
BLACK
6
CONTINUOUS
10
86.7684
20
-168.474
11
86.3874
21
-168.474
0
LINE
8
BLACK
6
CONTINUOUS
10
86.3874
20
-168.474
11
86.197
21
-168.379
0
LINE
8
BLACK
6
CONTINUOUS
10
86.197
20
-168.379
11
86.1017
21
-168.284
0
LINE
8
BLACK
6
CONTINUOUS
10
86.1017
20
-168.284
11
86.0065
21
-168.093
0
LINE
8
BLACK
6
CONTINUOUS
10
86.0065
20
-168.093
11
86.0065
21
-167.522
0
LINE
8
BLACK
6
CONTINUOUS
10
86.0065
20
-167.522
11
86.1017
21
-167.331
0
LINE
8
BLACK
6
CONTINUOUS
10
86.1017
20
-167.331
11
86.197
21
-167.236
0
LINE
8
BLACK
6
CONTINUOUS
10
86.197
20
-167.236
11
86.3874
21
-167.141
0
LINE
8
BLACK
6
CONTINUOUS
10
86.3874
20
-167.141
11
86.7684
21
-167.141
0
LINE
8
BLACK
6
CONTINUOUS
10
86.7684
20
-167.141
11
86.9589
21
-167.236
0
LINE
8
BLACK
6
CONTINUOUS
10
87.7208
20
-169.236
11
87.816
21
-169.141
0
LINE
8
BLACK
6
CONTINUOUS
10
87.816
20
-169.141
11
88.0065
21
-168.855
0
LINE
8
BLACK
6
CONTINUOUS
10
88.0065
20
-168.855
11
88.1017
21
-168.665
0
LINE
8
BLACK
6
CONTINUOUS
10
88.1017
20
-168.665
11
88.197
21
-168.379
0
LINE
8
BLACK
6
CONTINUOUS
10
88.197
20
-168.379
11
88.2922
21
-167.903
0
LINE
8
BLACK
6
CONTINUOUS
10
88.2922
20
-167.903
11
88.2922
21
-167.522
0
LINE
8
BLACK
6
CONTINUOUS
10
88.2922
20
-167.522
11
88.197
21
-167.046
0
LINE
8
BLACK
6
CONTINUOUS
10
88.197
20
-167.046
11
88.1017
21
-166.76
0
LINE
8
BLACK
6
CONTINUOUS
10
88.1017
20
-166.76
11
88.0065
21
-166.57
0
LINE
8
BLACK
6
CONTINUOUS
10
88.0065
20
-166.57
11
87.816
21
-166.284
0
LINE
8
BLACK
6
CONTINUOUS
10
87.816
20
-166.284
11
87.7208
21
-166.189
0
LINE
8
BLACK
6
CONTINUOUS
10
19.8993
20
-171.477
11
19.8993
21
-170.062
0
LINE
8
BLACK
6
CONTINUOUS
10
19.8993
20
-170.062
11
18.4851
21
-170.062
0
LINE
8
BLACK
6
CONTINUOUS
10
18.4851
20
-170.062
11
18.4851
21
-171.477
0
LINE
8
BLACK
6
CONTINUOUS
10
18.4851
20
-171.477
11
19.8993
21
-171.477
0
LINE
8
BLACK
6
CONTINUOUS
10
22.5779
20
-169.674
11
23.816
21
-169.674
0
LINE
8
BLACK
6
CONTINUOUS
10
23.816
20
-169.674
11
23.1494
21
-170.436
0
LINE
8
BLACK
6
CONTINUOUS
10
23.1494
20
-170.436
11
23.4351
21
-170.436
0
LINE
8
BLACK
6
CONTINUOUS
10
23.4351
20
-170.436
11
23.6255
21
-170.531
0
LINE
8
BLACK
6
CONTINUOUS
10
23.6255
20
-170.531
11
23.7208
21
-170.627
0
LINE
8
BLACK
6
CONTINUOUS
10
23.7208
20
-170.627
11
23.816
21
-170.817
0
LINE
8
BLACK
6
CONTINUOUS
10
23.816
20
-170.817
11
23.816
21
-171.293
0
LINE
8
BLACK
6
CONTINUOUS
10
23.816
20
-171.293
11
23.7208
21
-171.484
0
LINE
8
BLACK
6
CONTINUOUS
10
23.7208
20
-171.484
11
23.6255
21
-171.579
0
LINE
8
BLACK
6
CONTINUOUS
10
23.6255
20
-171.579
11
23.4351
21
-171.674
0
LINE
8
BLACK
6
CONTINUOUS
10
23.4351
20
-171.674
11
22.8636
21
-171.674
0
LINE
8
BLACK
6
CONTINUOUS
10
22.8636
20
-171.674
11
22.6732
21
-171.579
0
LINE
8
BLACK
6
CONTINUOUS
10
22.6732
20
-171.579
11
22.5779
21
-171.484
0
LINE
8
BLACK
6
CONTINUOUS
10
24.6732
20
-171.484
11
24.7684
21
-171.579
0
LINE
8
BLACK
6
CONTINUOUS
10
24.7684
20
-171.579
11
24.6732
21
-171.674
0
LINE
8
BLACK
6
CONTINUOUS
10
24.6732
20
-171.674
11
24.5779
21
-171.579
0
LINE
8
BLACK
6
CONTINUOUS
10
24.5779
20
-171.579
11
24.6732
21
-171.484
0
LINE
8
BLACK
6
CONTINUOUS
10
24.6732
20
-171.484
11
24.6732
21
-171.674
0
LINE
8
BLACK
6
CONTINUOUS
10
25.7208
20
-171.674
11
26.1017
21
-171.674
0
LINE
8
BLACK
6
CONTINUOUS
10
26.1017
20
-171.674
11
26.2922
21
-171.579
0
LINE
8
BLACK
6
CONTINUOUS
10
26.2922
20
-171.579
11
26.3874
21
-171.484
0
LINE
8
BLACK
6
CONTINUOUS
10
26.3874
20
-171.484
11
26.5779
21
-171.198
0
LINE
8
BLACK
6
CONTINUOUS
10
26.5779
20
-171.198
11
26.6732
21
-170.817
0
LINE
8
BLACK
6
CONTINUOUS
10
26.6732
20
-170.817
11
26.6732
21
-170.055
0
LINE
8
BLACK
6
CONTINUOUS
10
26.6732
20
-170.055
11
26.5779
21
-169.865
0
LINE
8
BLACK
6
CONTINUOUS
10
26.5779
20
-169.865
11
26.4827
21
-169.77
0
LINE
8
BLACK
6
CONTINUOUS
10
26.4827
20
-169.77
11
26.2922
21
-169.674
0
LINE
8
BLACK
6
CONTINUOUS
10
26.2922
20
-169.674
11
25.9113
21
-169.674
0
LINE
8
BLACK
6
CONTINUOUS
10
25.9113
20
-169.674
11
25.7208
21
-169.77
0
LINE
8
BLACK
6
CONTINUOUS
10
25.7208
20
-169.77
11
25.6255
21
-169.865
0
LINE
8
BLACK
6
CONTINUOUS
10
25.6255
20
-169.865
11
25.5303
21
-170.055
0
LINE
8
BLACK
6
CONTINUOUS
10
25.5303
20
-170.055
11
25.5303
21
-170.531
0
LINE
8
BLACK
6
CONTINUOUS
10
25.5303
20
-170.531
11
25.6255
21
-170.722
0
LINE
8
BLACK
6
CONTINUOUS
10
25.6255
20
-170.722
11
25.7208
21
-170.817
0
LINE
8
BLACK
6
CONTINUOUS
10
25.7208
20
-170.817
11
25.9113
21
-170.912
0
LINE
8
BLACK
6
CONTINUOUS
10
25.9113
20
-170.912
11
26.2922
21
-170.912
0
LINE
8
BLACK
6
CONTINUOUS
10
26.2922
20
-170.912
11
26.4827
21
-170.817
0
LINE
8
BLACK
6
CONTINUOUS
10
26.4827
20
-170.817
11
26.5779
21
-170.722
0
LINE
8
BLACK
6
CONTINUOUS
10
26.5779
20
-170.722
11
26.6732
21
-170.531
0
LINE
8
BLACK
6
CONTINUOUS
10
27.816
20
-170.531
11
27.6255
21
-170.436
0
LINE
8
BLACK
6
CONTINUOUS
10
27.6255
20
-170.436
11
27.5303
21
-170.341
0
LINE
8
BLACK
6
CONTINUOUS
10
27.5303
20
-170.341
11
27.4351
21
-170.151
0
LINE
8
BLACK
6
CONTINUOUS
10
27.4351
20
-170.151
11
27.4351
21
-170.055
0
LINE
8
BLACK
6
CONTINUOUS
10
27.4351
20
-170.055
11
27.5303
21
-169.865
0
LINE
8
BLACK
6
CONTINUOUS
10
27.5303
20
-169.865
11
27.6255
21
-169.77
0
LINE
8
BLACK
6
CONTINUOUS
10
27.6255
20
-169.77
11
27.816
21
-169.674
0
LINE
8
BLACK
6
CONTINUOUS
10
27.816
20
-169.674
11
28.197
21
-169.674
0
LINE
8
BLACK
6
CONTINUOUS
10
28.197
20
-169.674
11
28.3874
21
-169.77
0
LINE
8
BLACK
6
CONTINUOUS
10
28.3874
20
-169.77
11
28.4827
21
-169.865
0
LINE
8
BLACK
6
CONTINUOUS
10
28.4827
20
-169.865
11
28.5779
21
-170.055
0
LINE
8
BLACK
6
CONTINUOUS
10
28.5779
20
-170.055
11
28.5779
21
-170.151
0
LINE
8
BLACK
6
CONTINUOUS
10
28.5779
20
-170.151
11
28.4827
21
-170.341
0
LINE
8
BLACK
6
CONTINUOUS
10
28.4827
20
-170.341
11
28.3874
21
-170.436
0
LINE
8
BLACK
6
CONTINUOUS
10
28.3874
20
-170.436
11
28.197
21
-170.531
0
LINE
8
BLACK
6
CONTINUOUS
10
28.197
20
-170.531
11
27.816
21
-170.531
0
LINE
8
BLACK
6
CONTINUOUS
10
27.816
20
-170.531
11
27.6255
21
-170.627
0
LINE
8
BLACK
6
CONTINUOUS
10
27.6255
20
-170.627
11
27.5303
21
-170.722
0
LINE
8
BLACK
6
CONTINUOUS
10
27.5303
20
-170.722
11
27.4351
21
-170.912
0
LINE
8
BLACK
6
CONTINUOUS
10
27.4351
20
-170.912
11
27.4351
21
-171.293
0
LINE
8
BLACK
6
CONTINUOUS
10
27.4351
20
-171.293
11
27.5303
21
-171.484
0
LINE
8
BLACK
6
CONTINUOUS
10
27.5303
20
-171.484
11
27.6255
21
-171.579
0
LINE
8
BLACK
6
CONTINUOUS
10
27.6255
20
-171.579
11
27.816
21
-171.674
0
LINE
8
BLACK
6
CONTINUOUS
10
27.816
20
-171.674
11
28.197
21
-171.674
0
LINE
8
BLACK
6
CONTINUOUS
10
28.197
20
-171.674
11
28.3874
21
-171.579
0
LINE
8
BLACK
6
CONTINUOUS
10
28.3874
20
-171.579
11
28.4827
21
-171.484
0
LINE
8
BLACK
6
CONTINUOUS
10
28.4827
20
-171.484
11
28.5779
21
-171.293
0
LINE
8
BLACK
6
CONTINUOUS
10
28.5779
20
-171.293
11
28.5779
21
-170.912
0
LINE
8
BLACK
6
CONTINUOUS
10
28.5779
20
-170.912
11
28.4827
21
-170.722
0
LINE
8
BLACK
6
CONTINUOUS
10
28.4827
20
-170.722
11
28.3874
21
-170.627
0
LINE
8
BLACK
6
CONTINUOUS
10
28.3874
20
-170.627
11
28.197
21
-170.531
0
LINE
8
BLACK
6
CONTINUOUS
10
29.7208
20
-170.531
11
29.5303
21
-170.436
0
LINE
8
BLACK
6
CONTINUOUS
10
29.5303
20
-170.436
11
29.4351
21
-170.341
0
LINE
8
BLACK
6
CONTINUOUS
10
29.4351
20
-170.341
11
29.3398
21
-170.151
0
LINE
8
BLACK
6
CONTINUOUS
10
29.3398
20
-170.151
11
29.3398
21
-170.055
0
LINE
8
BLACK
6
CONTINUOUS
10
29.3398
20
-170.055
11
29.4351
21
-169.865
0
LINE
8
BLACK
6
CONTINUOUS
10
29.4351
20
-169.865
11
29.5303
21
-169.77
0
LINE
8
BLACK
6
CONTINUOUS
10
29.5303
20
-169.77
11
29.7208
21
-169.674
0
LINE
8
BLACK
6
CONTINUOUS
10
29.7208
20
-169.674
11
30.1017
21
-169.674
0
LINE
8
BLACK
6
CONTINUOUS
10
30.1017
20
-169.674
11
30.2922
21
-169.77
0
LINE
8
BLACK
6
CONTINUOUS
10
30.2922
20
-169.77
11
30.3874
21
-169.865
0
LINE
8
BLACK
6
CONTINUOUS
10
30.3874
20
-169.865
11
30.4827
21
-170.055
0
LINE
8
BLACK
6
CONTINUOUS
10
30.4827
20
-170.055
11
30.4827
21
-170.151
0
LINE
8
BLACK
6
CONTINUOUS
10
30.4827
20
-170.151
11
30.3874
21
-170.341
0
LINE
8
BLACK
6
CONTINUOUS
10
30.3874
20
-170.341
11
30.2922
21
-170.436
0
LINE
8
BLACK
6
CONTINUOUS
10
30.2922
20
-170.436
11
30.1017
21
-170.531
0
LINE
8
BLACK
6
CONTINUOUS
10
30.1017
20
-170.531
11
29.7208
21
-170.531
0
LINE
8
BLACK
6
CONTINUOUS
10
29.7208
20
-170.531
11
29.5303
21
-170.627
0
LINE
8
BLACK
6
CONTINUOUS
10
29.5303
20
-170.627
11
29.4351
21
-170.722
0
LINE
8
BLACK
6
CONTINUOUS
10
29.4351
20
-170.722
11
29.3398
21
-170.912
0
LINE
8
BLACK
6
CONTINUOUS
10
29.3398
20
-170.912
11
29.3398
21
-171.293
0
LINE
8
BLACK
6
CONTINUOUS
10
29.3398
20
-171.293
11
29.4351
21
-171.484
0
LINE
8
BLACK
6
CONTINUOUS
10
29.4351
20
-171.484
11
29.5303
21
-171.579
0
LINE
8
BLACK
6
CONTINUOUS
10
29.5303
20
-171.579
11
29.7208
21
-171.674
0
LINE
8
BLACK
6
CONTINUOUS
10
29.7208
20
-171.674
11
30.1017
21
-171.674
0
LINE
8
BLACK
6
CONTINUOUS
10
30.1017
20
-171.674
11
30.2922
21
-171.579
0
LINE
8
BLACK
6
CONTINUOUS
10
30.2922
20
-171.579
11
30.3874
21
-171.484
0
LINE
8
BLACK
6
CONTINUOUS
10
30.3874
20
-171.484
11
30.4827
21
-171.293
0
LINE
8
BLACK
6
CONTINUOUS
10
30.4827
20
-171.293
11
30.4827
21
-170.912
0
LINE
8
BLACK
6
CONTINUOUS
10
30.4827
20
-170.912
11
30.3874
21
-170.722
0
LINE
8
BLACK
6
CONTINUOUS
10
30.3874
20
-170.722
11
30.2922
21
-170.627
0
LINE
8
BLACK
6
CONTINUOUS
10
30.2922
20
-170.627
11
30.1017
21
-170.531
0
LINE
8
BLACK
6
CONTINUOUS
10
31.3398
20
-171.674
11
31.3398
21
-170.341
0
LINE
8
BLACK
6
CONTINUOUS
10
31.3398
20
-170.531
11
31.4351
21
-170.436
0
LINE
8
BLACK
6
CONTINUOUS
10
31.4351
20
-170.436
11
31.6255
21
-170.341
0
LINE
8
BLACK
6
CONTINUOUS
10
31.6255
20
-170.341
11
31.9113
21
-170.341
0
LINE
8
BLACK
6
CONTINUOUS
10
31.9113
20
-170.341
11
32.1017
21
-170.436
0
LINE
8
BLACK
6
CONTINUOUS
10
32.1017
20
-170.436
11
32.197
21
-170.627
0
LINE
8
BLACK
6
CONTINUOUS
10
32.197
20
-170.627
11
32.197
21
-171.674
0
LINE
8
BLACK
6
CONTINUOUS
10
32.197
20
-170.627
11
32.2922
21
-170.436
0
LINE
8
BLACK
6
CONTINUOUS
10
32.2922
20
-170.436
11
32.4827
21
-170.341
0
LINE
8
BLACK
6
CONTINUOUS
10
32.4827
20
-170.341
11
32.7684
21
-170.341
0
LINE
8
BLACK
6
CONTINUOUS
10
32.7684
20
-170.341
11
32.9589
21
-170.436
0
LINE
8
BLACK
6
CONTINUOUS
10
32.9589
20
-170.436
11
33.0541
21
-170.627
0
LINE
8
BLACK
6
CONTINUOUS
10
33.0541
20
-170.627
11
33.0541
21
-171.674
0
LINE
8
BLACK
6
CONTINUOUS
10
34.0065
20
-171.674
11
34.0065
21
-170.341
0
LINE
8
BLACK
6
CONTINUOUS
10
34.0065
20
-170.531
11
34.1017
21
-170.436
0
LINE
8
BLACK
6
CONTINUOUS
10
34.1017
20
-170.436
11
34.2922
21
-170.341
0
LINE
8
BLACK
6
CONTINUOUS
10
34.2922
20
-170.341
11
34.5779
21
-170.341
0
LINE
8
BLACK
6
CONTINUOUS
10
34.5779
20
-170.341
11
34.7684
21
-170.436
0
LINE
8
BLACK
6
CONTINUOUS
10
34.7684
20
-170.436
11
34.8636
21
-170.627
0
LINE
8
BLACK
6
CONTINUOUS
10
34.8636
20
-170.627
11
34.8636
21
-171.674
0
LINE
8
BLACK
6
CONTINUOUS
10
34.8636
20
-170.627
11
34.9589
21
-170.436
0
LINE
8
BLACK
6
CONTINUOUS
10
34.9589
20
-170.436
11
35.1494
21
-170.341
0
LINE
8
BLACK
6
CONTINUOUS
10
35.1494
20
-170.341
11
35.4351
21
-170.341
0
LINE
8
BLACK
6
CONTINUOUS
10
35.4351
20
-170.341
11
35.6255
21
-170.436
0
LINE
8
BLACK
6
CONTINUOUS
10
35.6255
20
-170.436
11
35.7208
21
-170.627
0
LINE
8
BLACK
6
CONTINUOUS
10
35.7208
20
-170.627
11
35.7208
21
-171.674
0
LINE
8
BLACK
6
CONTINUOUS
10
39.6255
20
-169.579
11
37.9113
21
-172.151
0
LINE
8
BLACK
6
CONTINUOUS
10
42.197
20
-169.674
11
42.3874
21
-169.674
0
LINE
8
BLACK
6
CONTINUOUS
10
42.3874
20
-169.674
11
42.5779
21
-169.77
0
LINE
8
BLACK
6
CONTINUOUS
10
42.5779
20
-169.77
11
42.6732
21
-169.865
0
LINE
8
BLACK
6
CONTINUOUS
10
42.6732
20
-169.865
11
42.7684
21
-170.055
0
LINE
8
BLACK
6
CONTINUOUS
10
42.7684
20
-170.055
11
42.8636
21
-170.436
0
LINE
8
BLACK
6
CONTINUOUS
10
42.8636
20
-170.436
11
42.8636
21
-170.912
0
LINE
8
BLACK
6
CONTINUOUS
10
42.8636
20
-170.912
11
42.7684
21
-171.293
0
LINE
8
BLACK
6
CONTINUOUS
10
42.7684
20
-171.293
11
42.6732
21
-171.484
0
LINE
8
BLACK
6
CONTINUOUS
10
42.6732
20
-171.484
11
42.5779
21
-171.579
0
LINE
8
BLACK
6
CONTINUOUS
10
42.5779
20
-171.579
11
42.3874
21
-171.674
0
LINE
8
BLACK
6
CONTINUOUS
10
42.3874
20
-171.674
11
42.197
21
-171.674
0
LINE
8
BLACK
6
CONTINUOUS
10
42.197
20
-171.674
11
42.0065
21
-171.579
0
LINE
8
BLACK
6
CONTINUOUS
10
42.0065
20
-171.579
11
41.9113
21
-171.484
0
LINE
8
BLACK
6
CONTINUOUS
10
41.9113
20
-171.484
11
41.816
21
-171.293
0
LINE
8
BLACK
6
CONTINUOUS
10
41.816
20
-171.293
11
41.7208
21
-170.912
0
LINE
8
BLACK
6
CONTINUOUS
10
41.7208
20
-170.912
11
41.7208
21
-170.436
0
LINE
8
BLACK
6
CONTINUOUS
10
41.7208
20
-170.436
11
41.816
21
-170.055
0
LINE
8
BLACK
6
CONTINUOUS
10
41.816
20
-170.055
11
41.9113
21
-169.865
0
LINE
8
BLACK
6
CONTINUOUS
10
41.9113
20
-169.865
11
42.0065
21
-169.77
0
LINE
8
BLACK
6
CONTINUOUS
10
42.0065
20
-169.77
11
42.197
21
-169.674
0
LINE
8
BLACK
6
CONTINUOUS
10
43.7208
20
-171.484
11
43.816
21
-171.579
0
LINE
8
BLACK
6
CONTINUOUS
10
43.816
20
-171.579
11
43.7208
21
-171.674
0
LINE
8
BLACK
6
CONTINUOUS
10
43.7208
20
-171.674
11
43.6255
21
-171.579
0
LINE
8
BLACK
6
CONTINUOUS
10
43.6255
20
-171.579
11
43.7208
21
-171.484
0
LINE
8
BLACK
6
CONTINUOUS
10
43.7208
20
-171.484
11
43.7208
21
-171.674
0
LINE
8
BLACK
6
CONTINUOUS
10
45.7208
20
-171.674
11
44.5779
21
-171.674
0
LINE
8
BLACK
6
CONTINUOUS
10
45.1494
20
-171.674
11
45.1494
21
-169.674
0
LINE
8
BLACK
6
CONTINUOUS
10
45.1494
20
-169.674
11
44.9589
21
-169.96
0
LINE
8
BLACK
6
CONTINUOUS
10
44.9589
20
-169.96
11
44.7684
21
-170.151
0
LINE
8
BLACK
6
CONTINUOUS
10
44.7684
20
-170.151
11
44.5779
21
-170.246
0
LINE
8
BLACK
6
CONTINUOUS
10
47.5303
20
-169.674
11
46.5779
21
-169.674
0
LINE
8
BLACK
6
CONTINUOUS
10
46.5779
20
-169.674
11
46.4827
21
-170.627
0
LINE
8
BLACK
6
CONTINUOUS
10
46.4827
20
-170.627
11
46.5779
21
-170.531
0
LINE
8
BLACK
6
CONTINUOUS
10
46.5779
20
-170.531
11
46.7684
21
-170.436
0
LINE
8
BLACK
6
CONTINUOUS
10
46.7684
20
-170.436
11
47.2446
21
-170.436
0
LINE
8
BLACK
6
CONTINUOUS
10
47.2446
20
-170.436
11
47.4351
21
-170.531
0
LINE
8
BLACK
6
CONTINUOUS
10
47.4351
20
-170.531
11
47.5303
21
-170.627
0
LINE
8
BLACK
6
CONTINUOUS
10
47.5303
20
-170.627
11
47.6255
21
-170.817
0
LINE
8
BLACK
6
CONTINUOUS
10
47.6255
20
-170.817
11
47.6255
21
-171.293
0
LINE
8
BLACK
6
CONTINUOUS
10
47.6255
20
-171.293
11
47.5303
21
-171.484
0
LINE
8
BLACK
6
CONTINUOUS
10
47.5303
20
-171.484
11
47.4351
21
-171.579
0
LINE
8
BLACK
6
CONTINUOUS
10
47.4351
20
-171.579
11
47.2446
21
-171.674
0
LINE
8
BLACK
6
CONTINUOUS
10
47.2446
20
-171.674
11
46.7684
21
-171.674
0
LINE
8
BLACK
6
CONTINUOUS
10
46.7684
20
-171.674
11
46.5779
21
-171.579
0
LINE
8
BLACK
6
CONTINUOUS
10
46.5779
20
-171.579
11
46.4827
21
-171.484
0
LINE
8
BLACK
6
CONTINUOUS
10
48.2922
20
-169.674
11
49.6255
21
-169.674
0
LINE
8
BLACK
6
CONTINUOUS
10
49.6255
20
-169.674
11
48.7684
21
-171.674
0
LINE
8
BLACK
6
CONTINUOUS
10
50.7684
20
-169.674
11
50.9589
21
-169.674
0
LINE
8
BLACK
6
CONTINUOUS
10
50.9589
20
-169.674
11
51.1494
21
-169.77
0
LINE
8
BLACK
6
CONTINUOUS
10
51.1494
20
-169.77
11
51.2446
21
-169.865
0
LINE
8
BLACK
6
CONTINUOUS
10
51.2446
20
-169.865
11
51.3398
21
-170.055
0
LINE
8
BLACK
6
CONTINUOUS
10
51.3398
20
-170.055
11
51.4351
21
-170.436
0
LINE
8
BLACK
6
CONTINUOUS
10
51.4351
20
-170.436
11
51.4351
21
-170.912
0
LINE
8
BLACK
6
CONTINUOUS
10
51.4351
20
-170.912
11
51.3398
21
-171.293
0
LINE
8
BLACK
6
CONTINUOUS
10
51.3398
20
-171.293
11
51.2446
21
-171.484
0
LINE
8
BLACK
6
CONTINUOUS
10
51.2446
20
-171.484
11
51.1494
21
-171.579
0
LINE
8
BLACK
6
CONTINUOUS
10
51.1494
20
-171.579
11
50.9589
21
-171.674
0
LINE
8
BLACK
6
CONTINUOUS
10
50.9589
20
-171.674
11
50.7684
21
-171.674
0
LINE
8
BLACK
6
CONTINUOUS
10
50.7684
20
-171.674
11
50.5779
21
-171.579
0
LINE
8
BLACK
6
CONTINUOUS
10
50.5779
20
-171.579
11
50.4827
21
-171.484
0
LINE
8
BLACK
6
CONTINUOUS
10
50.4827
20
-171.484
11
50.3874
21
-171.293
0
LINE
8
BLACK
6
CONTINUOUS
10
50.3874
20
-171.293
11
50.2922
21
-170.912
0
LINE
8
BLACK
6
CONTINUOUS
10
50.2922
20
-170.912
11
50.2922
21
-170.436
0
LINE
8
BLACK
6
CONTINUOUS
10
50.2922
20
-170.436
11
50.3874
21
-170.055
0
LINE
8
BLACK
6
CONTINUOUS
10
50.3874
20
-170.055
11
50.4827
21
-169.865
0
LINE
8
BLACK
6
CONTINUOUS
10
50.4827
20
-169.865
11
50.5779
21
-169.77
0
LINE
8
BLACK
6
CONTINUOUS
10
50.5779
20
-169.77
11
50.7684
21
-169.674
0
LINE
8
BLACK
6
CONTINUOUS
10
52.197
20
-169.674
11
52.197
21
-170.055
0
LINE
8
BLACK
6
CONTINUOUS
10
52.9589
20
-169.674
11
52.9589
21
-170.055
0
LINE
8
BLACK
6
CONTINUOUS
10
55.9113
20
-172.436
11
55.816
21
-172.341
0
LINE
8
BLACK
6
CONTINUOUS
10
55.816
20
-172.341
11
55.6255
21
-172.055
0
LINE
8
BLACK
6
CONTINUOUS
10
55.6255
20
-172.055
11
55.5303
21
-171.865
0
LINE
8
BLACK
6
CONTINUOUS
10
55.5303
20
-171.865
11
55.4351
21
-171.579
0
LINE
8
BLACK
6
CONTINUOUS
10
55.4351
20
-171.579
11
55.3398
21
-171.103
0
LINE
8
BLACK
6
CONTINUOUS
10
55.3398
20
-171.103
11
55.3398
21
-170.722
0
LINE
8
BLACK
6
CONTINUOUS
10
55.3398
20
-170.722
11
55.4351
21
-170.246
0
LINE
8
BLACK
6
CONTINUOUS
10
55.4351
20
-170.246
11
55.5303
21
-169.96
0
LINE
8
BLACK
6
CONTINUOUS
10
55.5303
20
-169.96
11
55.6255
21
-169.77
0
LINE
8
BLACK
6
CONTINUOUS
10
55.6255
20
-169.77
11
55.816
21
-169.484
0
LINE
8
BLACK
6
CONTINUOUS
10
55.816
20
-169.484
11
55.9113
21
-169.389
0
LINE
8
BLACK
6
CONTINUOUS
10
56.5779
20
-169.865
11
56.6732
21
-169.77
0
LINE
8
BLACK
6
CONTINUOUS
10
56.6732
20
-169.77
11
56.8636
21
-169.674
0
LINE
8
BLACK
6
CONTINUOUS
10
56.8636
20
-169.674
11
57.3398
21
-169.674
0
LINE
8
BLACK
6
CONTINUOUS
10
57.3398
20
-169.674
11
57.5303
21
-169.77
0
LINE
8
BLACK
6
CONTINUOUS
10
57.5303
20
-169.77
11
57.6255
21
-169.865
0
LINE
8
BLACK
6
CONTINUOUS
10
57.6255
20
-169.865
11
57.7208
21
-170.055
0
LINE
8
BLACK
6
CONTINUOUS
10
57.7208
20
-170.055
11
57.7208
21
-170.246
0
LINE
8
BLACK
6
CONTINUOUS
10
57.7208
20
-170.246
11
57.6255
21
-170.531
0
LINE
8
BLACK
6
CONTINUOUS
10
57.6255
20
-170.531
11
56.4827
21
-171.674
0
LINE
8
BLACK
6
CONTINUOUS
10
56.4827
20
-171.674
11
57.7208
21
-171.674
0
LINE
8
BLACK
6
CONTINUOUS
10
58.4827
20
-169.865
11
58.5779
21
-169.77
0
LINE
8
BLACK
6
CONTINUOUS
10
58.5779
20
-169.77
11
58.7684
21
-169.674
0
LINE
8
BLACK
6
CONTINUOUS
10
58.7684
20
-169.674
11
59.2446
21
-169.674
0
LINE
8
BLACK
6
CONTINUOUS
10
59.2446
20
-169.674
11
59.4351
21
-169.77
0
LINE
8
BLACK
6
CONTINUOUS
10
59.4351
20
-169.77
11
59.5303
21
-169.865
0
LINE
8
BLACK
6
CONTINUOUS
10
59.5303
20
-169.865
11
59.6255
21
-170.055
0
LINE
8
BLACK
6
CONTINUOUS
10
59.6255
20
-170.055
11
59.6255
21
-170.246
0
LINE
8
BLACK
6
CONTINUOUS
10
59.6255
20
-170.246
11
59.5303
21
-170.531
0
LINE
8
BLACK
6
CONTINUOUS
10
59.5303
20
-170.531
11
58.3874
21
-171.674
0
LINE
8
BLACK
6
CONTINUOUS
10
58.3874
20
-171.674
11
59.6255
21
-171.674
0
LINE
8
BLACK
6
CONTINUOUS
10
62.0065
20
-171.674
11
62.0065
21
-169.674
0
LINE
8
BLACK
6
CONTINUOUS
10
62.8636
20
-171.674
11
62.8636
21
-170.627
0
LINE
8
BLACK
6
CONTINUOUS
10
62.8636
20
-170.627
11
62.7684
21
-170.436
0
LINE
8
BLACK
6
CONTINUOUS
10
62.7684
20
-170.436
11
62.5779
21
-170.341
0
LINE
8
BLACK
6
CONTINUOUS
10
62.5779
20
-170.341
11
62.2922
21
-170.341
0
LINE
8
BLACK
6
CONTINUOUS
10
62.2922
20
-170.341
11
62.1017
21
-170.436
0
LINE
8
BLACK
6
CONTINUOUS
10
62.1017
20
-170.436
11
62.0065
21
-170.531
0
LINE
8
BLACK
6
CONTINUOUS
10
64.1017
20
-171.674
11
63.9113
21
-171.579
0
LINE
8
BLACK
6
CONTINUOUS
10
63.9113
20
-171.579
11
63.816
21
-171.484
0
LINE
8
BLACK
6
CONTINUOUS
10
63.816
20
-171.484
11
63.7208
21
-171.293
0
LINE
8
BLACK
6
CONTINUOUS
10
63.7208
20
-171.293
11
63.7208
21
-170.722
0
LINE
8
BLACK
6
CONTINUOUS
10
63.7208
20
-170.722
11
63.816
21
-170.531
0
LINE
8
BLACK
6
CONTINUOUS
10
63.816
20
-170.531
11
63.9113
21
-170.436
0
LINE
8
BLACK
6
CONTINUOUS
10
63.9113
20
-170.436
11
64.1017
21
-170.341
0
LINE
8
BLACK
6
CONTINUOUS
10
64.1017
20
-170.341
11
64.3874
21
-170.341
0
LINE
8
BLACK
6
CONTINUOUS
10
64.3874
20
-170.341
11
64.5779
21
-170.436
0
LINE
8
BLACK
6
CONTINUOUS
10
64.5779
20
-170.436
11
64.6732
21
-170.531
0
LINE
8
BLACK
6
CONTINUOUS
10
64.6732
20
-170.531
11
64.7684
21
-170.722
0
LINE
8
BLACK
6
CONTINUOUS
10
64.7684
20
-170.722
11
64.7684
21
-171.293
0
LINE
8
BLACK
6
CONTINUOUS
10
64.7684
20
-171.293
11
64.6732
21
-171.484
0
LINE
8
BLACK
6
CONTINUOUS
10
64.6732
20
-171.484
11
64.5779
21
-171.579
0
LINE
8
BLACK
6
CONTINUOUS
10
64.5779
20
-171.579
11
64.3874
21
-171.674
0
LINE
8
BLACK
6
CONTINUOUS
10
64.3874
20
-171.674
11
64.1017
21
-171.674
0
LINE
8
BLACK
6
CONTINUOUS
10
65.9113
20
-171.674
11
65.7208
21
-171.579
0
LINE
8
BLACK
6
CONTINUOUS
10
65.7208
20
-171.579
11
65.6255
21
-171.389
0
LINE
8
BLACK
6
CONTINUOUS
10
65.6255
20
-171.389
11
65.6255
21
-169.674
0
LINE
8
BLACK
6
CONTINUOUS
10
67.4351
20
-171.579
11
67.2446
21
-171.674
0
LINE
8
BLACK
6
CONTINUOUS
10
67.2446
20
-171.674
11
66.8636
21
-171.674
0
LINE
8
BLACK
6
CONTINUOUS
10
66.8636
20
-171.674
11
66.6732
21
-171.579
0
LINE
8
BLACK
6
CONTINUOUS
10
66.6732
20
-171.579
11
66.5779
21
-171.389
0
LINE
8
BLACK
6
CONTINUOUS
10
66.5779
20
-171.389
11
66.5779
21
-170.627
0
LINE
8
BLACK
6
CONTINUOUS
10
66.5779
20
-170.627
11
66.6732
21
-170.436
0
LINE
8
BLACK
6
CONTINUOUS
10
66.6732
20
-170.436
11
66.8636
21
-170.341
0
LINE
8
BLACK
6
CONTINUOUS
10
66.8636
20
-170.341
11
67.2446
21
-170.341
0
LINE
8
BLACK
6
CONTINUOUS
10
67.2446
20
-170.341
11
67.4351
21
-170.436
0
LINE
8
BLACK
6
CONTINUOUS
10
67.4351
20
-170.436
11
67.5303
21
-170.627
0
LINE
8
BLACK
6
CONTINUOUS
10
67.5303
20
-170.627
11
67.5303
21
-170.817
0
LINE
8
BLACK
6
CONTINUOUS
10
67.5303
20
-170.817
11
66.5779
21
-171.008
0
LINE
8
BLACK
6
CONTINUOUS
10
68.2922
20
-171.579
11
68.4827
21
-171.674
0
LINE
8
BLACK
6
CONTINUOUS
10
68.4827
20
-171.674
11
68.8636
21
-171.674
0
LINE
8
BLACK
6
CONTINUOUS
10
68.8636
20
-171.674
11
69.0541
21
-171.579
0
LINE
8
BLACK
6
CONTINUOUS
10
69.0541
20
-171.579
11
69.1494
21
-171.389
0
LINE
8
BLACK
6
CONTINUOUS
10
69.1494
20
-171.389
11
69.1494
21
-171.293
0
LINE
8
BLACK
6
CONTINUOUS
10
69.1494
20
-171.293
11
69.0541
21
-171.103
0
LINE
8
BLACK
6
CONTINUOUS
10
69.0541
20
-171.103
11
68.8636
21
-171.008
0
LINE
8
BLACK
6
CONTINUOUS
10
68.8636
20
-171.008
11
68.5779
21
-171.008
0
LINE
8
BLACK
6
CONTINUOUS
10
68.5779
20
-171.008
11
68.3874
21
-170.912
0
LINE
8
BLACK
6
CONTINUOUS
10
68.3874
20
-170.912
11
68.2922
21
-170.722
0
LINE
8
BLACK
6
CONTINUOUS
10
68.2922
20
-170.722
11
68.2922
21
-170.627
0
LINE
8
BLACK
6
CONTINUOUS
10
68.2922
20
-170.627
11
68.3874
21
-170.436
0
LINE
8
BLACK
6
CONTINUOUS
10
68.3874
20
-170.436
11
68.5779
21
-170.341
0
LINE
8
BLACK
6
CONTINUOUS
10
68.5779
20
-170.341
11
68.8636
21
-170.341
0
LINE
8
BLACK
6
CONTINUOUS
10
68.8636
20
-170.341
11
69.0541
21
-170.436
0
LINE
8
BLACK
6
CONTINUOUS
10
69.816
20
-172.436
11
69.9113
21
-172.341
0
LINE
8
BLACK
6
CONTINUOUS
10
69.9113
20
-172.341
11
70.1017
21
-172.055
0
LINE
8
BLACK
6
CONTINUOUS
10
70.1017
20
-172.055
11
70.197
21
-171.865
0
LINE
8
BLACK
6
CONTINUOUS
10
70.197
20
-171.865
11
70.2922
21
-171.579
0
LINE
8
BLACK
6
CONTINUOUS
10
70.2922
20
-171.579
11
70.3874
21
-171.103
0
LINE
8
BLACK
6
CONTINUOUS
10
70.3874
20
-171.103
11
70.3874
21
-170.722
0
LINE
8
BLACK
6
CONTINUOUS
10
70.3874
20
-170.722
11
70.2922
21
-170.246
0
LINE
8
BLACK
6
CONTINUOUS
10
70.2922
20
-170.246
11
70.197
21
-169.96
0
LINE
8
BLACK
6
CONTINUOUS
10
70.197
20
-169.96
11
70.1017
21
-169.77
0
LINE
8
BLACK
6
CONTINUOUS
10
70.1017
20
-169.77
11
69.9113
21
-169.484
0
LINE
8
BLACK
6
CONTINUOUS
10
69.9113
20
-169.484
11
69.816
21
-169.389
0
LINE
8
BLACK
6
CONTINUOUS
10
73.4351
20
-172.436
11
73.3398
21
-172.341
0
LINE
8
BLACK
6
CONTINUOUS
10
73.3398
20
-172.341
11
73.1494
21
-172.055
0
LINE
8
BLACK
6
CONTINUOUS
10
73.1494
20
-172.055
11
73.0541
21
-171.865
0
LINE
8
BLACK
6
CONTINUOUS
10
73.0541
20
-171.865
11
72.9589
21
-171.579
0
LINE
8
BLACK
6
CONTINUOUS
10
72.9589
20
-171.579
11
72.8636
21
-171.103
0
LINE
8
BLACK
6
CONTINUOUS
10
72.8636
20
-171.103
11
72.8636
21
-170.722
0
LINE
8
BLACK
6
CONTINUOUS
10
72.8636
20
-170.722
11
72.9589
21
-170.246
0
LINE
8
BLACK
6
CONTINUOUS
10
72.9589
20
-170.246
11
73.0541
21
-169.96
0
LINE
8
BLACK
6
CONTINUOUS
10
73.0541
20
-169.96
11
73.1494
21
-169.77
0
LINE
8
BLACK
6
CONTINUOUS
10
73.1494
20
-169.77
11
73.3398
21
-169.484
0
LINE
8
BLACK
6
CONTINUOUS
10
73.3398
20
-169.484
11
73.4351
21
-169.389
0
LINE
8
BLACK
6
CONTINUOUS
10
74.197
20
-170.341
11
74.197
21
-171.674
0
LINE
8
BLACK
6
CONTINUOUS
10
74.197
20
-170.531
11
74.2922
21
-170.436
0
LINE
8
BLACK
6
CONTINUOUS
10
74.2922
20
-170.436
11
74.4827
21
-170.341
0
LINE
8
BLACK
6
CONTINUOUS
10
74.4827
20
-170.341
11
74.7684
21
-170.341
0
LINE
8
BLACK
6
CONTINUOUS
10
74.7684
20
-170.341
11
74.9589
21
-170.436
0
LINE
8
BLACK
6
CONTINUOUS
10
74.9589
20
-170.436
11
75.0541
21
-170.627
0
LINE
8
BLACK
6
CONTINUOUS
10
75.0541
20
-170.627
11
75.0541
21
-171.674
0
LINE
8
BLACK
6
CONTINUOUS
10
76.2922
20
-171.674
11
76.1017
21
-171.579
0
LINE
8
BLACK
6
CONTINUOUS
10
76.1017
20
-171.579
11
76.0065
21
-171.484
0
LINE
8
BLACK
6
CONTINUOUS
10
76.0065
20
-171.484
11
75.9113
21
-171.293
0
LINE
8
BLACK
6
CONTINUOUS
10
75.9113
20
-171.293
11
75.9113
21
-170.722
0
LINE
8
BLACK
6
CONTINUOUS
10
75.9113
20
-170.722
11
76.0065
21
-170.531
0
LINE
8
BLACK
6
CONTINUOUS
10
76.0065
20
-170.531
11
76.1017
21
-170.436
0
LINE
8
BLACK
6
CONTINUOUS
10
76.1017
20
-170.436
11
76.2922
21
-170.341
0
LINE
8
BLACK
6
CONTINUOUS
10
76.2922
20
-170.341
11
76.5779
21
-170.341
0
LINE
8
BLACK
6
CONTINUOUS
10
76.5779
20
-170.341
11
76.7684
21
-170.436
0
LINE
8
BLACK
6
CONTINUOUS
10
76.7684
20
-170.436
11
76.8636
21
-170.531
0
LINE
8
BLACK
6
CONTINUOUS
10
76.8636
20
-170.531
11
76.9589
21
-170.722
0
LINE
8
BLACK
6
CONTINUOUS
10
76.9589
20
-170.722
11
76.9589
21
-171.293
0
LINE
8
BLACK
6
CONTINUOUS
10
76.9589
20
-171.293
11
76.8636
21
-171.484
0
LINE
8
BLACK
6
CONTINUOUS
10
76.8636
20
-171.484
11
76.7684
21
-171.579
0
LINE
8
BLACK
6
CONTINUOUS
10
76.7684
20
-171.579
11
76.5779
21
-171.674
0
LINE
8
BLACK
6
CONTINUOUS
10
76.5779
20
-171.674
11
76.2922
21
-171.674
0
LINE
8
BLACK
6
CONTINUOUS
10
77.5303
20
-170.341
11
78.2922
21
-170.341
0
LINE
8
BLACK
6
CONTINUOUS
10
77.816
20
-169.674
11
77.816
21
-171.389
0
LINE
8
BLACK
6
CONTINUOUS
10
77.816
20
-171.389
11
77.9113
21
-171.579
0
LINE
8
BLACK
6
CONTINUOUS
10
77.9113
20
-171.579
11
78.1017
21
-171.674
0
LINE
8
BLACK
6
CONTINUOUS
10
78.1017
20
-171.674
11
78.2922
21
-171.674
0
LINE
8
BLACK
6
CONTINUOUS
10
80.4827
20
-170.341
11
80.4827
21
-172.341
0
LINE
8
BLACK
6
CONTINUOUS
10
80.4827
20
-170.436
11
80.6732
21
-170.341
0
LINE
8
BLACK
6
CONTINUOUS
10
80.6732
20
-170.341
11
81.0541
21
-170.341
0
LINE
8
BLACK
6
CONTINUOUS
10
81.0541
20
-170.341
11
81.2446
21
-170.436
0
LINE
8
BLACK
6
CONTINUOUS
10
81.2446
20
-170.436
11
81.3398
21
-170.531
0
LINE
8
BLACK
6
CONTINUOUS
10
81.3398
20
-170.531
11
81.4351
21
-170.722
0
LINE
8
BLACK
6
CONTINUOUS
10
81.4351
20
-170.722
11
81.4351
21
-171.293
0
LINE
8
BLACK
6
CONTINUOUS
10
81.4351
20
-171.293
11
81.3398
21
-171.484
0
LINE
8
BLACK
6
CONTINUOUS
10
81.3398
20
-171.484
11
81.2446
21
-171.579
0
LINE
8
BLACK
6
CONTINUOUS
10
81.2446
20
-171.579
11
81.0541
21
-171.674
0
LINE
8
BLACK
6
CONTINUOUS
10
81.0541
20
-171.674
11
80.6732
21
-171.674
0
LINE
8
BLACK
6
CONTINUOUS
10
80.6732
20
-171.674
11
80.4827
21
-171.579
0
LINE
8
BLACK
6
CONTINUOUS
10
82.5779
20
-171.674
11
82.3874
21
-171.579
0
LINE
8
BLACK
6
CONTINUOUS
10
82.3874
20
-171.579
11
82.2922
21
-171.389
0
LINE
8
BLACK
6
CONTINUOUS
10
82.2922
20
-171.389
11
82.2922
21
-169.674
0
LINE
8
BLACK
6
CONTINUOUS
10
84.197
20
-171.674
11
84.197
21
-170.627
0
LINE
8
BLACK
6
CONTINUOUS
10
84.197
20
-170.627
11
84.1017
21
-170.436
0
LINE
8
BLACK
6
CONTINUOUS
10
84.1017
20
-170.436
11
83.9113
21
-170.341
0
LINE
8
BLACK
6
CONTINUOUS
10
83.9113
20
-170.341
11
83.5303
21
-170.341
0
LINE
8
BLACK
6
CONTINUOUS
10
83.5303
20
-170.341
11
83.3398
21
-170.436
0
LINE
8
BLACK
6
CONTINUOUS
10
84.197
20
-171.579
11
84.0065
21
-171.674
0
LINE
8
BLACK
6
CONTINUOUS
10
84.0065
20
-171.674
11
83.5303
21
-171.674
0
LINE
8
BLACK
6
CONTINUOUS
10
83.5303
20
-171.674
11
83.3398
21
-171.579
0
LINE
8
BLACK
6
CONTINUOUS
10
83.3398
20
-171.579
11
83.2446
21
-171.389
0
LINE
8
BLACK
6
CONTINUOUS
10
83.2446
20
-171.389
11
83.2446
21
-171.198
0
LINE
8
BLACK
6
CONTINUOUS
10
83.2446
20
-171.198
11
83.3398
21
-171.008
0
LINE
8
BLACK
6
CONTINUOUS
10
83.3398
20
-171.008
11
83.5303
21
-170.912
0
LINE
8
BLACK
6
CONTINUOUS
10
83.5303
20
-170.912
11
84.0065
21
-170.912
0
LINE
8
BLACK
6
CONTINUOUS
10
84.0065
20
-170.912
11
84.197
21
-170.817
0
LINE
8
BLACK
6
CONTINUOUS
10
84.8636
20
-170.341
11
85.6255
21
-170.341
0
LINE
8
BLACK
6
CONTINUOUS
10
85.1494
20
-169.674
11
85.1494
21
-171.389
0
LINE
8
BLACK
6
CONTINUOUS
10
85.1494
20
-171.389
11
85.2446
21
-171.579
0
LINE
8
BLACK
6
CONTINUOUS
10
85.2446
20
-171.579
11
85.4351
21
-171.674
0
LINE
8
BLACK
6
CONTINUOUS
10
85.4351
20
-171.674
11
85.6255
21
-171.674
0
LINE
8
BLACK
6
CONTINUOUS
10
87.0541
20
-171.579
11
86.8636
21
-171.674
0
LINE
8
BLACK
6
CONTINUOUS
10
86.8636
20
-171.674
11
86.4827
21
-171.674
0
LINE
8
BLACK
6
CONTINUOUS
10
86.4827
20
-171.674
11
86.2922
21
-171.579
0
LINE
8
BLACK
6
CONTINUOUS
10
86.2922
20
-171.579
11
86.197
21
-171.389
0
LINE
8
BLACK
6
CONTINUOUS
10
86.197
20
-171.389
11
86.197
21
-170.627
0
LINE
8
BLACK
6
CONTINUOUS
10
86.197
20
-170.627
11
86.2922
21
-170.436
0
LINE
8
BLACK
6
CONTINUOUS
10
86.2922
20
-170.436
11
86.4827
21
-170.341
0
LINE
8
BLACK
6
CONTINUOUS
10
86.4827
20
-170.341
11
86.8636
21
-170.341
0
LINE
8
BLACK
6
CONTINUOUS
10
86.8636
20
-170.341
11
87.0541
21
-170.436
0
LINE
8
BLACK
6
CONTINUOUS
10
87.0541
20
-170.436
11
87.1494
21
-170.627
0
LINE
8
BLACK
6
CONTINUOUS
10
87.1494
20
-170.627
11
87.1494
21
-170.817
0
LINE
8
BLACK
6
CONTINUOUS
10
87.1494
20
-170.817
11
86.197
21
-171.008
0
LINE
8
BLACK
6
CONTINUOUS
10
88.8636
20
-171.674
11
88.8636
21
-169.674
0
LINE
8
BLACK
6
CONTINUOUS
10
88.8636
20
-171.579
11
88.6732
21
-171.674
0
LINE
8
BLACK
6
CONTINUOUS
10
88.6732
20
-171.674
11
88.2922
21
-171.674
0
LINE
8
BLACK
6
CONTINUOUS
10
88.2922
20
-171.674
11
88.1017
21
-171.579
0
LINE
8
BLACK
6
CONTINUOUS
10
88.1017
20
-171.579
11
88.0065
21
-171.484
0
LINE
8
BLACK
6
CONTINUOUS
10
88.0065
20
-171.484
11
87.9113
21
-171.293
0
LINE
8
BLACK
6
CONTINUOUS
10
87.9113
20
-171.293
11
87.9113
21
-170.722
0
LINE
8
BLACK
6
CONTINUOUS
10
87.9113
20
-170.722
11
88.0065
21
-170.531
0
LINE
8
BLACK
6
CONTINUOUS
10
88.0065
20
-170.531
11
88.1017
21
-170.436
0
LINE
8
BLACK
6
CONTINUOUS
10
88.1017
20
-170.436
11
88.2922
21
-170.341
0
LINE
8
BLACK
6
CONTINUOUS
10
88.2922
20
-170.341
11
88.6732
21
-170.341
0
LINE
8
BLACK
6
CONTINUOUS
10
88.6732
20
-170.341
11
88.8636
21
-170.436
0
LINE
8
BLACK
6
CONTINUOUS
10
89.6255
20
-172.436
11
89.7208
21
-172.341
0
LINE
8
BLACK
6
CONTINUOUS
10
89.7208
20
-172.341
11
89.9113
21
-172.055
0
LINE
8
BLACK
6
CONTINUOUS
10
89.9113
20
-172.055
11
90.0065
21
-171.865
0
LINE
8
BLACK
6
CONTINUOUS
10
90.0065
20
-171.865
11
90.1017
21
-171.579
0
LINE
8
BLACK
6
CONTINUOUS
10
90.1017
20
-171.579
11
90.197
21
-171.103
0
LINE
8
BLACK
6
CONTINUOUS
10
90.197
20
-171.103
11
90.197
21
-170.722
0
LINE
8
BLACK
6
CONTINUOUS
10
90.197
20
-170.722
11
90.1017
21
-170.246
0
LINE
8
BLACK
6
CONTINUOUS
10
90.1017
20
-170.246
11
90.0065
21
-169.96
0
LINE
8
BLACK
6
CONTINUOUS
10
90.0065
20
-169.96
11
89.9113
21
-169.77
0
LINE
8
BLACK
6
CONTINUOUS
10
89.9113
20
-169.77
11
89.7208
21
-169.484
0
LINE
8
BLACK
6
CONTINUOUS
10
89.7208
20
-169.484
11
89.6255
21
-169.389
0
LINE
8
BLACK
6
CONTINUOUS
10
19.1922
20
-174.97
11
20.1922
21
-173.97
0
LINE
8
BLACK
6
CONTINUOUS
10
20.1922
20
-173.97
11
19.1922
21
-172.97
0
LINE
8
BLACK
6
CONTINUOUS
10
19.1922
20
-172.97
11
18.1922
21
-173.97
0
LINE
8
BLACK
6
CONTINUOUS
10
18.1922
20
-173.97
11
19.1922
21
-174.97
0
LINE
8
BLACK
6
CONTINUOUS
10
23.6255
20
-173.541
11
23.6255
21
-174.874
0
LINE
8
BLACK
6
CONTINUOUS
10
23.1494
20
-172.779
11
22.6732
21
-174.208
0
LINE
8
BLACK
6
CONTINUOUS
10
22.6732
20
-174.208
11
23.9113
21
-174.208
0
LINE
8
BLACK
6
CONTINUOUS
10
24.6732
20
-174.684
11
24.7684
21
-174.779
0
LINE
8
BLACK
6
CONTINUOUS
10
24.7684
20
-174.779
11
24.6732
21
-174.874
0
LINE
8
BLACK
6
CONTINUOUS
10
24.6732
20
-174.874
11
24.5779
21
-174.779
0
LINE
8
BLACK
6
CONTINUOUS
10
24.5779
20
-174.779
11
24.6732
21
-174.684
0
LINE
8
BLACK
6
CONTINUOUS
10
24.6732
20
-174.684
11
24.6732
21
-174.874
0
LINE
8
BLACK
6
CONTINUOUS
10
26.0065
20
-172.874
11
26.197
21
-172.874
0
LINE
8
BLACK
6
CONTINUOUS
10
26.197
20
-172.874
11
26.3874
21
-172.97
0
LINE
8
BLACK
6
CONTINUOUS
10
26.3874
20
-172.97
11
26.4827
21
-173.065
0
LINE
8
BLACK
6
CONTINUOUS
10
26.4827
20
-173.065
11
26.5779
21
-173.255
0
LINE
8
BLACK
6
CONTINUOUS
10
26.5779
20
-173.255
11
26.6732
21
-173.636
0
LINE
8
BLACK
6
CONTINUOUS
10
26.6732
20
-173.636
11
26.6732
21
-174.112
0
LINE
8
BLACK
6
CONTINUOUS
10
26.6732
20
-174.112
11
26.5779
21
-174.493
0
LINE
8
BLACK
6
CONTINUOUS
10
26.5779
20
-174.493
11
26.4827
21
-174.684
0
LINE
8
BLACK
6
CONTINUOUS
10
26.4827
20
-174.684
11
26.3874
21
-174.779
0
LINE
8
BLACK
6
CONTINUOUS
10
26.3874
20
-174.779
11
26.197
21
-174.874
0
LINE
8
BLACK
6
CONTINUOUS
10
26.197
20
-174.874
11
26.0065
21
-174.874
0
LINE
8
BLACK
6
CONTINUOUS
10
26.0065
20
-174.874
11
25.816
21
-174.779
0
LINE
8
BLACK
6
CONTINUOUS
10
25.816
20
-174.779
11
25.7208
21
-174.684
0
LINE
8
BLACK
6
CONTINUOUS
10
25.7208
20
-174.684
11
25.6255
21
-174.493
0
LINE
8
BLACK
6
CONTINUOUS
10
25.6255
20
-174.493
11
25.5303
21
-174.112
0
LINE
8
BLACK
6
CONTINUOUS
10
25.5303
20
-174.112
11
25.5303
21
-173.636
0
LINE
8
BLACK
6
CONTINUOUS
10
25.5303
20
-173.636
11
25.6255
21
-173.255
0
LINE
8
BLACK
6
CONTINUOUS
10
25.6255
20
-173.255
11
25.7208
21
-173.065
0
LINE
8
BLACK
6
CONTINUOUS
10
25.7208
20
-173.065
11
25.816
21
-172.97
0
LINE
8
BLACK
6
CONTINUOUS
10
25.816
20
-172.97
11
26.0065
21
-172.874
0
LINE
8
BLACK
6
CONTINUOUS
10
27.9113
20
-172.874
11
28.1017
21
-172.874
0
LINE
8
BLACK
6
CONTINUOUS
10
28.1017
20
-172.874
11
28.2922
21
-172.97
0
LINE
8
BLACK
6
CONTINUOUS
10
28.2922
20
-172.97
11
28.3874
21
-173.065
0
LINE
8
BLACK
6
CONTINUOUS
10
28.3874
20
-173.065
11
28.4827
21
-173.255
0
LINE
8
BLACK
6
CONTINUOUS
10
28.4827
20
-173.255
11
28.5779
21
-173.636
0
LINE
8
BLACK
6
CONTINUOUS
10
28.5779
20
-173.636
11
28.5779
21
-174.112
0
LINE
8
BLACK
6
CONTINUOUS
10
28.5779
20
-174.112
11
28.4827
21
-174.493
0
LINE
8
BLACK
6
CONTINUOUS
10
28.4827
20
-174.493
11
28.3874
21
-174.684
0
LINE
8
BLACK
6
CONTINUOUS
10
28.3874
20
-174.684
11
28.2922
21
-174.779
0
LINE
8
BLACK
6
CONTINUOUS
10
28.2922
20
-174.779
11
28.1017
21
-174.874
0
LINE
8
BLACK
6
CONTINUOUS
10
28.1017
20
-174.874
11
27.9113
21
-174.874
0
LINE
8
BLACK
6
CONTINUOUS
10
27.9113
20
-174.874
11
27.7208
21
-174.779
0
LINE
8
BLACK
6
CONTINUOUS
10
27.7208
20
-174.779
11
27.6255
21
-174.684
0
LINE
8
BLACK
6
CONTINUOUS
10
27.6255
20
-174.684
11
27.5303
21
-174.493
0
LINE
8
BLACK
6
CONTINUOUS
10
27.5303
20
-174.493
11
27.4351
21
-174.112
0
LINE
8
BLACK
6
CONTINUOUS
10
27.4351
20
-174.112
11
27.4351
21
-173.636
0
LINE
8
BLACK
6
CONTINUOUS
10
27.4351
20
-173.636
11
27.5303
21
-173.255
0
LINE
8
BLACK
6
CONTINUOUS
10
27.5303
20
-173.255
11
27.6255
21
-173.065
0
LINE
8
BLACK
6
CONTINUOUS
10
27.6255
20
-173.065
11
27.7208
21
-172.97
0
LINE
8
BLACK
6
CONTINUOUS
10
27.7208
20
-172.97
11
27.9113
21
-172.874
0
LINE
8
BLACK
6
CONTINUOUS
10
29.816
20
-172.874
11
30.0065
21
-172.874
0
LINE
8
BLACK
6
CONTINUOUS
10
30.0065
20
-172.874
11
30.197
21
-172.97
0
LINE
8
BLACK
6
CONTINUOUS
10
30.197
20
-172.97
11
30.2922
21
-173.065
0
LINE
8
BLACK
6
CONTINUOUS
10
30.2922
20
-173.065
11
30.3874
21
-173.255
0
LINE
8
BLACK
6
CONTINUOUS
10
30.3874
20
-173.255
11
30.4827
21
-173.636
0
LINE
8
BLACK
6
CONTINUOUS
10
30.4827
20
-173.636
11
30.4827
21
-174.112
0
LINE
8
BLACK
6
CONTINUOUS
10
30.4827
20
-174.112
11
30.3874
21
-174.493
0
LINE
8
BLACK
6
CONTINUOUS
10
30.3874
20
-174.493
11
30.2922
21
-174.684
0
LINE
8
BLACK
6
CONTINUOUS
10
30.2922
20
-174.684
11
30.197
21
-174.779
0
LINE
8
BLACK
6
CONTINUOUS
10
30.197
20
-174.779
11
30.0065
21
-174.874
0
LINE
8
BLACK
6
CONTINUOUS
10
30.0065
20
-174.874
11
29.816
21
-174.874
0
LINE
8
BLACK
6
CONTINUOUS
10
29.816
20
-174.874
11
29.6255
21
-174.779
0
LINE
8
BLACK
6
CONTINUOUS
10
29.6255
20
-174.779
11
29.5303
21
-174.684
0
LINE
8
BLACK
6
CONTINUOUS
10
29.5303
20
-174.684
11
29.4351
21
-174.493
0
LINE
8
BLACK
6
CONTINUOUS
10
29.4351
20
-174.493
11
29.3398
21
-174.112
0
LINE
8
BLACK
6
CONTINUOUS
10
29.3398
20
-174.112
11
29.3398
21
-173.636
0
LINE
8
BLACK
6
CONTINUOUS
10
29.3398
20
-173.636
11
29.4351
21
-173.255
0
LINE
8
BLACK
6
CONTINUOUS
10
29.4351
20
-173.255
11
29.5303
21
-173.065
0
LINE
8
BLACK
6
CONTINUOUS
10
29.5303
20
-173.065
11
29.6255
21
-172.97
0
LINE
8
BLACK
6
CONTINUOUS
10
29.6255
20
-172.97
11
29.816
21
-172.874
0
LINE
8
BLACK
6
CONTINUOUS
10
31.3398
20
-174.874
11
31.3398
21
-173.541
0
LINE
8
BLACK
6
CONTINUOUS
10
31.3398
20
-173.731
11
31.4351
21
-173.636
0
LINE
8
BLACK
6
CONTINUOUS
10
31.4351
20
-173.636
11
31.6255
21
-173.541
0
LINE
8
BLACK
6
CONTINUOUS
10
31.6255
20
-173.541
11
31.9113
21
-173.541
0
LINE
8
BLACK
6
CONTINUOUS
10
31.9113
20
-173.541
11
32.1017
21
-173.636
0
LINE
8
BLACK
6
CONTINUOUS
10
32.1017
20
-173.636
11
32.197
21
-173.827
0
LINE
8
BLACK
6
CONTINUOUS
10
32.197
20
-173.827
11
32.197
21
-174.874
0
LINE
8
BLACK
6
CONTINUOUS
10
32.197
20
-173.827
11
32.2922
21
-173.636
0
LINE
8
BLACK
6
CONTINUOUS
10
32.2922
20
-173.636
11
32.4827
21
-173.541
0
LINE
8
BLACK
6
CONTINUOUS
10
32.4827
20
-173.541
11
32.7684
21
-173.541
0
LINE
8
BLACK
6
CONTINUOUS
10
32.7684
20
-173.541
11
32.9589
21
-173.636
0
LINE
8
BLACK
6
CONTINUOUS
10
32.9589
20
-173.636
11
33.0541
21
-173.827
0
LINE
8
BLACK
6
CONTINUOUS
10
33.0541
20
-173.827
11
33.0541
21
-174.874
0
LINE
8
BLACK
6
CONTINUOUS
10
34.0065
20
-174.874
11
34.0065
21
-173.541
0
LINE
8
BLACK
6
CONTINUOUS
10
34.0065
20
-173.731
11
34.1017
21
-173.636
0
LINE
8
BLACK
6
CONTINUOUS
10
34.1017
20
-173.636
11
34.2922
21
-173.541
0
LINE
8
BLACK
6
CONTINUOUS
10
34.2922
20
-173.541
11
34.5779
21
-173.541
0
LINE
8
BLACK
6
CONTINUOUS
10
34.5779
20
-173.541
11
34.7684
21
-173.636
0
LINE
8
BLACK
6
CONTINUOUS
10
34.7684
20
-173.636
11
34.8636
21
-173.827
0
LINE
8
BLACK
6
CONTINUOUS
10
34.8636
20
-173.827
11
34.8636
21
-174.874
0
LINE
8
BLACK
6
CONTINUOUS
10
34.8636
20
-173.827
11
34.9589
21
-173.636
0
LINE
8
BLACK
6
CONTINUOUS
10
34.9589
20
-173.636
11
35.1494
21
-173.541
0
LINE
8
BLACK
6
CONTINUOUS
10
35.1494
20
-173.541
11
35.4351
21
-173.541
0
LINE
8
BLACK
6
CONTINUOUS
10
35.4351
20
-173.541
11
35.6255
21
-173.636
0
LINE
8
BLACK
6
CONTINUOUS
10
35.6255
20
-173.636
11
35.7208
21
-173.827
0
LINE
8
BLACK
6
CONTINUOUS
10
35.7208
20
-173.827
11
35.7208
21
-174.874
0
LINE
8
BLACK
6
CONTINUOUS
10
39.6255
20
-172.779
11
37.9113
21
-175.351
0
LINE
8
BLACK
6
CONTINUOUS
10
42.197
20
-172.874
11
42.3874
21
-172.874
0
LINE
8
BLACK
6
CONTINUOUS
10
42.3874
20
-172.874
11
42.5779
21
-172.97
0
LINE
8
BLACK
6
CONTINUOUS
10
42.5779
20
-172.97
11
42.6732
21
-173.065
0
LINE
8
BLACK
6
CONTINUOUS
10
42.6732
20
-173.065
11
42.7684
21
-173.255
0
LINE
8
BLACK
6
CONTINUOUS
10
42.7684
20
-173.255
11
42.8636
21
-173.636
0
LINE
8
BLACK
6
CONTINUOUS
10
42.8636
20
-173.636
11
42.8636
21
-174.112
0
LINE
8
BLACK
6
CONTINUOUS
10
42.8636
20
-174.112
11
42.7684
21
-174.493
0
LINE
8
BLACK
6
CONTINUOUS
10
42.7684
20
-174.493
11
42.6732
21
-174.684
0
LINE
8
BLACK
6
CONTINUOUS
10
42.6732
20
-174.684
11
42.5779
21
-174.779
0
LINE
8
BLACK
6
CONTINUOUS
10
42.5779
20
-174.779
11
42.3874
21
-174.874
0
LINE
8
BLACK
6
CONTINUOUS
10
42.3874
20
-174.874
11
42.197
21
-174.874
0
LINE
8
BLACK
6
CONTINUOUS
10
42.197
20
-174.874
11
42.0065
21
-174.779
0
LINE
8
BLACK
6
CONTINUOUS
10
42.0065
20
-174.779
11
41.9113
21
-174.684
0
LINE
8
BLACK
6
CONTINUOUS
10
41.9113
20
-174.684
11
41.816
21
-174.493
0
LINE
8
BLACK
6
CONTINUOUS
10
41.816
20
-174.493
11
41.7208
21
-174.112
0
LINE
8
BLACK
6
CONTINUOUS
10
41.7208
20
-174.112
11
41.7208
21
-173.636
0
LINE
8
BLACK
6
CONTINUOUS
10
41.7208
20
-173.636
11
41.816
21
-173.255
0
LINE
8
BLACK
6
CONTINUOUS
10
41.816
20
-173.255
11
41.9113
21
-173.065
0
LINE
8
BLACK
6
CONTINUOUS
10
41.9113
20
-173.065
11
42.0065
21
-172.97
0
LINE
8
BLACK
6
CONTINUOUS
10
42.0065
20
-172.97
11
42.197
21
-172.874
0
LINE
8
BLACK
6
CONTINUOUS
10
43.7208
20
-174.684
11
43.816
21
-174.779
0
LINE
8
BLACK
6
CONTINUOUS
10
43.816
20
-174.779
11
43.7208
21
-174.874
0
LINE
8
BLACK
6
CONTINUOUS
10
43.7208
20
-174.874
11
43.6255
21
-174.779
0
LINE
8
BLACK
6
CONTINUOUS
10
43.6255
20
-174.779
11
43.7208
21
-174.684
0
LINE
8
BLACK
6
CONTINUOUS
10
43.7208
20
-174.684
11
43.7208
21
-174.874
0
LINE
8
BLACK
6
CONTINUOUS
10
45.7208
20
-174.874
11
44.5779
21
-174.874
0
LINE
8
BLACK
6
CONTINUOUS
10
45.1494
20
-174.874
11
45.1494
21
-172.874
0
LINE
8
BLACK
6
CONTINUOUS
10
45.1494
20
-172.874
11
44.9589
21
-173.16
0
LINE
8
BLACK
6
CONTINUOUS
10
44.9589
20
-173.16
11
44.7684
21
-173.351
0
LINE
8
BLACK
6
CONTINUOUS
10
44.7684
20
-173.351
11
44.5779
21
-173.446
0
LINE
8
BLACK
6
CONTINUOUS
10
47.5303
20
-172.874
11
46.5779
21
-172.874
0
LINE
8
BLACK
6
CONTINUOUS
10
46.5779
20
-172.874
11
46.4827
21
-173.827
0
LINE
8
BLACK
6
CONTINUOUS
10
46.4827
20
-173.827
11
46.5779
21
-173.731
0
LINE
8
BLACK
6
CONTINUOUS
10
46.5779
20
-173.731
11
46.7684
21
-173.636
0
LINE
8
BLACK
6
CONTINUOUS
10
46.7684
20
-173.636
11
47.2446
21
-173.636
0
LINE
8
BLACK
6
CONTINUOUS
10
47.2446
20
-173.636
11
47.4351
21
-173.731
0
LINE
8
BLACK
6
CONTINUOUS
10
47.4351
20
-173.731
11
47.5303
21
-173.827
0
LINE
8
BLACK
6
CONTINUOUS
10
47.5303
20
-173.827
11
47.6255
21
-174.017
0
LINE
8
BLACK
6
CONTINUOUS
10
47.6255
20
-174.017
11
47.6255
21
-174.493
0
LINE
8
BLACK
6
CONTINUOUS
10
47.6255
20
-174.493
11
47.5303
21
-174.684
0
LINE
8
BLACK
6
CONTINUOUS
10
47.5303
20
-174.684
11
47.4351
21
-174.779
0
LINE
8
BLACK
6
CONTINUOUS
10
47.4351
20
-174.779
11
47.2446
21
-174.874
0
LINE
8
BLACK
6
CONTINUOUS
10
47.2446
20
-174.874
11
46.7684
21
-174.874
0
LINE
8
BLACK
6
CONTINUOUS
10
46.7684
20
-174.874
11
46.5779
21
-174.779
0
LINE
8
BLACK
6
CONTINUOUS
10
46.5779
20
-174.779
11
46.4827
21
-174.684
0
LINE
8
BLACK
6
CONTINUOUS
10
48.2922
20
-172.874
11
49.6255
21
-172.874
0
LINE
8
BLACK
6
CONTINUOUS
10
49.6255
20
-172.874
11
48.7684
21
-174.874
0
LINE
8
BLACK
6
CONTINUOUS
10
51.3398
20
-172.874
11
50.3874
21
-172.874
0
LINE
8
BLACK
6
CONTINUOUS
10
50.3874
20
-172.874
11
50.2922
21
-173.827
0
LINE
8
BLACK
6
CONTINUOUS
10
50.2922
20
-173.827
11
50.3874
21
-173.731
0
LINE
8
BLACK
6
CONTINUOUS
10
50.3874
20
-173.731
11
50.5779
21
-173.636
0
LINE
8
BLACK
6
CONTINUOUS
10
50.5779
20
-173.636
11
51.0541
21
-173.636
0
LINE
8
BLACK
6
CONTINUOUS
10
51.0541
20
-173.636
11
51.2446
21
-173.731
0
LINE
8
BLACK
6
CONTINUOUS
10
51.2446
20
-173.731
11
51.3398
21
-173.827
0
LINE
8
BLACK
6
CONTINUOUS
10
51.3398
20
-173.827
11
51.4351
21
-174.017
0
LINE
8
BLACK
6
CONTINUOUS
10
51.4351
20
-174.017
11
51.4351
21
-174.493
0
LINE
8
BLACK
6
CONTINUOUS
10
51.4351
20
-174.493
11
51.3398
21
-174.684
0
LINE
8
BLACK
6
CONTINUOUS
10
51.3398
20
-174.684
11
51.2446
21
-174.779
0
LINE
8
BLACK
6
CONTINUOUS
10
51.2446
20
-174.779
11
51.0541
21
-174.874
0
LINE
8
BLACK
6
CONTINUOUS
10
51.0541
20
-174.874
11
50.5779
21
-174.874
0
LINE
8
BLACK
6
CONTINUOUS
10
50.5779
20
-174.874
11
50.3874
21
-174.779
0
LINE
8
BLACK
6
CONTINUOUS
10
50.3874
20
-174.779
11
50.2922
21
-174.684
0
LINE
8
BLACK
6
CONTINUOUS
10
52.197
20
-172.874
11
52.197
21
-173.255
0
LINE
8
BLACK
6
CONTINUOUS
10
52.9589
20
-172.874
11
52.9589
21
-173.255
0
LINE
8
BLACK
6
CONTINUOUS
10
55.9113
20
-175.636
11
55.816
21
-175.541
0
LINE
8
BLACK
6
CONTINUOUS
10
55.816
20
-175.541
11
55.6255
21
-175.255
0
LINE
8
BLACK
6
CONTINUOUS
10
55.6255
20
-175.255
11
55.5303
21
-175.065
0
LINE
8
BLACK
6
CONTINUOUS
10
55.5303
20
-175.065
11
55.4351
21
-174.779
0
LINE
8
BLACK
6
CONTINUOUS
10
55.4351
20
-174.779
11
55.3398
21
-174.303
0
LINE
8
BLACK
6
CONTINUOUS
10
55.3398
20
-174.303
11
55.3398
21
-173.922
0
LINE
8
BLACK
6
CONTINUOUS
10
55.3398
20
-173.922
11
55.4351
21
-173.446
0
LINE
8
BLACK
6
CONTINUOUS
10
55.4351
20
-173.446
11
55.5303
21
-173.16
0
LINE
8
BLACK
6
CONTINUOUS
10
55.5303
20
-173.16
11
55.6255
21
-172.97
0
LINE
8
BLACK
6
CONTINUOUS
10
55.6255
20
-172.97
11
55.816
21
-172.684
0
LINE
8
BLACK
6
CONTINUOUS
10
55.816
20
-172.684
11
55.9113
21
-172.589
0
LINE
8
BLACK
6
CONTINUOUS
10
57.5303
20
-172.874
11
57.1494
21
-172.874
0
LINE
8
BLACK
6
CONTINUOUS
10
57.1494
20
-172.874
11
56.9589
21
-172.97
0
LINE
8
BLACK
6
CONTINUOUS
10
56.9589
20
-172.97
11
56.8636
21
-173.065
0
LINE
8
BLACK
6
CONTINUOUS
10
56.8636
20
-173.065
11
56.6732
21
-173.351
0
LINE
8
BLACK
6
CONTINUOUS
10
56.6732
20
-173.351
11
56.5779
21
-173.731
0
LINE
8
BLACK
6
CONTINUOUS
10
56.5779
20
-173.731
11
56.5779
21
-174.493
0
LINE
8
BLACK
6
CONTINUOUS
10
56.5779
20
-174.493
11
56.6732
21
-174.684
0
LINE
8
BLACK
6
CONTINUOUS
10
56.6732
20
-174.684
11
56.7684
21
-174.779
0
LINE
8
BLACK
6
CONTINUOUS
10
56.7684
20
-174.779
11
56.9589
21
-174.874
0
LINE
8
BLACK
6
CONTINUOUS
10
56.9589
20
-174.874
11
57.3398
21
-174.874
0
LINE
8
BLACK
6
CONTINUOUS
10
57.3398
20
-174.874
11
57.5303
21
-174.779
0
LINE
8
BLACK
6
CONTINUOUS
10
57.5303
20
-174.779
11
57.6255
21
-174.684
0
LINE
8
BLACK
6
CONTINUOUS
10
57.6255
20
-174.684
11
57.7208
21
-174.493
0
LINE
8
BLACK
6
CONTINUOUS
10
57.7208
20
-174.493
11
57.7208
21
-174.017
0
LINE
8
BLACK
6
CONTINUOUS
10
57.7208
20
-174.017
11
57.6255
21
-173.827
0
LINE
8
BLACK
6
CONTINUOUS
10
57.6255
20
-173.827
11
57.5303
21
-173.731
0
LINE
8
BLACK
6
CONTINUOUS
10
57.5303
20
-173.731
11
57.3398
21
-173.636
0
LINE
8
BLACK
6
CONTINUOUS
10
57.3398
20
-173.636
11
56.9589
21
-173.636
0
LINE
8
BLACK
6
CONTINUOUS
10
56.9589
20
-173.636
11
56.7684
21
-173.731
0
LINE
8
BLACK
6
CONTINUOUS
10
56.7684
20
-173.731
11
56.6732
21
-173.827
0
LINE
8
BLACK
6
CONTINUOUS
10
56.6732
20
-173.827
11
56.5779
21
-174.017
0
LINE
8
BLACK
6
CONTINUOUS
10
60.1017
20
-174.874
11
60.1017
21
-172.874
0
LINE
8
BLACK
6
CONTINUOUS
10
60.9589
20
-174.874
11
60.9589
21
-173.827
0
LINE
8
BLACK
6
CONTINUOUS
10
60.9589
20
-173.827
11
60.8636
21
-173.636
0
LINE
8
BLACK
6
CONTINUOUS
10
60.8636
20
-173.636
11
60.6732
21
-173.541
0
LINE
8
BLACK
6
CONTINUOUS
10
60.6732
20
-173.541
11
60.3874
21
-173.541
0
LINE
8
BLACK
6
CONTINUOUS
10
60.3874
20
-173.541
11
60.197
21
-173.636
0
LINE
8
BLACK
6
CONTINUOUS
10
60.197
20
-173.636
11
60.1017
21
-173.731
0
LINE
8
BLACK
6
CONTINUOUS
10
62.197
20
-174.874
11
62.0065
21
-174.779
0
LINE
8
BLACK
6
CONTINUOUS
10
62.0065
20
-174.779
11
61.9113
21
-174.684
0
LINE
8
BLACK
6
CONTINUOUS
10
61.9113
20
-174.684
11
61.816
21
-174.493
0
LINE
8
BLACK
6
CONTINUOUS
10
61.816
20
-174.493
11
61.816
21
-173.922
0
LINE
8
BLACK
6
CONTINUOUS
10
61.816
20
-173.922
11
61.9113
21
-173.731
0
LINE
8
BLACK
6
CONTINUOUS
10
61.9113
20
-173.731
11
62.0065
21
-173.636
0
LINE
8
BLACK
6
CONTINUOUS
10
62.0065
20
-173.636
11
62.197
21
-173.541
0
LINE
8
BLACK
6
CONTINUOUS
10
62.197
20
-173.541
11
62.4827
21
-173.541
0
LINE
8
BLACK
6
CONTINUOUS
10
62.4827
20
-173.541
11
62.6732
21
-173.636
0
LINE
8
BLACK
6
CONTINUOUS
10
62.6732
20
-173.636
11
62.7684
21
-173.731
0
LINE
8
BLACK
6
CONTINUOUS
10
62.7684
20
-173.731
11
62.8636
21
-173.922
0
LINE
8
BLACK
6
CONTINUOUS
10
62.8636
20
-173.922
11
62.8636
21
-174.493
0
LINE
8
BLACK
6
CONTINUOUS
10
62.8636
20
-174.493
11
62.7684
21
-174.684
0
LINE
8
BLACK
6
CONTINUOUS
10
62.7684
20
-174.684
11
62.6732
21
-174.779
0
LINE
8
BLACK
6
CONTINUOUS
10
62.6732
20
-174.779
11
62.4827
21
-174.874
0
LINE
8
BLACK
6
CONTINUOUS
10
62.4827
20
-174.874
11
62.197
21
-174.874
0
LINE
8
BLACK
6
CONTINUOUS
10
64.0065
20
-174.874
11
63.816
21
-174.779
0
LINE
8
BLACK
6
CONTINUOUS
10
63.816
20
-174.779
11
63.7208
21
-174.589
0
LINE
8
BLACK
6
CONTINUOUS
10
63.7208
20
-174.589
11
63.7208
21
-172.874
0
LINE
8
BLACK
6
CONTINUOUS
10
65.5303
20
-174.779
11
65.3398
21
-174.874
0
LINE
8
BLACK
6
CONTINUOUS
10
65.3398
20
-174.874
11
64.9589
21
-174.874
0
LINE
8
BLACK
6
CONTINUOUS
10
64.9589
20
-174.874
11
64.7684
21
-174.779
0
LINE
8
BLACK
6
CONTINUOUS
10
64.7684
20
-174.779
11
64.6732
21
-174.589
0
LINE
8
BLACK
6
CONTINUOUS
10
64.6732
20
-174.589
11
64.6732
21
-173.827
0
LINE
8
BLACK
6
CONTINUOUS
10
64.6732
20
-173.827
11
64.7684
21
-173.636
0
LINE
8
BLACK
6
CONTINUOUS
10
64.7684
20
-173.636
11
64.9589
21
-173.541
0
LINE
8
BLACK
6
CONTINUOUS
10
64.9589
20
-173.541
11
65.3398
21
-173.541
0
LINE
8
BLACK
6
CONTINUOUS
10
65.3398
20
-173.541
11
65.5303
21
-173.636
0
LINE
8
BLACK
6
CONTINUOUS
10
65.5303
20
-173.636
11
65.6255
21
-173.827
0
LINE
8
BLACK
6
CONTINUOUS
10
65.6255
20
-173.827
11
65.6255
21
-174.017
0
LINE
8
BLACK
6
CONTINUOUS
10
65.6255
20
-174.017
11
64.6732
21
-174.208
0
LINE
8
BLACK
6
CONTINUOUS
10
66.3874
20
-174.779
11
66.5779
21
-174.874
0
LINE
8
BLACK
6
CONTINUOUS
10
66.5779
20
-174.874
11
66.9589
21
-174.874
0
LINE
8
BLACK
6
CONTINUOUS
10
66.9589
20
-174.874
11
67.1494
21
-174.779
0
LINE
8
BLACK
6
CONTINUOUS
10
67.1494
20
-174.779
11
67.2446
21
-174.589
0
LINE
8
BLACK
6
CONTINUOUS
10
67.2446
20
-174.589
11
67.2446
21
-174.493
0
LINE
8
BLACK
6
CONTINUOUS
10
67.2446
20
-174.493
11
67.1494
21
-174.303
0
LINE
8
BLACK
6
CONTINUOUS
10
67.1494
20
-174.303
11
66.9589
21
-174.208
0
LINE
8
BLACK
6
CONTINUOUS
10
66.9589
20
-174.208
11
66.6732
21
-174.208
0
LINE
8
BLACK
6
CONTINUOUS
10
66.6732
20
-174.208
11
66.4827
21
-174.112
0
LINE
8
BLACK
6
CONTINUOUS
10
66.4827
20
-174.112
11
66.3874
21
-173.922
0
LINE
8
BLACK
6
CONTINUOUS
10
66.3874
20
-173.922
11
66.3874
21
-173.827
0
LINE
8
BLACK
6
CONTINUOUS
10
66.3874
20
-173.827
11
66.4827
21
-173.636
0
LINE
8
BLACK
6
CONTINUOUS
10
66.4827
20
-173.636
11
66.6732
21
-173.541
0
LINE
8
BLACK
6
CONTINUOUS
10
66.6732
20
-173.541
11
66.9589
21
-173.541
0
LINE
8
BLACK
6
CONTINUOUS
10
66.9589
20
-173.541
11
67.1494
21
-173.636
0
LINE
8
BLACK
6
CONTINUOUS
10
67.9113
20
-175.636
11
68.0065
21
-175.541
0
LINE
8
BLACK
6
CONTINUOUS
10
68.0065
20
-175.541
11
68.197
21
-175.255
0
LINE
8
BLACK
6
CONTINUOUS
10
68.197
20
-175.255
11
68.2922
21
-175.065
0
LINE
8
BLACK
6
CONTINUOUS
10
68.2922
20
-175.065
11
68.3874
21
-174.779
0
LINE
8
BLACK
6
CONTINUOUS
10
68.3874
20
-174.779
11
68.4827
21
-174.303
0
LINE
8
BLACK
6
CONTINUOUS
10
68.4827
20
-174.303
11
68.4827
21
-173.922
0
LINE
8
BLACK
6
CONTINUOUS
10
68.4827
20
-173.922
11
68.3874
21
-173.446
0
LINE
8
BLACK
6
CONTINUOUS
10
68.3874
20
-173.446
11
68.2922
21
-173.16
0
LINE
8
BLACK
6
CONTINUOUS
10
68.2922
20
-173.16
11
68.197
21
-172.97
0
LINE
8
BLACK
6
CONTINUOUS
10
68.197
20
-172.97
11
68.0065
21
-172.684
0
LINE
8
BLACK
6
CONTINUOUS
10
68.0065
20
-172.684
11
67.9113
21
-172.589
0
LINE
8
BLACK
6
CONTINUOUS
10
71.5303
20
-175.636
11
71.4351
21
-175.541
0
LINE
8
BLACK
6
CONTINUOUS
10
71.4351
20
-175.541
11
71.2446
21
-175.255
0
LINE
8
BLACK
6
CONTINUOUS
10
71.2446
20
-175.255
11
71.1494
21
-175.065
0
LINE
8
BLACK
6
CONTINUOUS
10
71.1494
20
-175.065
11
71.0541
21
-174.779
0
LINE
8
BLACK
6
CONTINUOUS
10
71.0541
20
-174.779
11
70.9589
21
-174.303
0
LINE
8
BLACK
6
CONTINUOUS
10
70.9589
20
-174.303
11
70.9589
21
-173.922
0
LINE
8
BLACK
6
CONTINUOUS
10
70.9589
20
-173.922
11
71.0541
21
-173.446
0
LINE
8
BLACK
6
CONTINUOUS
10
71.0541
20
-173.446
11
71.1494
21
-173.16
0
LINE
8
BLACK
6
CONTINUOUS
10
71.1494
20
-173.16
11
71.2446
21
-172.97
0
LINE
8
BLACK
6
CONTINUOUS
10
71.2446
20
-172.97
11
71.4351
21
-172.684
0
LINE
8
BLACK
6
CONTINUOUS
10
71.4351
20
-172.684
11
71.5303
21
-172.589
0
LINE
8
BLACK
6
CONTINUOUS
10
72.2922
20
-173.541
11
72.2922
21
-174.874
0
LINE
8
BLACK
6
CONTINUOUS
10
72.2922
20
-173.731
11
72.3874
21
-173.636
0
LINE
8
BLACK
6
CONTINUOUS
10
72.3874
20
-173.636
11
72.5779
21
-173.541
0
LINE
8
BLACK
6
CONTINUOUS
10
72.5779
20
-173.541
11
72.8636
21
-173.541
0
LINE
8
BLACK
6
CONTINUOUS
10
72.8636
20
-173.541
11
73.0541
21
-173.636
0
LINE
8
BLACK
6
CONTINUOUS
10
73.0541
20
-173.636
11
73.1494
21
-173.827
0
LINE
8
BLACK
6
CONTINUOUS
10
73.1494
20
-173.827
11
73.1494
21
-174.874
0
LINE
8
BLACK
6
CONTINUOUS
10
74.3874
20
-174.874
11
74.197
21
-174.779
0
LINE
8
BLACK
6
CONTINUOUS
10
74.197
20
-174.779
11
74.1017
21
-174.684
0
LINE
8
BLACK
6
CONTINUOUS
10
74.1017
20
-174.684
11
74.0065
21
-174.493
0
LINE
8
BLACK
6
CONTINUOUS
10
74.0065
20
-174.493
11
74.0065
21
-173.922
0
LINE
8
BLACK
6
CONTINUOUS
10
74.0065
20
-173.922
11
74.1017
21
-173.731
0
LINE
8
BLACK
6
CONTINUOUS
10
74.1017
20
-173.731
11
74.197
21
-173.636
0
LINE
8
BLACK
6
CONTINUOUS
10
74.197
20
-173.636
11
74.3874
21
-173.541
0
LINE
8
BLACK
6
CONTINUOUS
10
74.3874
20
-173.541
11
74.6732
21
-173.541
0
LINE
8
BLACK
6
CONTINUOUS
10
74.6732
20
-173.541
11
74.8636
21
-173.636
0
LINE
8
BLACK
6
CONTINUOUS
10
74.8636
20
-173.636
11
74.9589
21
-173.731
0
LINE
8
BLACK
6
CONTINUOUS
10
74.9589
20
-173.731
11
75.0541
21
-173.922
0
LINE
8
BLACK
6
CONTINUOUS
10
75.0541
20
-173.922
11
75.0541
21
-174.493
0
LINE
8
BLACK
6
CONTINUOUS
10
75.0541
20
-174.493
11
74.9589
21
-174.684
0
LINE
8
BLACK
6
CONTINUOUS
10
74.9589
20
-174.684
11
74.8636
21
-174.779
0
LINE
8
BLACK
6
CONTINUOUS
10
74.8636
20
-174.779
11
74.6732
21
-174.874
0
LINE
8
BLACK
6
CONTINUOUS
10
74.6732
20
-174.874
11
74.3874
21
-174.874
0
LINE
8
BLACK
6
CONTINUOUS
10
75.6255
20
-173.541
11
76.3874
21
-173.541
0
LINE
8
BLACK
6
CONTINUOUS
10
75.9113
20
-172.874
11
75.9113
21
-174.589
0
LINE
8
BLACK
6
CONTINUOUS
10
75.9113
20
-174.589
11
76.0065
21
-174.779
0
LINE
8
BLACK
6
CONTINUOUS
10
76.0065
20
-174.779
11
76.197
21
-174.874
0
LINE
8
BLACK
6
CONTINUOUS
10
76.197
20
-174.874
11
76.3874
21
-174.874
0
LINE
8
BLACK
6
CONTINUOUS
10
78.5779
20
-173.541
11
78.5779
21
-175.541
0
LINE
8
BLACK
6
CONTINUOUS
10
78.5779
20
-173.636
11
78.7684
21
-173.541
0
LINE
8
BLACK
6
CONTINUOUS
10
78.7684
20
-173.541
11
79.1494
21
-173.541
0
LINE
8
BLACK
6
CONTINUOUS
10
79.1494
20
-173.541
11
79.3398
21
-173.636
0
LINE
8
BLACK
6
CONTINUOUS
10
79.3398
20
-173.636
11
79.4351
21
-173.731
0
LINE
8
BLACK
6
CONTINUOUS
10
79.4351
20
-173.731
11
79.5303
21
-173.922
0
LINE
8
BLACK
6
CONTINUOUS
10
79.5303
20
-173.922
11
79.5303
21
-174.493
0
LINE
8
BLACK
6
CONTINUOUS
10
79.5303
20
-174.493
11
79.4351
21
-174.684
0
LINE
8
BLACK
6
CONTINUOUS
10
79.4351
20
-174.684
11
79.3398
21
-174.779
0
LINE
8
BLACK
6
CONTINUOUS
10
79.3398
20
-174.779
11
79.1494
21
-174.874
0
LINE
8
BLACK
6
CONTINUOUS
10
79.1494
20
-174.874
11
78.7684
21
-174.874
0
LINE
8
BLACK
6
CONTINUOUS
10
78.7684
20
-174.874
11
78.5779
21
-174.779
0
LINE
8
BLACK
6
CONTINUOUS
10
80.6732
20
-174.874
11
80.4827
21
-174.779
0
LINE
8
BLACK
6
CONTINUOUS
10
80.4827
20
-174.779
11
80.3874
21
-174.589
0
LINE
8
BLACK
6
CONTINUOUS
10
80.3874
20
-174.589
11
80.3874
21
-172.874
0
LINE
8
BLACK
6
CONTINUOUS
10
82.2922
20
-174.874
11
82.2922
21
-173.827
0
LINE
8
BLACK
6
CONTINUOUS
10
82.2922
20
-173.827
11
82.197
21
-173.636
0
LINE
8
BLACK
6
CONTINUOUS
10
82.197
20
-173.636
11
82.0065
21
-173.541
0
LINE
8
BLACK
6
CONTINUOUS
10
82.0065
20
-173.541
11
81.6255
21
-173.541
0
LINE
8
BLACK
6
CONTINUOUS
10
81.6255
20
-173.541
11
81.4351
21
-173.636
0
LINE
8
BLACK
6
CONTINUOUS
10
82.2922
20
-174.779
11
82.1017
21
-174.874
0
LINE
8
BLACK
6
CONTINUOUS
10
82.1017
20
-174.874
11
81.6255
21
-174.874
0
LINE
8
BLACK
6
CONTINUOUS
10
81.6255
20
-174.874
11
81.4351
21
-174.779
0
LINE
8
BLACK
6
CONTINUOUS
10
81.4351
20
-174.779
11
81.3398
21
-174.589
0
LINE
8
BLACK
6
CONTINUOUS
10
81.3398
20
-174.589
11
81.3398
21
-174.398
0
LINE
8
BLACK
6
CONTINUOUS
10
81.3398
20
-174.398
11
81.4351
21
-174.208
0
LINE
8
BLACK
6
CONTINUOUS
10
81.4351
20
-174.208
11
81.6255
21
-174.112
0
LINE
8
BLACK
6
CONTINUOUS
10
81.6255
20
-174.112
11
82.1017
21
-174.112
0
LINE
8
BLACK
6
CONTINUOUS
10
82.1017
20
-174.112
11
82.2922
21
-174.017
0
LINE
8
BLACK
6
CONTINUOUS
10
82.9589
20
-173.541
11
83.7208
21
-173.541
0
LINE
8
BLACK
6
CONTINUOUS
10
83.2446
20
-172.874
11
83.2446
21
-174.589
0
LINE
8
BLACK
6
CONTINUOUS
10
83.2446
20
-174.589
11
83.3398
21
-174.779
0
LINE
8
BLACK
6
CONTINUOUS
10
83.3398
20
-174.779
11
83.5303
21
-174.874
0
LINE
8
BLACK
6
CONTINUOUS
10
83.5303
20
-174.874
11
83.7208
21
-174.874
0
LINE
8
BLACK
6
CONTINUOUS
10
85.1494
20
-174.779
11
84.9589
21
-174.874
0
LINE
8
BLACK
6
CONTINUOUS
10
84.9589
20
-174.874
11
84.5779
21
-174.874
0
LINE
8
BLACK
6
CONTINUOUS
10
84.5779
20
-174.874
11
84.3874
21
-174.779
0
LINE
8
BLACK
6
CONTINUOUS
10
84.3874
20
-174.779
11
84.2922
21
-174.589
0
LINE
8
BLACK
6
CONTINUOUS
10
84.2922
20
-174.589
11
84.2922
21
-173.827
0
LINE
8
BLACK
6
CONTINUOUS
10
84.2922
20
-173.827
11
84.3874
21
-173.636
0
LINE
8
BLACK
6
CONTINUOUS
10
84.3874
20
-173.636
11
84.5779
21
-173.541
0
LINE
8
BLACK
6
CONTINUOUS
10
84.5779
20
-173.541
11
84.9589
21
-173.541
0
LINE
8
BLACK
6
CONTINUOUS
10
84.9589
20
-173.541
11
85.1494
21
-173.636
0
LINE
8
BLACK
6
CONTINUOUS
10
85.1494
20
-173.636
11
85.2446
21
-173.827
0
LINE
8
BLACK
6
CONTINUOUS
10
85.2446
20
-173.827
11
85.2446
21
-174.017
0
LINE
8
BLACK
6
CONTINUOUS
10
85.2446
20
-174.017
11
84.2922
21
-174.208
0
LINE
8
BLACK
6
CONTINUOUS
10
86.9589
20
-174.874
11
86.9589
21
-172.874
0
LINE
8
BLACK
6
CONTINUOUS
10
86.9589
20
-174.779
11
86.7684
21
-174.874
0
LINE
8
BLACK
6
CONTINUOUS
10
86.7684
20
-174.874
11
86.3874
21
-174.874
0
LINE
8
BLACK
6
CONTINUOUS
10
86.3874
20
-174.874
11
86.197
21
-174.779
0
LINE
8
BLACK
6
CONTINUOUS
10
86.197
20
-174.779
11
86.1017
21
-174.684
0
LINE
8
BLACK
6
CONTINUOUS
10
86.1017
20
-174.684
11
86.0065
21
-174.493
0
LINE
8
BLACK
6
CONTINUOUS
10
86.0065
20
-174.493
11
86.0065
21
-173.922
0
LINE
8
BLACK
6
CONTINUOUS
10
86.0065
20
-173.922
11
86.1017
21
-173.731
0
LINE
8
BLACK
6
CONTINUOUS
10
86.1017
20
-173.731
11
86.197
21
-173.636
0
LINE
8
BLACK
6
CONTINUOUS
10
86.197
20
-173.636
11
86.3874
21
-173.541
0
LINE
8
BLACK
6
CONTINUOUS
10
86.3874
20
-173.541
11
86.7684
21
-173.541
0
LINE
8
BLACK
6
CONTINUOUS
10
86.7684
20
-173.541
11
86.9589
21
-173.636
0
LINE
8
BLACK
6
CONTINUOUS
10
87.7208
20
-175.636
11
87.816
21
-175.541
0
LINE
8
BLACK
6
CONTINUOUS
10
87.816
20
-175.541
11
88.0065
21
-175.255
0
LINE
8
BLACK
6
CONTINUOUS
10
88.0065
20
-175.255
11
88.1017
21
-175.065
0
LINE
8
BLACK
6
CONTINUOUS
10
88.1017
20
-175.065
11
88.197
21
-174.779
0
LINE
8
BLACK
6
CONTINUOUS
10
88.197
20
-174.779
11
88.2922
21
-174.303
0
LINE
8
BLACK
6
CONTINUOUS
10
88.2922
20
-174.303
11
88.2922
21
-173.922
0
LINE
8
BLACK
6
CONTINUOUS
10
88.2922
20
-173.922
11
88.197
21
-173.446
0
LINE
8
BLACK
6
CONTINUOUS
10
88.197
20
-173.446
11
88.1017
21
-173.16
0
LINE
8
BLACK
6
CONTINUOUS
10
88.1017
20
-173.16
11
88.0065
21
-172.97
0
LINE
8
BLACK
6
CONTINUOUS
10
88.0065
20
-172.97
11
87.816
21
-172.684
0
LINE
8
BLACK
6
CONTINUOUS
10
87.816
20
-172.684
11
87.7208
21
-172.589
  0
ENDSEC
  0
EOF
