M48
; DRILL file {KiCad (6.0.8)} date Fri Oct 14 01:30:43 2022
; FORMAT={-:-/ absolute / inch / decimal}
; #@! TF.CreationDate,2022-10-14T01:30:43-06:00
; #@! TF.GenerationSoftware,Kicad,Pcbnew,(6.0.8)
; #@! TF.FileFunction,Plated,1,2,PTH
FMAT,2
INCH
; #@! TA.AperFunction,Plated,PTH,ComponentDrill
T1C0.0394
; #@! TA.AperFunction,Plated,PTH,ComponentDrill
T2C0.0430
; #@! TA.AperFunction,Plated,PTH,ComponentDrill
T3C0.0591
; #@! TA.AperFunction,Plated,PTH,ComponentDrill
T4C0.0984
%
G90
G05
T1
X1.0479Y-1.1566
X1.0479Y-1.7275
X1.1463Y-1.1566
X1.2447Y-1.1566
X1.2447Y-1.7275
X1.4961Y-1.9449
X1.4961Y-2.0441
X1.4961Y-2.1417
X1.5063Y-1.1402
X1.5063Y-1.4472
X1.5063Y-1.5272
X1.5063Y-1.8343
X1.6063Y-1.1402
X1.6063Y-1.4472
X1.6063Y-1.5272
X1.6063Y-1.8343
X1.8031Y-1.9449
X1.8031Y-2.0441
X1.8031Y-2.1417
X1.8679Y-1.1566
X1.8679Y-1.7275
X1.8976Y-1.9441
X1.8976Y-2.0441
X1.9173Y-2.1575
X1.9173Y-2.2559
X1.9663Y-1.1566
X2.0647Y-1.1566
X2.0647Y-1.7275
X2.2047Y-1.9441
X2.2047Y-2.0441
X2.2244Y-2.1575
X2.2244Y-2.2559
X2.3189Y-2.1575
X2.3189Y-2.2559
X2.3228Y-1.9441
X2.3228Y-2.0441
X2.3268Y-1.1417
X2.3268Y-1.4488
X2.3268Y-1.5337
X2.3268Y-1.8408
X2.4268Y-1.1417
X2.4268Y-1.4488
X2.4268Y-1.5353
X2.4268Y-1.8424
X2.626Y-2.1575
X2.626Y-2.2559
X2.6299Y-1.9441
X2.6299Y-2.0441
X2.6883Y-1.1566
X2.6883Y-1.7275
X2.7244Y-1.9441
X2.7244Y-2.0441
X2.7244Y-2.1417
X2.7868Y-1.1566
X2.8852Y-1.1566
X2.8852Y-1.7275
X3.0315Y-1.9441
X3.0315Y-2.0441
X3.0315Y-2.1417
X3.7797Y-2.2022
X3.9391Y-2.2021
X4.0313Y-2.0261
X4.0986Y-2.2022
X4.1906Y-2.026
X4.3502Y-2.0261
T2
X3.1609Y-1.7036
X3.2428Y-1.6462
X3.3247Y-1.5889
X3.4066Y-1.5315
X3.4885Y-1.4741
X3.505Y-2.1951
X3.5704Y-1.4168
X3.5869Y-2.1377
X3.6523Y-1.3594
X3.6688Y-2.0804
X3.7343Y-1.3021
X3.7507Y-2.023
X3.8162Y-1.2447
X3.8327Y-1.9656
X3.8981Y-1.1874
X3.9146Y-1.9083
X3.98Y-1.13
X3.9965Y-1.8509
X4.0619Y-1.0726
X4.0784Y-1.7936
X4.1438Y-1.0153
X4.1603Y-1.7362
X4.2422Y-1.6789
X4.3242Y-1.6215
X4.4061Y-1.5641
X4.488Y-1.5068
T4
X1.0Y-2.125
X1.6096Y-3.7924
X1.6096Y-5.2924
X3.1096Y-3.7924
X3.1096Y-5.2924
X3.367Y-1.11
X3.8596Y-3.0424
X3.8596Y-4.5424
X4.467Y-1.76
X4.5039Y-2.0866
T3
G00X0.9258Y-1.4263
M15
G01X0.9258Y-1.4775
M16
G05
G00X1.3668Y-1.4263
M15
G01X1.3668Y-1.4775
M16
G05
G00X1.7458Y-1.4263
M15
G01X1.7458Y-1.4775
M16
G05
G00X2.1868Y-1.4263
M15
G01X2.1868Y-1.4775
M16
G05
G00X2.5663Y-1.4263
M15
G01X2.5663Y-1.4775
M16
G05
G00X3.0072Y-1.4263
M15
G01X3.0072Y-1.4775
M16
G05
T0
M30
