<?xml version="1.0" standalone="no"?>
 <!DOCTYPE svg PUBLIC "-//W3C//DTD SVG 1.1//EN" 
 "http://www.w3.org/Graphics/SVG/1.1/DTD/svg11.dtd"> 
<svg
  xmlns:svg="http://www.w3.org/2000/svg"
  xmlns="http://www.w3.org/2000/svg"
  xmlns:xlink="http://www.w3.org/1999/xlink"
  version="1.1"
  width="29.700220cm" height="21.000720cm" viewBox="0 0 297002200 210007200">
<title>SVG Picture created as SouthPaw-Edge_Cuts.svg date 2023/01/01 23:37:04 </title>
  <desc>Picture generated by PCBNEW </desc>
<g style="fill:#000000; fill-opacity:1.000000;stroke:#000000; stroke-opacity:1.000000;
stroke-linecap:round; stroke-linejoin:round;"
 transform="translate(0 0) scale(1 1)">
</g>
<g style="fill:#000000; fill-opacity:0.0; 
stroke:#000000; stroke-width:0.000000; stroke-opacity:1; 
stroke-linecap:round; stroke-linejoin:round;">
</g>
<g style="fill:#000000; fill-opacity:0.0; 
stroke:#000000; stroke-width:100000.000000; stroke-opacity:1; 
stroke-linecap:round; stroke-linejoin:round;">
<path d="M116500000 155001386
L22242209 155017787
" />
<path d="M22242209.004579 23700009.245396 A2000991.000000 2000991.000000 0.0 0 0 20242209.250376 25702000.999875" />
<path d="M22242209 23700000
L115700000 23700000
" />
<path d="M20242213.000042 153017787.000026 A1999987.000000 1999987.000000 0.0 0 0 22242209.000000 155017786.999980" />
<path d="M118500000 26500000
L118500000 153001386
" />
<path d="M118500000.412476 26500000.010189 A2733334.000000 2733334.000000 0.0 0 0 115699999.989811 23699999.587524" />
<path d="M116500000.000000 155001400.000000 A2000000.000000 2000000.000000 0.0 0 0 118499999.999951 153001386.000000" />
<path d="M20242209 153017787
L20242209 25702001
" />
</g>
<g style="fill:#000000; fill-opacity:0.0; 
stroke:#000000; stroke-width:120000.000000; stroke-opacity:1; 
stroke-linecap:round; stroke-linejoin:round;">
<path d="M33057700 150478100
L29657700 150478100
" />
<path d="M29657700 147478100
L29657700 150478100
" />
<path d="M33057700 150478100
L33057700 147478100
" />
<path d="M29657700 147478100
L33057700 147478100
" />
<path d="M90207700 150478100
L86807700 150478100
" />
<path d="M90207700 150478100
L90207700 147478100
" />
<path d="M86807700 147478100
L90207700 147478100
" />
<path d="M86807700 147478100
L86807700 150478100
" />
<path d="M88316700 34672000
L94050765 30656965
" />
<path d="M92309429 27298356
L94173553 29960601
" />
<path d="M87620336 34549213
L85756212 31886969
" />
<path d="M97018091 36071933
L91284026 40086968
" />
<path d="M91613065 27175569
L85879000 31190604
" />
<path d="M93025362 43445577
L91161238 40783333
" />
<path d="M93721726 43568365
L99455791 39553330
" />
<path d="M97714455 36194720
L99578579 38856965
" />
<path d="M92309428.783322 27298356.151723 A500005.000000 500005.000000 0.0 0 0 91613065.009884 27175569.014116" />
<path d="M87620335.782892 34549213.152007 A499978.000000 499978.000000 0.0 0 0 88316700.054509 34672000.077839" />
<path d="M91284026.078004 40086968.111403 A499998.000000 499998.000000 0.0 0 0 91161237.977757 40783333.015575" />
<path d="M85878999.893655 31190603.848113 A499983.000000 499983.000000 0.0 0 0 85756212.053462 31886968.962563" />
<path d="M99455790.772516 39553329.675122 A500002.000000 500002.000000 0.0 0 0 99578578.742638 38856965.180205" />
<path d="M93025362.003174 43445576.997777 A500001.000000 500001.000000 0.0 0 0 93721725.716066 43568364.594498" />
<path d="M94050764.837595 30656964.768061 A499999.000000 499999.000000 0.0 0 0 94173552.969226 29960601.021548" />
<path d="M97714455.225579 36194719.842045 A500003.000000 500003.000000 0.0 0 0 97018091.076477 36071933.109221" />
<path d="M61632700 150478100
L58232700 150478100
" />
<path d="M58232700 147478100
L58232700 150478100
" />
<path d="M58232700 147478100
L61632700 147478100
" />
<path d="M61632700 150478100
L61632700 147478100
" />
<path d="M33057700 131428100
L33057700 128428100
" />
<path d="M33057700 131428100
L29657700 131428100
" />
<path d="M29657700 128428100
L29657700 131428100
" />
<path d="M29657700 128428100
L33057700 128428100
" />
<path d="M86807700 90328100
L90207700 90328100
" />
<path d="M90207700 93328100
L90207700 90328100
" />
<path d="M90207700 93328100
L86807700 93328100
" />
<path d="M86807700 90328100
L86807700 93328100
" />
<path d="M90207700 131428100
L90207700 128428100
" />
<path d="M86807700 128428100
L90207700 128428100
" />
<path d="M86807700 128428100
L86807700 131428100
" />
<path d="M90207700 131428100
L86807700 131428100
" />
<path d="M86807700 109378100
L86807700 112378100
" />
<path d="M90207700 112378100
L90207700 109378100
" />
<path d="M86807700 109378100
L90207700 109378100
" />
<path d="M90207700 112378100
L86807700 112378100
" />
<path d="M48707700 71278100
L48707700 74278100
" />
<path d="M48707700 71278100
L52107700 71278100
" />
<path d="M52107700 74278100
L52107700 71278100
" />
<path d="M52107700 74278100
L48707700 74278100
" />
<path d="M52107700 93328100
L48707700 93328100
" />
<path d="M48707700 90328100
L48707700 93328100
" />
<path d="M52107700 93328100
L52107700 90328100
" />
<path d="M48707700 90328100
L52107700 90328100
" />
<path d="M33057700 112378100
L29657700 112378100
" />
<path d="M33057700 112378100
L33057700 109378100
" />
<path d="M29657700 109378100
L29657700 112378100
" />
<path d="M29657700 109378100
L33057700 109378100
" />
<path d="M67757700 109378100
L71157700 109378100
" />
<path d="M71157700 112378100
L67757700 112378100
" />
<path d="M71157700 112378100
L71157700 109378100
" />
<path d="M67757700 109378100
L67757700 112378100
" />
<path d="M29657700 90328100
L33057700 90328100
" />
<path d="M33057700 93328100
L33057700 90328100
" />
<path d="M29657700 90328100
L29657700 93328100
" />
<path d="M33057700 93328100
L29657700 93328100
" />
<path d="M109257700 74278100
L109257700 71278100
" />
<path d="M105857700 71278100
L105857700 74278100
" />
<path d="M109257700 74278100
L105857700 74278100
" />
<path d="M105857700 71278100
L109257700 71278100
" />
<path d="M104032700 132728100
L101032700 132728100
" />
<path d="M101032700 136128100
L101032700 132728100
" />
<path d="M101032700 136128100
L104032700 136128100
" />
<path d="M104032700 132728100
L104032700 136128100
" />
<path d="M71157700 93328100
L67757700 93328100
" />
<path d="M67757700 90328100
L67757700 93328100
" />
<path d="M71157700 93328100
L71157700 90328100
" />
<path d="M67757700 90328100
L71157700 90328100
" />
<path d="M67757700 128428100
L71157700 128428100
" />
<path d="M71157700 131428100
L67757700 131428100
" />
<path d="M71157700 131428100
L71157700 128428100
" />
<path d="M67757700 128428100
L67757700 131428100
" />
<path d="M86807700 71278100
L86807700 74278100
" />
<path d="M90207700 74278100
L86807700 74278100
" />
<path d="M90207700 74278100
L90207700 71278100
" />
<path d="M86807700 71278100
L90207700 71278100
" />
<path d="M48707700 128428100
L52107700 128428100
" />
<path d="M52107700 131428100
L48707700 131428100
" />
<path d="M48707700 128428100
L48707700 131428100
" />
<path d="M52107700 131428100
L52107700 128428100
" />
<path d="M104032700 94628100
L101032700 94628100
" />
<path d="M101032700 98028100
L104032700 98028100
" />
<path d="M104032700 94628100
L104032700 98028100
" />
<path d="M101032700 98028100
L101032700 94628100
" />
<path d="M33057700 74278100
L29657700 74278100
" />
<path d="M29657700 71278100
L29657700 74278100
" />
<path d="M33057700 74278100
L33057700 71278100
" />
<path d="M29657700 71278100
L33057700 71278100
" />
<path d="M48707700 109378100
L48707700 112378100
" />
<path d="M52107700 112378100
L52107700 109378100
" />
<path d="M48707700 109378100
L52107700 109378100
" />
<path d="M52107700 112378100
L48707700 112378100
" />
<path d="M67757700 71278100
L67757700 74278100
" />
<path d="M71157700 74278100
L71157700 71278100
" />
<path d="M71157700 74278100
L67757700 74278100
" />
<path d="M67757700 71278100
L71157700 71278100
" />
<g >
</g>
<g >
</g>
<g >
</g>
<g >
</g>
<g >
</g>
<g >
</g>
<g >
</g>
<g >
</g>
<g >
</g>
<g >
</g>
<g >
</g>
<g >
</g>
<g >
</g>
<g >
</g>
<g >
</g>
<g >
</g>
<g >
</g>
<g >
</g>
<g >
</g>
<g >
</g>
<g >
</g>
<g >
</g>
<g >
</g>
<g >
</g>
<g >
</g>
<g >
</g>
<g >
</g>
<g >
</g>
<g >
</g>
<g >
</g>
<g >
</g>
<g >
</g>
<g >
</g>
<g >
</g>
<g >
</g>
<g >
</g>
<g >
</g>
<g >
</g>
<g >
</g>
<g >
</g>
<g >
</g>
<g >
</g>
<g >
</g>
<g >
</g>
<g >
</g>
<g >
</g>
<g >
</g>
<g >
</g>
<g >
</g>
<g >
</g>
<g >
</g>
<g >
</g>
<g >
</g>
<g >
</g>
<g >
</g>
<g >
</g>
<g >
</g>
<g >
</g>
<g >
</g>
<g >
</g>
<g >
</g>
<g >
</g>
<g >
</g>
<g >
</g>
<g >
</g>
<g >
</g>
<g >
</g>
<g >
</g>
<g >
</g>
<g >
</g>
<g >
</g>
<g >
</g>
<g >
</g>
</g> 
</svg>
